<?xml version="1.0" encoding="utf-8"?>
<!-- Generator: Adobe Illustrator 27.1.1, SVG Export Plug-In . SVG Version: 6.00 Build 0)  -->
<svg version="1.1" id="Camada_1" xmlns="http://www.w3.org/2000/svg" xmlns:xlink="http://www.w3.org/1999/xlink" x="0px" y="0px"
	 viewBox="0 0 263.9 275.7" style="enable-background:new 0 0 263.9 275.7;" xml:space="preserve">
<style type="text/css">
	.st0{fill:#27B8D4;}
	.st1{fill:#FFFFFF;}
	.st2{fill-rule:evenodd;clip-rule:evenodd;fill:#094783;}
</style>
<path class="st0" d="M59.7,0h175.7c15.7,0,28.4,12.7,28.4,28.4V216c0,33-26.8,59.7-59.7,59.7H59.7C26.8,275.7,0,249,0,216V59.7
	C0,26.8,26.8,0,59.7,0z"/>
<g>
	<g>
		<path class="st1" d="M70.8,188.4l5.5,15.5l5.4-15.5h5.8v21.3h-4.4v-5.8l0.4-10.1l-5.8,15.9h-3L69,193.8l0.4,10.1v5.8h-4.4v-21.3
			H70.8z"/>
		<path class="st1" d="M100.2,209.7c-0.2-0.4-0.3-0.9-0.4-1.4c-1,1.1-2.4,1.7-4,1.7c-1.6,0-2.8-0.4-3.9-1.4s-1.5-2-1.5-3.4
			c0-1.7,0.6-3,1.9-3.9s3-1.4,5.4-1.4h1.9v-0.9c0-0.7-0.2-1.3-0.6-1.8s-1-0.7-1.8-0.7c-0.7,0-1.3,0.2-1.7,0.5S95,198,95,198.6h-4.2
			c0-0.9,0.3-1.8,0.8-2.6s1.4-1.4,2.4-1.8s2.2-0.7,3.5-0.7c1.9,0,3.5,0.5,4.7,1.5s1.7,2.4,1.7,4.1v6.9c0,1.5,0.2,2.6,0.6,3.4v0.2
			L100.2,209.7L100.2,209.7z M96.7,206.7c0.6,0,1.2-0.1,1.7-0.4s0.9-0.6,1.2-1.1v-2.7h-1.6c-2.1,0-3.2,0.7-3.4,2.2v0.2
			c0,0.5,0.2,1,0.5,1.3S96.1,206.7,96.7,206.7z"/>
		<path class="st1" d="M116,197.8c-0.6-0.1-1.1-0.1-1.5-0.1c-1.6,0-2.7,0.5-3.2,1.6v10.4h-4.2v-15.9h4l0.1,1.9
			c0.8-1.5,2-2.2,3.5-2.2c0.5,0,0.9,0.1,1.3,0.2L116,197.8L116,197.8z"/>
		<path class="st1" d="M123.8,203.3l-1.5,1.5v4.8h-4.2v-22.5h4.2v12.5l0.8-1.1l4.1-4.8h5.1l-5.7,6.6l6.2,9.2h-4.9L123.8,203.3
			L123.8,203.3z"/>
		<path class="st1" d="M141.4,210c-2.3,0-4.2-0.7-5.7-2.1s-2.2-3.3-2.2-5.7v-0.4c0-1.6,0.3-3,0.9-4.3s1.5-2.2,2.6-2.9s2.4-1,3.9-1
			c2.2,0,3.9,0.7,5.1,2.1s1.9,3.3,1.9,5.8v1.7h-10.1c0.1,1,0.6,1.9,1.2,2.5s1.6,0.9,2.6,0.9c1.6,0,2.9-0.6,3.8-1.8l2.1,2.3
			c-0.6,0.9-1.5,1.6-2.6,2.1S142.7,210,141.4,210L141.4,210z M140.9,196.9c-0.8,0-1.5,0.3-2,0.9s-0.9,1.4-1,2.4h5.9v-0.3
			c0-0.9-0.3-1.7-0.8-2.2S141.8,196.9,140.9,196.9L140.9,196.9z"/>
		<path class="st1" d="M155.4,189.9v3.9h2.7v3.1h-2.7v7.9c0,0.6,0.1,1,0.3,1.3s0.6,0.4,1.3,0.4c0.5,0,0.9,0,1.2-0.1v3.2
			c-0.8,0.2-1.7,0.4-2.6,0.4c-3,0-4.5-1.5-4.5-4.5v-8.5h-2.3v-3.1h2.3v-3.9L155.4,189.9L155.4,189.9z"/>
		<path class="st1" d="M160.4,189.7c0-0.6,0.2-1.2,0.6-1.6s1-0.6,1.7-0.6s1.3,0.2,1.7,0.6s0.6,0.9,0.6,1.6s-0.2,1.2-0.6,1.6
			s-1,0.6-1.7,0.6s-1.3-0.2-1.7-0.6S160.4,190.4,160.4,189.7L160.4,189.7z M164.9,209.7h-4.2v-15.9h4.2V209.7z"/>
		<path class="st1" d="M172.3,193.8l0.1,1.8c1.1-1.4,2.6-2.1,4.6-2.1c1.7,0,2.9,0.5,3.8,1.5s1.2,2.5,1.3,4.4v10.2h-4.2v-10.1
			c0-0.9-0.2-1.6-0.6-2s-1-0.6-1.9-0.6c-1.2,0-2.1,0.5-2.7,1.5v11.2h-4.2v-15.9L172.3,193.8L172.3,193.8z"/>
		<path class="st1" d="M184.6,201.6c0-2.4,0.6-4.4,1.7-5.9s2.7-2.2,4.7-2.2c1.7,0,3.1,0.6,4.1,1.8l0.2-1.5h3.8v15.3
			c0,1.4-0.3,2.6-0.9,3.6s-1.5,1.8-2.7,2.3s-2.5,0.8-4,0.8c-1.2,0-2.3-0.2-3.4-0.7s-1.9-1.1-2.5-1.8l1.9-2.6
			c1.1,1.2,2.3,1.8,3.8,1.8c1.1,0,2-0.3,2.6-0.9s0.9-1.4,0.9-2.6v-0.9c-1,1.1-2.3,1.7-3.9,1.7c-1.9,0-3.4-0.7-4.6-2.2
			s-1.8-3.5-1.8-5.9L184.6,201.6L184.6,201.6z M188.8,201.9c0,1.4,0.3,2.6,0.9,3.4c0.6,0.8,1.4,1.2,2.4,1.2c1.3,0,2.2-0.5,2.8-1.4
			v-6.7c-0.6-1-1.5-1.4-2.7-1.4c-1,0-1.8,0.4-2.4,1.2S188.8,200.3,188.8,201.9L188.8,201.9z"/>
	</g>
</g>
<g>
	<polygon class="st2" points="92.7,138.9 94.7,138.9 94.7,140.9 92.7,140.9 92.7,138.9 	"/>
	<polygon class="st2" points="98.6,138.9 100.5,138.9 100.5,140.9 98.6,140.9 98.6,138.9 	"/>
	<polygon class="st2" points="104.4,138.9 108.3,138.9 108.3,140.9 104.4,140.9 104.4,138.9 	"/>
	<polygon class="st2" points="159.1,138.9 172.7,138.9 172.7,140.9 159.1,140.9 159.1,138.9 	"/>
	<path class="st2" d="M179.2,132.3V77.8l-0.1-0.8l-0.2-0.8l-0.2-0.8l-0.3-0.7l-0.4-0.7l-0.4-0.7l-0.5-0.6l-0.6-0.6l-0.6-0.5
		l-0.6-0.4l-0.7-0.4l-0.7-0.3l-0.8-0.3l-0.8-0.2l-0.8-0.1h-5.3v-0.6l-0.1-1.2L166,67l-0.2-1.1l-0.4-1.7l-0.7-2.2l-0.9-2.1l-1.1-2
		l-1.2-1.8l-1.4-1.7l-1.5-1.6l-1.7-1.4l-1.8-1.2l-1.9-1.1l-2.1-0.9l-2.1-0.7l-1.7-0.4l-1.1-0.2L145,47l-1.2-0.1h-1.2l-1.2,0.1
		l-1.1,0.1l-1.1,0.2l-1.7,0.4l-2.2,0.7l-2.1,0.9l-1.9,1.1l-1.8,1.2l-1.7,1.4l-1.6,1.6l-1.4,1.7l-1.2,1.8l-1.1,2l-0.9,2.1l-0.7,2.2
		l-0.4,1.7l-0.2,1.1l-0.1,1.2l-0.1,1.2v0.6H92.1L91.3,70l-0.8,0.2l-0.8,0.3L89,70.8l-0.7,0.4l-0.7,0.4L87,72.1l-0.6,0.6L86,73.3
		l-0.4,0.7l-0.4,0.7l-0.3,0.7l-0.2,0.8l-0.2,0.8l-0.1,0.8v54.6h-3.3v8.6l0.1,0.8l0.2,0.8l0.2,0.8l0.3,0.7l0.4,0.7l0.4,0.7l0.5,0.6
		l0.6,0.6l0.6,0.5l0.7,0.4l0.7,0.4l0.7,0.3l0.8,0.2l0.8,0.2l0.8,0.1h0.4l85.1,0h0.4l0.8-0.1l0.8-0.2l0.8-0.2l0.7-0.3l0.7-0.4
		l0.6-0.4l0.6-0.5l0.6-0.6l0.5-0.6l0.4-0.7l0.4-0.7l0.3-0.7l0.2-0.8l0.2-0.8l0.1-0.8v-0.4l0-8.2L179.2,132.3L179.2,132.3z M171,73.2
		l0.5,0l1,0.2l0.9,0.4l0.8,0.5l0.7,0.7l0.5,0.8l0.4,0.9l0.2,1v0.5l0,54.1h-3.3V79.5l-0.2-0.6l-0.2-0.6l-0.4-0.5l-0.4-0.4l-0.5-0.3
		l-0.6-0.2l-0.6-0.2h-0.3l-4.2,0l0.2-0.8l0.4-1.7l0.1-0.8L171,73.2L171,73.2z M124.5,63.9l17.4,7.2l6,17.9l-0.6,0.1l-1.1,0.2
		l-1.2,0.2l-1.2,0.1h-0.6l-1,0l-2-0.2l-1.9-0.4l-1.8-0.6l-1.8-0.8l-1.7-0.9l-1.6-1.1l-1.5-1.2l-1.3-1.3l-1.2-1.5l-1.1-1.6l-0.9-1.7
		l-0.8-1.8l-0.6-1.9l-0.4-1.9l-0.2-2v-1v-0.8l0.1-1.5l0.2-1.5l0.4-1.5L124.5,63.9L124.5,63.9L124.5,63.9z M151,88.1l-5.9-17.6
		l13.1-13.1l0.5,0.7l1,1.4l0.9,1.5l0.7,1.5l0.6,1.6l0.5,1.7l0.3,1.7l0.2,1.8V70v0.8l-0.1,1.5l-0.2,1.5l-0.3,1.4l-0.4,1.4l-0.5,1.3
		l-0.6,1.3l-0.7,1.2l-0.8,1.2l-0.9,1.1l-0.9,1.1l-1,1l-1.1,0.9l-1.1,0.8l-1.2,0.8l-1.3,0.6L151,88.1L151,88.1L151,88.1z M143.2,50.3
		h0.9l1.8,0.2l1.7,0.3l1.7,0.5l1.6,0.6l1.5,0.7l1.5,0.9l1.4,1l0.6,0.5l-13,13.1l-17.1-7.1l0.3-0.6l0.7-1.1l0.8-1.1l0.8-1l0.9-1
		l1-0.9l1-0.8l1.1-0.8l1.1-0.7l1.2-0.6l1.2-0.5l1.2-0.5l1.3-0.4l1.4-0.3l1.4-0.2l1.4-0.1L143.2,50.3L143.2,50.3z M87.6,78.2l0-0.5
		l0.2-1l0.4-0.9l0.5-0.8l0.7-0.7l0.8-0.5l0.9-0.4l1-0.2l0.5,0h28.1l0.1,0.8l0.3,1.7l0.2,0.8H93.8l-0.6,0.2l-0.6,0.2L92,77.3
		l-0.4,0.4l-0.3,0.5L91,78.8l-0.2,0.6v0.3l0,52.5h-3.3L87.6,78.2L87.6,78.2L87.6,78.2z M179.2,140.5v0.5l-0.2,1l-0.4,0.9l-0.5,0.8
		l-0.7,0.7l-0.8,0.5l-0.9,0.4l-1,0.2h-0.5l-85.1,0h-0.5l-1-0.2l-0.9-0.4l-0.8-0.5l-0.7-0.7l-0.5-0.8l-0.4-0.9l-0.2-1v-0.5l0-4.9H118
		l0.4,0.4l0.9,0.7l1,0.6l1,0.5l1.1,0.4l1.1,0.3l1.2,0.2l1.2,0.1h0.6l10.4,0h0.6l1.2-0.1l1.1-0.2l1.1-0.3l1.1-0.4l1-0.5l1-0.6
		l0.9-0.7l0.4-0.4h20.6v-3.3h-21.9l-0.5,0.5l-0.4,0.3l-0.7,0.6l-0.8,0.5l-0.8,0.4l-0.9,0.4l-0.9,0.3l-0.9,0.2l-0.9,0.1H137l-10.4,0
		h-0.5l-0.9-0.1l-0.9-0.2l-0.9-0.3l-0.9-0.4l-0.8-0.4l-0.8-0.5l-0.7-0.6l-0.3-0.3l-0.5-0.5H94.2V79.8h28.4l0.3,0.7l0.8,1.4l0.9,1.3
		l1,1.3l1,1.2l1.1,1.1l1.2,1.1l1.3,0.9l1.4,0.9l1.4,0.8l1.5,0.7l1.5,0.6l1.6,0.5l1.6,0.3l1.6,0.2l1.7,0.1h0.9h0.9l1.7-0.1l1.6-0.2
		l1.6-0.3l1.6-0.5l1.5-0.6l1.5-0.7l1.4-0.8l1.4-0.9l1.3-0.9l1.2-1.1l1.1-1.1l1-1.2l1-1.3l0.9-1.3l0.8-1.4l0.4-0.7h5.5v55.8h9.8
		L179.2,140.5L179.2,140.5L179.2,140.5z"/>
	<path class="st2" d="M162,115.7h-0.4l-0.7,0.1l-0.7,0.2l-0.6,0.3l-0.3,0.2l-5.7-4.4l0.1-0.4l0.1-0.8v-0.4l0-0.5l-0.2-1l-0.4-0.9
		l-0.5-0.8l-0.7-0.7l-0.8-0.6l-0.9-0.4l-0.9-0.2H149h-0.5l-0.9,0.2l-0.9,0.4l-0.8,0.6l-0.7,0.7l-0.5,0.8l-0.4,0.9l-0.2,1v0.5v0.4
		l0.1,0.8l0.1,0.4l-9.1,7.5l-0.3-0.2l-0.6-0.3l-0.6-0.2l-0.7-0.1h-0.8l-0.8,0.2l-0.7,0.3l-0.7,0.4l-0.3,0.2l-7-4.8l0.1-0.3l0.1-0.6
		v-0.8l-0.2-1l-0.4-0.9l-0.5-0.8l-0.7-0.7l-0.8-0.6l-0.9-0.4l-0.9-0.2h-0.5h-0.5l-0.9,0.2l-0.9,0.4l-0.8,0.6l-0.7,0.7l-0.5,0.8
		l-0.4,0.9l-0.2,1l0,0.5v0.3l0.1,0.6l0.1,0.3l-7,4.8l-0.3-0.2l-0.7-0.4l-0.7-0.2l-0.8-0.1h-0.4H103l-0.9,0.2l-0.9,0.4l-0.8,0.6
		l-0.7,0.7l-0.5,0.8l-0.4,0.9l-0.2,1l0,0.5l0,0.5l0.2,1l0.4,0.9l0.5,0.8l0.7,0.7l0.8,0.5l0.9,0.4l0.9,0.2l0.5,0l0.5,0l0.9-0.2
		l0.9-0.4l0.8-0.5l0.7-0.7l0.5-0.8l0.4-0.9l0.2-1v-0.5l0-0.3l-0.1-0.6l-0.1-0.3l7-4.8l0.3,0.2l0.7,0.4l0.7,0.3l0.8,0.2h0.4h0.4
		l0.8-0.2l0.7-0.3l0.7-0.4l0.3-0.2l7,4.8l-0.1,0.3l-0.1,0.6v0.3l0,0.5l0.2,1l0.4,0.9l0.5,0.8l0.7,0.7l0.8,0.5l0.9,0.4l0.9,0.2l0.5,0
		l0.5,0l0.9-0.2l0.9-0.4l0.8-0.5l0.7-0.7l0.5-0.8l0.4-0.9l0.2-1v-0.5v-0.4l-0.1-0.8l-0.1-0.4l9.1-7.5l0.3,0.2l0.6,0.3l0.6,0.2
		l0.7,0.1h0.4h0.4l0.7-0.1l0.7-0.2l0.6-0.3l0.3-0.2l5.7,4.4l-0.1,0.4l-0.1,0.8v0.4l0,0.5l0.2,1l0.4,0.9l0.5,0.8l0.7,0.7l0.8,0.5
		l0.9,0.4l0.9,0.2h0.5h0.5l0.9-0.2l0.9-0.4l0.8-0.5l0.7-0.7l0.5-0.8l0.4-0.9l0.2-1v-0.5v-0.5l-0.2-1l-0.4-0.9l-0.5-0.8l-0.7-0.7
		l-0.8-0.5l-0.9-0.4l-0.9-0.2L162,115.7L162,115.7z M103.5,125.8h-0.2l-0.3-0.1l-0.3-0.1l-0.3-0.2l-0.2-0.2l-0.2-0.3l-0.1-0.3
		l-0.1-0.3v-0.3l0.1-0.3l0.1-0.3l0.2-0.3l0.2-0.2l0.3-0.2l0.3-0.1l0.3-0.1h0.2h0.2l0.3,0.1l0.3,0.1l0.3,0.2l0.2,0.2l0.2,0.3l0.1,0.3
		l0.1,0.3v0.2v0.2l-0.1,0.3l-0.1,0.3l-0.2,0.3l-0.2,0.2l-0.3,0.2l-0.3,0.1l-0.3,0.1L103.5,125.8L103.5,125.8z M118.1,115.7h-0.2
		l-0.3-0.1l-0.3-0.1l-0.3-0.2l-0.2-0.2l-0.2-0.3l-0.1-0.3l-0.1-0.3v-0.3l0.1-0.3l0.1-0.3l0.2-0.3l0.2-0.2l0.3-0.2l0.3-0.1l0.3-0.1
		h0.2h0.2l0.3,0.1l0.3,0.1l0.2,0.2l0.2,0.2l0.2,0.3l0.1,0.3l0.1,0.3v0.2v0.2l-0.1,0.3l-0.1,0.3l-0.2,0.3l-0.2,0.2l-0.2,0.2l-0.3,0.1
		l-0.3,0.1L118.1,115.7L118.1,115.7z M132.7,125.8h-0.2l-0.3-0.1l-0.3-0.1l-0.3-0.2l-0.2-0.2l-0.2-0.3l-0.1-0.3l-0.1-0.3v-0.3
		l0.1-0.3l0.1-0.3l0.2-0.3l0.2-0.2l0.3-0.2l0.3-0.1l0.3-0.1h0.2h0.2l0.3,0.1l0.3,0.1l0.2,0.2l0.2,0.2l0.2,0.3l0.1,0.3l0.1,0.3v0.2
		v0.2l-0.1,0.3l-0.1,0.3l-0.2,0.3l-0.2,0.2l-0.2,0.2l-0.3,0.1l-0.3,0.1L132.7,125.8L132.7,125.8z M149,112.4h-0.2l-0.3-0.1l-0.3-0.1
		L148,112l-0.2-0.2l-0.2-0.3l-0.1-0.3l-0.1-0.3v-0.2v-0.2l0.1-0.3l0.1-0.3l0.2-0.3l0.2-0.2l0.2-0.2l0.3-0.1l0.3-0.1h0.3l0.3,0.1
		l0.3,0.1l0.3,0.2l0.2,0.2l0.2,0.3l0.1,0.3l0.1,0.3v0.4l-0.1,0.3l-0.1,0.3l-0.2,0.3L150,112l-0.3,0.2l-0.3,0.1l-0.3,0.1H149z
		 M162,122.4h-0.2l-0.3-0.1l-0.3-0.1l-0.3-0.2l-0.2-0.2l-0.2-0.3l-0.1-0.3l-0.1-0.3v-0.3l0.1-0.3l0.1-0.3l0.2-0.3l0.2-0.2l0.3-0.2
		l0.3-0.1l0.3-0.1h0.3l0.3,0.1l0.3,0.1l0.2,0.2l0.2,0.2l0.2,0.3l0.1,0.3l0.1,0.3v0.2v0.2l-0.1,0.3l-0.1,0.3l-0.2,0.3L163,122
		l-0.2,0.2l-0.3,0.1l-0.3,0.1L162,122.4L162,122.4z"/>
	<path class="st2" d="M123.9,82.2H98.6v23.5h25.4V82.2L123.9,82.2z M120.8,102.3h-19V85.6h19V102.3L120.8,102.3z"/>
	<polygon class="st2" points="104.4,90 118.1,90 118.1,92 104.4,92 104.4,90 	"/>
	<polygon class="st2" points="104.4,95.9 118.1,95.9 118.1,99.8 104.4,99.8 104.4,95.9 	"/>
	<polygon class="st2" points="127.8,99.8 129.8,99.8 129.8,101.8 127.8,101.8 127.8,99.8 	"/>
	<polygon class="st2" points="133.7,99.8 166.9,99.8 166.9,101.8 133.7,101.8 133.7,99.8 	"/>
</g>
</svg>
