<svg xmlns="http://www.w3.org/2000/svg" width="40.296" height="40.05" viewBox="0 0 40.296 40.05">
  <g id="Grupo_1070" data-name="Grupo 1070" transform="translate(-656.441 -5280.728)">
    <path id="Caminho_5518" data-name="Caminho 5518" d="M123.3,40.051a20.148,20.148,0,1,0-6.3,0" transform="translate(556.441 5280.727)" fill="#0080ff"/>
    <path id="Caminho_5524" data-name="Caminho 5524" d="M128.213,26.771a4.854,4.854,0,0,1-1.344-.151,4.408,4.408,0,0,1-1.492-.711,6.8,6.8,0,0,1-.593-.492,9.549,9.549,0,0,1-1-1.1,21.547,21.547,0,0,1-1.251-1.77c-.481-.74-.932-1.5-1.38-2.258-.3-.5-.6-1-.9-1.5q-.424-.716-.861-1.422c-.008-.013-.014-.025-.022-.036-.019-.027-.038-.024-.052,0l-.132.231-1.145,2.019c-.27.477-.539.956-.812,1.432q-.524.912-1.1,1.8a19.53,19.53,0,0,1-1.172,1.625c-.2.244-.405.478-.624.7a7.8,7.8,0,0,1-.651.606,4.32,4.32,0,0,1-1.979.949,4.37,4.37,0,0,1-.817.079c-.149,0-.3,0-.446,0a4.739,4.739,0,0,1-1.551-.322,4.18,4.18,0,0,1-1.413-.932,5.031,5.031,0,0,1-1.077-1.625A7.343,7.343,0,0,1,105.9,22a10.448,10.448,0,0,1-.088-1.049c-.006-.178-.014-.354-.008-.531.006-.233.013-.468.025-.7.01-.194.023-.387.04-.58q.031-.342.074-.681c.064-.508.155-1.01.266-1.509.1-.429.211-.854.343-1.274a14.852,14.852,0,0,1,.661-1.727,12.485,12.485,0,0,1,1.056-1.871,9.863,9.863,0,0,1,.769-.985,8.286,8.286,0,0,1,.643-.653,6.358,6.358,0,0,1,2.357-1.408,5.314,5.314,0,0,1,1.807-.241,5.739,5.739,0,0,1,1.481.254,6.087,6.087,0,0,1,1.509.727,9,9,0,0,1,1,.772c.262.23.511.474.752.725.376.4.729.812,1.067,1.239l.021.027c.024.032.043.027.066,0l.2-.265c.29-.378.59-.749.913-1.1.15-.164.3-.331.458-.486a8.659,8.659,0,0,1,1.276-1.048,5.167,5.167,0,0,1,1.612-.719,4.591,4.591,0,0,1,.727-.113c.121-.008.24-.013.36-.011a4.953,4.953,0,0,1,1.285.186,6.018,6.018,0,0,1,2.066,1.065q.273.214.526.451c.077.073.155.143.229.219a9.661,9.661,0,0,1,.973,1.162,11.564,11.564,0,0,1,.8,1.3,13.169,13.169,0,0,1,.723,1.617,15.172,15.172,0,0,1,.567,1.9q.171.743.271,1.5c.047.353.084.708.107,1.064.015.233.023.468.035.7s.011.451.009.675c0,.292-.019.582-.043.872a9.411,9.411,0,0,1-.192,1.286,6.245,6.245,0,0,1-.814,2.052,3.991,3.991,0,0,1-2.846,1.878,3.917,3.917,0,0,1-.772.051m2.064-6.2c0-.222,0-.445-.011-.667-.011-.2-.022-.393-.035-.59-.019-.3-.052-.608-.093-.911a15.359,15.359,0,0,0-.412-2.039,12.008,12.008,0,0,0-.7-1.912,8.433,8.433,0,0,0-.969-1.6,5.152,5.152,0,0,0-1.115-1.082,3.337,3.337,0,0,0-1.618-.628,2.668,2.668,0,0,0-.851.051,3.073,3.073,0,0,0-1.165.56,5.357,5.357,0,0,0-.739.662c-.156.171-.311.343-.457.522a17.045,17.045,0,0,0-1.022,1.417.105.105,0,0,0,0,.138q.292.437.579.88c.22.342.435.684.645,1.032.607,1.008,1.2,2.024,1.823,3.023.334.535.67,1.071,1.014,1.6a18.5,18.5,0,0,0,1.277,1.791,4.059,4.059,0,0,0,.633.625,1.818,1.818,0,0,0,.835.375,2.284,2.284,0,0,0,.665.01,1.61,1.61,0,0,0,.937-.441,2.1,2.1,0,0,0,.474-.727,4.783,4.783,0,0,0,.307-1.581c.009-.169,0-.337,0-.506m-21.526.014c0,.157,0,.313.01.47a6.634,6.634,0,0,0,.075.689,3.539,3.539,0,0,0,.376,1.124,2.033,2.033,0,0,0,.382.5,1.706,1.706,0,0,0,1.053.467,2.124,2.124,0,0,0,1.416-.36,4.124,4.124,0,0,0,.715-.635c.186-.2.361-.412.53-.629.368-.475.708-.968,1.042-1.467.428-.64.839-1.293,1.255-1.942s.823-1.29,1.238-1.934q.489-.755.981-1.508c.034-.052.067-.106.1-.158a.073.073,0,0,0,0-.095l-.043-.063c-.183-.256-.368-.51-.558-.76-.273-.355-.558-.7-.866-1.028a6.692,6.692,0,0,0-.942-.844,3.32,3.32,0,0,0-1.806-.667,2.439,2.439,0,0,0-.992.153,3.5,3.5,0,0,0-1.134.721,6.039,6.039,0,0,0-.916,1.084,10.312,10.312,0,0,0-1.161,2.391,13.6,13.6,0,0,0-.513,1.944,14.481,14.481,0,0,0-.224,1.826,6.3,6.3,0,0,0-.019.719" transform="translate(557.247 5281.947)" fill="#fff"/>
  </g>
</svg>
