<?xml version="1.0" encoding="UTF-8"?>
<svg id="Camada_1" data-name="Camada 1" xmlns="http://www.w3.org/2000/svg" viewBox="0 0 263.86 275.73">
  <defs>
    <style>
      .cls-1 {
        fill: #fff;
      }

      .cls-2 {
        fill: #094783;
      }

      .cls-3 {
        fill: #27b8d4;
      }
    </style>
  </defs>
  <g>
    <path class="cls-3" d="m59.74,0h175.69c15.69,0,28.43,12.74,28.43,28.43v187.56c0,32.97-26.77,59.74-59.74,59.74H59.74c-32.97,0-59.74-26.77-59.74-59.74V59.74C0,26.77,26.77,0,59.74,0Z"/>
    <g>
      <path class="cls-1" d="m73.65,174.17h-6.16l-1.17,3.52h-3.74l6.35-17.06h3.26l6.39,17.06h-3.74l-1.18-3.52Zm-5.21-2.85h4.27l-2.14-6.39-2.12,6.39Z"/>
      <path class="cls-1" d="m83.8,161.88v3.12h2.17v2.48h-2.17v6.33c0,.47.09.8.27,1.01s.52.3,1.03.3c.38,0,.71-.03,1-.08v2.57c-.66.2-1.35.3-2.05.3-2.38,0-3.59-1.2-3.63-3.6v-6.83h-1.85v-2.48h1.85v-3.12h3.39Z"/>
      <path class="cls-1" d="m93.69,177.92c-1.86,0-3.37-.57-4.54-1.71s-1.75-2.66-1.75-4.56v-.33c0-1.27.25-2.41.74-3.42s1.19-1.78,2.09-2.32,1.93-.81,3.09-.81c1.73,0,3.1.55,4.1,1.64s1.49,2.64,1.49,4.65v1.38h-8.07c.11.83.44,1.49.99,1.99s1.25.75,2.09.75c1.3,0,2.32-.47,3.06-1.42l1.66,1.86c-.51.72-1.2,1.28-2.06,1.68s-1.83.6-2.88.6Zm-.39-10.42c-.67,0-1.22.23-1.63.68-.42.46-.69,1.11-.8,1.95h4.71v-.27c-.02-.75-.22-1.34-.61-1.75-.39-.41-.95-.62-1.66-.62Z"/>
      <path class="cls-1" d="m103.94,165l.11,1.46c.91-1.13,2.12-1.7,3.64-1.7,1.34,0,2.34.39,3,1.18s.99,1.97,1.01,3.54v8.19h-3.39v-8.11c0-.72-.16-1.24-.47-1.56s-.83-.49-1.56-.49c-.95,0-1.67.41-2.14,1.22v8.94h-3.39v-12.68h3.19Z"/>
      <path class="cls-1" d="m113.74,171.25c0-1.98.44-3.55,1.33-4.72s2.1-1.76,3.64-1.76c1.23,0,2.25.46,3.06,1.38v-6.47h3.4v18h-3.06l-.16-1.35c-.84,1.05-1.93,1.58-3.26,1.58-1.49,0-2.69-.59-3.59-1.76s-1.35-2.81-1.35-4.9Zm3.39.25c0,1.19.21,2.1.62,2.73s1.02.95,1.8.95c1.05,0,1.79-.44,2.21-1.33v-5.01c-.42-.88-1.15-1.33-2.19-1.33-1.63,0-2.45,1.33-2.45,3.98Z"/>
      <path class="cls-1" d="m127.77,161.72c0-.51.17-.93.51-1.25s.8-.49,1.39-.49,1.04.16,1.38.49.52.75.52,1.25-.17.94-.52,1.27-.81.49-1.38.49-1.03-.16-1.38-.49-.52-.75-.52-1.27Zm3.6,15.96h-3.4v-12.68h3.4v12.68Z"/>
      <path class="cls-1" d="m137.33,165l.11,1.42c.9-1.1,2.11-1.65,3.64-1.65,1.63,0,2.75.64,3.36,1.93.89-1.29,2.16-1.93,3.81-1.93,1.38,0,2.4.4,3.07,1.2s1.01,2.01,1.01,3.62v8.1h-3.4v-8.09c0-.72-.14-1.24-.42-1.58s-.78-.5-1.49-.5c-1.02,0-1.72.48-2.11,1.45v8.71s-3.38,0-3.38,0v-8.07c0-.73-.14-1.27-.43-1.59s-.78-.49-1.48-.49c-.96,0-1.66.4-2.09,1.2v8.96h-3.39v-12.68h3.18Z"/>
      <path class="cls-1" d="m160.77,177.92c-1.86,0-3.37-.57-4.54-1.71s-1.75-2.66-1.75-4.56v-.33c0-1.27.25-2.41.74-3.42s1.19-1.78,2.09-2.32,1.93-.81,3.09-.81c1.73,0,3.1.55,4.1,1.64s1.49,2.64,1.49,4.65v1.38h-8.07c.11.83.44,1.49.99,1.99s1.25.75,2.09.75c1.3,0,2.32-.47,3.06-1.42l1.66,1.86c-.51.72-1.2,1.28-2.06,1.68s-1.83.6-2.88.6Zm-.39-10.42c-.67,0-1.22.23-1.63.68-.42.46-.69,1.11-.8,1.95h4.71v-.27c-.02-.75-.22-1.34-.61-1.75-.39-.41-.95-.62-1.66-.62Z"/>
      <path class="cls-1" d="m171.02,165l.11,1.46c.91-1.13,2.12-1.7,3.64-1.7,1.34,0,2.34.39,3,1.18s.99,1.97,1.01,3.54v8.19h-3.39v-8.11c0-.72-.16-1.24-.47-1.56s-.83-.49-1.56-.49c-.95,0-1.67.41-2.14,1.22v8.94h-3.39v-12.68h3.19Z"/>
      <path class="cls-1" d="m185.4,161.88v3.12h2.17v2.48h-2.17v6.33c0,.47.09.8.27,1.01s.52.3,1.03.3c.38,0,.71-.03,1-.08v2.57c-.66.2-1.35.3-2.05.3-2.38,0-3.59-1.2-3.63-3.6v-6.83h-1.85v-2.48h1.85v-3.12h3.39Z"/>
      <path class="cls-1" d="m188.57,171.22c0-1.26.24-2.38.73-3.36s1.18-1.75,2.09-2.29,1.97-.81,3.17-.81c1.71,0,3.11.52,4.19,1.57s1.69,2.47,1.81,4.27l.02.87c0,1.95-.54,3.51-1.63,4.68s-2.54,1.76-4.37,1.76-3.29-.59-4.38-1.76-1.63-2.77-1.63-4.78v-.15Zm3.39.24c0,1.21.23,2.13.68,2.76s1.1.96,1.95.96,1.46-.31,1.92-.94.69-1.64.69-3.02c0-1.18-.23-2.1-.69-2.75s-1.11-.97-1.95-.97-1.47.32-1.92.97-.68,1.65-.68,3Z"/>
      <path class="cls-1" d="m61.95,200.02c0-1.26.24-2.38.73-3.36s1.18-1.75,2.09-2.29,1.97-.81,3.17-.81c1.71,0,3.11.52,4.19,1.57s1.69,2.47,1.81,4.27l.02.87c0,1.95-.54,3.51-1.63,4.68s-2.54,1.76-4.37,1.76-3.29-.59-4.38-1.76-1.63-2.77-1.63-4.78v-.15Zm3.39.24c0,1.21.23,2.13.68,2.76s1.1.96,1.95.96,1.46-.31,1.92-.94.69-1.64.69-3.02c0-1.18-.23-2.1-.69-2.75s-1.11-.97-1.95-.97-1.47.32-1.92.97-.68,1.65-.68,3Z"/>
      <path class="cls-1" d="m75.52,200.05c0-1.98.44-3.55,1.33-4.72s2.1-1.76,3.64-1.76c1.23,0,2.25.46,3.06,1.38v-6.47h3.4v18h-3.06l-.16-1.35c-.84,1.05-1.93,1.58-3.26,1.58-1.49,0-2.69-.59-3.59-1.76s-1.35-2.81-1.35-4.9Zm3.39.25c0,1.19.21,2.1.62,2.73s1.02.95,1.8.95c1.05,0,1.79-.44,2.21-1.33v-5.01c-.42-.88-1.15-1.33-2.19-1.33-1.63,0-2.45,1.33-2.45,3.98Z"/>
      <path class="cls-1" d="m89.04,200.02c0-1.26.24-2.38.73-3.36s1.18-1.75,2.09-2.29,1.97-.81,3.17-.81c1.71,0,3.11.52,4.19,1.57s1.69,2.47,1.81,4.27l.02.87c0,1.95-.54,3.51-1.63,4.68s-2.54,1.76-4.37,1.76-3.29-.59-4.38-1.76-1.63-2.77-1.63-4.78v-.15Zm3.39.24c0,1.21.23,2.13.68,2.76s1.1.96,1.95.96,1.46-.31,1.92-.94.69-1.64.69-3.02c0-1.18-.23-2.1-.69-2.75s-1.11-.97-1.95-.97-1.47.32-1.92.97-.68,1.65-.68,3Z"/>
      <path class="cls-1" d="m106.26,193.8l.11,1.46c.91-1.13,2.12-1.7,3.64-1.7,1.34,0,2.34.39,3,1.18s.99,1.97,1.01,3.54v8.19h-3.39v-8.11c0-.72-.16-1.24-.47-1.56s-.83-.49-1.56-.49c-.95,0-1.67.41-2.14,1.22v8.94h-3.39v-12.68h3.19Z"/>
      <path class="cls-1" d="m120.63,190.68v3.12h2.17v2.48h-2.17v6.33c0,.47.09.8.27,1.01s.52.3,1.03.3c.38,0,.71-.03,1-.08v2.57c-.66.2-1.35.3-2.05.3-2.38,0-3.59-1.2-3.63-3.6v-6.83h-1.85v-2.48h1.85v-3.12h3.39Z"/>
      <path class="cls-1" d="m123.81,200.02c0-1.26.24-2.38.73-3.36s1.18-1.75,2.09-2.29,1.97-.81,3.17-.81c1.71,0,3.11.52,4.19,1.57s1.69,2.47,1.81,4.27l.02.87c0,1.95-.54,3.51-1.63,4.68s-2.54,1.76-4.37,1.76-3.29-.59-4.38-1.76-1.63-2.77-1.63-4.78v-.15Zm3.39.24c0,1.21.23,2.13.68,2.76s1.1.96,1.95.96,1.46-.31,1.92-.94.69-1.64.69-3.02c0-1.18-.23-2.1-.69-2.75s-1.11-.97-1.95-.97-1.47.32-1.92.97-.68,1.65-.68,3Z"/>
      <path class="cls-1" d="m141.48,206.48h-3.4v-18h3.4v18Z"/>
      <path class="cls-1" d="m143.74,200.02c0-1.26.24-2.38.73-3.36s1.18-1.75,2.09-2.29,1.97-.81,3.17-.81c1.71,0,3.11.52,4.19,1.57s1.69,2.47,1.81,4.27l.02.87c0,1.95-.54,3.51-1.63,4.68s-2.54,1.76-4.37,1.76-3.29-.59-4.38-1.76-1.63-2.77-1.63-4.78v-.15Zm3.39.24c0,1.21.23,2.13.68,2.76s1.1.96,1.95.96,1.46-.31,1.92-.94.69-1.64.69-3.02c0-1.18-.23-2.1-.69-2.75s-1.11-.97-1.95-.97-1.47.32-1.92.97-.68,1.65-.68,3Zm3.27-11.78h3.69l-3.25,3.63h-2.75l2.31-3.63Z"/>
      <path class="cls-1" d="m157.35,200.05c0-1.95.46-3.51,1.39-4.7s2.17-1.78,3.74-1.78c1.39,0,2.47.48,3.25,1.43l.14-1.2h3.07v12.26c0,1.11-.25,2.07-.76,2.89s-1.21,1.45-2.13,1.88-1.98.64-3.21.64c-.93,0-1.84-.19-2.72-.56s-1.55-.85-2-1.44l1.5-2.06c.84.95,1.87,1.42,3.07,1.42.9,0,1.6-.24,2.1-.72s.75-1.16.75-2.04v-.68c-.78.88-1.81,1.32-3.08,1.32-1.52,0-2.76-.6-3.7-1.79s-1.41-2.77-1.41-4.74v-.14Zm3.39.25c0,1.15.23,2.05.69,2.71s1.09.98,1.9.98c1.03,0,1.77-.39,2.21-1.16v-5.34c-.45-.77-1.18-1.16-2.19-1.16-.81,0-1.45.33-1.92,1s-.7,1.66-.7,2.98Z"/>
      <path class="cls-1" d="m171.52,190.52c0-.51.17-.93.51-1.25s.8-.49,1.39-.49,1.04.16,1.38.49.52.75.52,1.25-.17.94-.52,1.27-.81.49-1.38.49-1.03-.16-1.38-.49-.52-.75-.52-1.27Zm3.6,15.96h-3.4v-12.68h3.4v12.68Z"/>
      <path class="cls-1" d="m183.18,203.98c.62,0,1.13-.17,1.52-.52s.59-.8.61-1.37h3.18c0,.86-.24,1.65-.7,2.36s-1.09,1.27-1.89,1.66-1.69.59-2.65.59c-1.81,0-3.24-.58-4.29-1.73s-1.57-2.74-1.57-4.78v-.22c0-1.95.52-3.51,1.56-4.68s2.46-1.75,4.28-1.75c1.59,0,2.86.45,3.81,1.35s1.44,2.1,1.46,3.6h-3.18c-.02-.66-.22-1.2-.61-1.61-.39-.41-.91-.62-1.55-.62-.79,0-1.38.29-1.79.86-.4.57-.6,1.51-.6,2.8v.35c0,1.31.2,2.25.6,2.82.4.57,1,.86,1.82.86Z"/>
      <path class="cls-1" d="m189.89,200.02c0-1.26.24-2.38.73-3.36s1.18-1.75,2.09-2.29,1.97-.81,3.17-.81c1.71,0,3.11.52,4.19,1.57s1.69,2.47,1.81,4.27l.02.87c0,1.95-.54,3.51-1.63,4.68s-2.54,1.76-4.37,1.76-3.29-.59-4.38-1.76-1.63-2.77-1.63-4.78v-.15Zm3.39.24c0,1.21.23,2.13.68,2.76s1.1.96,1.95.96,1.46-.31,1.92-.94.69-1.64.69-3.02c0-1.18-.23-2.1-.69-2.75s-1.11-.97-1.95-.97-1.47.32-1.92.97-.68,1.65-.68,3Z"/>
      <path class="cls-1" d="m58.99,228.85c0-1.98.44-3.55,1.33-4.72s2.1-1.76,3.64-1.76c1.23,0,2.25.46,3.06,1.38v-6.47h3.4v18h-3.06l-.16-1.35c-.84,1.05-1.93,1.58-3.26,1.58-1.49,0-2.69-.59-3.59-1.76s-1.35-2.81-1.35-4.9Zm3.39.25c0,1.19.21,2.1.62,2.73s1.02.95,1.8.95c1.05,0,1.79-.44,2.21-1.33v-5.01c-.42-.88-1.15-1.33-2.19-1.33-1.63,0-2.45,1.33-2.45,3.98Z"/>
      <path class="cls-1" d="m78.87,235.52c-1.86,0-3.37-.57-4.54-1.71s-1.75-2.66-1.75-4.56v-.33c0-1.27.25-2.41.74-3.42s1.19-1.78,2.09-2.32,1.93-.81,3.09-.81c1.73,0,3.1.55,4.1,1.64s1.49,2.64,1.49,4.65v1.38h-8.07c.11.83.44,1.49.99,1.99s1.25.75,2.09.75c1.3,0,2.32-.47,3.06-1.42l1.66,1.86c-.51.72-1.2,1.28-2.06,1.68s-1.83.6-2.88.6Zm-.39-10.42c-.67,0-1.22.23-1.63.68-.42.46-.69,1.11-.8,1.95h4.71v-.27c-.02-.75-.22-1.34-.61-1.75-.39-.41-.95-.62-1.66-.62Z"/>
      <path class="cls-1" d="m97.82,235.52c-1.86,0-3.37-.57-4.54-1.71s-1.75-2.66-1.75-4.56v-.33c0-1.27.25-2.41.74-3.42s1.19-1.78,2.09-2.32,1.93-.81,3.09-.81c1.73,0,3.1.55,4.1,1.64s1.49,2.64,1.49,4.65v1.38h-8.07c.11.83.44,1.49.99,1.99s1.25.75,2.09.75c1.3,0,2.32-.47,3.06-1.42l1.66,1.86c-.51.72-1.2,1.28-2.06,1.68s-1.83.6-2.88.6Zm-.39-10.42c-.67,0-1.22.23-1.63.68-.42.46-.69,1.11-.8,1.95h4.71v-.27c-.02-.75-.22-1.34-.61-1.75-.39-.41-.95-.62-1.66-.62Z"/>
      <path class="cls-1" d="m109.79,226.39l2.13-3.79h3.62l-3.61,6.21,3.76,6.47h-3.63l-2.26-3.98-2.25,3.98h-3.64l3.76-6.47-3.6-6.21h3.63l2.09,3.79Z"/>
      <path class="cls-1" d="m122.21,232.78c.62,0,1.13-.17,1.52-.52s.59-.8.61-1.37h3.18c0,.86-.24,1.65-.7,2.36s-1.09,1.27-1.89,1.66-1.69.59-2.65.59c-1.81,0-3.24-.58-4.29-1.73s-1.57-2.74-1.57-4.78v-.22c0-1.95.52-3.51,1.56-4.68s2.46-1.75,4.28-1.75c1.59,0,2.86.45,3.81,1.35s1.44,2.1,1.46,3.6h-3.18c-.02-.66-.22-1.2-.61-1.61-.39-.41-.91-.62-1.55-.62-.79,0-1.38.29-1.79.86-.4.57-.6,1.51-.6,2.8v.35c0,1.31.2,2.25.6,2.82.4.57,1,.86,1.82.86Z"/>
      <path class="cls-1" d="m135.29,235.52c-1.86,0-3.37-.57-4.54-1.71s-1.75-2.66-1.75-4.56v-.33c0-1.27.25-2.41.74-3.42s1.19-1.78,2.09-2.32,1.93-.81,3.09-.81c1.73,0,3.1.55,4.1,1.64s1.49,2.64,1.49,4.65v1.38h-8.07c.11.83.44,1.49.99,1.99s1.25.75,2.09.75c1.3,0,2.32-.47,3.06-1.42l1.66,1.86c-.51.72-1.2,1.28-2.06,1.68s-1.83.6-2.88.6Zm-.39-10.42c-.67,0-1.22.23-1.63.68-.42.46-.69,1.11-.8,1.95h4.71v-.27c-.02-.75-.22-1.34-.61-1.75-.39-.41-.95-.62-1.66-.62Z"/>
      <path class="cls-1" d="m146,235.28h-3.4v-18h3.4v18Z"/>
      <path class="cls-1" d="m154.62,235.52c-1.86,0-3.37-.57-4.54-1.71s-1.75-2.66-1.75-4.56v-.33c0-1.27.25-2.41.74-3.42s1.19-1.78,2.09-2.32,1.93-.81,3.09-.81c1.73,0,3.1.55,4.1,1.64s1.49,2.64,1.49,4.65v1.38h-8.07c.11.83.44,1.49.99,1.99s1.25.75,2.09.75c1.3,0,2.32-.47,3.06-1.42l1.66,1.86c-.51.72-1.2,1.28-2.06,1.68s-1.83.6-2.88.6Zm3.74-14.96v.14h-2.7s-1.8-1.69-1.8-1.69l-1.8,1.7h-2.65v-.19l3.47-3.23h1.97l3.52,3.28Zm-4.12,4.54c-.67,0-1.22.23-1.63.68-.42.46-.69,1.11-.8,1.95h4.71v-.27c-.02-.75-.22-1.34-.61-1.75-.39-.41-.95-.62-1.66-.62Z"/>
      <path class="cls-1" d="m164.88,222.6l.11,1.46c.91-1.13,2.12-1.7,3.64-1.7,1.34,0,2.34.39,3,1.18s.99,1.97,1.01,3.54v8.19h-3.39v-8.11c0-.72-.16-1.24-.47-1.56s-.83-.49-1.56-.49c-.95,0-1.67.41-2.14,1.22v8.94h-3.39v-12.68h3.19Z"/>
      <path class="cls-1" d="m180.48,232.78c.62,0,1.13-.17,1.52-.52s.59-.8.61-1.37h3.18c0,.86-.24,1.65-.7,2.36s-1.09,1.27-1.89,1.66-1.69.59-2.65.59c-1.81,0-3.24-.58-4.29-1.73s-1.57-2.74-1.57-4.78v-.22c0-1.95.52-3.51,1.56-4.68s2.46-1.75,4.28-1.75c1.59,0,2.86.45,3.81,1.35s1.44,2.1,1.46,3.6h-3.18c-.02-.66-.22-1.2-.61-1.61-.39-.41-.91-.62-1.55-.62-.79,0-1.38.29-1.79.86-.4.57-.6,1.51-.6,2.8v.35c0,1.31.2,2.25.6,2.82.4.57,1,.86,1.82.86Z"/>
      <path class="cls-1" d="m187.69,219.32c0-.51.17-.93.51-1.25s.8-.49,1.39-.49,1.04.16,1.38.49.52.75.52,1.25-.17.94-.52,1.27-.81.49-1.38.49-1.03-.16-1.38-.49-.52-.75-.52-1.27Zm3.6,15.96h-3.4v-12.68h3.4v12.68Z"/>
      <path class="cls-1" d="m201.43,235.28c-.16-.3-.27-.68-.34-1.14-.82.91-1.89,1.37-3.2,1.37-1.24,0-2.27-.36-3.09-1.08s-1.22-1.62-1.22-2.72c0-1.34.5-2.38,1.49-3.09s2.44-1.08,4.32-1.09h1.56v-.73c0-.59-.15-1.05-.45-1.41s-.78-.53-1.42-.53c-.57,0-1.02.14-1.34.41s-.49.65-.49,1.12h-3.39c0-.73.23-1.41.68-2.04s1.09-1.12,1.92-1.47,1.76-.53,2.79-.53c1.56,0,2.8.39,3.72,1.18s1.38,1.89,1.38,3.31v5.5c0,1.2.18,2.11.5,2.73v.2h-3.42Zm-2.8-2.36c.5,0,.96-.11,1.38-.33s.73-.52.94-.9v-2.18h-1.27c-1.7,0-2.6.59-2.71,1.76v.2c-.01.42.14.77.43,1.04s.7.41,1.22.41Z"/>
    </g>
  </g>
  <g>
    <path class="cls-2" d="m151.72,132h-2.67c-.07-.04-.14-.11-.21-.12-2.85-.54-4.84-2.17-6.2-4.7-2.27-4.23-4.61-8.42-6.88-12.64-1.09-2.03-2.71-3.22-5.05-3.22-2.33,0-3.95,1.19-5.05,3.22-2.33,4.32-4.7,8.62-7.05,12.93-.99,1.83-2.44,3.15-4.36,3.93-.61.25-1.26.4-1.89.6h-2.67c-.07-.05-.13-.12-.2-.14-3.55-.74-5.73-2.92-6.81-6.34-3.47-11.02-6.89-22.05-10.46-33.03-2.63-8.11-4.33-16.34-4.22-24.9.03-2.87.6-5.62,1.77-8.24,3.93-8.77,12.77-14.13,23.96-12.52,3.12.45,6.1,1.36,9.08,2.33,3.14,1.03,6.33,1.59,9.66,1.31,2.63-.22,5.12-.95,7.58-1.79,4.75-1.62,9.62-2.61,14.64-1.92,8.61,1.19,14.43,6,17.5,14.1.59,1.56.81,3.27,1.2,4.9v6.01c-.06.32-.13.65-.16.97-.31,2.56-.54,5.13-.94,7.68-.71,4.59-2.17,8.98-3.57,13.4-3.36,10.61-6.7,21.24-10.05,31.85-.6,1.91-1.58,3.6-3.3,4.66-1.13.7-2.44,1.11-3.67,1.65Zm-58.65-62.17c.17,5.58.91,11.05,2.54,16.35,3.16,10.27,6.43,20.51,9.66,30.76.79,2.51,1.56,5.03,2.4,7.52.66,1.95,2.55,2.93,4.43,2.35,1.01-.31,1.68-1.01,2.18-1.93,2.35-4.34,4.71-8.68,7.09-13,2.36-4.27,6.75-6.35,11.52-5.38,3.24.66,5.61,2.55,7.19,5.45,2.35,4.31,4.71,8.62,7.05,12.94.51.95,1.2,1.66,2.26,1.95,2.01.56,3.8-.54,4.5-2.76,3.13-9.9,6.19-19.83,9.39-29.71,2.51-7.75,4.79-15.52,5.04-23.75.08-2.57.11-5.1-.68-7.58-2.28-7.18-9.28-12.75-19.1-11.17-2.72.44-5.43,1.14-8.04,2.02-6.58,2.22-13.09,2.28-19.64-.06-3.14-1.12-6.35-1.95-9.71-2.16-6.27-.4-11.38,1.73-15.12,6.84-2.47,3.37-3.26,7.24-2.95,11.32Z"/>
    <path class="cls-2" d="m151.93,133h-3.15l-.29-.18c-2.94-.61-5.21-2.35-6.73-5.17-1.17-2.16-2.35-4.32-3.53-6.48-1.12-2.05-2.25-4.11-3.36-6.17-.99-1.84-2.31-2.69-4.16-2.69h0c-1.85,0-3.18.86-4.17,2.69-1.48,2.74-2.98,5.48-4.47,8.21-.86,1.58-1.72,3.15-2.58,4.73-1.12,2.05-2.75,3.53-4.86,4.38-.47.19-.94.32-1.39.46-.19.06-.39.11-.58.17l-.3.05h-2.99l-.28-.2c-3.69-.84-6.16-3.18-7.35-6.98l-2.42-7.69c-2.61-8.31-5.3-16.91-8.04-25.33-2.97-9.16-4.37-17.41-4.27-25.22.04-3.06.66-5.96,1.86-8.63,4.34-9.68,13.92-14.7,25.02-13.1,3.34.48,6.53,1.48,9.25,2.37,3.32,1.09,6.35,1.51,9.26,1.27,2.61-.22,5.07-.96,7.34-1.74,5.77-1.97,10.56-2.59,15.1-1.96,8.9,1.23,15.06,6.19,18.3,14.73.43,1.14.68,2.34.91,3.49.1.51.21,1.03.33,1.53l.03.23v6.18s-.07.32-.07.32c-.04.2-.08.4-.1.6-.1.82-.19,1.65-.28,2.48-.19,1.72-.39,3.49-.66,5.24-.68,4.34-2.01,8.54-3.31,12.61l-.3.93c-2.42,7.63-4.82,15.27-7.23,22.9l-2.82,8.95c-.76,2.43-1.98,4.13-3.72,5.21-.85.53-1.78.9-2.67,1.25-.38.15-.75.3-1.12.46l-.19.08Zm-42.64-.16s0,0,0,0c0,0,0,0,0,0Zm40.05-1.84h2.17c.33-.14.66-.27.99-.41.85-.34,1.65-.66,2.35-1.1,1.32-.82,2.25-2.17,2.87-4.12l2.82-8.95c2.41-7.64,4.81-15.27,7.23-22.9l.3-.94c1.27-4,2.58-8.13,3.23-12.31.27-1.7.46-3.45.65-5.15.09-.83.18-1.67.29-2.5.03-.24.07-.49.12-.73l.04-.21v-5.8c-.11-.49-.21-.99-.32-1.48-.23-1.13-.44-2.19-.82-3.18-2.96-7.81-8.58-12.34-16.7-13.46-4.21-.59-8.72.01-14.18,1.87-2.39.82-4.99,1.6-7.82,1.84-3.19.26-6.47-.18-10.05-1.36-2.64-.87-5.73-1.83-8.91-2.29-10.17-1.47-18.95,3.11-22.91,11.94-1.08,2.42-1.65,5.06-1.68,7.84-.09,7.59,1.27,15.63,4.18,24.58,2.73,8.43,5.43,17.03,8.04,25.35l2.42,7.69c1,3.16,2.98,5.02,6.06,5.66.12.03.23.07.32.12h2.19c.16-.05.31-.09.47-.14.42-.12.82-.24,1.19-.39,1.69-.69,2.96-1.83,3.86-3.49.86-1.58,1.72-3.15,2.58-4.73,1.49-2.73,2.99-5.46,4.46-8.2,1.34-2.48,3.33-3.74,5.93-3.74h0c2.59,0,4.58,1.26,5.92,3.74,1.11,2.06,2.23,4.11,3.35,6.16,1.18,2.16,2.36,4.32,3.53,6.49,1.27,2.36,3.07,3.73,5.51,4.19.12.02.23.06.31.11Zm1.1-3.02c-.42,0-.86-.06-1.31-.18-1.23-.34-2.17-1.14-2.87-2.44-1.61-2.97-3.23-5.94-4.85-8.91l-2.2-4.03c-1.48-2.71-3.66-4.37-6.51-4.95-4.3-.87-8.3,1-10.44,4.88-2.36,4.27-4.69,8.56-7.01,12.85l-.08.15c-.69,1.26-1.59,2.05-2.77,2.41-2.41.74-4.85-.55-5.67-2.99-.64-1.89-1.23-3.8-1.83-5.71l-.57-1.84c-.91-2.88-1.81-5.75-2.72-8.63-2.29-7.25-4.66-14.75-6.94-22.14-1.55-5.06-2.4-10.48-2.59-16.59-.34-4.63.72-8.65,3.15-11.97,3.84-5.24,9.22-7.68,15.99-7.24,3.13.2,6.3.91,9.98,2.22,6.27,2.23,12.48,2.25,18.99.05,2.79-.94,5.55-1.64,8.2-2.06,10.81-1.74,17.94,4.7,20.21,11.85.82,2.57.81,5.11.73,7.92-.26,8.49-2.66,16.52-5.09,24.02-2.21,6.8-4.38,13.75-6.48,20.46-.97,3.08-1.93,6.16-2.9,9.24-.72,2.27-2.41,3.61-4.41,3.61Zm-40.78-75.36c-5.43,0-9.64,2.13-12.83,6.48-2.17,2.97-3.08,6.45-2.76,10.66v.04c.18,5.93,1,11.19,2.5,16.08,2.27,7.39,4.64,14.88,6.93,22.13.91,2.88,1.82,5.75,2.72,8.63l.58,1.84c.59,1.89,1.18,3.79,1.81,5.66.48,1.41,1.82,2.13,3.19,1.71.67-.21,1.16-.65,1.59-1.45l.08-.15c2.33-4.29,4.66-8.59,7.02-12.86,2.58-4.68,7.41-6.93,12.59-5.88,3.45.7,6.09,2.7,7.87,5.95l2.2,4.03c1.62,2.97,3.24,5.94,4.85,8.91.45.82.95,1.27,1.65,1.47,1.48.41,2.74-.39,3.28-2.1.97-3.08,1.94-6.16,2.9-9.24,2.11-6.72,4.28-13.67,6.49-20.48,2.39-7.36,4.74-15.24,4.99-23.47.08-2.62.09-4.98-.63-7.25-2.01-6.33-8.36-12.03-17.99-10.49-2.54.41-5.19,1.08-7.88,1.98-6.95,2.35-13.59,2.33-20.3-.06-3.5-1.25-6.49-1.92-9.43-2.11-.48-.03-.96-.05-1.42-.05Z"/>
  </g>
</svg>