<?xml version="1.0" encoding="UTF-8"?>
<svg id="Camada_1" data-name="Camada 1" xmlns="http://www.w3.org/2000/svg" viewBox="0 0 263.86 275.73">
  <defs>
    <style>
      .cls-1 {
        fill: #fff;
      }

      .cls-2 {
        fill: #094783;
      }

      .cls-3 {
        fill: #27b8d4;
      }
    </style>
  </defs>
  <path class="cls-3" d="m59.74,0h175.69c15.69,0,28.43,12.74,28.43,28.43v187.56c0,32.97-26.77,59.74-59.74,59.74H59.74c-32.97,0-59.74-26.77-59.74-59.74V59.74C0,26.77,26.77,0,59.74,0Z"/>
  <g>
    <path class="cls-1" d="m69.05,188.68h-11.7v-2.32l5.52-5.88c.76-.83,1.32-1.55,1.68-2.17s.54-1.2.54-1.76c0-.76-.19-1.35-.57-1.79s-.93-.65-1.64-.65c-.77,0-1.37.26-1.81.79s-.66,1.22-.66,2.08h-3.4c0-1.04.25-1.99.74-2.85s1.2-1.53,2.1-2.02,1.93-.73,3.08-.73c1.76,0,3.12.42,4.1,1.27s1.46,2.04,1.46,3.57c0,.84-.22,1.7-.66,2.58s-1.19,1.89-2.25,3.06l-3.88,4.09h7.34v2.73Z"/>
    <path class="cls-1" d="m71.63,180.29l.98-8.67h9.56v2.82h-6.79l-.42,3.67c.8-.43,1.66-.64,2.57-.64,1.62,0,2.9.5,3.82,1.51s1.38,2.42,1.38,4.23c0,1.1-.23,2.09-.7,2.96s-1.13,1.55-2,2.03-1.89.72-3.07.72c-1.03,0-1.99-.21-2.87-.63s-1.58-1.01-2.09-1.76-.78-1.62-.81-2.59h3.35c.07.71.32,1.26.74,1.66s.98.59,1.67.59c.77,0,1.36-.28,1.77-.83s.62-1.33.62-2.34-.24-1.71-.71-2.23-1.15-.77-2.03-.77c-.8,0-1.46.21-1.96.63l-.33.3-2.7-.67Z"/>
    <path class="cls-1" d="m94.18,176l.11,1.42c.9-1.1,2.11-1.65,3.64-1.65,1.63,0,2.75.64,3.36,1.93.89-1.29,2.16-1.93,3.81-1.93,1.38,0,2.4.4,3.07,1.2s1.01,2.01,1.01,3.62v8.1h-3.4v-8.09c0-.72-.14-1.24-.42-1.58s-.78-.5-1.49-.5c-1.02,0-1.72.48-2.11,1.45v8.71s-3.38,0-3.38,0v-8.07c0-.73-.14-1.27-.43-1.59s-.78-.49-1.48-.49c-.96,0-1.66.4-2.09,1.2v8.96h-3.39v-12.68h3.18Z"/>
    <path class="cls-1" d="m111.76,172.72c0-.51.17-.93.51-1.25s.8-.49,1.39-.49,1.04.16,1.38.49.52.75.52,1.25-.17.94-.52,1.27-.81.49-1.38.49-1.03-.16-1.38-.49-.52-.75-.52-1.27Zm3.6,15.96h-3.4v-12.68h3.4v12.68Z"/>
    <path class="cls-1" d="m121.72,188.68h-3.4v-18h3.4v18Z"/>
    <path class="cls-1" d="m129.96,182.22c0-1.26.24-2.38.73-3.36s1.18-1.75,2.09-2.29,1.97-.81,3.17-.81c1.71,0,3.11.52,4.19,1.57s1.69,2.47,1.81,4.27l.02.87c0,1.95-.54,3.51-1.63,4.68s-2.54,1.76-4.37,1.76-3.29-.59-4.38-1.76-1.63-2.77-1.63-4.78v-.15Zm3.39.24c0,1.21.23,2.13.68,2.76s1.1.96,1.95.96,1.46-.31,1.92-.94.69-1.64.69-3.02c0-1.18-.23-2.1-.69-2.75s-1.11-.97-1.95-.97-1.47.32-1.92.97-.68,1.64-.68,3Z"/>
    <path class="cls-1" d="m155.47,182.46c0,1.95-.44,3.52-1.33,4.69s-2.08,1.76-3.59,1.76c-1.28,0-2.32-.45-3.11-1.34v5.98h-3.39v-17.55h3.14l.12,1.24c.82-.98,1.89-1.48,3.21-1.48,1.56,0,2.78.58,3.64,1.73s1.3,2.75,1.3,4.78v.18Zm-3.39-.25c0-1.18-.21-2.09-.63-2.73s-1.03-.96-1.82-.96c-1.06,0-1.79.41-2.19,1.22v5.19c.41.84,1.15,1.25,2.21,1.25,1.62,0,2.43-1.32,2.43-3.97Z"/>
    <path class="cls-1" d="m162.85,186.18c.62,0,1.13-.17,1.52-.52s.59-.8.61-1.37h3.18c0,.86-.24,1.65-.7,2.36s-1.09,1.27-1.89,1.66-1.69.59-2.65.59c-1.81,0-3.24-.58-4.29-1.73s-1.57-2.74-1.57-4.78v-.22c0-1.95.52-3.51,1.56-4.68s2.46-1.75,4.28-1.75c1.59,0,2.86.45,3.81,1.35s1.44,2.1,1.46,3.6h-3.18c-.02-.66-.22-1.2-.61-1.61-.39-.41-.91-.62-1.55-.62-.79,0-1.38.29-1.79.86-.4.57-.6,1.51-.6,2.8v.35c0,1.31.2,2.25.6,2.82s1,.86,1.82.86Zm1.23,2.43l-.13.68c1.17.21,1.76.89,1.76,2.03,0,.86-.36,1.54-1.07,2.04s-1.72.75-3.02.75l-.08-1.96c.88,0,1.31-.32,1.31-.95,0-.33-.13-.55-.39-.67s-.69-.2-1.27-.24l.36-1.68h2.53Z"/>
    <path class="cls-1" d="m169.56,182.22c0-1.26.24-2.38.73-3.36s1.18-1.75,2.09-2.29,1.97-.81,3.17-.81c1.71,0,3.11.52,4.19,1.57s1.69,2.47,1.81,4.27l.02.87c0,1.95-.54,3.51-1.63,4.68s-2.54,1.76-4.37,1.76-3.29-.59-4.38-1.76-1.63-2.77-1.63-4.78v-.15Zm10.38-11.39c0,.88-.26,1.62-.77,2.22s-1.14.9-1.89.9c-.3,0-.56-.03-.79-.1s-.55-.21-.96-.43-.7-.35-.88-.4-.38-.08-.59-.08c-.27,0-.51.1-.7.29s-.29.47-.29.83l-1.97-.12c0-.87.26-1.61.77-2.21s1.14-.91,1.88-.91c.23,0,.46.03.66.09s.54.2,1.01.43.79.36.97.41.37.07.56.07c.27,0,.51-.1.71-.29s.3-.47.3-.83l1.96.13Zm-7,11.63c0,1.21.23,2.13.68,2.76s1.1.96,1.95.96,1.46-.31,1.92-.94.69-1.64.69-3.02c0-1.18-.23-2.1-.69-2.75s-1.11-.97-1.95-.97-1.47.32-1.92.97-.68,1.64-.68,3Z"/>
    <path class="cls-1" d="m189.49,188.92c-1.86,0-3.37-.57-4.54-1.71s-1.75-2.66-1.75-4.56v-.33c0-1.27.25-2.41.74-3.42s1.19-1.78,2.09-2.32,1.93-.81,3.09-.81c1.73,0,3.1.55,4.1,1.64s1.49,2.64,1.49,4.65v1.38h-8.07c.11.83.44,1.49.99,1.99s1.25.75,2.09.75c1.3,0,2.32-.47,3.06-1.42l1.66,1.86c-.51.72-1.2,1.28-2.06,1.68s-1.83.6-2.88.6Zm-.39-10.42c-.67,0-1.22.23-1.63.68-.42.46-.69,1.11-.8,1.95h4.71v-.27c-.02-.75-.22-1.34-.61-1.75s-.95-.62-1.66-.62Z"/>
    <path class="cls-1" d="m203.5,185.18c0-.41-.21-.74-.62-.98s-1.07-.45-1.97-.64c-3.02-.63-4.52-1.91-4.52-3.84,0-1.12.47-2.06,1.4-2.82s2.15-1.13,3.66-1.13c1.61,0,2.9.38,3.86,1.14s1.45,1.74,1.45,2.95h-3.39c0-.48-.16-.88-.47-1.2s-.8-.47-1.46-.47c-.57,0-1.01.13-1.32.39s-.47.59-.47.98c0,.38.18.68.53.91s.96.43,1.8.6,1.55.36,2.13.57c1.79.66,2.68,1.79,2.68,3.41,0,1.16-.5,2.09-1.49,2.81s-2.27,1.07-3.84,1.07c-1.06,0-2.01-.19-2.83-.57s-1.47-.9-1.94-1.56-.7-1.37-.7-2.14h3.21c.03.6.25,1.06.67,1.38s.97.48,1.66.48c.65,0,1.14-.12,1.47-.37s.5-.57.5-.97Z"/>
    <path class="cls-1" d="m48.57,211.05c0-1.98.44-3.55,1.33-4.72s2.1-1.76,3.64-1.76c1.23,0,2.25.46,3.06,1.38v-6.47h3.4v18h-3.06l-.16-1.35c-.84,1.05-1.93,1.58-3.26,1.58-1.49,0-2.69-.59-3.59-1.76s-1.35-2.81-1.35-4.9Zm3.39.25c0,1.19.21,2.1.62,2.74s1.02.95,1.8.95c1.05,0,1.79-.44,2.21-1.33v-5.01c-.42-.88-1.15-1.33-2.19-1.33-1.63,0-2.45,1.33-2.45,3.98Z"/>
    <path class="cls-1" d="m68.46,217.71c-1.86,0-3.37-.57-4.54-1.71s-1.75-2.66-1.75-4.56v-.33c0-1.27.25-2.41.74-3.42s1.19-1.78,2.09-2.32,1.93-.81,3.09-.81c1.73,0,3.1.55,4.1,1.64s1.49,2.64,1.49,4.65v1.38h-8.07c.11.83.44,1.49.99,1.99s1.25.75,2.09.75c1.3,0,2.32-.47,3.06-1.42l1.66,1.86c-.51.72-1.2,1.28-2.06,1.68s-1.83.6-2.88.6Zm-.39-10.42c-.67,0-1.22.23-1.63.68-.42.46-.69,1.11-.8,1.95h4.71v-.27c-.02-.75-.22-1.34-.61-1.75s-.95-.62-1.66-.62Z"/>
    <path class="cls-1" d="m88.92,217.48c-.16-.3-.27-.68-.34-1.14-.82.91-1.89,1.37-3.2,1.37-1.24,0-2.27-.36-3.09-1.08s-1.22-1.62-1.22-2.72c0-1.34.5-2.38,1.49-3.09s2.44-1.08,4.32-1.09h1.56v-.73c0-.59-.15-1.05-.45-1.41s-.78-.53-1.42-.53c-.57,0-1.02.14-1.34.41s-.49.65-.49,1.12h-3.39c0-.73.23-1.41.68-2.04s1.09-1.12,1.92-1.47,1.76-.53,2.79-.53c1.56,0,2.8.39,3.72,1.18s1.38,1.89,1.38,3.31v5.5c0,1.2.18,2.11.5,2.73v.2h-3.42Zm-2.8-2.36c.5,0,.96-.11,1.38-.33s.73-.52.94-.9v-2.18h-1.27c-1.7,0-2.6.59-2.71,1.76v.2c-.01.42.14.77.43,1.04s.7.41,1.22.41Z"/>
    <path class="cls-1" d="m98.49,201.68v3.12h2.17v2.48h-2.17v6.33c0,.47.09.8.27,1.01s.52.3,1.03.3c.38,0,.71-.03,1-.08v2.57c-.66.2-1.35.3-2.05.3-2.38,0-3.59-1.2-3.63-3.6v-6.83h-1.85v-2.48h1.85v-3.12h3.39Z"/>
    <path class="cls-1" d="m108.38,217.71c-1.86,0-3.37-.57-4.54-1.71s-1.75-2.66-1.75-4.56v-.33c0-1.27.25-2.41.74-3.42s1.19-1.78,2.09-2.32,1.93-.81,3.09-.81c1.73,0,3.1.55,4.1,1.64s1.49,2.64,1.49,4.65v1.38h-8.07c.11.83.44,1.49.99,1.99s1.25.75,2.09.75c1.3,0,2.32-.47,3.06-1.42l1.66,1.86c-.51.72-1.2,1.28-2.06,1.68s-1.83.6-2.88.6Zm-.39-10.42c-.67,0-1.22.23-1.63.68-.42.46-.69,1.11-.8,1.95h4.71v-.27c-.02-.75-.22-1.34-.61-1.75s-.95-.62-1.66-.62Z"/>
    <path class="cls-1" d="m118.64,204.8l.11,1.46c.91-1.13,2.12-1.7,3.64-1.7,1.34,0,2.34.39,3,1.18s.99,1.97,1.01,3.54v8.19h-3.39v-8.11c0-.72-.16-1.24-.47-1.56s-.83-.49-1.56-.49c-.95,0-1.67.41-2.14,1.22v8.94h-3.39v-12.68h3.19Z"/>
    <path class="cls-1" d="m128.43,211.05c0-1.98.44-3.55,1.33-4.72s2.1-1.76,3.64-1.76c1.23,0,2.25.46,3.06,1.38v-6.47h3.4v18h-3.06l-.16-1.35c-.84,1.05-1.93,1.58-3.26,1.58-1.49,0-2.69-.59-3.59-1.76s-1.35-2.81-1.35-4.9Zm3.39.25c0,1.19.21,2.1.62,2.74s1.02.95,1.8.95c1.05,0,1.79-.44,2.21-1.33v-5.01c-.42-.88-1.15-1.33-2.19-1.33-1.63,0-2.45,1.33-2.45,3.98Z"/>
    <path class="cls-1" d="m142.46,201.52c0-.51.17-.93.51-1.25s.8-.49,1.39-.49,1.04.16,1.38.49.52.75.52,1.25-.17.94-.52,1.27-.81.49-1.38.49-1.03-.16-1.38-.49-.52-.75-.52-1.27Zm3.6,15.96h-3.4v-12.68h3.4v12.68Z"/>
    <path class="cls-1" d="m152.02,204.8l.11,1.42c.9-1.1,2.11-1.65,3.64-1.65,1.63,0,2.75.64,3.36,1.93.89-1.29,2.16-1.93,3.81-1.93,1.38,0,2.4.4,3.07,1.2s1.01,2.01,1.01,3.62v8.1h-3.4v-8.09c0-.72-.14-1.24-.42-1.58s-.78-.5-1.49-.5c-1.02,0-1.72.48-2.11,1.45v8.71s-3.38,0-3.38,0v-8.07c0-.73-.14-1.27-.43-1.59s-.78-.49-1.48-.49c-.96,0-1.66.4-2.09,1.2v8.96h-3.39v-12.68h3.18Z"/>
    <path class="cls-1" d="m175.46,217.71c-1.86,0-3.37-.57-4.54-1.71s-1.75-2.66-1.75-4.56v-.33c0-1.27.25-2.41.74-3.42s1.19-1.78,2.09-2.32,1.93-.81,3.09-.81c1.73,0,3.1.55,4.1,1.64s1.49,2.64,1.49,4.65v1.38h-8.07c.11.83.44,1.49.99,1.99s1.25.75,2.09.75c1.3,0,2.32-.47,3.06-1.42l1.66,1.86c-.51.72-1.2,1.28-2.06,1.68s-1.83.6-2.88.6Zm-.39-10.42c-.67,0-1.22.23-1.63.68-.42.46-.69,1.11-.8,1.95h4.71v-.27c-.02-.75-.22-1.34-.61-1.75s-.95-.62-1.66-.62Z"/>
    <path class="cls-1" d="m185.71,204.8l.11,1.46c.91-1.13,2.12-1.7,3.64-1.7,1.34,0,2.34.39,3,1.18s.99,1.97,1.01,3.54v8.19h-3.39v-8.11c0-.72-.16-1.24-.47-1.56s-.83-.49-1.56-.49c-.95,0-1.67.41-2.14,1.22v8.94h-3.39v-12.68h3.19Z"/>
    <path class="cls-1" d="m200.09,201.68v3.12h2.17v2.48h-2.17v6.33c0,.47.09.8.27,1.01s.52.3,1.03.3c.38,0,.71-.03,1-.08v2.57c-.66.2-1.35.3-2.05.3-2.38,0-3.59-1.2-3.63-3.6v-6.83h-1.85v-2.48h1.85v-3.12h3.39Z"/>
    <path class="cls-1" d="m203.27,211.02c0-1.26.24-2.38.73-3.36s1.18-1.75,2.09-2.29,1.97-.81,3.17-.81c1.71,0,3.11.52,4.19,1.57s1.69,2.47,1.81,4.27l.02.87c0,1.95-.54,3.51-1.63,4.68s-2.54,1.76-4.37,1.76-3.29-.59-4.38-1.76-1.63-2.77-1.63-4.78v-.15Zm3.39.24c0,1.21.23,2.13.68,2.76s1.1.96,1.95.96,1.46-.31,1.92-.94.69-1.64.69-3.02c0-1.18-.23-2.1-.69-2.75s-1.11-.97-1.95-.97-1.47.32-1.92.97-.68,1.64-.68,3Z"/>
  </g>
  <g>
    <path class="cls-2" d="m182.6,73.26c-.01-.26-.14-.84-.27-1.45-.11-.5-.22-1.01-.23-1.19-.02-.43-.39-1.35-.5-1.51-.04-.06-.19-.43-.3-.67-.16-.37-.22-.52-.26-.57-.09-.16-.93-.63-1.28-.7-.1-.02-.21-.03-.33-.04-.27-.02-.57-.05-.88-.2-.2-.1-.46-.15-.8-.15-.25,0-.49.03-.67.04-.1.01-.19.02-.23.02-.19,0-.5-.09-.58-.14-.08-.12-.27-.22-.87-.46-.15-.06-.28-.11-.37-.16-.19-.09-1.19-1.12-1.57-1.51-.25-.26-.34-.35-.38-.38-.02-.01-.04-.03-.08-.06-.23-.19-.85-.7-1.16-1.03-.28-.31-.75-.43-1.13-.52-.16-.04-.33-.08-.4-.12-.09-.05-.29-.2-.5-.37-.39-.3-.84-.65-1.11-.75-.06-.02-.12-.05-.19-.08-.33-.13-.79-.32-1.23-.32-.13,0-.25.02-.37.05-.39.11-1.43.28-2.26.28-.24,0-.45-.01-.62-.04-.43-.07-.49-.14-.53-.19-.07-.08-.16-.16-.37-.19-.14-.02-.38-.04-.62-.06-.32-.02-.85-.06-.95-.11-.02-.01-.04-.03-.07-.04-.18-.12-.4-.27-.67-.27-.15,0-.81-.31-1.2-.56-.18-.11-.34-.17-.5-.17-.14,0-.27.04-.38.1,0-.03,0-.06,0-.09-.02-.24-.17-.32-.3-.32-.25,0-.45.3-.51.42-.09.18-.24.43-.35.58-.03-.04-.07-.09-.12-.19-.06-.11-.17-.18-.3-.18-.17,0-.35.11-.6.26-.05.03-.1.06-.16.1-.04.02-.07.04-.1.07.09-.16.16-.33.18-.55.04-.37-.15-1.22-.55-1.45-.12-.07-.15-.11-.16-.12,0,0,.01-.03.04-.08.05-.08.07-.18.05-.27-.05-.23-.31-.38-.54-.51-.05-.03-.11-.07-.14-.09-.02-.01-.03-.02-.04-.03,0-.01,0-.03,0-.05,0-.03,0-.07,0-.11,0-.2-.14-.29-.27-.29s-.24.09-.36.18c-.03.02-.05.04-.07.06-.07.04-.11.11-.12.18,0,.03,0,.06,0,.09-.02,0-.03,0-.05,0-.11,0-.21.05-.3.09,0-.05-.03-.11-.07-.17-.18-.25-.69-.27-.7-.27-.05,0-.09.01-.14.03-.06.02-.13.05-.21.05-.05,0-.1-.01-.15-.03-.16-.08-.31-.23-.46-.38-.08-.08-.17-.16-.25-.24-.2-.17-.42-.22-.69-.29-.12-.03-.26-.06-.43-.11-.15-.05-.25-.1-.33-.15-.11-.06-.22-.13-.39-.13-.12,0-.25.03-.43.1-.05.02-.1.03-.15.03-.29,0-.57-.35-.73-.54-.02-.02-.04-.05-.05-.07-.11-.13-.23-.16-.32-.16-.15,0-.28.08-.4.15-.09.05-.17.11-.25.12-.02-.09-.07-.24-.23-.32-.07-.03-.14-.05-.22-.05-.1,0-.2.03-.29.05-.07.02-.13.03-.18.03-.02,0-.02,0-.02,0-.05-.02-.11-.03-.17-.03-.26,0-.57.18-.87.35l-.06.04c-.24.13-.34.42-.44.71-.07.2-.15.42-.25.51-.16.13-.38.38-.59.63.04-.16.07-.32.06-.43.03-.03.09-.08.14-.11.16-.12.39-.29.5-.55.11-.25.34-1.72.27-1.95-.06-.19-.2-.2-1.23-.24h-.1c-.24-.01-.36-.05-.47-.09-.12-.04-.24-.08-.43-.08-.14,0-.24.02-.34.05.05-.1.06-.21.07-.32,0-.02,0-.05,0-.07,0-.09-.02-.17-.08-.23-.13-.14-.39-.17-.58-.17-.06,0-.2,0-.35.03.23-.24.44-.47.37-.71-.04-.14-.15-.22-.3-.22-.16,0-.31.11-.48.22-.04.03-.09.06-.12.08-.04.02-.13.05-.32.05-.1,0-.21,0-.35-.02.13-.08.26-.18.37-.3.06-.07.21-.25.12-.43-.05-.1-.14-.16-.28-.17.08-.09.14-.22.21-.41l.02-.06s.08-.12.13-.18c.09-.11.17-.2.17-.32,0-.08-.04-.19-.12-.31.09-.09.11-.23.13-.34.02-.13-.06-1.13-.28-1.26-.07-.04-.43-.19-.72-.24-.13-.02-.3-.02-.44-.02-.07,0-.16,0-.22,0-.07-.09-.23-.35-.28-.46-.03-.07-.08-.13-.14-.21-.09-.12-.21-.27-.21-.41,0-.33-.09-.5-.16-.63-.01-.02-.02-.04-.03-.06-.05-.1-.28-.66-.42-1.02l-.21-.58c-.04-.23-.09-.49-.09-.53,0-.33,0-.59,0-.65.01-.11,0-.82,0-.96v-.16s-.33-.1-.33-.1c0-.09-.02-.17-.03-.23-.07-.25-.27-.63-.35-.77-.1-.17-.37-.41-.72-.41-.05,0-.1,0-.14.02-.12.03-.21.1-.26.21-.05.11-.04.23,0,.34h-.06s-.05.13-.05.13c-.03.09-.2.51-.24.66-.08.14-.66.89-1.19,1.55l-.43.68-.66,1.31-.03.32-.86.83-.31.09-.42-.12-.55-.38-.37.16c-.14-.07-.34-.18-.42-.21h-.04s-.04-.01-.04-.01c-.08,0-.19,0-.99.68l-.18-.08-.54-.06-.33-.27-.28-.14-.04-.3-.48-.03-.31-.52-.39.19-.98.13-.09.2-.83.05-.69-.34-.28.28-.09.4-.4.31.37.37.31.41v.07l-.1.09h-.36c-.2-.07-.51-.18-.64-.18-.12,0-.67.03-.73.03h-.03s-.29.1-.29.1l-.53-.34h-.53l-.68.14-.05.08s-.27.43-.38.62h-.02s-1.15.2-1.15.2l-.11.26-.35-.15-.38.11-.56.28-.04.43-.54.04-.21.21-.08-.33-1-.26-.66-.63-.27-.43-.39-.12.12-1.13-.4-.23-.13-.64-.11-.92.46-.5.07-.62-.05-.36.3-.23.41-.8-.23-.48-.26-.43.2-.33-.2-.36-.57-.2h-.65l.4-.47-.02-.35.2-.76-.52-.55-.65-.05-.29.18-.04-.1-.6-.1-.48.48.25.38.14.27-.08.16-.58.19-.26.23-.2.33-.46.04-.24.2-.47.05-.13.4h-.54l-.33.35-.62.08-.09.11-.14-.06-.51-.29-.37.2-.23.31-.67.1.03.7-.18-.05-.13.23-.17-.28-.17-.09-.14-.46-1.01-.03-.02.12-.53-.34-.09.34h-.39l-.17.14-.46-.72-1.12.14-.22-.34-.69-.3-.08.72.71.89.83.62-.1.17.13,1.24.63.88-.24.86.91.1.25.15.82-.02v.09l-.08.3-.45.1-.45.29-.23-.07-.75.28v.87l-.18.21-.15.14-.23-.26-.32.25-.43.19-.25.33-.25-.15-.53.36-.16.23-.37.09-.11.47-.5.02-.03.23-.07-.28-.07-.05c-.06-.03-.2-.12-.33-.12-.03,0-.05,0-.08,0-.08.02-.67.16-.68.16l-.07.02-.05.05c-.05.05-.12.12-.15.15-.03.01-.1.05-.23.17l-.51.05-1.45-1.23h-.52l-.11.13h-.04s-.01-.01-.01-.01l.07-.09.09-.29-.19-1.1-.27-.55h-.23l-.09-.16-.36-.69-.68.37-.1.16-.28-.02-.4.45-.04.13v-.05s-.7-.57-.7-.57l-.38.52-.08.33-2.76-.02-.12-.12-.62.03-.11.11-.52.07-.12,2.11.15.06s.17.06.23.08c.08.03.17.01.25-.05l.02.02h1.07v.04s.19.23.19.23v.13s-.14.24-.14.24l.05.1h-.15s-.47-.32-.47-.32l-.29.26-.12-.16-.51.35-.7.15-.07,2.18.22.31,1.03.78.07.61.32.62.11,1.22-1.33,7.05-.09.2-.04.15-.32.02h0s-.08-.32-.08-.32l-.98-.03-.02.03-.06-.06-.43-.03-.41.26-.21.25-.12.11-.87.13-.07.16h-.5l-.19.11h-.12s-.78,0-.78,0l-.24.24-.38.4-.49.04-.57.48-.42.41-.71.23-.05.53-.14.25-.02.7-.25.32-.45.53-.15.54.17.39.19.32-.02.09-.16.15-.42.16-.49.24-.68.68-.05.62.14.39-.52.07.03.44-.35.32.9.71-.19.29.41.29-.02.33.21.3c.08.22.2.47.36.55.07.04.22.12.31.17l.09.39.04.04s.17.17.36.26c.04.02.13.15.17.27v.03s.27.32.27.32l-.22.54-.45.65,2.56.52.09.26.21.35-.11.61h3.13l1.36-1.17v.12s-.14.17-.14.17l.09,3.81.46-.23.15.21.76.05.44-.24,1.45.04,1.76.18.11.37,1.25-.5.54-.46.55-.4.76-.08.95-.74.14-.21.82-.31.85-.85h.62l.98-.24.65-.14c.2.09.57.23.75.23.04,0,.07,0,.1-.02.11-.04.19-.14.25-.26l.18.12-.07.67-.07.66-.17.21v.82l.44.69-.27.41-.05.88.34.3-.13.61.55.23.16.49.31.1v.17l.47.13.04.21.6.12.11.46.54.4.78.14.53-.14.25-.19.4.18.39.19.63.44.21-.15.21.35.35.09.55.55.3-.04.48.36.65-.1.05.22.68.68.36.28h1.15l1.04-.11.48.21.74.42.05.28.27.34-.35.35.05.13c.08.2.19.44.34.54.05.08.13.38.19.66l.05,1.1-.9.11,1.01,1.27.19,2.3,4.84.35h0s-.09.31-.09.31c-.02.07-.15.47-.18.62-.04.22.1.63.18.75.04.08.16.51.24.87l.02.09,1.05.63.33-.08c.14.13.24.2.3.24,0,.11-.01.33-.04.54v.06s.17.39.17.39l.42.64-.16.13-.28.79-.43.77.24.53-.08.05-.99,2.08.03.09s.11.28.26.41c.02.05.03.18.03.31l-.34.31.04.7.3.27.06.8.15.04s.11.03.2.06c0,.03,0,.06,0,.08l-.17.43.14.1c.09.06.15.11.2.14,0,.03,0,.07-.01.1l-.07.42-.19.23.09.27-.07.21-.24.24.21.43.02.09-.16.27.02.08c.02.11.06.25.14.34,0,.03-.03.06-.04.07-.19.14-.18.41-.18.46v.13s.12.05.12.05c.3.14.35.14.39.14,0,0,.02,0,.04,0,.06,0,.15.01.24.01.12,0,.21-.01.28-.04.07.08.25.25.43.28.13.02.7.05.92.05.21,0,.39-.01.5-.03.06.02.2.1.33.19l.1.07.26-.13c.08.01.16.02.18.03h.03s.03,0,.03,0c.16,0,.24-.13.31-.24.02-.03.04-.06.06-.08.03-.04.08-.09.12-.14h.09s.28.39.28.39l.51-.04.47.11.48.29.05.47.15.18.04.25-.1.34-.04.36.28.71.06,1.04.2.2.18.61v.61l1.51-.04.62-.37.42.16h.2l.25.22-.08.14.03.09c.07.24.15.57.14.64-.03.15-.15.62-.26.96-.11.34-.17,1.1-.19,1.3l-.1.2-.09.3-.24.33-.16.52.27.44.24.1.69.1v-.28l.27-.06.15-.07.17.17.27.08.1.02.04.33.07.33.48.76.08.27-.18.34-.13.67v.04c.03.14.05.31.04.36-.01.05-.04.17.15.64l-.12.09-.32.37-.36.03-.19.35-.35.09-.11.16s-.08.12-.11.18l-.15-.02-.29.19-.37.03-.23.29h-.41l-.3.2-.13.39-.29.03-.12.3-.57.06-.54.75-.24.03-.59.5.15.21h-.45l-.03.39h-.28l-.07.45c-.07.05-.18.13-.27.18-.17.1-.29.36-.34.48l-.43.43-.09.32h-.08l-.05.03s-.21.13-.32.36c-.07.14-.24.46-.56.97-.23.37-.68.77-.83.89l-.42.04-.12.54c-.02.06-.07.18-.12.23-.08.08-.38.3-.54.43l-.22.16.83.73.19-.19c.1,0,.27.02.37.02.29,0,.35-.28.37-.37,0-.02,0-.03.01-.04.02-.05.04-.16.06-.25.21.02.42.05.49.06.02.02.06.06.09.09.13.13.33.32.61.47.29.15.68.62.91.9.05.06.1.11.13.16,0,0,0,.01.01.02l-.91.39h1.18c.09.2.21.48.26.56.02.04.1.14.57.35l.15.06.1-.13s.07-.08.19-.15c.13-.07.2-.18.24-.3l.4.42.22.76.69.32.29-.13.58.52.43.03.18.34.2.4,1.02.78.15-.09c.25.21.64.6.67.79.07.4.51.96.57,1.02l.06.08h.17c.08.08.21.19.36.23.06.03.22.17.4.35l-1.12,1.12.22,2.09.73.4.1-.19c.09-.17.3-.45.44-.49.34-.1.59-.53.89-1.09l.05-.09c.09-.17.28-.4.46-.62.22-.27.44-.55.57-.79.1-.19.13-.44.16-.7.05-.37.1-.79.35-1.07.25-.28.39-.4.5-.5.1-.09.19-.17.32-.32.09-.11.49-.37.87-.61.53-.34,1.13-.72,1.55-1.1.84-.74,1.8-2.36,1.96-3.27.09-.51.22-.7.4-.97.12-.17.25-.37.39-.68.4-.87.7-1.52.84-1.86.13-.32,1.26-1.67,1.67-1.83.53-.2.9-.66.94-.91,0-.03.03-.13.06-.27.11-.49.31-1.39.36-1.75,0-.01,0-.02,0-.03,0,0,0,0,0,0,.06.03.12.06.2.09.12.03.24-.01.32-.12.18-.26.11-.97.04-1.21-.07-.22-.23-.25-.3-.25-.02,0-.04,0-.05,0,0-.13,0-.29.05-.42.15-.4-.09-.94-.27-1.34-.03-.07-.06-.14-.09-.19-.04-.1.07-.4.14-.58.08-.21.15-.4.15-.56,0-.12-.04-.2-.1-.26.19-.38.54-1.77.54-1.95s-.1-.31-.22-.38c.01-.02.03-.04.04-.06.04.02.11.07.12.1.04.1.13.16.24.16.29,0,.81-.61.96-.79.13-.16.21-.28.28-.38.07-.11.14-.2.25-.33.09-.1.4-.37.74-.65.57-.48,1.21-1.03,1.45-1.33.18-.22.35-.26.58-.32.19-.05.41-.1.64-.27.43-.31,1.12-.57,1.56-.65.02,0,.05,0,.07,0,.19,0,.46.09.7.17.25.08.47.16.66.16.13,0,.23-.04.3-.11.28-.28.19-.73.15-.93v-.02c-.02-.09-.08-.17-.16-.2.2-.09.61-.24.97-.35h.04s.57-.5.57-.5l1.21-.51-.35-.14c.1-.04.19-.07.24-.1.09-.04.37-.12.58-.17l1.02.3.35-.31c1.14-.03,3.19-.08,3.31-.08.17,0,.83-.2,1.1-.29l.11-.04.14-.53c.2-.38.45-.75.54-.79.17-.06,1.28-.52,1.53-.83.19-.23.42-.46.43-.46l.09-.09-.25-1.05-.25-.12.49-.61v-.02c.3-.58.67-1.26.77-1.39.09-.06.3-.26.93-1.13l.02-.02v-.03c.03-.06.57-1.48.65-1.72.03-.08.28-.27.53-.39l.05-.03.43-.69.29-.61-.02-.08c-.06-.25-.23-.96-.23-1.26,0-.39,0-.87.18-1.27.17-.38.82-1.32.94-1.5l.42-.33v-.11c0-.25-.02-.93,0-1.11,0-.11.16-.95.28-1.7.15-.87.29-1.68.31-1.87.04-.33.13-.59.13-.59l.04-.12-.15-.18-.12-2.92-.22-.33c.18-.65.37-1.35.42-1.47.04-.06.07-.17-.07-.57v-.02s-.09-.13-.09-.13l.02-.85c.2-.43.44-.92.51-1.03.11-.08.42-.3.42-.3l.1-.07v-.14s.16.39.16.39l.6-.75c.48-.5,1.59-1.66,1.67-1.78.09-.14.76-1.37,1.06-2.16.24-.62.5-1.23.58-1.44.6-.3,1.54-.77,1.64-.85.13-.1,1.28-1.81,1.37-2.15.04-.05.23-.13.34-.18.17-.07.33-.14.43-.24.23-.21,1.37-1.71,1.45-1.81.14-.2.9-2.74.91-2.76.06-.2.04-2.02.03-2.36Zm-40.72-19.61c.06-.04.25-.09.47-.09.11,0,.18.01.23.02,0,0,0,0,0,0,0,.16,0,.19-.25.23-.04,0-.08.01-.12.01-.17,0-.27-.07-.38-.14,0,0,0,0,0,0,.02-.01.04-.02.06-.04Zm-50.46-5.13l.06-.08.23.19.05.18-.34-.24v-.05Zm90.75,26.99c-.08.27-.74,2.41-.85,2.63-.14.19-1.21,1.58-1.38,1.73-.05.05-.19.11-.32.16-.27.11-.54.23-.59.47-.07.23-1.06,1.73-1.23,1.91-.13.08-.93.48-1.63.83l-.07.04-.03.07s-.32.75-.62,1.52c-.3.77-.95,1.98-1.01,2.07-.08.11-1.05,1.12-1.63,1.73l-.17.21-.12-.27-.68-.17-.08.06c-.07.05-.29.22-.36.38-.05.11-.05.23.02.34.06.1.18.18.29.19-.05.04-.1.07-.13.09-.05.03-.12.09-.65,1.22l-.02.04-.02,1.07.12.19c.03.09.06.2.07.25-.04.11-.15.46-.46,1.62l-.03.09.26.39.12,2.95.09.11c-.04.12-.09.33-.11.56-.02.17-.17,1.06-.31,1.84-.17,1-.28,1.61-.29,1.73-.02.2,0,.8,0,1.05l-.3.23-.02.03s-.79,1.14-1,1.59c-.22.48-.22,1.04-.22,1.45,0,.36.17,1.06.23,1.3l-.2.44-.36.58c-.19.1-.6.34-.69.62-.07.21-.55,1.48-.63,1.68-.31.42-.68.9-.78.99-.09.04-.25.21-.92,1.55l-.79.99.55.27.15.62c-.09.09-.24.25-.37.41-.14.17-1.05.6-1.34.69-.28.09-.62.68-.8,1.02v.02s-.11.35-.11.35c-.37.12-.78.23-.86.23-.16,0-3.27.08-3.4.08h-.08s-.29.25-.29.25l-.9-.26h-.06c-.09.03-.55.14-.73.23-.11.05-.5.19-.73.27l-.56.19.46.18-.3.13-.55.47c-1.21.4-1.27.5-1.28.64-.01.03-.04.08-.05.11-.08.16-.15.29-.1.43.03.07.08.12.15.14.03,0,.05.01.08.01.06,0,.12-.02.17-.05,0,.11,0,.22-.05.29,0,0,0,0,0,0-.11,0-.32-.07-.52-.13-.28-.09-.58-.19-.84-.19-.05,0-.11,0-.15.01-.5.09-1.25.37-1.73.73-.16.12-.32.16-.49.2-.25.06-.54.14-.81.47-.22.27-.87.83-1.4,1.27-.42.36-.68.58-.78.69-.14.15-.21.26-.29.38-.07.1-.14.2-.26.35-.2.24-.44.48-.57.58-.11-.12-.28-.22-.44-.22-.13,0-.24.06-.31.17-.17.26-.27.41-.19.57.04.08.12.13.22.13.02,0,.05.01.05.02-.01.18-.39,1.58-.5,1.76-.11.14-.28.3-.28.31l.28.33s0,0,0,0c-.02.08-.06.16-.09.24-.12.32-.23.64-.13.89.02.06.06.13.09.21.12.27.35.77.26,1.01-.17.45-.01,1.01,0,1.04l.14.48.2-.34c.02.17.02.36,0,.49-.08-.04-.16-.08-.26-.08-.14,0-.32.08-.37.44-.04.34-.25,1.26-.35,1.71-.03.14-.06.25-.06.28-.02.09-.27.44-.67.59-.57.22-1.76,1.69-1.92,2.06-.16.37-.51,1.15-.83,1.85-.13.28-.25.45-.36.62-.2.29-.37.54-.47,1.14-.14.82-1.05,2.34-1.82,3.02-.4.36-1.01.74-1.5,1.06-.54.34-.85.55-.98.71-.1.12-.17.18-.26.26-.12.1-.27.24-.54.54-.34.38-.4.9-.45,1.31-.03.22-.05.44-.12.56-.1.2-.31.46-.52.71-.2.25-.39.48-.5.69l-.05.09c-.15.29-.44.82-.63.88-.25.08-.46.33-.58.52l-.16-.09-.18-1.66,1.27-1.27-.14-.15c-.24-.26-.56-.58-.75-.62-.05-.01-.15-.1-.2-.16l-.07-.08h-.16c-.16-.21-.38-.54-.41-.74-.07-.42-.7-.96-.82-1.06l-.24-.18-.15.09-.71-.54-.16-.32-.3-.56-.52-.03-.68-.61-.37.17-.33-.16-.2-.67-.55-.59-.67-.2.03.32c0,.06,0,.16-.03.17-.09.05-.16.1-.22.14-.12-.06-.22-.11-.26-.14-.04-.08-.17-.37-.27-.61l-.06-.13h-.11c-.02-.08-.06-.17-.14-.26-.03-.04-.08-.09-.13-.15-.27-.32-.68-.81-1.04-1.01-.22-.12-.39-.28-.51-.4-.1-.1-.16-.16-.24-.18-.09-.03-.49-.07-.8-.1l-.2-.02-.04.19c-.03.15-.07.34-.08.39,0,.03-.02.06-.02.09,0,0,0,.02,0,.03-.12,0-.3-.02-.37-.03h-.1s-.05.04-.05.04l-.12-.11c.14-.11.31-.24.38-.31.15-.15.23-.4.23-.42l.06-.25.24-.02.05-.04s.66-.54.98-1.04c.33-.53.5-.86.58-1.01.03-.07.08-.12.12-.15h.27l.15-.52.41-.41.02-.04c.05-.13.13-.28.18-.31.16-.09.36-.24.37-.25l.07-.05.04-.27h.32l.03-.39h.12l.24.1.35-.35-.23-.32.18-.16.3-.03.54-.75.63-.06.12-.3.31-.03.17-.51.06-.04h.49l.25-.31.29-.03.25-.16.27.04.07-.13c.03-.06.13-.22.17-.29v-.02s.38-.09.38-.09l.17-.31.3-.03.4-.47.36-.27-.07-.16c-.1-.22-.18-.46-.19-.54.03-.14,0-.36-.02-.48l.11-.53.24-.44-.16-.5-.47-.74-.05-.22-.08-.62-.38-.09-.16-.04-.3-.3-.38.17-.57.12v.13l-.15-.02-.06-.02-.09-.15.08-.26.24-.33.09-.32.13-.26v-.04c.02-.25.08-.96.17-1.23.12-.36.24-.85.28-1.01.03-.16-.06-.51-.13-.76l.16-.28-.64-.56h-.28l-.54-.2-.7.41-.95.02v-.23l-.23-.77-.16-.16-.06-.94-.26-.67.02-.2.13-.42-.08-.47-.15-.18-.06-.55-.72-.43-.6-.13-.33.02-.26-.34-.5-.05-.07.08s-.12.14-.2.23c-.03.04-.06.08-.09.12,0,0-.01.02-.02.02-.07-.01-.15-.02-.18-.03h-.07s-.16.07-.16.07c-.31-.19-.42-.19-.45-.19-.02,0-.03,0-.04,0-.06.01-.24.03-.46.03s-.74-.03-.86-.04c-.03-.01-.11-.08-.17-.14-.04-.04-.14-.15-.31-.15-.06,0-.11.01-.16.04,0,0-.03.01-.13.01-.08,0-.15,0-.2-.01-.02,0-.03,0-.04,0-.02,0-.04-.02-.07-.03.12-.11.19-.31.19-.44,0-.09-.04-.18-.11-.23,0-.01-.02-.04-.03-.07l.16-.27-.07-.3-.09-.2.09-.09.14-.45-.06-.18.11-.13.08-.53c.03-.15.08-.43-.13-.51-.02,0-.05-.03-.09-.06l.07-.16v-.03c.03-.16.08-.49-.17-.56-.03,0-.11-.03-.18-.05l-.05-.67-.3-.27-.02-.32.32-.29v-.09c.03-.4-.03-.65-.17-.76-.03-.02-.07-.09-.1-.15l.53-1.11.33-.69.28-.19-.3-.67.34-.59.26-.72.38-.29-.61-.93-.12-.26c.08-.67.02-.83-.14-.89-.05-.03-.21-.16-.35-.29l-.09-.08-.38.1-.74-.45c-.2-.79-.26-.88-.28-.91-.04-.07-.13-.36-.12-.44.02-.11.13-.45.17-.57l.39-1.43-.84.54-4.32-.31-.17-2.07-.61-.77.53-.07-.07-1.52v-.03c-.16-.8-.3-.91-.38-.95-.03-.03-.08-.11-.12-.21l.42-.42-.45-.56-.07-.37-.93-.53-.61-.27-1.12.12h-.99l-.21-.17-.58-.58-.11-.5-.87.14-.48-.36-.26.04-.48-.48-.29-.07-.35-.61-.35.25-.39-.27-.43-.22-.64-.29-.39.29-.35.1-.58-.1-.33-.24-.13-.58-.59-.12-.04-.19-.41-.11v-.15l-.4-.13-.16-.47-.4-.17.11-.51-.38-.33.03-.55.36-.55-.52-.82v-.54l.15-.19.09-.78.09-.93-.89-.62-.07.31c-.02.08-.05.17-.07.22-.12-.03-.36-.12-.59-.22l-.06-.03-.79.18-.93.23h-.74l-.91.91-.86.33-.18.27-.8.62-.76.08-.65.47-.5.43-.74.3-.05-.19-2.06-.21-1.59-.04-.43.24-.43-.03-.25-.35-.18.09-.07-2.98.11-.15.04-.48.24-.97-2.21,1.91h-2.45l.05-.26-.27-.45-.15-.46-2.15-.44.1-.15.34-.82-.38-.48c-.04-.1-.17-.36-.37-.46-.08-.04-.16-.1-.2-.14l-.11-.45-.08-.05s-.27-.15-.4-.22c-.04-.04-.12-.2-.17-.34v-.03s-.16-.22-.16-.22l.02-.42-.27-.19.17-.27-.81-.64.13-.12v-.24s.62-.09.62-.09l-.13-.44-.13-.37.03-.37.52-.52.4-.2.49-.19.32-.29.1-.39-.26-.44-.1-.24.09-.3.39-.47.34-.44.02-.73.14-.23.03-.34.53-.17.47-.47.46-.39.51-.04.49-.52.12-.12.58-.02.24.03.21-.13h.66l.09-.2.76-.11.23-.2.2-.24.23-.14h.13s.3.31.3.31l.18-.25h.42s.12.45.12.45l.39-.12h.15s.36.3.36.3l.18-.75.1-.22,1.34-7.13v-.03s-.12-1.37-.12-1.37l-.32-.62-.09-.71-1.13-.85-.1-.13.05-1.69.45-.09.25-.17.16.2.39-.34.29.2,1.01.03-.27-.54.07-.12.03-.39-.22-.29-.07-.28h-1.25l-.25-.21-.1.16.08-1.36.31-.04.09-.09h.26s.11.1.11.1l4.19.02-.33-.22h.56l.11-.37.2-.22.32.02.18-.28.2-.11.16.31.22.39h.21l.13.25.17.94-.03.11-.21.27.35.5.47-.07.09-.1h.16l1.46,1.24.85-.07.06-.06c.05-.05.12-.11.15-.13.04-.01.11-.05.25-.2.14-.03.48-.11.59-.14,0,0,.02,0,.03,0l.03.12-.24.3.11.43h.63l.31-.48.02-.19.46-.02.13-.53.27-.07.2-.29.23-.16.35.21.42-.55.37-.17.04-.03.25.29.48-.45.31-.36v-.73l.33-.12.29.09.55-.35.63-.14.16-.61v-.59l-1.14.02-.23-.13-.49-.06.16-.57-.69-.96-.11-.99.22-.38-1.09-.82-.16-.2,1.04-.13.37.58.33.21.3-.25h.57l.03-.09.59.38.06-.4h.31s.1.35.1.35l.23.11.29.48.45-.09.09-.16.42.11-.04-.9.45-.06.29-.37.07-.04.31.18.47.19.19-.21.61-.08.31-.33h.66l.14-.43.33-.03.24-.2.54-.04.28-.47.14-.13.66-.21.27-.52-.25-.48-.07-.11.08-.08.15.02.15.34.59-.37.34.03.24.25-.16.6.02.25-.43.51v.54h1.06l.35.12-.2.34.38.62.13.27-.27.52-.42.33.07.56-.05.42-.5.54.13,1.13.17.86.32.19-.12,1.2.57.18.21.34.78.75.86.22.09.38.42.14.34-.34.26-.02.45.32.08-.91.29-.15.21-.06.61.27.19-.45.78-.15s.08.02.14.02c.13,0,.24-.07.29-.18.04-.07.22-.37.36-.59l.46-.1h.36l.6.38.43-.14c.18,0,.59-.03.67-.03.06,0,.32.09.53.17h.04s.6.01.6.01l.37-.33v-.41l-.4-.54-.06-.06.14-.11.08-.39.49.24,1.21-.07.09-.22.81-.11.09-.05.22.37.35.03.02.18.44.22.39.33.6.06.36.16.1-.09c.3-.26.66-.55.81-.65.09.04.25.12.38.2l.09.05.35-.14.41.28.6.18.53-.15,1.06-1.02.03-.4.6-1.21.41-.64c1.22-1.52,1.25-1.64,1.26-1.69.02-.06.11-.31.19-.51l.41-.06-.17-.28c-.04-.06-.07-.14-.08-.19.15,0,.3.13.34.2.09.15.26.49.31.67.03.12.03.54.02.8l-.02.48.36-.29c0,.15,0,.27,0,.29,0,.1-.01.48-.01.69,0,.02,0,.08.1.63l.23.64c.04.09.36.91.44,1.05.01.02.02.05.04.07.06.11.11.21.11.42,0,.3.18.53.31.68.03.04.07.09.08.11.04.1.3.56.43.66.09.06.2.07.46.07.13,0,.27,0,.37.02.17.03.4.11.51.16.05.19.14.73.13.84,0,.02,0,.06-.02.09-.1.02-.23.05-.24.05l-.61.14.79.38s.02.03.03.05c-.02.02-.03.04-.05.06-.04.05-.08.1-.12.15-.05-.09-.13-.17-.25-.17h-.03s-.03,0-.03,0c-.02,0-.05.01-.08.03-.04.02-.08.03-.12.03-.12,0-.28.06-.38.32-.01.02-.04.06-.07.09-.09.12-.16.21-.19.29-.01.03-.08.14-.13.22-.1.17-.17.28-.2.36-.02.05-.16.22-.23.31-.15.19-.2.25-.21.32-.01.06,0,.11,0,.16,0,.01,0,.04,0,.05-.14.1-.3.18-.45.27-.12.06-.2.15-.26.21-.04.04-.08.08-.12.1-.04.02-.12.06-.21.1-.26.12-.39.18-.46.25-.08.08-.37.44-.43.51l-.12.14.12.14s.04.04.08.07c-.02,0-.04.02-.05.02l-.05.02-.03.04s-.08.1-.24.21c-.24.16-.36.42-.37.45l-.34.73.66-.46c.21-.14.59-.36.75-.36.07.11.02.28,0,.38-.01.05-.02.09-.02.13,0,.02-.01.05-.02.07-.05.16-.13.44.08.56.02.01.04.05.04.07-.02.07-.01.14.02.2.07.12.22.14.44.14.06,0,.11,0,.11,0l.37-.02-.19-.31c-.05-.08-.1-.2-.12-.27.04,0,.07-.01.1-.02.15-.03.39-.07.39-.34,0-.24-.23-.29-.31-.3.01-.03.03-.06.04-.08,0,0,0,0,0-.01.15,0,.26-.09.31-.22.05-.12.01-.21-.02-.26,0,0-.01-.02-.02-.03.08-.08.18-.19.15-.35-.05-.24-.22-.26-.27-.26,0,0,0,0,0,0,0-.06-.02-.13-.06-.21-.04-.07-.05-.15-.03-.18.02-.03.08-.04.11-.05.13-.01.25-.04.36-.07,0,0,0,0,0,0-.03.03-.06.05-.1.07l-.34.21.36.17s.04.02.05.03c0,.08.02.14.05.17.05.06.12.09.2.09.22,0,.62-.33.71-.42.11-.11.17-.25.15-.4-.01-.12-.07-.23-.17-.33h.05s.06-.09.06-.09c.07-.1.04-.2,0-.28-.02-.04-.03-.1-.04-.14,0-.1.15-.48.32-.73.11-.15.17-.15.24-.15.03,0,.07,0,.1,0,.03,0,.05,0,.08,0-.08.06-.18.12-.26.17-.2.12-.37.22-.33.42.04.2.26.23.36.25.3.05.52.07.7.07.19,0,.34-.02.46-.07-.12.13-.19.22-.2.32,0,.02,0,.04-.01.07-.02.07-.04.16-.02.24-.04,0-.08,0-.11,0-.03,0-.07,0-.1,0-.21,0-.33.18-.35.35v.12s.07.08.07.08c.02.02.52.44,1.18.44.06,0,.12,0,.18-.01.37-.05.57-.12.72-.17.12-.04.19-.07.31-.07s.2.02.3.06c.13.04.29.09.59.1h.1c.25.01.62.03.83.05-.03.37-.13,1.28-.24,1.55-.06.15-.22.27-.36.37-.17.12-.34.25-.32.46.01.13-.07.45-.12.51-.15.12-.27.47-.33.66l-.11.37.37-.09s.19-.05.32-.12c.09-.04.17-.14.46-.49.21-.25.47-.57.63-.69.2-.16.3-.44.39-.7.06-.19.15-.42.24-.47l.07-.04c.2-.12.51-.29.65-.29,0,0,.01,0,.01,0,.06.02.12.03.18.03.1,0,.2-.03.29-.05.07-.02.14-.04.18-.04.01,0,.02,0,.02,0,0,.01.01.04.02.05.02.09.09.32.37.32.04,0,.07,0,.11-.01.16-.03.3-.11.41-.18.05-.03.13-.08.16-.09.01.02.03.04.05.06.2.25.57.7,1.06.7.11,0,.21-.02.31-.06.12-.05.21-.07.26-.07.05,0,.08.02.17.07.09.05.22.13.42.19.18.05.32.09.45.12.24.06.39.1.51.2.07.06.15.13.23.21.17.17.35.34.57.45.11.05.22.08.34.08.15,0,.28-.04.35-.07,0,0,.01,0,.02,0,.09,0,.26.05.31.08,0,.01,0,.04,0,.05-.01.07-.04.19.05.29.04.04.11.1.22.1s.23-.06.33-.11c.04-.02.1-.05.13-.06.02.01.05.03.07.04.1.06.2.11.31.11.14,0,.25-.1.27-.25,0,0,0,0,0-.01.05.03.1.07.17.11.08.05.26.15.32.22-.04.08-.11.22-.07.37.05.19.21.3.37.39.17.09.37.72.33,1.02-.03.27-.13.43-.32.64-.18.2-.28.57-.35.9,0,.03-.01.05-.01.05l-.04.11.13.18h.11c.08,0,.13-.04.22-.11.04-.04.17-.14.24-.16.01,0,.03,0,.04,0,.22,0,.28-.2.31-.33.04-.14.08-.29.24-.39.06-.03.11-.07.16-.1.11-.07.25-.15.33-.19.12.2.27.4.49.4.1,0,.19-.04.25-.12.16-.19.37-.55.47-.74.01.15.07.33.28.33.07,0,.15-.03.24-.09.13-.09.2-.12.28-.12s.16.03.26.1c.25.16,1.09.63,1.43.63.14,0,.29.1.43.2.02.02.05.03.07.05.15.1.48.13,1.16.18.24.02.46.03.59.05.08.01.08.02.11.05.11.13.25.24.78.33.19.03.42.05.69.05.89,0,1.95-.17,2.38-.29.07-.02.16-.03.25-.03.36,0,.77.17,1.07.29.08.03.14.06.2.08.21.08.66.43.99.68.24.19.43.33.55.4.12.07.3.12.51.17.32.08.72.18.91.39.32.36.96.88,1.21,1.08.03.03.06.05.07.06.03.03.19.19.35.35.94.96,1.48,1.5,1.7,1.6.1.05.24.1.39.16.21.08.59.24.68.3.17.25.77.33.93.33.07,0,.16,0,.27-.02.18-.02.4-.04.62-.04.27,0,.47.03.6.1.38.19.74.22,1.03.25.11,0,.2.02.28.03.23.05.88.41,1,.51.04.07.14.31.22.51.24.55.3.69.34.75.07.12.4.95.42,1.28.01.21.12.69.24,1.26.12.54.25,1.15.26,1.38.02.49.02,2.05-.01,2.23Zm-41.99-23.75s-.06.04-.09.06c.02-.03.04-.06.05-.09.01,0,.02.02.04.02Zm-.65,1.17s-.05,0-.07,0c0-.06,0-.12,0-.16.03-.04.08-.11.12-.16.03-.03.05-.07.08-.1-.06.14-.11.29-.12.4Zm.09.95s-.02.04-.03.04c-.05.05-.12.1-.18.15.07-.08.12-.19.12-.3,0,0,0,0,0,0,.06.04.09.08.09.1Zm-.48-.45c-.08,0-.16.02-.26.05.07-.04.15-.08.22-.13,0,.02.02.05.04.08Zm-1.16,2.1c0-.1,0-.21-.05-.31,0,0,.02,0,.03,0,.04,0,.11,0,.13,0,0,0,.02,0,.03,0-.01.02-.02.03-.02.04,0,.02-.02.04-.03.07-.03.05-.06.12-.09.19Zm.04.37s-.08.04-.12.07c.01-.04.02-.07.02-.11,0-.01,0-.03.01-.05,0-.03.01-.06.02-.09,0,.04.02.08.04.12,0,.02.02.03.03.05Zm-.01-1.86s.03-.02.05-.02c0,.03,0,.05,0,.08-.01-.02-.03-.04-.05-.05Zm18.09,6.7c-.04.09-.07.17-.08.24,0,0,0,0,0,.01-.01,0-.03,0-.04,0,.04-.12.09-.21.13-.26Z"/>
    <path class="cls-2" d="m132.07,154.26c-.41,0-.83-.1-1.2-.3l-.73-.4c-.72-.39-1.2-1.11-1.29-1.93l-.22-2.09c-.04-.41.02-.82.17-1.2-.09-.14-.17-.29-.24-.44-.07-.04-.13-.09-.19-.13l-1.02-.78c-.22-.17-.41-.37-.57-.6-.06-.04-.12-.07-.18-.12-.17-.04-.33-.1-.49-.17l-.69-.32c-.24-.11-.45-.26-.64-.43-.14-.03-.27-.07-.4-.13l-.15-.06c-.42-.18-.85-.39-1.23-.73-.85-.05-1.59-.53-2-1.24-.65.04-1.31-.15-1.83-.61l-.83-.73c-.57-.5-.88-1.23-.85-1.99.03-.76.41-1.46,1.02-1.91l.1-.07c.24-.78.84-1.38,1.59-1.64.2-.33.32-.55.37-.65.19-.37.42-.66.64-.89.1-.17.23-.33.37-.47l.15-.15c.11-.19.26-.39.43-.58.12-.3.3-.57.52-.79.21-.32.49-.59.82-.79l.56-.47c.09-.07.18-.14.27-.2l.09-.13c.3-.42.72-.73,1.2-.9.15-.19.34-.35.54-.49l.3-.2c.21-.14.45-.25.69-.32.22-.14.45-.24.7-.31.1-.09.2-.17.31-.24,0-.02,0-.05,0-.07-.16-.03-.31-.08-.46-.14l-.24-.1c-.51-.2-.93-.57-1.21-1.03l-.27-.44c-.37-.61-.45-1.35-.25-2.02l.16-.52c.08-.25.19-.48.34-.7h-.09c-.68.02-1.33-.24-1.81-.71-.48-.47-.75-1.12-.75-1.79v-.08c-.22-.35-.35-.76-.38-1.18l-.04-.64-.13-.34c-.03-.09-.06-.17-.09-.26-.52.11-1.06.05-1.55-.18-.31,0-.87-.03-1.12-.06-.29-.04-.57-.12-.84-.24,0,0-.01,0-.02,0-.51-.03-.92-.2-1.28-.37l-.12-.06c-.81-.38-1.36-1.17-1.43-2.07v-.13c-.03-.33,0-.65.06-.96,0-.11,0-.22,0-.34-.15-.57-.09-1.17.15-1.69-.03-.1-.05-.21-.06-.31-.09-.22-.15-.45-.17-.7-.22-.35-.35-.76-.38-1.18l-.04-.7c-.01-.25,0-.5.07-.74-.11-.54-.05-1.1.19-1.6l.61-1.27c-.07-.53.04-1.07.3-1.55l.19-.33-.65-.39c-.57-.34-.98-.89-1.14-1.53-.06-.26-.12-.48-.16-.62-.04-.09-.08-.19-.12-.3l-2.48-.18c-1.23-.09-2.21-1.06-2.31-2.29l-.13-1.55-.54-.67c-.56-.71-.7-1.66-.36-2.5.08-.2.19-.39.32-.56,0,0,0-.02,0-.02v-.02h-1.1c-.56,0-1.11-.19-1.55-.54l-.36-.28c-.08-.06-.15-.12-.21-.19l-.12-.12c-.29-.06-.56-.17-.81-.32-.46-.1-.88-.33-1.23-.67l-.1-.1c-.11-.05-.22-.1-.33-.17-.19-.07-.37-.17-.54-.28l-.16-.11c-.34.08-.69.1-1.04.04l-.78-.14c-.37-.07-.73-.22-1.04-.44l-.54-.4c-.17-.12-.31-.26-.44-.41-.15-.08-.29-.18-.42-.29-.26-.13-.49-.3-.68-.5-.24-.18-.45-.4-.61-.65-.68-.44-1.09-1.19-1.12-1.99-.16-.36-.23-.75-.21-1.15l.05-.88s0-.04,0-.06c-.03-.07-.05-.15-.08-.22-.22.2-.48.35-.76.46l-.22.08s-.07.05-.1.08l-.95.74c-.37.28-.81.46-1.27.51h-.08s-.41.36-.41.36c-.21.17-.44.31-.69.41l-1.25.5c-.66.26-1.4.23-2.03-.08-.14-.07-.28-.15-.4-.25l-.53-.06-.69-.02c-.38.17-.78.25-1.2.22l-.76-.05s-.05,0-.07,0c-.57.09-1.16-.02-1.67-.33-.73-.44-1.19-1.23-1.21-2.08v-.48h-1.94c-.74,0-1.44-.33-1.92-.9-.18-.22-.32-.46-.42-.71l-.9-.18c-.83-.17-1.51-.74-1.82-1.52-.23-.58-.23-1.23-.02-1.8,0,0,0-.01,0-.02-.31-.29-.58-.67-.78-1.12l-.05-.08c-.09-.13-.17-.27-.23-.42-.19-.22-.33-.46-.43-.72-.54-.45-.86-1.11-.89-1.82-.02-.52.12-1.02.4-1.44.08-.31.21-.6.39-.86.08-.53.32-1.02.7-1.4l.68-.68s.03-.03.05-.04c.01-.08.03-.16.06-.24l.15-.54c.1-.34.26-.65.49-.92l.14-.17c.02-.26.09-.51.19-.75v-.03c.09-1,.77-1.85,1.73-2.15l.13-.04s.09-.09.14-.13l.57-.48c.27-.23.58-.39.91-.49l.05-.05c.45-.45,1.06-.71,1.69-.73h.43c.11-.05.23-.07.35-.09.19-.08.39-.13.59-.16h.06c.06-.05.12-.09.18-.13l.41-.26c.39-.24.83-.37,1.28-.38l.87-4.63-.04-.39-.1-.18c-.06-.12-.11-.24-.15-.36l-.24-.18c-.19-.15-.37-.32-.51-.52l-.22-.31c-.33-.45-.5-.99-.48-1.55l.07-2.18c.02-.51.18-.98.46-1.37l.11-1.92c.07-1.18.95-2.16,2.12-2.33.28-.12.58-.19.89-.21l.62-.03c.31-.01.62.03.91.13h.68c.4-.45.96-.74,1.56-.82.3-.04.59-.02.87.05l.44-.24c.59-.32,1.28-.39,1.93-.2.64.2,1.18.64,1.49,1.24l.03.06c.27.22.5.5.67.83l.27.55c.1.21.18.43.22.65l.2.17.6-.14c.18-.04.44-.08.64-.08.04-.02.08-.04.12-.06.04-.03.09-.07.13-.1l.53-.36c.23-.16.47-.27.73-.34-.04-.24-.04-.5,0-.74-.22-.33-.36-.72-.4-1.12l-.05-.45c-.1-.09-.19-.19-.28-.3l-.71-.89c-.42-.52-.61-1.19-.53-1.85l.08-.72c.09-.79.56-1.49,1.25-1.88.69-.39,1.53-.43,2.25-.11l.69.31s0,0,0,0h0c.47-.06.94.02,1.36.21.38,0,.77.07,1.12.23l.57.02s.08,0,.12,0c0,0,0,0,0,0,.08-.06.16-.11.25-.15l.37-.2c.55-.3,1.19-.38,1.79-.23.06-.03.11-.05.17-.08.31-.26.68-.44,1.08-.53.11-.43.33-.83.66-1.17l.48-.48c.56-.57,1.37-.83,2.16-.7l.11.02c.21-.04.42-.05.64-.03l.65.05c.61.05,1.19.32,1.61.77l.52.55c.47.5.71,1.15.69,1.82.13.14.24.3.33.46l.2.36c.22.4.33.84.31,1.27l.05.11c.33.7.32,1.52-.04,2.21l-.41.8s-.02.03-.03.05l-.03.3c-.03.24-.09.47-.18.69.19.31.32.66.36,1.03l.04-.02c.12-.06.25-.11.39-.15l.38-.11c.12-.04.25-.06.37-.08.11-.04.23-.07.35-.09l.15-.03c.37-.42.87-.75,1.4-.86l.68-.14c.17-.04.34-.05.51-.05h.53c.1,0,.21,0,.31.02.11-.2.25-.39.42-.55l.28-.28c.71-.71,1.78-.93,2.71-.55.11-.03.22-.05.33-.07l.58-.08c1-.5,2.18-.27,2.92.51.1.05.2.1.3.16.49-.2,1.08-.27,1.67-.13.16-.01.31-.01.47,0l.34-.69c.04-.08.08-.15.13-.23l.43-.68c.05-.08.1-.15.16-.22.39-.49.72-.91.9-1.16.03-.09.06-.17.09-.24.04-.24.1-.48.2-.7.37-.85,1.12-1.47,2.01-1.67,1.41-.31,2.84.37,3.55,1.55,0,.02.15.25.31.58.47.45.76,1.09.77,1.77v.16c0,.18,0,1.08,0,1.22h0s0,.09,0,.21c0,.02,0,.05.01.07l.14.38c.09.22.27.67.34.81.04.08.15.26.24.54.39.12.75.28.98.41,1.64.99,1.5,3.35,1.46,3.76,0,.04,0,.09.01.13.28.27.5.61.65.99.01.01.03.03.04.04.94.05,1.97.2,2.64.99.28,0,.57.03.84.1.71-.08,1.53.14,2.12.61.68.03,1.18.28,1.43.42.06.02.12.03.17.04.4.1,1.06.26,1.7.8,0,0,.01,0,.02.01.06,0,.13.02.2.03.29-.12.65-.21,1.07-.21,1.04,0,1.94.56,2.41,1.4.31.26.63.62.84,1.11.61-.06,1.25.08,1.75.38.38.09.74.25,1.09.48.1.06.26.15.39.21.43.07.79.22,1.06.37.09,0,.18.01.25.02.33.02.64.05.84.08.41.06.78.2,1.11.39.59.02,1.39-.13,1.59-.18.33-.09.69-.14,1.05-.14.93,0,1.74.32,2.17.5l.12.05c.58.21,1.1.59,1.77,1.11.03.02.06.05.09.07.58.15,1.53.43,2.27,1.24.04.05.23.24.88.77.01,0,.1.08.11.09.05.05.19.17.55.54.59.61.92.93,1.09,1.09.3.12.58.24.86.38.17-.01.36-.02.55-.02.68,0,1.26.11,1.78.35.04,0,.07,0,.1,0,.22.02.42.04.61.08.52.1,2.27.77,2.92,1.86.06.1.18.33.41.89.08.19.17.41.23.52.31.59.7,1.65.76,2.43.03.2.11.54.18.87.19.87.31,1.42.32,1.87h0c0,.1.1,2.39-.12,3.16-.87,2.95-1.09,3.25-1.28,3.52-.01.02-1.31,1.76-1.81,2.22-.21.19-.43.33-.63.44-.52.89-1.25,1.91-1.63,2.22-.17.14-.28.22-1.25.71-.07.16-.13.34-.2.51-.36.93-1.11,2.34-1.32,2.65-.13.2-.21.31-1.87,2.04l-.52.66c-.15.19-.33.36-.52.5.07.44.08,1-.16,1.58-.02.07-.05.19-.09.33.03.15.06.3.06.46l.09,2.26c.22.56.24,1.19.04,1.77l-.03.07c-.04.29-.19,1.15-.35,2.08-.11.63-.22,1.26-.26,1.52,0,.23,0,.65,0,.83v.11c.02.79-.34,1.54-.96,2.03l-.11.09c-.2.3-.37.56-.46.72,0,.07,0,.16,0,.24.02.15.09.47.15.71.15.56.11,1.23-.13,1.76l-.29.61c-.04.09-.09.18-.15.27l-.43.69c-.16.26-.38.49-.62.68-.18.48-.38,1-.39,1.04-.08.22-.21.45-.35.64-.43.59-.74.98-1,1.26-.09.16-.22.4-.36.67l.08.34c.2.84-.05,1.73-.66,2.35l-.09.09s-.16.16-.27.3c-.43.52-1.15.94-1.73,1.21-.22.81-.84,1.45-1.64,1.71l-.11.04c-1.08.34-1.49.41-1.87.41-.15,0-1.37.03-2.42.06-.54.31-1.18.4-1.79.26l-.81.34-.27.23s-.05.04-.07.06c-.17.59-.49,1.02-.79,1.32-.54.54-1.27.84-2.07.84-.52,0-.96-.13-1.32-.24-.08.03-.15.07-.19.1-.42.31-.83.47-1.14.57-.34.34-.8.73-1.38,1.23-.2.17-.39.33-.51.44-.02.03-.04.06-.04.06-.1.15-.21.31-.4.54-.23.28-.52.6-.86.89-.06.21-.12.41-.18.61,0,.03,0,.07,0,.1,0,.37-.07.7-.15.97.13.37.24.79.27,1.25.05.1.09.21.13.33,0,.02.66,2.03-.38,3.46-.11.15-.23.29-.37.41-.03.15-.07.31-.11.48l-.05.23c-.21,1.05-1.06,2.06-2.16,2.59-.2.19-.52.56-.67.77-.17.38-.45,1-.81,1.78-.23.5-.45.82-.59,1.03h0c-.32,1.7-1.66,3.74-2.76,4.71-.57.51-1.26.94-1.86,1.33-.17.11-.34.21-.47.3-.16.17-.29.3-.43.41,0,0,0,0-.01.01-.05.38-.12.93-.4,1.5-.24.49-.57.89-.86,1.25-.09.11-.18.22-.25.31h0c-.28.54-.71,1.34-1.49,1.88-.32.54-.83.94-1.43,1.12-.23.07-.48.1-.72.1Zm1.29-.8s-.02,0-.03,0c.01,0,.02,0,.03,0Zm-2.31-10.59c.17.08.34.17.5.29l.24.18s.06.05.09.07c.47.39.84.79,1.12,1.2.28-.3.48-.48.64-.62.39-.46.87-.77,1.54-1.19.37-.24.93-.59,1.19-.82.35-.31.92-1.25,1.01-1.6.17-1.01.51-1.59.85-2.09.05-.08.1-.15.16-.26.31-.67.65-1.41.8-1.76.26-.63,1.41-2.24,2.64-3.07.14-.64.18-.87.19-.94.04-.28.1-.54.2-.78-.03-.27-.03-.58,0-.91-.05-.11-.09-.2-.12-.28-.26-.64-.25-1.24-.17-1.74-.08-.29-.11-.6-.07-.91.05-.49.25-.96.56-1.33-.24-.82-.06-1.68.54-2.58.43-.65,1.09-1.08,1.84-1.23.07-.09.15-.19.25-.3.21-.24.47-.46,1.03-.94.31-.26.94-.8,1.11-.98.69-.85,1.54-1.13,1.98-1.25.84-.54,1.84-.87,2.49-.99,0,0,0,0,.01,0,.36-.36.81-.62,1.27-.81.3-.53.79-.94,1.39-1.14l.56-.19c.13-.04.35-.12.47-.17.16-.08.5-.22,1.21-.38.39-.09.84-.1,1.23,0,.17-.04.34-.06.51-.07.15,0,1.71-.04,2.71-.07.29-.44.65-.86,1.1-1.17,0-.55.2-1.09.55-1.53l.63-.78c.48-.95.84-1.59,1.33-2.03.08-.1.18-.23.28-.36.16-.42.41-1.09.47-1.26.18-.53.5-1,.96-1.4-.06-.41-.06-.63-.06-.73,0-.53,0-1.51.44-2.48.22-.49.69-1.21,1.09-1.79,0-.16.01-.24.01-.28.02-.21.06-.49.32-1.95.12-.7.26-1.5.29-1.72,0-.04,0-.08.02-.13,0-.05,0-.1-.01-.14l-.09-2.27c-.29-.56-.37-1.21-.2-1.82.11-.41.2-.72.27-.97-.04-.19-.06-.38-.06-.58l.02-1.07c0-.34.08-.68.23-.99.08-.17.15-.33.22-.47-.04-.5.06-1.02.3-1.49.23-.46.6-.88,1.1-1.26l.08-.06c.47-.35,1.04-.52,1.62-.5.18-.18.33-.35.44-.47.19-.35.56-1.07.72-1.5.29-.76.6-1.49.65-1.6,0,0,.04-.09.04-.1.24-.54.66-.99,1.19-1.25.41-.2.82-.4,1.12-.56.19-.3.47-.72.6-.94.37-.97,1.17-1.46,1.66-1.69.22-.27.52-.66.73-.93.16-.46.44-1.37.59-1.85,0-.44.01-1.37,0-1.69-.02-.14-.12-.57-.21-.95-.15-.71-.24-1.13-.28-1.48-.03-.11-.1-.3-.15-.42-.08-.14-.15-.3-.25-.52-.32-.04-.72-.12-1.15-.29-.08,0-.15.02-.22.02-.24.02-.41.04-.54.04-.27,0-1.41-.04-2.33-.73-.07-.03-.15-.06-.2-.08-.21-.08-.4-.16-.53-.22-.58-.27-1.04-.69-2.43-2.11l-.24-.24c-.35-.28-.75-.62-1.09-.95,0,0,0,0-.01,0-.31-.08-.72-.18-1.15-.42-.26-.15-.51-.34-.82-.58-.18-.13-.38-.3-.54-.4l-.09-.03s-.09-.04-.15-.06c-1.02.21-2.67.37-3.71.2-.4-.07-.86-.17-1.31-.41-.81-.06-1.52-.12-2.18-.51-.32-.08-.64-.2-.94-.33-.4.25-.85.4-1.33.44-.22.17-.45.3-.69.4-.32.21-.83.47-1.52.47h-.11c-.8,0-1.55-.38-2.02-1.03l-.13-.18c-.47-.65-.6-1.47-.36-2.23h0c.03-.13.06-.25.09-.38-.31-.09-.59-.22-.85-.4-.28-.06-.55-.15-.8-.28-.44-.22-.77-.5-1.01-.72-.11-.03-.23-.06-.36-.1-.03,0-.06-.02-.09-.03-.8.08-1.53-.15-2.06-.46-.11,0-.22,0-.32,0-.14.2-.32.4-.53.58-.11.11-.24.27-.35.41-.4.47-.71.84-1.27,1.12-.38.19-.77.29-.88.32l-.32.08c-.87.22-1.8-.05-2.42-.7-.62-.65-.84-1.59-.58-2.45l.11-.37c.03-.11.07-.22.11-.32-.15-.02-.28-.05-.42-.09,0,.38-.1.76-.29,1.1-.41.78-1.2,1.29-2.09,1.33l-.37.02s-.1,0-.24,0c-.99,0-1.65-.35-2.08-.74-.53-.02-1.06-.22-1.49-.58-.87-.73-1.14-1.95-.66-2.97l.34-.73c.08-.18.23-.44.45-.72.09-.27.24-.53.42-.76l.12-.14c.08-.1.49-.59.6-.69.33-.33.69-.52,1.01-.68.05-.05.12-.1.18-.15.1-.16.21-.3.31-.42l.04-.05c.07-.14.15-.26.23-.38l.04-.07s0,0,0,0c-.21-.27-.37-.54-.48-.75-.22-.29-.54-.78-.68-1.46-.11.17-.23.33-.38.47l-1.06,1.02c-.3.29-.66.5-1.05.61l-.53.15c-.46.13-.94.13-1.39,0l-.6-.18c-.71.5-1.65.6-2.45.24h0s-.21-.02-.21-.02c-.49-.05-.96-.25-1.34-.57l-.12-.1c-.14.24-.31.45-.52.64l-.38.33c-.46.4-1.04.62-1.65.62h-.6c-.29,0-.57-.05-.84-.15h-.03c-.39.14-.81.17-1.21.1-.32.23-.7.39-1.1.47-.21.19-.46.34-.73.45-.04.02-.09.03-.13.05-.25.32-.57.59-.95.76-.47.22-1,.28-1.49.19-.45.11-.93.1-1.39-.06l-.42-.14c-.38-.13-.72-.34-.99-.62-.33-.12-.64-.31-.89-.55l-.78-.75s-.02-.02-.02-.02c-1-.42-1.63-1.46-1.52-2.56v-.11c-.07-.17-.13-.35-.16-.54l-.17-.86c-.01-.07-.02-.13-.03-.2l-.13-1.13c-.07-.58.07-1.16.38-1.64-.38.36-.87.59-1.41.65-.25.15-.53.25-.82.3-.24.14-.49.23-.75.28-.13.19-.29.35-.47.5-.24.19-.51.34-.8.43.05.2.07.4.07.61v.59c0,.21-.03.43-.08.63l-.16.61c-.24.91-.96,1.61-1.88,1.81l-.16.03c-.08.15-.18.28-.29.41l-.31.36c-.06.07-.12.13-.18.19l-.48.45c-.37.35-.83.57-1.32.65-.21.15-.43.27-.67.35-.21.27-.48.5-.78.67-.47.62-1.21.99-2,.99h-.63c-.42,0-.83-.11-1.19-.3l-.41.04c-.67.06-1.33-.15-1.84-.58l-.56-.47c-.85-.03-1.59-.39-2.07-1.08l-.35-.5s0,0,0-.01h-.36c.14.64.03,1.32-.34,1.89-.26.4-.62.72-1.04.91.02.09.04.19.05.28l.03.26.11.22c.15.29.24.6.27.92l.13,1.37c.02.22.01.45-.03.67l-1.35,7.18c-.04.2-.1.39-.18.57h0s-.12.52-.12.52c-.2.85-.84,1.54-1.67,1.8-.57.18-1.18.15-1.71-.07-.26,0-.51-.05-.76-.13-.19.08-.38.14-.58.17-.38.22-.81.35-1.27.35h-.08c-.18.06-.36.1-.54.11-.32.28-.7.48-1.11.57l-.23.23s0,0,0,0c-.05.44-.21.85-.48,1.2.05.33.04.67-.04,1l-.1.39c-.12.48-.38.91-.74,1.24l-.32.29c-.11.1-.23.19-.36.27,0,.12-.01.24-.03.36.04.14.07.28.08.42.02.05.03.11.04.16.26.24.48.53.63.84.22.23.38.47.51.7l.22.28c.13.17.24.34.33.53.6.14,1.12.49,1.47.98l1.37-1.18c.83-.71,2.02-.81,2.94-.24.93.57,1.38,1.68,1.11,2.74l-.22,1.07c-.01.16-.04.32-.09.47h0s.51.02.51.02c.06,0,.13,0,.19.01l1.6.17s.01-.01.02-.02l.65-.47c.36-.26.78-.42,1.22-.47h.01c.28-.37.66-.65,1.09-.82l.36-.14.53-.53c.47-.47,1.1-.73,1.77-.73h.43l1.49-.35s.06-.01.08-.02c.11-.06.22-.12.34-.16.77-.3,1.65-.2,2.33.27l.89.62c.75.52,1.16,1.4,1.06,2.31l-.18,1.69c.39.63.48,1.39.26,2.07.09.05.18.1.26.15.29.09.56.24.79.42.43-.04.87.03,1.28.22l.66.31c.21,0,.42,0,.62.05.65.14,1.22.53,1.58,1.09.06.04.12.09.18.14.06.02.11.05.17.07.99-.11,1.93.37,2.42,1.19l.61-.07c.44-.05.89.02,1.3.2l.61.27c.08.03.15.07.22.11l.93.53c.56.32.97.84,1.15,1.45l.07.09c.51.64.66,1.45.47,2.19.04.18.08.34.1.47.01.05.02.1.03.16,0,.07.02.18.02.25l.07,1.52c0,.1,0,.21,0,.31.03.12.05.24.07.36l1.35.1.13-.09c.87-.56,2-.53,2.83.09.83.61,1.2,1.68.93,2.68l-.23.85c.16.09.32.2.46.33l.09.08s.02.02.04.03c.59.36,1.22,1.05,1.3,2.35l.3.46c.65,1,.5,2.31-.32,3.13.18.85-.1,1.75-.75,2.34l-.11.24c.05.29.07.62.04.98,0,0,0,.1,0,.1,0,.05,0,.11-.02.16.24.38.4.83.44,1.37.16.46.21,1.01.1,1.64v.08c.33-.12.69-.16,1.06-.13l.5.05c.42.04.82.19,1.17.43l.32.07c.26.06.51.16.74.3l.72.43c.65.39,1.09,1.06,1.19,1.82.09.2.16.42.2.64l.08.47c.05.28.05.57,0,.84,0,0,0,.02.01.03.21.02.42.07.62.15l.13.05c.53.04,1.04.25,1.45.6l.64.56c.7.61,1,1.54.81,2.42.05.37.04.69-.03,1.01-.04.18-.13.57-.24.95.74.37,1.26,1.08,1.36,1.93l.03.24.2.31c.12.19.22.4.28.61l.16.5c.19.62.13,1.29-.16,1.87.47,1.06.15,2.31-.79,3.01l-.14.1-.22.26c-.2.23-.43.42-.68.56-.13.12-.27.22-.41.3-.38.44-.89.73-1.46.84-.11.09-.24.16-.36.23-.16.18-.35.33-.55.46-.25.24-.55.43-.88.55-.12.27-.29.51-.51.73l-.35.35c-.15.15-.3.27-.48.37-.12.11-.25.21-.39.29-.07.06-.14.11-.21.17,0,0-.02.01-.03.02-.08.12-.16.23-.26.32-.13.39-.35.74-.64,1.01.26.24.49.5.71.76.04.01.09.02.13.04l.67.2c.42.13.8.36,1.1.68l.55.59s.05.06.08.09c.24.11.47.25.67.44l.07.06c.71.16,1.32.61,1.67,1.26l.11.21Zm2.55,1.18s0,0,0,0c0,0,0,0,0,0Zm10.61-5.69s-.02.04-.03.06c0-.02.02-.04.03-.06Zm26.34-28.57s0,.03-.02.05c0-.02.01-.03.02-.05Zm1.18-3.85h0s0,0,0,0Zm7.44-35.15s0,.05,0,.08c0-.03,0-.05,0-.08Zm5.42-.34s0,.04,0,.06c0-.02,0-.04,0-.06Zm-7.34-.88s0,0,0,0c0,0,0,0,0,0Zm-7.57-4.48h0s0,0,0,0Zm-2.09-1.01s.08.03.11.04l-.11-.04Zm-.49-.18h0Zm-6.26-.56h0,0Zm-13.84-4.36s-.02.02-.03.02c0,0,.02-.02.03-.02Zm13.84-1.07h0,0Zm-19.17-.84s0,.09.01.13c0-.04,0-.09-.01-.13h0Zm-5.15-8.84s0,0,0,.01h0Z"/>
  </g>
</svg>