<?xml version="1.0" encoding="UTF-8"?>
<svg id="Camada_1" data-name="Camada 1" xmlns="http://www.w3.org/2000/svg" viewBox="0 0 263.86 275.73">
  <defs>
    <style>
      .cls-1 {
        fill: #fff;
      }

      .cls-2 {
        fill: #094783;
      }

      .cls-3 {
        fill: #27b8d4;
      }
    </style>
  </defs>
  <path class="cls-3" d="m59.74,0h175.69c15.69,0,28.43,12.74,28.43,28.43v187.56c0,32.97-26.77,59.74-59.74,59.74H59.74c-32.97,0-59.74-26.77-59.74-59.74V59.74C0,26.77,26.77,0,59.74,0Z"/>
  <g>
    <path class="cls-1" d="m88.69,183c-.13,1.84-.81,3.28-2.03,4.34s-2.83,1.58-4.83,1.58c-2.19,0-3.91-.74-5.16-2.21s-1.88-3.49-1.88-6.06v-1.04c0-1.64.29-3.09.87-4.34s1.4-2.21,2.48-2.88,2.32-1,3.74-1c1.97,0,3.55.53,4.76,1.58s1.9,2.54,2.09,4.44h-3.52c-.09-1.1-.39-1.9-.92-2.4s-1.33-.74-2.41-.74c-1.17,0-2.05.42-2.63,1.26s-.88,2.14-.9,3.91v1.29c0,1.84.28,3.19.84,4.04s1.44,1.28,2.64,1.28c1.09,0,1.9-.25,2.43-.74s.84-1.26.92-2.3h3.52Z"/>
    <path class="cls-1" d="m96.62,188.92c-1.86,0-3.37-.57-4.54-1.71s-1.75-2.66-1.75-4.56v-.33c0-1.27.25-2.41.74-3.42s1.19-1.78,2.09-2.32,1.93-.81,3.09-.81c1.73,0,3.1.55,4.1,1.64s1.49,2.64,1.49,4.65v1.38h-8.07c.11.83.44,1.49.99,1.99s1.25.75,2.09.75c1.3,0,2.32-.47,3.06-1.42l1.66,1.86c-.51.72-1.2,1.28-2.06,1.68s-1.83.6-2.88.6Zm-.39-10.42c-.67,0-1.22.23-1.63.68-.42.46-.69,1.11-.8,1.95h4.71v-.27c-.02-.75-.22-1.34-.61-1.75-.39-.41-.95-.62-1.66-.62Z"/>
    <path class="cls-1" d="m106.87,176l.11,1.46c.91-1.13,2.12-1.7,3.64-1.7,1.34,0,2.34.39,3,1.18s.99,1.97,1.01,3.54v8.19h-3.39v-8.11c0-.72-.16-1.24-.47-1.56s-.83-.49-1.56-.49c-.95,0-1.67.41-2.14,1.22v8.94h-3.39v-12.68h3.19Z"/>
    <path class="cls-1" d="m121.25,172.88v3.12h2.17v2.48h-2.17v6.33c0,.47.09.8.27,1.01s.52.3,1.03.3c.38,0,.71-.03,1-.08v2.57c-.66.2-1.35.3-2.05.3-2.38,0-3.59-1.2-3.63-3.6v-6.83h-1.85v-2.48h1.85v-3.12h3.39Z"/>
    <path class="cls-1" d="m132.43,179.18c-.46-.06-.87-.09-1.22-.09-1.28,0-2.12.43-2.52,1.3v8.3h-3.39v-12.68h3.2l.09,1.51c.68-1.16,1.62-1.75,2.82-1.75.38,0,.73.05,1.05.15l-.05,3.26Z"/>
    <path class="cls-1" d="m141.05,188.68c-.16-.3-.27-.68-.34-1.14-.82.91-1.89,1.37-3.2,1.37-1.24,0-2.27-.36-3.09-1.08s-1.22-1.62-1.22-2.72c0-1.34.5-2.38,1.49-3.09s2.44-1.08,4.32-1.09h1.56v-.73c0-.59-.15-1.05-.45-1.41s-.78-.53-1.42-.53c-.57,0-1.02.14-1.34.41s-.49.65-.49,1.12h-3.39c0-.73.23-1.41.68-2.04s1.09-1.12,1.92-1.47,1.76-.53,2.79-.53c1.56,0,2.8.39,3.72,1.18s1.38,1.89,1.38,3.31v5.5c0,1.2.18,2.11.5,2.73v.2h-3.42Zm-2.8-2.36c.5,0,.96-.11,1.38-.33s.73-.52.94-.9v-2.18h-1.27c-1.7,0-2.6.59-2.71,1.76v.2c-.01.42.14.77.43,1.04s.7.41,1.22.41Z"/>
    <path class="cls-1" d="m150.15,188.68h-3.4v-18h3.4v18Z"/>
    <path class="cls-1" d="m158.39,182.25c0-1.98.44-3.55,1.33-4.72s2.1-1.76,3.64-1.76c1.23,0,2.25.46,3.06,1.38v-6.47h3.4v18h-3.06l-.16-1.35c-.84,1.05-1.93,1.58-3.26,1.58-1.49,0-2.69-.59-3.59-1.76s-1.35-2.81-1.35-4.9Zm3.39.25c0,1.19.21,2.1.62,2.73s1.02.95,1.8.95c1.05,0,1.79-.44,2.21-1.33v-5.01c-.42-.88-1.15-1.33-2.19-1.33-1.63,0-2.45,1.33-2.45,3.98Z"/>
    <path class="cls-1" d="m178.27,188.92c-1.86,0-3.37-.57-4.54-1.71s-1.75-2.66-1.75-4.56v-.33c0-1.27.25-2.41.74-3.42s1.19-1.78,2.09-2.32,1.93-.81,3.09-.81c1.73,0,3.1.55,4.1,1.64s1.49,2.64,1.49,4.65v1.38h-8.07c.11.83.44,1.49.99,1.99s1.25.75,2.09.75c1.3,0,2.32-.47,3.06-1.42l1.66,1.86c-.51.72-1.2,1.28-2.06,1.68s-1.83.6-2.88.6Zm-.39-10.42c-.67,0-1.22.23-1.63.68-.42.46-.69,1.11-.8,1.95h4.71v-.27c-.02-.75-.22-1.34-.61-1.75-.39-.41-.95-.62-1.66-.62Z"/>
    <path class="cls-1" d="m56.24,207.98c-.46-.06-.87-.09-1.22-.09-1.28,0-2.12.43-2.52,1.3v8.3h-3.39v-12.68h3.2l.09,1.51c.68-1.16,1.62-1.75,2.82-1.75.38,0,.73.05,1.05.15l-.05,3.26Z"/>
    <path class="cls-1" d="m63.7,217.71c-1.86,0-3.37-.57-4.54-1.71s-1.75-2.66-1.75-4.56v-.33c0-1.27.25-2.41.74-3.42s1.19-1.78,2.09-2.32,1.93-.81,3.09-.81c1.73,0,3.1.55,4.1,1.64s1.49,2.64,1.49,4.65v1.38h-8.07c.11.83.44,1.49.99,1.99s1.25.75,2.09.75c1.3,0,2.32-.47,3.06-1.42l1.66,1.86c-.51.72-1.2,1.28-2.06,1.68s-1.83.6-2.88.6Zm-.39-10.42c-.67,0-1.22.23-1.63.68-.42.46-.69,1.11-.8,1.95h4.71v-.27c-.02-.75-.22-1.34-.61-1.75-.39-.41-.95-.62-1.66-.62Z"/>
    <path class="cls-1" d="m74.42,217.48h-3.4v-18h3.4v18Z"/>
    <path class="cls-1" d="m84.55,217.48c-.16-.3-.27-.68-.34-1.14-.82.91-1.89,1.37-3.2,1.37-1.24,0-2.27-.36-3.09-1.08s-1.22-1.62-1.22-2.72c0-1.34.5-2.38,1.49-3.09s2.44-1.08,4.32-1.09h1.56v-.73c0-.59-.15-1.05-.45-1.41s-.78-.53-1.42-.53c-.57,0-1.02.14-1.34.41s-.49.65-.49,1.12h-3.39c0-.73.23-1.41.68-2.04s1.09-1.12,1.92-1.47,1.76-.53,2.79-.53c1.56,0,2.8.39,3.72,1.18s1.38,1.89,1.38,3.31v5.5c0,1.2.18,2.11.5,2.73v.2h-3.42Zm-2.8-2.36c.5,0,.96-.11,1.38-.33s.73-.52.94-.9v-2.18h-1.27c-1.7,0-2.6.59-2.71,1.76v.2c-.01.42.14.77.43,1.04s.7.41,1.22.41Z"/>
    <path class="cls-1" d="m95.34,214.98c.62,0,1.13-.17,1.52-.52s.59-.8.61-1.37h3.18c0,.86-.24,1.65-.7,2.36s-1.09,1.27-1.89,1.66-1.69.59-2.65.59c-1.81,0-3.24-.58-4.29-1.73s-1.57-2.74-1.57-4.78v-.22c0-1.95.52-3.51,1.56-4.68s2.46-1.75,4.28-1.75c1.59,0,2.86.45,3.81,1.35s1.44,2.1,1.46,3.6h-3.18c-.02-.66-.22-1.2-.61-1.61-.39-.41-.91-.62-1.55-.62-.79,0-1.38.29-1.79.86-.4.57-.6,1.51-.6,2.8v.35c0,1.31.2,2.25.6,2.82.4.57,1,.86,1.82.86Z"/>
    <path class="cls-1" d="m102.56,201.52c0-.51.17-.93.51-1.25s.8-.49,1.39-.49,1.04.16,1.38.49.52.75.52,1.25-.17.94-.52,1.27-.81.49-1.38.49-1.03-.16-1.38-.49-.52-.75-.52-1.27Zm3.6,15.96h-3.4v-12.68h3.4v12.68Z"/>
    <path class="cls-1" d="m108.42,211.02c0-1.26.24-2.38.73-3.36s1.18-1.75,2.09-2.29,1.97-.81,3.17-.81c1.71,0,3.11.52,4.19,1.57s1.69,2.47,1.81,4.27l.02.87c0,1.95-.54,3.51-1.63,4.68s-2.54,1.76-4.37,1.76-3.29-.59-4.38-1.76-1.63-2.77-1.63-4.78v-.15Zm3.39.24c0,1.21.23,2.13.68,2.76s1.1.96,1.95.96,1.46-.31,1.92-.94.69-1.64.69-3.02c0-1.18-.23-2.1-.69-2.75s-1.11-.97-1.95-.97-1.47.32-1.92.97-.68,1.65-.68,3Z"/>
    <path class="cls-1" d="m125.64,204.8l.11,1.46c.91-1.13,2.12-1.7,3.64-1.7,1.34,0,2.34.39,3,1.18s.99,1.97,1.01,3.54v8.19h-3.39v-8.11c0-.72-.16-1.24-.47-1.56s-.83-.49-1.56-.49c-.95,0-1.67.41-2.14,1.22v8.94h-3.39v-12.68h3.19Z"/>
    <path class="cls-1" d="m143.31,217.48c-.16-.3-.27-.68-.34-1.14-.82.91-1.89,1.37-3.2,1.37-1.24,0-2.27-.36-3.09-1.08s-1.22-1.62-1.22-2.72c0-1.34.5-2.38,1.49-3.09s2.44-1.08,4.32-1.09h1.56v-.73c0-.59-.15-1.05-.45-1.41s-.78-.53-1.42-.53c-.57,0-1.02.14-1.34.41s-.49.65-.49,1.12h-3.39c0-.73.23-1.41.68-2.04s1.09-1.12,1.92-1.47,1.76-.53,2.79-.53c1.56,0,2.8.39,3.72,1.18s1.38,1.89,1.38,3.31v5.5c0,1.2.18,2.11.5,2.73v.2h-3.42Zm-2.8-2.36c.5,0,.96-.11,1.38-.33s.73-.52.94-.9v-2.18h-1.27c-1.7,0-2.6.59-2.71,1.76v.2c-.01.42.14.77.43,1.04s.7.41,1.22.41Z"/>
    <path class="cls-1" d="m152.01,204.8l.11,1.42c.9-1.1,2.11-1.65,3.64-1.65,1.63,0,2.75.64,3.36,1.93.89-1.29,2.16-1.93,3.81-1.93,1.38,0,2.4.4,3.07,1.2s1.01,2.01,1.01,3.62v8.1h-3.4v-8.09c0-.72-.14-1.24-.42-1.58s-.78-.5-1.49-.5c-1.02,0-1.72.48-2.11,1.45v8.71s-3.38,0-3.38,0v-8.07c0-.73-.14-1.27-.43-1.59s-.78-.49-1.48-.49c-.96,0-1.66.4-2.09,1.2v8.96h-3.39v-12.68h3.18Z"/>
    <path class="cls-1" d="m175.44,217.71c-1.86,0-3.37-.57-4.54-1.71s-1.75-2.66-1.75-4.56v-.33c0-1.27.25-2.41.74-3.42s1.19-1.78,2.09-2.32,1.93-.81,3.09-.81c1.73,0,3.1.55,4.1,1.64s1.49,2.64,1.49,4.65v1.38h-8.07c.11.83.44,1.49.99,1.99s1.25.75,2.09.75c1.3,0,2.32-.47,3.06-1.42l1.66,1.86c-.51.72-1.2,1.28-2.06,1.68s-1.83.6-2.88.6Zm-.39-10.42c-.67,0-1.22.23-1.63.68-.42.46-.69,1.11-.8,1.95h4.71v-.27c-.02-.75-.22-1.34-.61-1.75-.39-.41-.95-.62-1.66-.62Z"/>
    <path class="cls-1" d="m185.7,204.8l.11,1.46c.91-1.13,2.12-1.7,3.64-1.7,1.34,0,2.34.39,3,1.18s.99,1.97,1.01,3.54v8.19h-3.39v-8.11c0-.72-.16-1.24-.47-1.56s-.83-.49-1.56-.49c-.95,0-1.67.41-2.14,1.22v8.94h-3.39v-12.68h3.19Z"/>
    <path class="cls-1" d="m200.08,201.68v3.12h2.17v2.48h-2.17v6.33c0,.47.09.8.27,1.01s.52.3,1.03.3c.38,0,.71-.03,1-.08v2.57c-.66.2-1.35.3-2.05.3-2.38,0-3.59-1.2-3.63-3.6v-6.83h-1.85v-2.48h1.85v-3.12h3.39Z"/>
    <path class="cls-1" d="m203.25,211.02c0-1.26.24-2.38.73-3.36s1.18-1.75,2.09-2.29,1.97-.81,3.17-.81c1.71,0,3.11.52,4.19,1.57s1.69,2.47,1.81,4.27l.02.87c0,1.95-.54,3.51-1.63,4.68s-2.54,1.76-4.37,1.76-3.29-.59-4.38-1.76-1.63-2.77-1.63-4.78v-.15Zm3.39.24c0,1.21.23,2.13.68,2.76s1.1.96,1.95.96,1.46-.31,1.92-.94.69-1.64.69-3.02c0-1.18-.23-2.1-.69-2.75s-1.11-.97-1.95-.97-1.47.32-1.92.97-.68,1.65-.68,3Z"/>
  </g>
  <g>
    <path class="cls-2" d="m153.71,132c-1.2-.2-2.41-.36-3.61-.6-4.6-.89-8.92-2.62-13.1-4.67-8.43-4.14-16.09-9.42-22.8-15.99-9.88-9.65-17.84-20.61-22.39-33.8-1.27-3.69-2.05-7.46-1.97-11.39.08-3.67,1.22-6.91,3.78-9.56,2.44-2.53,4.86-5.11,7.52-7.41,3.99-3.44,8.24-3.32,12.07.34,3.98,3.8,7.83,7.73,11.6,11.74,2.87,3.04,2.85,7.65.04,10.74-2.14,2.35-4.43,4.57-6.7,6.8-.44.43-.48.73-.22,1.27,1.8,3.8,4.31,7.1,7.05,10.24,3.99,4.56,8.42,8.64,13.53,11.92,1.36.87,2.8,1.6,4.42,2.52.35-.42.67-.88,1.06-1.27,2.05-2.02,4.02-4.12,6.19-6.01,3.29-2.88,7.78-2.8,10.93.22,4.03,3.87,7.99,7.82,11.85,11.85,3.46,3.62,3.17,8.48-.55,12.35-2.13,2.21-4.29,4.4-6.45,6.58-2.22,2.23-4.88,3.57-8.02,3.96-.13.02-.24.1-.36.16h-3.86Zm1.1-4.35c3.37.05,5.76-.64,7.66-2.48,2.42-2.35,4.78-4.78,7.08-7.25,1.92-2.06,1.93-4.15-.02-6.16-3.72-3.83-7.5-7.58-11.32-11.31-1.59-1.55-3.55-1.53-5.3-.14-.37.3-.72.62-1.05.96-2.08,2.07-4.14,4.15-6.23,6.21-1.35,1.34-2.82,1.57-4.51.71-1.24-.63-2.49-1.27-3.68-1.98-5.67-3.42-10.57-7.75-14.98-12.66-3.5-3.9-6.67-8.02-8.82-12.85-1.02-2.29-.8-3.49,1-5.23,1.93-1.86,3.84-3.75,5.75-5.63.32-.31.62-.65.9-.99,1.58-1.87,1.63-3.86-.09-5.62-3.76-3.86-7.6-7.65-11.43-11.44-.4-.4-.94-.71-1.47-.92-1.92-.78-3.42.07-4.75,1.36-2.14,2.09-4.3,4.16-6.32,6.36-.94,1.03-1.77,2.25-2.31,3.53-1.14,2.72-.84,5.59-.28,8.4,1.13,5.65,3.38,10.9,6.17,15.9,4.89,8.75,11.11,16.45,18.56,23.16,7.3,6.58,15.48,11.78,24.6,15.46,3.71,1.5,7.56,2.49,10.84,2.6Z"/>
    <path class="cls-2" d="m157.78,133h-4.23s-1.14-.19-1.14-.19c-.84-.13-1.67-.26-2.5-.42-4.12-.79-8.36-2.31-13.35-4.76-8.69-4.27-16.45-9.71-23.06-16.17-11.01-10.75-18.41-21.94-22.64-34.19-1.44-4.18-2.1-8.02-2.02-11.74.09-4.1,1.46-7.54,4.06-10.24l.99-1.03c2.09-2.18,4.26-4.43,6.59-6.44,4.35-3.75,9.24-3.62,13.41.37,3.63,3.47,7.44,7.32,11.64,11.77,3.21,3.4,3.23,8.6.06,12.1-1.82,2.01-3.78,3.93-5.67,5.79l-1.06,1.05s-.04.04-.05.05c0,.02.02.05.04.08,1.52,3.2,3.65,6.29,6.9,10.01,4.26,4.88,8.62,8.72,13.32,11.74.89.57,1.83,1.09,2.83,1.64.26.14.52.29.79.43.19-.23.38-.47.61-.69.55-.54,1.1-1.09,1.64-1.64,1.47-1.48,2.99-3.01,4.59-4.41,3.71-3.24,8.76-3.13,12.28.25,4.27,4.1,8.15,7.99,11.88,11.88,3.77,3.95,3.55,9.47-.55,13.73-2.34,2.43-4.68,4.8-6.47,6.59-2.37,2.38-5.23,3.81-8.5,4.23-.08.04-.13.07-.18.09l-.19.09Zm-3.99-2h3.54c.13-.07.29-.13.48-.15,2.86-.35,5.36-1.59,7.43-3.67,1.78-1.79,4.11-4.15,6.44-6.57,3.41-3.55,3.62-7.75.55-10.97-3.7-3.87-7.57-7.74-11.82-11.82-2.75-2.64-6.69-2.72-9.58-.19-1.55,1.36-3.04,2.86-4.49,4.31-.55.55-1.1,1.11-1.66,1.66-.22.22-.43.49-.65.77-.11.14-.23.29-.34.43l-.54.64-.73-.41c-.52-.29-1.02-.57-1.51-.84-1.03-.57-2.01-1.1-2.95-1.71-4.86-3.13-9.36-7.09-13.74-12.11-3.38-3.86-5.6-7.09-7.2-10.47-.45-.94-.32-1.68.42-2.41l1.07-1.05c1.87-1.84,3.81-3.75,5.59-5.71,2.47-2.71,2.45-6.75-.03-9.38-4.18-4.43-7.96-8.26-11.57-11.7-3.44-3.28-7.15-3.39-10.72-.3-2.26,1.95-4.4,4.17-6.46,6.31l-.99,1.03c-2.27,2.35-3.42,5.26-3.5,8.89-.08,3.48.55,7.09,1.91,11.04,4.12,11.95,11.36,22.88,22.14,33.41,6.46,6.31,14.04,11.63,22.55,15.8,4.82,2.37,8.91,3.83,12.85,4.59.81.16,1.62.28,2.43.41l1.07.17Zm1.36-2.35c-.12,0-.24,0-.35,0h-.02c-3.26-.11-7.13-1.03-11.18-2.67-9.06-3.66-17.43-8.92-24.89-15.65-7.58-6.83-13.89-14.71-18.76-23.42-3.18-5.69-5.24-10.99-6.28-16.19-.55-2.73-.94-5.94.34-8.98.56-1.33,1.42-2.65,2.5-3.82,1.81-1.97,3.74-3.85,5.62-5.68l.74-.72c.71-.69,2.85-2.78,5.82-1.57.5.2,1.22.57,1.8,1.14l.5.5c3.6,3.57,7.33,7.26,10.94,10.95,2.05,2.1,2.1,4.64.14,6.96-.31.36-.63.72-.97,1.06l-.78.77c-1.65,1.63-3.31,3.26-4.97,4.87-1.5,1.45-1.64,2.18-.78,4.11,2.32,5.19,5.84,9.45,8.65,12.59,4.71,5.25,9.54,9.33,14.75,12.47,1.19.72,2.48,1.37,3.61,1.95,1.3.66,2.31.5,3.35-.53,1.24-1.23,2.48-2.47,3.72-3.7l2.51-2.51c.44-.43.79-.75,1.13-1.03,2.18-1.74,4.71-1.66,6.62.2,4.4,4.3,8,7.9,11.34,11.33,2.32,2.39,2.33,5.07.03,7.54-2.37,2.55-4.77,5-7.12,7.29-1.96,1.9-4.44,2.76-8.02,2.76Zm-.31-2c3.27.05,5.3-.61,6.94-2.2,2.33-2.26,4.7-4.69,7.05-7.21,1.57-1.69,1.57-3.16,0-4.78-3.32-3.42-6.92-7.01-11.3-11.29-1.51-1.48-3-.85-3.98-.07-.29.23-.59.5-.97.89l-2.5,2.5c-1.24,1.24-2.48,2.48-3.73,3.71-1.67,1.65-3.58,1.95-5.67.89-1.17-.59-2.49-1.26-3.74-2.02-5.38-3.25-10.36-7.45-15.2-12.85-2.91-3.24-6.56-7.66-8.99-13.11-1.19-2.67-.87-4.34,1.22-6.36,1.66-1.61,3.31-3.23,4.96-4.85l.78-.77c.3-.29.57-.6.84-.92,1.29-1.52,1.28-2.92-.04-4.27-3.59-3.68-7.31-7.37-10.91-10.93l-.5-.5c-.27-.27-.68-.52-1.14-.71-1.25-.51-2.31-.17-3.67,1.15l-.74.72c-1.85,1.81-3.77,3.67-5.54,5.6-.92,1-1.66,2.12-2.12,3.24-1.06,2.54-.74,5.26-.22,7.82,1,4.99,2.99,10.1,6.07,15.61,4.76,8.51,10.93,16.22,18.35,22.91,7.28,6.57,15.46,11.71,24.3,15.28,3.78,1.53,7.5,2.42,10.49,2.52Z"/>
  </g>
</svg>