<?xml version="1.0" encoding="UTF-8"?>
<svg id="Camada_1" data-name="Camada 1" xmlns="http://www.w3.org/2000/svg" viewBox="0 0 263.86 275.73">
  <defs>
    <style>
      .cls-1 {
        fill: #fff;
      }

      .cls-2 {
        fill: #094783;
      }

      .cls-3 {
        fill: #27b8d4;
      }
    </style>
  </defs>
  <path class="cls-3" d="m59.74,0h175.69c15.69,0,28.43,12.74,28.43,28.43v187.56c0,32.97-26.77,59.74-59.74,59.74H59.74c-32.97,0-59.74-26.77-59.74-59.74V59.74C0,26.77,26.77,0,59.74,0Z"/>
  <g>
    <path class="cls-1" d="m86.22,185.17h-6.16l-1.17,3.52h-3.74l6.35-17.06h3.26l6.39,17.06h-3.74l-1.18-3.52Zm-5.21-2.85h4.27l-2.14-6.39-2.12,6.39Z"/>
    <path class="cls-1" d="m103.92,182.46c0,1.95-.44,3.52-1.33,4.69s-2.08,1.76-3.59,1.76c-1.28,0-2.32-.45-3.11-1.34v5.98h-3.39v-17.55h3.14l.12,1.24c.82-.98,1.89-1.48,3.21-1.48,1.56,0,2.78.58,3.64,1.73s1.3,2.75,1.3,4.78v.18Zm-3.39-.25c0-1.18-.21-2.09-.63-2.73s-1.03-.96-1.82-.96c-1.06,0-1.79.41-2.19,1.22v5.19c.41.84,1.15,1.25,2.21,1.25,1.62,0,2.43-1.32,2.43-3.97Z"/>
    <path class="cls-1" d="m109.59,188.68h-3.4v-18h3.4v18Z"/>
    <path class="cls-1" d="m112.36,172.72c0-.51.17-.93.51-1.25s.8-.49,1.39-.49,1.04.16,1.38.49.52.75.52,1.25-.17.94-.52,1.27-.81.49-1.38.49-1.03-.16-1.38-.49-.52-.75-.52-1.27Zm3.6,15.96h-3.4v-12.68h3.4v12.68Z"/>
    <path class="cls-1" d="m124.02,186.18c.62,0,1.13-.17,1.52-.52s.59-.8.61-1.37h3.18c0,.86-.24,1.65-.7,2.36s-1.09,1.27-1.89,1.66-1.69.59-2.65.59c-1.81,0-3.24-.58-4.29-1.73s-1.57-2.74-1.57-4.78v-.22c0-1.95.52-3.51,1.56-4.68s2.46-1.75,4.28-1.75c1.59,0,2.86.45,3.81,1.35s1.44,2.1,1.46,3.6h-3.18c-.02-.66-.22-1.2-.61-1.61-.39-.41-.91-.62-1.55-.62-.79,0-1.38.29-1.79.86-.4.57-.6,1.51-.6,2.8v.35c0,1.31.2,2.25.6,2.82s1,.86,1.82.86Z"/>
    <path class="cls-1" d="m138.61,188.68c-.16-.3-.27-.68-.34-1.14-.82.91-1.89,1.37-3.2,1.37-1.24,0-2.27-.36-3.09-1.08s-1.22-1.62-1.22-2.72c0-1.34.5-2.38,1.49-3.09s2.44-1.08,4.32-1.09h1.56v-.73c0-.59-.15-1.05-.45-1.41s-.78-.53-1.42-.53c-.57,0-1.02.14-1.34.41s-.49.65-.49,1.12h-3.39c0-.73.23-1.41.68-2.04s1.09-1.12,1.92-1.47,1.76-.53,2.79-.53c1.56,0,2.8.39,3.72,1.18s1.38,1.89,1.38,3.31v5.5c0,1.2.18,2.11.5,2.73v.2h-3.42Zm-2.8-2.36c.5,0,.96-.11,1.38-.33s.73-.52.94-.9v-2.18h-1.27c-1.7,0-2.6.59-2.71,1.76v.2c-.01.42.14.77.43,1.04s.7.41,1.22.41Z"/>
    <path class="cls-1" d="m148.18,172.88v3.12h2.17v2.48h-2.17v6.33c0,.47.09.8.27,1.01s.52.3,1.03.3c.38,0,.71-.03,1-.08v2.57c-.66.2-1.35.3-2.05.3-2.38,0-3.59-1.2-3.63-3.6v-6.83h-1.85v-2.48h1.85v-3.12h3.39Z"/>
    <path class="cls-1" d="m152.22,172.72c0-.51.17-.93.51-1.25s.8-.49,1.39-.49,1.04.16,1.38.49.52.75.52,1.25-.17.94-.52,1.27-.81.49-1.38.49-1.03-.16-1.38-.49-.52-.75-.52-1.27Zm3.6,15.96h-3.4v-12.68h3.4v12.68Z"/>
    <path class="cls-1" d="m163.35,184.54l2.36-8.54h3.54l-4.28,12.68h-3.23l-4.28-12.68h3.54l2.36,8.54Z"/>
    <path class="cls-1" d="m170.03,182.22c0-1.26.24-2.38.73-3.36s1.18-1.75,2.09-2.29,1.97-.81,3.17-.81c1.71,0,3.11.52,4.19,1.57s1.69,2.47,1.81,4.27l.02.87c0,1.95-.54,3.51-1.63,4.68s-2.54,1.76-4.37,1.76-3.29-.59-4.38-1.76-1.63-2.77-1.63-4.78v-.15Zm3.39.24c0,1.21.23,2.13.68,2.76s1.1.96,1.95.96,1.46-.31,1.92-.94.69-1.64.69-3.02c0-1.18-.23-2.1-.69-2.75s-1.11-.97-1.95-.97-1.47.32-1.92.97-.68,1.64-.68,3Z"/>
    <path class="cls-1" d="m85.17,211.47v6.01h-3.52v-17.06h6.66c1.28,0,2.41.23,3.38.7s1.72,1.13,2.24,2,.79,1.85.79,2.95c0,1.67-.57,2.99-1.72,3.96s-2.73,1.45-4.75,1.45h-3.08Zm0-2.85h3.14c.93,0,1.64-.22,2.13-.66s.73-1.06.73-1.88-.25-1.51-.74-2.03-1.17-.78-2.04-.8h-3.22v5.36Z"/>
    <path class="cls-1" d="m104.04,207.98c-.46-.06-.87-.09-1.22-.09-1.28,0-2.12.43-2.52,1.3v8.3h-3.39v-12.68h3.2l.09,1.51c.68-1.16,1.62-1.75,2.82-1.75.38,0,.73.05,1.05.15l-.05,3.26Z"/>
    <path class="cls-1" d="m111.51,217.71c-1.86,0-3.37-.57-4.54-1.71s-1.75-2.66-1.75-4.56v-.33c0-1.27.25-2.41.74-3.42s1.19-1.78,2.09-2.32,1.93-.81,3.09-.81c1.73,0,3.1.55,4.1,1.64s1.49,2.64,1.49,4.65v1.38h-8.07c.11.83.44,1.49.99,1.99s1.25.75,2.09.75c1.3,0,2.32-.47,3.06-1.42l1.66,1.86c-.51.72-1.2,1.28-2.06,1.68s-1.83.6-2.88.6Zm-.39-10.42c-.67,0-1.22.23-1.63.68-.42.46-.69,1.11-.8,1.95h4.71v-.27c-.02-.75-.22-1.34-.61-1.75s-.95-.62-1.66-.62Z"/>
    <path class="cls-1" d="m123.24,213.34l2.36-8.54h3.54l-4.28,12.68h-3.23l-4.28-12.68h3.54l2.36,8.54Z"/>
    <path class="cls-1" d="m130.59,201.52c0-.51.17-.93.51-1.25s.8-.49,1.39-.49,1.04.16,1.38.49.52.75.52,1.25-.17.94-.52,1.27-.81.49-1.38.49-1.03-.16-1.38-.49-.52-.75-.52-1.27Zm3.6,15.96h-3.4v-12.68h3.4v12.68Z"/>
    <path class="cls-1" d="m136.45,211.05c0-1.98.44-3.55,1.33-4.72s2.1-1.76,3.64-1.76c1.23,0,2.25.46,3.06,1.38v-6.47h3.4v18h-3.06l-.16-1.35c-.84,1.05-1.93,1.58-3.26,1.58-1.49,0-2.69-.59-3.59-1.76s-1.35-2.81-1.35-4.9Zm3.39.25c0,1.19.21,2.1.62,2.74s1.02.95,1.8.95c1.05,0,1.79-.44,2.21-1.33v-5.01c-.42-.88-1.15-1.33-2.19-1.33-1.63,0-2.45,1.33-2.45,3.98Z"/>
    <path class="cls-1" d="m156.34,217.71c-1.86,0-3.37-.57-4.54-1.71s-1.75-2.66-1.75-4.56v-.33c0-1.27.25-2.41.74-3.42s1.19-1.78,2.09-2.32,1.93-.81,3.09-.81c1.73,0,3.1.55,4.1,1.64s1.49,2.64,1.49,4.65v1.38h-8.07c.11.83.44,1.49.99,1.99s1.25.75,2.09.75c1.3,0,2.32-.47,3.06-1.42l1.66,1.86c-.51.72-1.2,1.28-2.06,1.68s-1.83.6-2.88.6Zm-.39-10.42c-.67,0-1.22.23-1.63.68-.42.46-.69,1.11-.8,1.95h4.71v-.27c-.02-.75-.22-1.34-.61-1.75s-.95-.62-1.66-.62Z"/>
    <path class="cls-1" d="m166.59,204.8l.11,1.46c.91-1.13,2.12-1.7,3.64-1.7,1.34,0,2.34.39,3,1.18s.99,1.97,1.01,3.54v8.19h-3.39v-8.11c0-.72-.16-1.24-.47-1.56s-.83-.49-1.56-.49c-.95,0-1.67.41-2.14,1.22v8.94h-3.39v-12.68h3.19Z"/>
    <path class="cls-1" d="m180.97,201.68v3.12h2.17v2.48h-2.17v6.33c0,.47.09.8.27,1.01s.52.3,1.03.3c.38,0,.71-.03,1-.08v2.57c-.66.2-1.35.3-2.05.3-2.38,0-3.59-1.2-3.63-3.6v-6.83h-1.85v-2.48h1.85v-3.12h3.39Z"/>
  </g>
  <g>
    <path class="cls-2" d="m108.85,35.41c-3.25,0-5.91,2.65-5.91,5.91v89.77c0,3.25,2.65,5.91,5.91,5.91h49.61c3.25,0,5.91-2.65,5.91-5.91V41.32c0-3.25-2.65-5.91-5.91-5.91h-49.61Zm0,2.36h49.61c1.98,0,3.54,1.56,3.54,3.54v5.91h-56.7v-5.91c0-1.98,1.56-3.54,3.54-3.54h0Zm-3.54,11.81h56.7v68.51h-56.7V49.59Zm0,70.88h56.7v10.63c0,1.98-1.56,3.54-3.54,3.54h-49.61c-1.98,0-3.54-1.56-3.54-3.54v-10.63Zm28.35,3.54c-1.96,0-3.54,1.59-3.54,3.54s1.59,3.54,3.54,3.54,3.54-1.59,3.54-3.54-1.59-3.54-3.54-3.54Z"/>
    <path class="cls-2" d="m158.46,138h-49.61c-3.81,0-6.91-3.1-6.91-6.91V41.32c0-3.81,3.1-6.91,6.91-6.91h49.61c3.81,0,6.91,3.1,6.91,6.91v89.77c0,3.81-3.1,6.91-6.91,6.91Zm-49.61-101.59c-2.71,0-4.91,2.2-4.91,4.91v89.77c0,2.71,2.2,4.91,4.91,4.91h49.61c2.71,0,4.91-2.2,4.91-4.91V41.32c0-2.71-2.2-4.91-4.91-4.91h-49.61Zm49.61,99.22h-49.61c-2.55,0-4.54-2-4.54-4.54v-11.63h58.7v11.63c0,2.55-2,4.54-4.54,4.54Zm-52.16-14.17v9.63c0,1.43,1.12,2.54,2.54,2.54h49.61c1.43,0,2.54-1.12,2.54-2.54v-9.63h-54.7Zm27.35,10.63c-2.51,0-4.54-2.04-4.54-4.54s2.04-4.54,4.54-4.54,4.54,2.04,4.54,4.54-2.04,4.54-4.54,4.54Zm0-7.09c-1.4,0-2.54,1.14-2.54,2.54s1.14,2.54,2.54,2.54,2.54-1.14,2.54-2.54-1.14-2.54-2.54-2.54Zm29.35-5.91h-58.7V48.59h58.7v70.51Zm-56.7-2h54.7V50.59h-54.7v66.51Zm56.7-68.87h-58.7v-6.91c0-2.55,2-4.54,4.54-4.54h49.61c2.55,0,4.54,2,4.54,4.54v6.91Zm-56.7-2h54.7v-4.91c0-1.43-1.12-2.54-2.54-2.54h-49.61c-1.43,0-2.54,1.12-2.54,2.54v4.91Z"/>
  </g>
</svg>