<?xml version="1.0" encoding="UTF-8"?>
<svg id="Camada_1" data-name="Camada 1" xmlns="http://www.w3.org/2000/svg" viewBox="0 0 263.86 275.73">
  <defs>
    <style>
      .cls-1 {
        fill: #fff;
      }

      .cls-2 {
        fill: #094783;
      }

      .cls-3 {
        fill: #27b8d4;
      }
    </style>
  </defs>
  <g>
    <path class="cls-3" d="m59.74,0h175.69c15.69,0,28.43,12.74,28.43,28.43v187.56c0,32.97-26.77,59.74-59.74,59.74H59.74c-32.97,0-59.74-26.77-59.74-59.74V59.74C0,26.77,26.77,0,59.74,0Z"/>
    <g>
      <path class="cls-1" d="m66.83,188.68h-3.52l-6.84-11.23v11.23h-3.52v-17.06h3.52l6.86,11.25v-11.25h3.5v17.06Z"/>
      <path class="cls-1" d="m69.15,182.22c0-1.26.24-2.38.73-3.36s1.18-1.75,2.09-2.29,1.97-.81,3.17-.81c1.71,0,3.11.52,4.19,1.57s1.69,2.47,1.81,4.27l.02.87c0,1.95-.54,3.51-1.63,4.68s-2.54,1.76-4.37,1.76-3.29-.59-4.38-1.76-1.63-2.77-1.63-4.78v-.15Zm3.39.24c0,1.21.23,2.13.68,2.76s1.1.96,1.95.96,1.46-.31,1.92-.94.69-1.64.69-3.02c0-1.18-.23-2.1-.69-2.75s-1.11-.97-1.95-.97-1.47.32-1.92.97-.68,1.64-.68,3Z"/>
      <path class="cls-1" d="m90.12,185.18c0-.41-.21-.74-.62-.98s-1.07-.45-1.97-.64c-3.02-.63-4.52-1.91-4.52-3.84,0-1.12.47-2.06,1.4-2.82s2.15-1.13,3.66-1.13c1.61,0,2.9.38,3.86,1.14s1.45,1.74,1.45,2.95h-3.39c0-.48-.16-.88-.47-1.2s-.8-.47-1.46-.47c-.57,0-1.01.13-1.32.39s-.47.59-.47.98c0,.38.18.68.53.91s.96.43,1.8.6,1.55.36,2.13.57c1.79.66,2.68,1.79,2.68,3.41,0,1.16-.5,2.09-1.49,2.81s-2.27,1.07-3.84,1.07c-1.06,0-2.01-.19-2.83-.57s-1.47-.9-1.94-1.56-.7-1.37-.7-2.14h3.21c.03.6.25,1.06.67,1.38s.97.48,1.66.48c.65,0,1.14-.12,1.47-.37s.5-.57.5-.97Z"/>
      <path class="cls-1" d="m102.46,185.18c0-.41-.21-.74-.62-.98s-1.07-.45-1.97-.64c-3.02-.63-4.52-1.91-4.52-3.84,0-1.12.47-2.06,1.4-2.82s2.15-1.13,3.66-1.13c1.61,0,2.9.38,3.86,1.14s1.45,1.74,1.45,2.95h-3.39c0-.48-.16-.88-.47-1.2s-.8-.47-1.46-.47c-.57,0-1.01.13-1.32.39s-.47.59-.47.98c0,.38.18.68.53.91s.96.43,1.8.6,1.55.36,2.13.57c1.79.66,2.68,1.79,2.68,3.41,0,1.16-.5,2.09-1.49,2.81s-2.27,1.07-3.84,1.07c-1.06,0-2.01-.19-2.83-.57s-1.47-.9-1.94-1.56-.7-1.37-.7-2.14h3.21c.03.6.25,1.06.67,1.38s.97.48,1.66.48c.65,0,1.14-.12,1.47-.37s.5-.57.5-.97Z"/>
      <path class="cls-1" d="m115.28,188.68c-.16-.3-.27-.68-.34-1.14-.82.91-1.89,1.37-3.2,1.37-1.24,0-2.27-.36-3.09-1.08s-1.22-1.62-1.22-2.72c0-1.34.5-2.38,1.49-3.09s2.44-1.08,4.32-1.09h1.56v-.73c0-.59-.15-1.05-.45-1.41s-.78-.53-1.42-.53c-.57,0-1.02.14-1.34.41s-.49.65-.49,1.12h-3.39c0-.73.23-1.41.68-2.04s1.09-1.12,1.92-1.47,1.76-.53,2.79-.53c1.56,0,2.8.39,3.72,1.18s1.38,1.89,1.38,3.31v5.5c0,1.2.18,2.11.5,2.73v.2h-3.42Zm-2.8-2.36c.5,0,.96-.11,1.38-.33s.73-.52.94-.9v-2.18h-1.27c-1.7,0-2.6.59-2.71,1.76v.2c-.01.42.14.77.43,1.04s.7.41,1.22.41Z"/>
      <path class="cls-1" d="m129.89,176l.11,1.46c.91-1.13,2.12-1.7,3.64-1.7,1.34,0,2.34.39,3,1.18s.99,1.97,1.01,3.54v8.19h-3.39v-8.11c0-.72-.16-1.24-.47-1.56s-.83-.49-1.56-.49c-.95,0-1.67.41-2.14,1.22v8.94h-3.39v-12.68h3.19Z"/>
      <path class="cls-1" d="m139.69,182.22c0-1.26.24-2.38.73-3.36s1.18-1.75,2.09-2.29,1.97-.81,3.17-.81c1.71,0,3.11.52,4.19,1.57s1.69,2.47,1.81,4.27l.02.87c0,1.95-.54,3.51-1.63,4.68s-2.54,1.76-4.37,1.76-3.29-.59-4.38-1.76-1.63-2.77-1.63-4.78v-.15Zm3.39.24c0,1.21.23,2.13.68,2.76s1.1.96,1.95.96,1.46-.31,1.92-.94.69-1.64.69-3.02c0-1.18-.23-2.1-.69-2.75s-1.11-.97-1.95-.97-1.47.32-1.92.97-.68,1.64-.68,3Z"/>
      <path class="cls-1" d="m157.84,172.88v3.12h2.17v2.48h-2.17v6.33c0,.47.09.8.27,1.01s.52.3,1.03.3c.38,0,.71-.03,1-.08v2.57c-.66.2-1.35.3-2.05.3-2.38,0-3.59-1.2-3.63-3.6v-6.83h-1.85v-2.48h1.85v-3.12h3.39Z"/>
      <path class="cls-1" d="m169.24,188.68c-.16-.3-.27-.68-.34-1.14-.82.91-1.89,1.37-3.2,1.37-1.24,0-2.27-.36-3.09-1.08s-1.22-1.62-1.22-2.72c0-1.34.5-2.38,1.49-3.09s2.44-1.08,4.32-1.09h1.56v-.73c0-.59-.15-1.05-.45-1.41s-.78-.53-1.42-.53c-.57,0-1.02.14-1.34.41s-.49.65-.49,1.12h-3.39c0-.73.23-1.41.68-2.04s1.09-1.12,1.92-1.47,1.76-.53,2.79-.53c1.56,0,2.8.39,3.72,1.18s1.38,1.89,1.38,3.31v5.5c0,1.2.18,2.11.5,2.73v.2h-3.42Zm-2.8-2.36c.5,0,.96-.11,1.38-.33s.73-.52.94-.9v-2.18h-1.27c-1.7,0-2.6.59-2.71,1.76v.2c-.01.42.14.77.43,1.04s.7.41,1.22.41Z"/>
      <path class="cls-1" d="m183.86,176l.11,1.46c.91-1.13,2.12-1.7,3.64-1.7,1.34,0,2.34.39,3,1.18s.99,1.97,1.01,3.54v8.19h-3.39v-8.11c0-.72-.16-1.24-.47-1.56s-.83-.49-1.56-.49c-.95,0-1.67.41-2.14,1.22v8.94h-3.39v-12.68h3.19Z"/>
      <path class="cls-1" d="m193.65,182.22c0-1.26.24-2.38.73-3.36s1.18-1.75,2.09-2.29,1.97-.81,3.17-.81c1.71,0,3.11.52,4.19,1.57s1.69,2.47,1.81,4.27l.02.87c0,1.95-.54,3.51-1.63,4.68s-2.54,1.76-4.37,1.76-3.29-.59-4.38-1.76-1.63-2.77-1.63-4.78v-.15Zm3.39.24c0,1.21.23,2.13.68,2.76s1.1.96,1.95.96,1.46-.31,1.92-.94.69-1.64.69-3.02c0-1.18-.23-2.1-.69-2.75s-1.11-.97-1.95-.97-1.47.32-1.92.97-.68,1.64-.68,3Z"/>
      <path class="cls-1" d="m65.14,211.23h-2.8v6.25h-3.52v-17.06h6.34c2.02,0,3.57.45,4.66,1.35s1.64,2.17,1.64,3.81c0,1.16-.25,2.13-.76,2.91s-1.27,1.4-2.29,1.86l3.69,6.97v.16h-3.77l-3.2-6.25Zm-2.8-2.85h2.84c.88,0,1.57-.22,2.05-.67s.73-1.07.73-1.86-.23-1.44-.69-1.9-1.16-.69-2.1-.69h-2.82v5.12Z"/>
      <path class="cls-1" d="m79.75,217.71c-1.86,0-3.37-.57-4.54-1.71s-1.75-2.66-1.75-4.56v-.33c0-1.27.25-2.41.74-3.42s1.19-1.78,2.09-2.32,1.93-.81,3.09-.81c1.73,0,3.1.55,4.1,1.64s1.49,2.64,1.49,4.65v1.38h-8.07c.11.83.44,1.49.99,1.99s1.25.75,2.09.75c1.3,0,2.32-.47,3.06-1.42l1.66,1.86c-.51.72-1.2,1.28-2.06,1.68s-1.83.6-2.88.6Zm-.39-10.42c-.67,0-1.22.23-1.63.68-.42.46-.69,1.11-.8,1.95h4.71v-.27c-.02-.75-.22-1.34-.61-1.75s-.95-.62-1.66-.62Z"/>
      <path class="cls-1" d="m92.16,214.98c.62,0,1.13-.17,1.52-.52s.59-.8.61-1.37h3.18c0,.86-.24,1.65-.7,2.36s-1.09,1.27-1.89,1.66-1.69.59-2.65.59c-1.81,0-3.24-.58-4.29-1.73s-1.57-2.74-1.57-4.78v-.22c0-1.95.52-3.51,1.56-4.68s2.46-1.75,4.28-1.75c1.59,0,2.86.45,3.81,1.35s1.44,2.1,1.46,3.6h-3.18c-.02-.66-.22-1.2-.61-1.61-.39-.41-.91-.62-1.55-.62-.79,0-1.38.29-1.79.86-.4.57-.6,1.51-.6,2.8v.35c0,1.31.2,2.25.6,2.82s1,.86,1.82.86Z"/>
      <path class="cls-1" d="m102.98,217.48h-3.4v-18h3.4v18Z"/>
      <path class="cls-1" d="m113.12,217.48c-.16-.3-.27-.68-.34-1.14-.82.91-1.89,1.37-3.2,1.37-1.24,0-2.27-.36-3.09-1.08s-1.22-1.62-1.22-2.72c0-1.34.5-2.38,1.49-3.09s2.44-1.08,4.32-1.09h1.56v-.73c0-.59-.15-1.05-.45-1.41s-.78-.53-1.42-.53c-.57,0-1.02.14-1.34.41s-.49.65-.49,1.12h-3.39c0-.73.23-1.41.68-2.04s1.09-1.12,1.92-1.47,1.76-.53,2.79-.53c1.56,0,2.8.39,3.72,1.18s1.38,1.89,1.38,3.31v5.5c0,1.2.18,2.11.5,2.73v.2h-3.42Zm-2.8-2.36c.5,0,.96-.11,1.38-.33s.73-.52.94-.9v-2.18h-1.27c-1.7,0-2.6.59-2.71,1.76v.2c-.01.42.14.77.43,1.04s.7.41,1.22.41Z"/>
      <path class="cls-1" d="m121.81,204.8l.11,1.42c.9-1.1,2.11-1.65,3.64-1.65,1.63,0,2.75.64,3.36,1.93.89-1.29,2.16-1.93,3.81-1.93,1.38,0,2.4.4,3.07,1.2s1.01,2.01,1.01,3.62v8.1h-3.4v-8.09c0-.72-.14-1.24-.42-1.58s-.78-.5-1.49-.5c-1.02,0-1.72.48-2.11,1.45v8.71s-3.38,0-3.38,0v-8.07c0-.73-.14-1.27-.43-1.59s-.78-.49-1.48-.49c-.96,0-1.66.4-2.09,1.2v8.96h-3.39v-12.68h3.18Z"/>
      <path class="cls-1" d="m145.25,217.71c-1.86,0-3.37-.57-4.54-1.71s-1.75-2.66-1.75-4.56v-.33c0-1.27.25-2.41.74-3.42s1.19-1.78,2.09-2.32,1.93-.81,3.09-.81c1.73,0,3.1.55,4.1,1.64s1.49,2.64,1.49,4.65v1.38h-8.07c.11.83.44,1.49.99,1.99s1.25.75,2.09.75c1.3,0,2.32-.47,3.06-1.42l1.66,1.86c-.51.72-1.2,1.28-2.06,1.68s-1.83.6-2.88.6Zm-.39-10.42c-.67,0-1.22.23-1.63.68-.42.46-.69,1.11-.8,1.95h4.71v-.27c-.02-.75-.22-1.34-.61-1.75s-.95-.62-1.66-.62Z"/>
      <path class="cls-1" d="m168.22,213.96h-6.16l-1.17,3.52h-3.74l6.35-17.06h3.26l6.39,17.06h-3.74l-1.18-3.52Zm-5.21-2.85h4.27l-2.14-6.39-2.12,6.39Z"/>
      <path class="cls-1" d="m173.98,211.02c0-1.99.44-3.57,1.33-4.72s2.1-1.73,3.65-1.73c1.36,0,2.44.52,3.25,1.56l.22-1.32h2.98v17.55h-3.4v-5.96c-.78.88-1.8,1.32-3.07,1.32-1.51,0-2.71-.59-3.61-1.76s-1.35-2.82-1.35-4.93Zm3.39.24c0,1.21.21,2.14.64,2.77s1.03.95,1.8.95c1.04,0,1.77-.41,2.2-1.24v-5.25c-.42-.8-1.15-1.2-2.18-1.2-.78,0-1.39.32-1.82.95s-.64,1.64-.64,3.02Z"/>
      <path class="cls-1" d="m195.66,216.19c-.84,1.02-1.99,1.52-3.47,1.52-1.36,0-2.4-.39-3.11-1.17s-1.08-1.93-1.1-3.43v-8.31h3.39v8.2c0,1.32.6,1.98,1.8,1.98s1.94-.4,2.37-1.2v-8.99h3.4v12.68h-3.19l-.09-1.29Z"/>
      <path class="cls-1" d="m201.48,201.52c0-.51.17-.93.51-1.25s.8-.49,1.39-.49,1.04.16,1.38.49.52.75.52,1.25-.17.94-.52,1.27-.81.49-1.38.49-1.03-.16-1.38-.49-.52-.75-.52-1.27Zm3.6,15.96h-3.4v-12.68h3.4v12.68Z"/>
    </g>
  </g>
  <g>
    <path class="cls-2" d="m94.95,98.33c-3.81,3.74-8.25,5.61-13.33,5.61-6.5,0-11.7-2.23-15.61-6.69-3.91-4.46-5.86-10.48-5.86-18.06,0-4.81,1.05-9.23,3.16-13.26,2.1-4.02,5.04-7.15,8.81-9.39,3.77-2.24,8.01-3.36,12.73-3.36s9.16,1.21,12.93,3.64c3.77,2.42,6.7,5.91,8.79,10.45,2.09,4.55,3.15,9.75,3.18,15.61v5.4c0,12.26-3.05,21.89-9.14,28.89-6.09,7-14.73,10.74-25.91,11.21l-3.59.05v-12.17l3.23-.05c12.69-.57,19.56-6.53,20.61-17.88Zm-9.75-5.56c2.36,0,4.38-.61,6.08-1.82s2.99-2.68,3.86-4.39v-6.01c0-4.95-.94-8.79-2.83-11.51-1.89-2.73-4.41-4.09-7.58-4.09-2.93,0-5.34,1.34-7.22,4.01-1.89,2.68-2.83,6.04-2.83,10.08s.92,7.3,2.75,9.87,4.42,3.86,7.75,3.86Z"/>
    <path class="cls-2" d="m121.51,120.55c0-2.32.78-4.21,2.35-5.66,1.57-1.45,3.53-2.17,5.88-2.17s4.37.72,5.93,2.17c1.57,1.45,2.35,3.33,2.35,5.66s-.77,4.15-2.32,5.58c-1.55,1.43-3.54,2.15-5.96,2.15s-4.36-.71-5.91-2.15c-1.55-1.43-2.32-3.29-2.32-5.58Z"/>
    <path class="cls-2" d="m165.05,84.5h7.78c3.7,0,6.45-.93,8.23-2.78,1.78-1.85,2.68-4.31,2.68-7.37s-.88-5.27-2.65-6.92c-1.77-1.65-4.2-2.47-7.3-2.47-2.79,0-5.13.77-7.02,2.3-1.89,1.53-2.83,3.53-2.83,5.98h-14.6c0-3.84,1.04-7.28,3.11-10.33,2.07-3.05,4.97-5.43,8.69-7.15s7.82-2.58,12.3-2.58c7.78,0,13.87,1.86,18.28,5.58,4.41,3.72,6.62,8.85,6.62,15.38,0,3.37-1.03,6.46-3.08,9.29-2.05,2.83-4.75,5-8.08,6.51,4.14,1.48,7.23,3.7,9.27,6.67,2.04,2.96,3.05,6.46,3.05,10.5,0,6.53-2.38,11.77-7.15,15.71-4.76,3.94-11.07,5.91-18.91,5.91-7.34,0-13.34-1.94-18-5.81-4.66-3.87-6.99-8.99-6.99-15.35h14.6c0,2.76,1.04,5.02,3.11,6.77,2.07,1.75,4.62,2.63,7.65,2.63,3.47,0,6.19-.92,8.16-2.75,1.97-1.83,2.96-4.27,2.96-7.3,0-7.34-4.04-11.01-12.12-11.01h-7.73v-11.41Z"/>
  </g>
</svg>