<?xml version="1.0" encoding="UTF-8"?>
<svg id="Camada_1" data-name="Camada 1" xmlns="http://www.w3.org/2000/svg" viewBox="0 0 263.86 275.73">
  <defs>
    <style>
      .cls-1 {
        fill: #fff;
      }

      .cls-2 {
        fill: #094783;
      }

      .cls-3 {
        fill: #27b8d4;
      }
    </style>
  </defs>
  <g>
    <path class="cls-3" d="m59.74,0h175.69c15.69,0,28.43,12.74,28.43,28.43v187.56c0,32.97-26.77,59.74-59.74,59.74H59.74c-32.97,0-59.74-26.77-59.74-59.74V59.74C0,26.77,26.77,0,59.74,0Z"/>
    <g>
      <path class="cls-1" d="m70.66,174.17h-6.16l-1.17,3.52h-3.74l6.35-17.06h3.26l6.39,17.06h-3.74l-1.18-3.52Zm-5.21-2.85h4.27l-2.14-6.39-2.12,6.39Z"/>
      <path class="cls-1" d="m80.81,161.88v3.12h2.17v2.48h-2.17v6.33c0,.47.09.8.27,1.01s.52.3,1.03.3c.38,0,.71-.03,1-.08v2.57c-.66.2-1.35.3-2.05.3-2.38,0-3.59-1.2-3.63-3.6v-6.83h-1.85v-2.48h1.85v-3.12h3.39Z"/>
      <path class="cls-1" d="m90.7,177.92c-1.86,0-3.37-.57-4.54-1.71s-1.75-2.66-1.75-4.56v-.33c0-1.27.25-2.41.74-3.42s1.19-1.78,2.09-2.32,1.93-.81,3.09-.81c1.73,0,3.1.55,4.1,1.64s1.49,2.64,1.49,4.65v1.38h-8.07c.11.83.44,1.49.99,1.99s1.25.75,2.09.75c1.3,0,2.32-.47,3.06-1.42l1.66,1.86c-.51.72-1.2,1.28-2.06,1.68s-1.83.6-2.88.6Zm-.39-10.42c-.67,0-1.22.23-1.63.68-.42.46-.69,1.11-.8,1.95h4.71v-.27c-.02-.75-.22-1.34-.61-1.75s-.95-.62-1.66-.62Z"/>
      <path class="cls-1" d="m100.95,165l.11,1.46c.91-1.13,2.12-1.7,3.64-1.7,1.34,0,2.34.39,3,1.18s.99,1.97,1.01,3.54v8.19h-3.39v-8.11c0-.72-.16-1.24-.47-1.56s-.83-.49-1.56-.49c-.95,0-1.67.41-2.14,1.22v8.94h-3.39v-12.68h3.19Z"/>
      <path class="cls-1" d="m110.75,171.25c0-1.98.44-3.55,1.33-4.72s2.1-1.76,3.64-1.76c1.23,0,2.25.46,3.06,1.38v-6.47h3.4v18h-3.06l-.16-1.35c-.84,1.05-1.93,1.58-3.26,1.58-1.49,0-2.69-.59-3.59-1.76s-1.35-2.81-1.35-4.9Zm3.39.25c0,1.19.21,2.1.62,2.74s1.02.95,1.8.95c1.05,0,1.79-.44,2.21-1.33v-5.01c-.42-.88-1.15-1.33-2.19-1.33-1.63,0-2.45,1.33-2.45,3.98Z"/>
      <path class="cls-1" d="m124.78,161.72c0-.51.17-.93.51-1.25s.8-.49,1.39-.49,1.04.16,1.38.49.52.75.52,1.25-.17.94-.52,1.27-.81.49-1.38.49-1.03-.16-1.38-.49-.52-.75-.52-1.27Zm3.6,15.96h-3.4v-12.68h3.4v12.68Z"/>
      <path class="cls-1" d="m134.34,165l.11,1.42c.9-1.1,2.11-1.65,3.64-1.65,1.63,0,2.75.64,3.36,1.93.89-1.29,2.16-1.93,3.81-1.93,1.38,0,2.4.4,3.07,1.2s1.01,2.01,1.01,3.62v8.1h-3.4v-8.09c0-.72-.14-1.24-.42-1.58s-.78-.5-1.49-.5c-1.02,0-1.72.48-2.11,1.45v8.71s-3.38,0-3.38,0v-8.07c0-.73-.14-1.27-.43-1.59s-.78-.49-1.48-.49c-.96,0-1.66.4-2.09,1.2v8.96h-3.39v-12.68h3.18Z"/>
      <path class="cls-1" d="m157.78,177.92c-1.86,0-3.37-.57-4.54-1.71s-1.75-2.66-1.75-4.56v-.33c0-1.27.25-2.41.74-3.42s1.19-1.78,2.09-2.32,1.93-.81,3.09-.81c1.73,0,3.1.55,4.1,1.64s1.49,2.64,1.49,4.65v1.38h-8.07c.11.83.44,1.49.99,1.99s1.25.75,2.09.75c1.3,0,2.32-.47,3.06-1.42l1.66,1.86c-.51.72-1.2,1.28-2.06,1.68s-1.83.6-2.88.6Zm-.39-10.42c-.67,0-1.22.23-1.63.68-.42.46-.69,1.11-.8,1.95h4.71v-.27c-.02-.75-.22-1.34-.61-1.75s-.95-.62-1.66-.62Z"/>
      <path class="cls-1" d="m168.03,165l.11,1.46c.91-1.13,2.12-1.7,3.64-1.7,1.34,0,2.34.39,3,1.18s.99,1.97,1.01,3.54v8.19h-3.39v-8.11c0-.72-.16-1.24-.47-1.56s-.83-.49-1.56-.49c-.95,0-1.67.41-2.14,1.22v8.94h-3.39v-12.68h3.19Z"/>
      <path class="cls-1" d="m182.41,161.88v3.12h2.17v2.48h-2.17v6.33c0,.47.09.8.27,1.01s.52.3,1.03.3c.38,0,.71-.03,1-.08v2.57c-.66.2-1.35.3-2.05.3-2.38,0-3.59-1.2-3.63-3.6v-6.83h-1.85v-2.48h1.85v-3.12h3.39Z"/>
      <path class="cls-1" d="m185.58,171.22c0-1.26.24-2.38.73-3.36s1.18-1.75,2.09-2.29,1.97-.81,3.17-.81c1.71,0,3.11.52,4.19,1.57s1.69,2.47,1.81,4.27l.02.87c0,1.95-.54,3.51-1.63,4.68s-2.54,1.76-4.37,1.76-3.29-.59-4.38-1.76-1.63-2.77-1.63-4.78v-.15Zm3.39.24c0,1.21.23,2.13.68,2.76s1.1.96,1.95.96,1.46-.31,1.92-.94.69-1.64.69-3.02c0-1.18-.23-2.1-.69-2.75s-1.11-.97-1.95-.97-1.47.32-1.92.97-.68,1.64-.68,3Z"/>
      <path class="cls-1" d="m56.98,200.05c0-1.98.44-3.55,1.33-4.72s2.1-1.76,3.64-1.76c1.23,0,2.25.46,3.06,1.38v-6.47h3.4v18h-3.06l-.16-1.35c-.84,1.05-1.93,1.58-3.26,1.58-1.49,0-2.69-.59-3.59-1.76s-1.35-2.81-1.35-4.9Zm3.39.25c0,1.19.21,2.1.62,2.74s1.02.95,1.8.95c1.05,0,1.79-.44,2.21-1.33v-5.01c-.42-.88-1.15-1.33-2.19-1.33-1.63,0-2.45,1.33-2.45,3.98Z"/>
      <path class="cls-1" d="m76.87,206.71c-1.86,0-3.37-.57-4.54-1.71s-1.75-2.66-1.75-4.56v-.33c0-1.27.25-2.41.74-3.42s1.19-1.78,2.09-2.32,1.93-.81,3.09-.81c1.73,0,3.1.55,4.1,1.64s1.49,2.64,1.49,4.65v1.38h-8.07c.11.83.44,1.49.99,1.99s1.25.75,2.09.75c1.3,0,2.32-.47,3.06-1.42l1.66,1.86c-.51.72-1.2,1.28-2.06,1.68s-1.83.6-2.88.6Zm-.39-10.42c-.67,0-1.22.23-1.63.68-.42.46-.69,1.11-.8,1.95h4.71v-.27c-.02-.75-.22-1.34-.61-1.75s-.95-.62-1.66-.62Z"/>
      <path class="cls-1" d="m97.58,205.19c-.84,1.02-1.99,1.52-3.47,1.52-1.36,0-2.4-.39-3.11-1.17s-1.08-1.93-1.1-3.43v-8.31h3.39v8.2c0,1.32.6,1.98,1.8,1.98s1.94-.4,2.37-1.2v-8.99h3.4v12.68h-3.19l-.09-1.29Z"/>
      <path class="cls-1" d="m110.54,196.98c-.46-.06-.87-.09-1.22-.09-1.28,0-2.12.43-2.52,1.3v8.3h-3.39v-12.68h3.2l.09,1.51c.68-1.16,1.62-1.75,2.82-1.75.38,0,.73.05,1.05.15l-.05,3.26Z"/>
      <path class="cls-1" d="m111.67,200.05c0-1.95.46-3.51,1.39-4.7s2.17-1.78,3.74-1.78c1.39,0,2.47.48,3.25,1.43l.14-1.2h3.07v12.26c0,1.11-.25,2.07-.76,2.89s-1.21,1.45-2.13,1.88-1.98.64-3.21.64c-.93,0-1.84-.19-2.72-.56s-1.55-.85-2-1.44l1.5-2.06c.84.95,1.87,1.42,3.07,1.42.9,0,1.6-.24,2.1-.72s.75-1.16.75-2.04v-.68c-.78.88-1.81,1.32-3.08,1.32-1.52,0-2.76-.6-3.7-1.79s-1.41-2.77-1.41-4.74v-.14Zm3.39.25c0,1.15.23,2.05.69,2.71s1.09.98,1.9.98c1.03,0,1.77-.39,2.21-1.16v-5.34c-.45-.77-1.18-1.16-2.19-1.16-.81,0-1.45.33-1.92,1s-.7,1.66-.7,2.98Z"/>
      <path class="cls-1" d="m131.7,206.71c-1.86,0-3.37-.57-4.54-1.71s-1.75-2.66-1.75-4.56v-.33c0-1.27.25-2.41.74-3.42s1.19-1.78,2.09-2.32,1.93-.81,3.09-.81c1.73,0,3.1.55,4.1,1.64s1.49,2.64,1.49,4.65v1.38h-8.07c.11.83.44,1.49.99,1.99s1.25.75,2.09.75c1.3,0,2.32-.47,3.06-1.42l1.66,1.86c-.51.72-1.2,1.28-2.06,1.68s-1.83.6-2.88.6Zm3.74-14.96v.14h-2.7s-1.8-1.69-1.8-1.69l-1.8,1.7h-2.65v-.19l3.47-3.23h1.97l3.52,3.28Zm-4.12,4.54c-.67,0-1.22.23-1.63.68-.42.46-.69,1.11-.8,1.95h4.71v-.27c-.02-.75-.22-1.34-.61-1.75s-.95-.62-1.66-.62Z"/>
      <path class="cls-1" d="m141.96,193.8l.11,1.46c.91-1.13,2.12-1.7,3.64-1.7,1.34,0,2.34.39,3,1.18s.99,1.97,1.01,3.54v8.19h-3.39v-8.11c0-.72-.16-1.24-.47-1.56s-.83-.49-1.56-.49c-.95,0-1.67.41-2.14,1.22v8.94h-3.39v-12.68h3.19Z"/>
      <path class="cls-1" d="m157.55,203.98c.62,0,1.13-.17,1.52-.52s.59-.8.61-1.37h3.18c0,.86-.24,1.65-.7,2.36s-1.09,1.27-1.89,1.66-1.69.59-2.65.59c-1.81,0-3.24-.58-4.29-1.73s-1.57-2.74-1.57-4.78v-.22c0-1.95.52-3.51,1.56-4.68s2.46-1.75,4.28-1.75c1.59,0,2.86.45,3.81,1.35s1.44,2.1,1.46,3.6h-3.18c-.02-.66-.22-1.2-.61-1.61-.39-.41-.91-.62-1.55-.62-.79,0-1.38.29-1.79.86-.4.57-.6,1.51-.6,2.8v.35c0,1.31.2,2.25.6,2.82s1,.86,1.82.86Z"/>
      <path class="cls-1" d="m164.77,190.52c0-.51.17-.93.51-1.25s.8-.49,1.39-.49,1.04.16,1.38.49.52.75.52,1.25-.17.94-.52,1.27-.81.49-1.38.49-1.03-.16-1.38-.49-.52-.75-.52-1.27Zm3.6,15.96h-3.4v-12.68h3.4v12.68Z"/>
      <path class="cls-1" d="m178.51,206.48c-.16-.3-.27-.68-.34-1.14-.82.91-1.89,1.37-3.2,1.37-1.24,0-2.27-.36-3.09-1.08s-1.22-1.62-1.22-2.72c0-1.34.5-2.38,1.49-3.09s2.44-1.08,4.32-1.09h1.56v-.73c0-.59-.15-1.05-.45-1.41s-.78-.53-1.42-.53c-.57,0-1.02.14-1.34.41s-.49.65-.49,1.12h-3.39c0-.73.23-1.41.68-2.04s1.09-1.12,1.92-1.47,1.76-.53,2.79-.53c1.56,0,2.8.39,3.72,1.18s1.38,1.89,1.38,3.31v5.5c0,1.2.18,2.11.5,2.73v.2h-3.42Zm-2.8-2.36c.5,0,.96-.11,1.38-.33s.73-.52.94-.9v-2.18h-1.27c-1.7,0-2.6.59-2.71,1.76v.2c-.01.42.14.77.43,1.04s.7.41,1.22.41Z"/>
      <path class="cls-1" d="m195.84,206.71c-1.86,0-3.37-.57-4.54-1.71s-1.75-2.66-1.75-4.56v-.33c0-1.27.25-2.41.74-3.42s1.19-1.78,2.09-2.32,1.93-.81,3.09-.81c1.73,0,3.1.55,4.1,1.64s1.49,2.64,1.49,4.65v1.38h-8.07c.11.83.44,1.49.99,1.99s1.25.75,2.09.75c1.3,0,2.32-.47,3.06-1.42l1.66,1.86c-.51.72-1.2,1.28-2.06,1.68s-1.83.6-2.88.6Zm-.39-10.42c-.67,0-1.22.23-1.63.68-.42.46-.69,1.11-.8,1.95h4.71v-.27c-.02-.75-.22-1.34-.61-1.75s-.95-.62-1.66-.62Z"/>
      <path class="cls-1" d="m51.93,235.52c-1.86,0-3.37-.57-4.54-1.71s-1.75-2.66-1.75-4.56v-.33c0-1.27.25-2.41.74-3.42s1.19-1.78,2.09-2.32,1.93-.81,3.09-.81c1.73,0,3.1.55,4.1,1.64s1.49,2.64,1.49,4.65v1.38h-8.07c.11.83.44,1.49.99,1.99s1.25.75,2.09.75c1.3,0,2.32-.47,3.06-1.42l1.66,1.86c-.51.72-1.2,1.28-2.06,1.68s-1.83.6-2.88.6Zm-.39-10.42c-.67,0-1.22.23-1.63.68s-.69,1.11-.8,1.95h4.71v-.27c-.02-.75-.22-1.34-.61-1.75-.39-.41-.95-.62-1.66-.62Z"/>
      <path class="cls-1" d="m62.24,222.6l.11,1.42c.9-1.1,2.11-1.65,3.64-1.65,1.63,0,2.75.64,3.36,1.93.89-1.29,2.16-1.93,3.81-1.93,1.38,0,2.4.4,3.07,1.2s1.01,2.01,1.01,3.62v8.1h-3.4v-8.09c0-.72-.14-1.24-.42-1.58s-.78-.5-1.49-.5c-1.02,0-1.72.48-2.11,1.45v8.71s-3.38,0-3.38,0v-8.07c0-.73-.14-1.27-.43-1.59s-.78-.49-1.48-.49c-.96,0-1.66.4-2.09,1.2v8.96h-3.39v-12.68h3.18Z"/>
      <path class="cls-1" d="m85.68,235.52c-1.86,0-3.37-.57-4.54-1.71s-1.75-2.66-1.75-4.56v-.33c0-1.27.25-2.41.74-3.42s1.19-1.78,2.09-2.32,1.93-.81,3.09-.81c1.73,0,3.1.55,4.1,1.64s1.49,2.64,1.49,4.65v1.38h-8.07c.11.83.44,1.49.99,1.99s1.25.75,2.09.75c1.3,0,2.32-.47,3.06-1.42l1.66,1.86c-.51.72-1.2,1.28-2.06,1.68s-1.83.6-2.88.6Zm-.39-10.42c-.67,0-1.22.23-1.63.68s-.69,1.11-.8,1.95h4.71v-.27c-.02-.75-.22-1.34-.61-1.75-.39-.41-.95-.62-1.66-.62Z"/>
      <path class="cls-1" d="m99.94,225.78c-.46-.06-.87-.09-1.22-.09-1.28,0-2.12.43-2.52,1.3v8.3h-3.39v-12.68h3.2l.09,1.51c.68-1.16,1.62-1.75,2.82-1.75.38,0,.73.05,1.05.15l-.05,3.26Z"/>
      <path class="cls-1" d="m101.07,228.85c0-1.95.46-3.51,1.39-4.7s2.17-1.78,3.74-1.78c1.39,0,2.47.48,3.25,1.43l.14-1.2h3.07v12.26c0,1.11-.25,2.07-.76,2.89s-1.21,1.45-2.13,1.88-1.98.64-3.21.64c-.93,0-1.84-.19-2.72-.56s-1.55-.85-2-1.44l1.5-2.06c.84.95,1.87,1.42,3.07,1.42.9,0,1.6-.24,2.1-.72s.75-1.16.75-2.04v-.68c-.78.88-1.81,1.32-3.08,1.32-1.52,0-2.76-.6-3.7-1.79s-1.41-2.77-1.41-4.74v-.14Zm3.39.25c0,1.15.23,2.05.69,2.71s1.09.98,1.9.98c1.03,0,1.77-.39,2.21-1.16v-5.34c-.45-.77-1.18-1.16-2.19-1.16-.81,0-1.45.33-1.92,1s-.7,1.66-.7,2.98Z"/>
      <path class="cls-1" d="m121.1,235.52c-1.86,0-3.37-.57-4.54-1.71s-1.75-2.66-1.75-4.56v-.33c0-1.27.25-2.41.74-3.42s1.19-1.78,2.09-2.32,1.93-.81,3.09-.81c1.73,0,3.1.55,4.1,1.64s1.49,2.64,1.49,4.65v1.38h-8.07c.11.83.44,1.49.99,1.99s1.25.75,2.09.75c1.3,0,2.32-.47,3.06-1.42l1.66,1.86c-.51.72-1.2,1.28-2.06,1.68s-1.83.6-2.88.6Zm3.74-14.96v.14h-2.7s-1.8-1.69-1.8-1.69l-1.8,1.7h-2.65v-.19l3.47-3.23h1.97l3.52,3.28Zm-4.12,4.54c-.67,0-1.22.23-1.63.68s-.69,1.11-.8,1.95h4.71v-.27c-.02-.75-.22-1.34-.61-1.75-.39-.41-.95-.62-1.66-.62Z"/>
      <path class="cls-1" d="m131.36,222.6l.11,1.46c.91-1.13,2.12-1.7,3.64-1.7,1.34,0,2.34.39,3,1.18s.99,1.97,1.01,3.54v8.19h-3.39v-8.11c0-.72-.16-1.24-.47-1.56s-.83-.49-1.56-.49c-.95,0-1.67.41-2.14,1.22v8.94h-3.39v-12.68h3.19Z"/>
      <path class="cls-1" d="m146.95,232.79c.62,0,1.13-.17,1.52-.52s.59-.8.61-1.37h3.18c0,.86-.24,1.65-.7,2.36s-1.09,1.27-1.89,1.66-1.69.59-2.65.59c-1.81,0-3.24-.58-4.29-1.73s-1.57-2.74-1.57-4.78v-.22c0-1.95.52-3.51,1.56-4.68s2.46-1.75,4.28-1.75c1.59,0,2.86.45,3.81,1.35s1.44,2.1,1.46,3.6h-3.18c-.02-.66-.22-1.2-.61-1.61s-.91-.62-1.55-.62c-.79,0-1.38.29-1.79.86s-.6,1.51-.6,2.8v.35c0,1.31.2,2.25.6,2.82.4.57,1,.86,1.82.86Z"/>
      <path class="cls-1" d="m154.17,219.32c0-.51.17-.93.51-1.25s.8-.49,1.39-.49,1.04.16,1.38.49.52.75.52,1.25-.17.94-.52,1.27-.81.49-1.38.49-1.03-.16-1.38-.49-.52-.75-.52-1.27Zm3.6,15.96h-3.4v-12.68h3.4v12.68Z"/>
      <path class="cls-1" d="m167.91,235.28c-.16-.3-.27-.68-.34-1.14-.82.91-1.89,1.37-3.2,1.37-1.24,0-2.27-.36-3.09-1.08s-1.22-1.62-1.22-2.72c0-1.34.5-2.38,1.49-3.09s2.44-1.08,4.32-1.09h1.56v-.73c0-.59-.15-1.05-.45-1.41s-.78-.53-1.42-.53c-.57,0-1.02.14-1.34.41s-.49.65-.49,1.12h-3.39c0-.73.23-1.41.68-2.04s1.09-1.12,1.92-1.47,1.76-.53,2.79-.53c1.56,0,2.8.39,3.72,1.18s1.38,1.89,1.38,3.31v5.5c0,1.2.18,2.11.5,2.73v.2h-3.42Zm-2.8-2.36c.5,0,.96-.11,1.38-.33s.73-.52.94-.9v-2.18h-1.27c-1.7,0-2.6.59-2.71,1.76v.2c-.01.42.14.77.43,1.04s.7.41,1.22.41Z"/>
      <path class="cls-1" d="m190.96,235.28h-11.7v-2.32l5.52-5.88c.76-.83,1.32-1.55,1.68-2.17s.54-1.2.54-1.76c0-.76-.19-1.35-.57-1.79s-.93-.65-1.64-.65c-.77,0-1.37.26-1.81.79s-.66,1.22-.66,2.08h-3.4c0-1.04.25-1.99.74-2.85s1.2-1.53,2.1-2.02,1.93-.73,3.08-.73c1.76,0,3.12.42,4.1,1.27s1.46,2.04,1.46,3.57c0,.84-.22,1.7-.66,2.58s-1.19,1.89-2.25,3.06l-3.88,4.09h7.34v2.73Z"/>
      <path class="cls-1" d="m203.05,228.86h1.93v2.73h-1.93v3.69h-3.39v-3.69h-7l-.15-2.13,7.11-11.24h3.42v10.64Zm-7.16,0h3.77v-6.02l-.22.39-3.55,5.64Z"/>
      <path class="cls-1" d="m210.25,223.98c.9-1.08,2.03-1.62,3.39-1.62,2.75,0,4.14,1.6,4.18,4.79v8.12h-3.39v-8.03c0-.73-.16-1.26-.47-1.61s-.83-.52-1.56-.52c-.99,0-1.71.38-2.16,1.15v9.01h-3.39v-18h3.39v6.7Z"/>
    </g>
  </g>
  <path class="cls-2" d="m173.68,69.6h-21.88v-21.88c0-1.58-1.28-2.86-2.86-2.86h-29.11c-1.58,0-2.86,1.28-2.86,2.86v21.88h-21.88c-1.58,0-2.86,1.28-2.86,2.86v29.11c0,1.58,1.28,2.86,2.86,2.86h21.88v21.88c0,1.58,1.28,2.86,2.86,2.86h29.11c1.58,0,2.86-1.28,2.86-2.86v-21.88h21.88c1.58,0,2.86-1.28,2.86-2.86v-29.11c0-1.58-1.28-2.86-2.86-2.86h0Zm-2.86,29.11h-21.57c-1.74,0-3.16,1.42-3.16,3.17v21.57h-23.4v-21.57c0-1.75-1.42-3.17-3.16-3.17h-21.57s0-23.4,0-23.4h21.57c1.74,0,3.16-1.42,3.16-3.16v-21.57h23.4v21.57c0,1.74,1.42,3.16,3.16,3.16h21.57v23.4Z"/>
</svg>