<?xml version="1.0" encoding="UTF-8"?>
<svg id="Camada_1" data-name="Camada 1" xmlns="http://www.w3.org/2000/svg" viewBox="0 0 263.86 275.73">
  <defs>
    <style>
      .cls-1 {
        fill: #fff;
      }

      .cls-2 {
        fill: #094783;
        fill-rule: evenodd;
      }

      .cls-3 {
        fill: #27b8d4;
      }
    </style>
  </defs>
  <path class="cls-3" d="m59.74,0h175.69c15.69,0,28.43,12.74,28.43,28.43v187.56c0,32.97-26.77,59.74-59.74,59.74H59.74c-32.97,0-59.74-26.77-59.74-59.74V59.74C0,26.77,26.77,0,59.74,0Z"/>
  <g>
    <path class="cls-1" d="m75.01,191.58c-.17,2.29-1.01,4.1-2.54,5.42s-3.54,1.98-6.04,1.98c-2.73,0-4.89-.92-6.45-2.76s-2.35-4.37-2.35-7.58v-1.3c0-2.05.36-3.86,1.08-5.42s1.75-2.76,3.1-3.6,2.9-1.25,4.68-1.25c2.46,0,4.44.66,5.95,1.98s2.37,3.17,2.61,5.55h-4.39c-.11-1.38-.49-2.38-1.15-3s-1.66-.93-3.01-.93c-1.46,0-2.56.52-3.29,1.57s-1.1,2.68-1.12,4.89v1.61c0,2.3.35,3.99,1.05,5.05s1.8,1.6,3.3,1.6c1.36,0,2.37-.31,3.04-.93s1.05-1.58,1.15-2.88h4.39Z"/>
    <path class="cls-1" d="m81.75,184.56c1.12-1.35,2.53-2.02,4.23-2.02,3.44,0,5.18,2,5.23,5.99v10.15h-4.23v-10.03c0-.91-.2-1.58-.59-2.01s-1.04-.65-1.95-.65c-1.24,0-2.14.48-2.7,1.44v11.26h-4.23v-22.5h4.23v8.38Z"/>
    <path class="cls-1" d="m101.7,198.97c-2.32,0-4.22-.71-5.68-2.14s-2.19-3.33-2.19-5.7v-.41c0-1.59.31-3.02.92-4.27s1.49-2.22,2.61-2.9,2.42-1.02,3.86-1.02c2.17,0,3.87.68,5.12,2.05s1.87,3.31,1.87,5.82v1.73h-10.09c.14,1.04.55,1.87,1.24,2.49s1.56.94,2.62.94c1.63,0,2.91-.59,3.82-1.77l2.08,2.33c-.63.9-1.49,1.6-2.58,2.1s-2.29.75-3.6.75Zm-.48-13.02c-.84,0-1.52.28-2.04.85s-.86,1.38-1,2.44h5.89v-.34c-.02-.94-.27-1.67-.76-2.19s-1.18-.77-2.08-.77Z"/>
    <path class="cls-1" d="m117.21,195.56c.78,0,1.42-.21,1.9-.64s.74-1,.76-1.71h3.97c0,1.07-.3,2.06-.88,2.95s-1.37,1.59-2.37,2.08-2.11.74-3.32.74c-2.27,0-4.05-.72-5.36-2.16s-1.96-3.43-1.96-5.97v-.28c0-2.44.65-4.39,1.95-5.84s3.08-2.18,5.35-2.18c1.98,0,3.57.56,4.77,1.69s1.8,2.63,1.82,4.5h-3.97c-.02-.82-.27-1.49-.76-2.01-.49-.52-1.13-.77-1.93-.77-.99,0-1.73.36-2.23,1.08-.5.72-.75,1.89-.75,3.5v.44c0,1.63.25,2.81.75,3.52s1.25,1.07,2.27,1.07Z"/>
    <path class="cls-1" d="m135.45,198.68c-.2-.38-.34-.85-.42-1.42-1.03,1.14-2.36,1.71-4,1.71-1.55,0-2.84-.45-3.86-1.35s-1.53-2.03-1.53-3.4c0-1.68.62-2.97,1.87-3.87s3.04-1.35,5.4-1.36h1.95v-.91c0-.73-.19-1.32-.56-1.76s-.97-.66-1.78-.66c-.71,0-1.27.17-1.68.51s-.61.81-.61,1.41h-4.23c0-.92.28-1.77.85-2.55s1.37-1.39,2.4-1.84,2.2-.67,3.49-.67c1.95,0,3.5.49,4.65,1.47s1.72,2.36,1.72,4.14v6.87c0,1.5.22,2.64.63,3.41v.25h-4.28Zm-3.5-2.94c.62,0,1.2-.14,1.73-.42s.92-.65,1.17-1.12v-2.72h-1.58c-2.12,0-3.25.73-3.38,2.2v.25c-.01.53.17.96.54,1.3s.88.51,1.52.51Z"/>
    <path class="cls-1" d="m141.73,190.64c0-2.43.58-4.39,1.74-5.87s2.72-2.23,4.68-2.23c1.74,0,3.09.6,4.06,1.79l.18-1.49h3.84v15.32c0,1.39-.32,2.59-.95,3.62s-1.52,1.81-2.66,2.34-2.48.81-4.01.81c-1.16,0-2.29-.23-3.4-.7s-1.94-1.06-2.5-1.79l1.88-2.58c1.05,1.18,2.33,1.77,3.84,1.77,1.12,0,2-.3,2.62-.9s.94-1.45.94-2.56v-.85c-.98,1.1-2.26,1.66-3.85,1.66-1.9,0-3.45-.74-4.62-2.23s-1.76-3.46-1.76-5.93v-.18Zm4.23.31c0,1.44.29,2.57.86,3.38.58.82,1.37,1.23,2.37,1.23,1.29,0,2.21-.48,2.77-1.45v-6.67c-.57-.97-1.48-1.45-2.74-1.45-1.02,0-1.81.42-2.4,1.25-.58.83-.87,2.07-.87,3.73Z"/>
    <path class="cls-1" d="m166.77,198.97c-2.32,0-4.22-.71-5.68-2.14s-2.19-3.33-2.19-5.7v-.41c0-1.59.31-3.02.92-4.27s1.49-2.22,2.61-2.9,2.42-1.02,3.86-1.02c2.17,0,3.87.68,5.12,2.05s1.87,3.31,1.87,5.82v1.73h-10.09c.14,1.04.55,1.87,1.24,2.49s1.56.94,2.62.94c1.63,0,2.91-.59,3.82-1.77l2.08,2.33c-.63.9-1.49,1.6-2.58,2.1s-2.29.75-3.6.75Zm-.48-13.02c-.84,0-1.52.28-2.04.85s-.86,1.38-1,2.44h5.89v-.34c-.02-.94-.27-1.67-.76-2.19s-1.18-.77-2.08-.77Z"/>
    <path class="cls-1" d="m179.66,182.83l.13,1.77c1.12-1.38,2.64-2.07,4.56-2.07,2.04,0,3.44.81,4.2,2.42,1.11-1.61,2.7-2.42,4.76-2.42,1.72,0,3,.5,3.84,1.5s1.26,2.51,1.26,4.52v10.12h-4.25v-10.11c0-.9-.18-1.56-.53-1.97s-.97-.62-1.86-.62c-1.27,0-2.15.61-2.64,1.82v10.88s-4.22,0-4.22,0v-10.09c0-.92-.18-1.58-.54-1.99s-.98-.62-1.85-.62c-1.2,0-2.07.5-2.61,1.49v11.21h-4.23v-15.85h3.97Z"/>
    <path class="cls-1" d="m78.43,226.64c0-2.47.55-4.44,1.66-5.9s2.62-2.2,4.55-2.2c1.54,0,2.82.58,3.82,1.73v-8.09h4.25v22.5h-3.82l-.21-1.68c-1.05,1.32-2.41,1.98-4.07,1.98-1.87,0-3.36-.73-4.49-2.2s-1.69-3.51-1.69-6.13Zm4.23.31c0,1.49.26,2.63.78,3.42.52.79,1.27,1.19,2.26,1.19,1.31,0,2.23-.55,2.77-1.66v-6.26c-.53-1.1-1.44-1.66-2.74-1.66-2.04,0-3.06,1.66-3.06,4.97Z"/>
    <path class="cls-1" d="m105.18,234.68c-.2-.38-.34-.85-.42-1.42-1.03,1.14-2.36,1.71-4,1.71-1.55,0-2.84-.45-3.86-1.35s-1.53-2.03-1.53-3.4c0-1.68.62-2.97,1.87-3.87s3.04-1.35,5.4-1.36h1.95v-.91c0-.73-.19-1.32-.56-1.76s-.97-.66-1.78-.66c-.71,0-1.27.17-1.68.51s-.61.81-.61,1.41h-4.23c0-.92.28-1.77.85-2.55s1.37-1.39,2.4-1.84,2.2-.67,3.49-.67c1.95,0,3.5.49,4.65,1.47s1.72,2.36,1.72,4.14v6.87c0,1.5.22,2.64.63,3.41v.25h-4.28Zm-3.5-2.94c.62,0,1.2-.14,1.73-.42s.92-.65,1.17-1.12v-2.72h-1.58c-2.12,0-3.25.73-3.38,2.2v.25c-.01.53.17.96.54,1.3s.88.51,1.52.51Z"/>
    <path class="cls-1" d="m127.72,226.87h-3.5v7.81h-4.39v-21.33h7.92c2.52,0,4.46.56,5.83,1.68s2.05,2.71,2.05,4.76c0,1.46-.31,2.67-.94,3.64s-1.58,1.75-2.86,2.32l4.61,8.72v.21h-4.72l-4-7.81Zm-3.5-3.56h3.54c1.1,0,1.96-.28,2.56-.84s.91-1.34.91-2.32-.29-1.8-.86-2.37-1.45-.86-2.63-.86h-3.53v6.4Z"/>
    <path class="cls-1" d="m145.99,234.97c-2.32,0-4.22-.71-5.68-2.14s-2.19-3.33-2.19-5.7v-.41c0-1.59.31-3.02.92-4.27s1.49-2.22,2.62-2.9,2.41-1.02,3.86-1.02c2.17,0,3.88.68,5.12,2.05s1.87,3.31,1.87,5.82v1.73h-10.09c.14,1.04.55,1.87,1.24,2.49s1.56.94,2.61.94c1.63,0,2.91-.59,3.82-1.77l2.08,2.33c-.63.9-1.49,1.6-2.58,2.1s-2.29.75-3.6.75Zm-.48-13.02c-.84,0-1.52.28-2.04.85s-.86,1.38-1,2.44h5.89v-.34c-.02-.94-.27-1.67-.76-2.19s-1.18-.77-2.08-.77Z"/>
    <path class="cls-1" d="m154.25,226.64c0-2.47.55-4.44,1.66-5.9s2.62-2.2,4.55-2.2c1.54,0,2.82.58,3.82,1.73v-8.09h4.25v22.5h-3.82l-.21-1.68c-1.05,1.32-2.41,1.98-4.07,1.98-1.87,0-3.36-.73-4.49-2.2s-1.69-3.51-1.69-6.13Zm4.23.31c0,1.49.26,2.63.78,3.42.52.79,1.27,1.19,2.26,1.19,1.31,0,2.23-.55,2.77-1.66v-6.26c-.53-1.1-1.44-1.66-2.74-1.66-2.04,0-3.06,1.66-3.06,4.97Z"/>
    <path class="cls-1" d="m179.11,234.97c-2.32,0-4.22-.71-5.68-2.14s-2.19-3.33-2.19-5.7v-.41c0-1.59.31-3.02.92-4.27s1.49-2.22,2.62-2.9,2.41-1.02,3.86-1.02c2.17,0,3.88.68,5.12,2.05s1.87,3.31,1.87,5.82v1.73h-10.09c.14,1.04.55,1.87,1.24,2.49s1.56.94,2.61.94c1.63,0,2.91-.59,3.82-1.77l2.08,2.33c-.63.9-1.49,1.6-2.58,2.1s-2.29.75-3.6.75Zm-.48-13.02c-.84,0-1.52.28-2.04.85s-.86,1.38-1,2.44h5.89v-.34c-.02-.94-.27-1.67-.76-2.19s-1.18-.77-2.08-.77Z"/>
  </g>
  <g>
    <polygon class="cls-2" points="128.99 92.45 129.86 92.48 129.89 92.49 129.9 92.51 130.29 93.66 130.31 93.73 130.38 93.85 130.52 94 130.76 94.13 130.97 94.15 131.1 94.13 131.17 94.1 131.24 94.08 131.36 94.01 131.51 93.87 131.63 93.63 131.65 93.42 131.64 93.28 131.62 93.2 131.24 92.06 131.21 91.95 131.1 91.75 130.97 91.57 130.82 91.41 130.64 91.28 130.44 91.17 130.24 91.1 130.01 91.06 129.9 91.05 129.36 91.04 129.05 91.03 128.99 91 128.98 90.98 128.45 85.48 128.43 85.34 128.36 85.08 128.24 84.84 128.08 84.63 127.87 84.44 127.64 84.3 127.38 84.2 127.08 84.15 126.92 84.15 126.8 84.15 126.68 84.14 126.35 83.04 126.01 81.94 125.95 81.78 125.78 81.47 125.53 81.22 125.23 81.03 125.07 80.97 122.84 80.24 121.89 79.89 121.62 79.77 121.24 79.52 120.8 79.25 120.8 79.25 120.78 79.24 120.78 79.21 120.81 78.63 120.81 78.53 120.8 78.33 120.73 78.04 120.56 77.72 120.33 77.44 120.03 77.23 119.69 77.1 119.32 77.07 118.95 77.12 118.75 77.19 116.58 78.17 115.98 78.43 115.22 78.38 114.81 78.36 114.74 78.33 114.74 78.3 114.74 78.09 114.72 77.92 114.63 77.58 114.47 77.28 114.24 77.03 114.09 76.92 113.94 76.83 113.62 76.71 113.29 76.67 112.94 76.7 112.77 76.75 112.75 76.77 112.72 76.74 110.83 74.58 110.82 74.56 110.82 74.53 111.52 72.55 111.54 72.52 111.56 72.52 114.31 71.96 114.43 71.94 114.66 71.86 114.85 71.74 115.03 71.6 115.19 71.43 115.31 71.23 115.41 71.02 115.47 70.79 115.48 70.66 115.66 68.99 115.81 67.51 115.87 66.88 115.87 66.43 115.81 66.02 115.65 65.27 115.46 64.41 115.45 64.38 115.53 64.34 116.16 64.24 117.35 64.07 117.37 64.07 117.39 64.08 118.51 65.38 118.59 65.47 118.79 65.63 119.01 65.75 119.24 65.84 119.48 65.88 119.73 65.88 119.97 65.84 120.21 65.75 120.33 65.7 121.84 64.83 121.95 64.76 122.15 64.6 122.31 64.41 122.44 64.19 122.52 63.96 122.57 63.72 122.59 63.47 122.55 63.21 122.51 63.09 122.05 61.63 122.04 61.62 122.06 61.6 122.21 61.55 123.44 61.34 125.77 60.95 125.78 60.95 125.85 61.05 126.18 62.06 126.86 64.14 126.91 64.27 127.05 64.52 127.21 64.72 127.42 64.89 127.65 65.02 127.9 65.11 128.17 65.14 128.44 65.13 128.58 65.11 130.56 64.64 130.69 64.61 130.93 64.5 131.13 64.37 131.3 64.21 131.44 64.04 131.54 63.85 131.64 63.58 131.68 63.41 131.69 63.4 131.78 63.4 132.46 63.59 133.83 63.98 133.94 64 134.16 64.03 134.38 64.02 134.6 63.98 134.81 63.9 135 63.8 135.18 63.67 135.34 63.5 135.41 63.41 135.94 62.65 135.97 62.64 136.01 62.64 136.03 62.66 136.45 63.79 136.99 65.23 137.25 65.82 137.4 66.07 137.56 66.24 137.75 66.36 137.86 66.42 139.92 67.46 139.99 67.49 140.12 67.53 140.33 67.54 140.59 67.45 140.74 67.32 140.84 67.2 140.87 67.14 140.9 67.08 140.93 66.94 140.94 66.73 140.86 66.47 140.73 66.31 140.62 66.22 140.56 66.19 139.31 65.56 138.49 65.14 138.36 64.87 137.82 63.4 137.35 62.16 137.31 62.06 137.2 61.87 137.08 61.71 136.95 61.57 136.71 61.4 136.36 61.25 135.98 61.21 135.6 61.25 135.33 61.36 135.17 61.46 135 61.58 134.86 61.74 134.79 61.82 134.26 62.58 134.23 62.61 134.2 62.61 132.1 62.02 131.96 61.99 131.66 61.96 131.36 62.01 131.08 62.11 130.95 62.19 130.81 62.28 130.59 62.5 130.44 62.74 130.33 63.01 130.29 63.15 130.29 63.19 130.26 63.24 130.24 63.25 128.95 63.56 128.3 63.71 128.21 63.71 128.2 63.69 127.16 60.53 127.11 60.41 126.99 60.17 126.83 59.97 126.64 59.8 126.42 59.67 126.18 59.58 125.93 59.53 125.67 59.53 125.53 59.54 121.85 60.17 121.7 60.19 121.39 60.32 121.14 60.5 120.93 60.73 120.77 60.99 120.67 61.28 120.63 61.6 120.66 61.92 120.7 62.08 121.17 63.53 121.18 63.55 121.12 63.6 120.62 63.89 119.64 64.46 119.6 64.46 119.57 64.44 118.45 63.14 118.32 63.01 118.03 62.8 117.69 62.68 117.32 62.64 117.13 62.66 115.28 62.94 115.14 62.97 114.85 63.08 114.6 63.24 114.39 63.44 114.3 63.57 114.22 63.69 114.1 63.97 114.05 64.27 114.05 64.57 114.08 64.72 114.48 66.55 114.41 67.24 114.08 70.52 114.08 70.54 113.99 70.58 113.11 70.76 111.29 71.11 111.1 71.16 110.77 71.33 110.48 71.58 110.27 71.89 110.19 72.06 109.49 74.05 109.46 74.15 109.42 74.34 109.41 74.63 109.48 75.02 109.6 75.29 109.71 75.45 109.78 75.52 111.67 77.69 111.74 77.77 111.91 77.91 112.1 78.03 112.29 78.11 112.5 78.17 112.72 78.19 112.93 78.18 113.15 78.13 113.26 78.1 113.29 78.09 113.32 78.12 113.33 78.14 113.33 78.35 113.34 78.49 113.4 78.76 113.51 79.01 113.65 79.23 113.84 79.42 114.05 79.57 114.3 79.69 114.56 79.76 114.7 79.77 115.34 79.82 115.91 79.86 116.22 79.83 116.56 79.74 117.03 79.54 118.11 79.05 119.33 78.5 119.36 78.49 119.4 78.52 119.4 78.55 119.38 78.76 119.37 79.13 119.38 79.39 119.43 79.65 119.52 79.9 119.68 80.15 119.91 80.37 120.06 80.47 120.06 80.46 120.06 80.47 120.55 80.78 120.99 81.05 121.26 81.19 122.26 81.55 124.63 82.33 124.65 82.34 124.66 82.36 125.32 84.53 125.36 84.68 125.49 84.93 125.65 85.13 125.83 85.29 126.05 85.41 126.29 85.5 126.56 85.55 126.85 85.57 126.99 85.58 127.01 85.57 127.03 85.58 127.06 85.76 127.23 87.51 127.58 91.12 127.6 91.26 127.67 91.51 127.79 91.75 127.95 91.96 128.13 92.14 128.35 92.28 128.59 92.39 128.85 92.44 128.99 92.45 128.99 92.45 128.99 92.45"/>
    <polygon class="cls-2" points="151.76 80.78 150.45 81.94 149.77 82.58 149.62 82.76 149.54 82.91 149.48 83.08 149.46 83.17 148.42 87.71 148.19 88.66 146.5 91 144.79 93.32 141.58 93.54 140.07 93.68 139.77 93.74 139.58 93.82 139.44 93.92 139.35 94 138.5 94.71 137.42 95.6 137 96 136.84 96.2 136.74 96.37 136.68 96.57 136.67 96.68 136.38 98.56 136.27 99.15 134.12 101.23 131.97 103.32 131.95 103.34 131.92 103.34 131.9 103.32 128.85 100.46 128.84 100.44 128.83 100.42 128.93 100.32 129.93 99.58 131.95 98.08 132.04 98.01 132.2 97.85 132.32 97.67 132.42 97.48 132.48 97.29 132.51 97.08 132.51 96.86 132.48 96.65 132.45 96.55 132.17 95.56 132.16 95.49 132.09 95.38 131.96 95.22 131.72 95.1 131.52 95.06 131.38 95.07 131.31 95.09 131.24 95.11 131.11 95.17 130.95 95.29 130.82 95.52 130.78 95.72 130.79 95.85 130.81 95.92 130.95 96.43 131.1 96.95 131.1 96.98 131.09 97.01 127.99 99.31 127.87 99.41 127.66 99.65 127.53 99.91 127.44 100.19 127.43 100.48 127.48 100.77 127.58 101.05 127.75 101.3 127.87 101.42 130.9 104.29 131.02 104.38 131.26 104.54 131.52 104.64 131.81 104.69 132.09 104.68 132.36 104.63 132.63 104.53 132.87 104.37 132.98 104.27 137.27 100.11 137.37 100 137.52 99.8 137.62 99.56 137.69 99.28 137.78 98.73 137.93 97.64 138.06 96.89 138.26 96.7 139.35 95.79 140.28 95.02 140.64 94.98 142.85 94.82 144.9 94.67 145.06 94.65 145.37 94.56 145.65 94.4 145.89 94.2 145.99 94.07 149.36 89.43 149.43 89.34 149.57 88.99 150.02 87.1 150.85 83.46 151.29 83.04 152.73 81.77 152.78 81.72 152.86 81.61 152.93 81.43 152.95 81.17 152.88 80.98 152.81 80.87 152.76 80.81 152.71 80.76 152.59 80.68 152.4 80.61 152.13 80.6 151.93 80.66 151.82 80.73 151.76 80.78 151.76 80.78 151.76 80.78"/>
    <polygon class="cls-2" points="155.63 73.25 155.61 73.12 155.54 72.86 155.43 72.63 155.28 72.42 155.11 72.25 154.91 72.12 154.69 72.02 154.45 71.97 154.32 71.96 153.39 71.96 153.09 71.72 151.36 70.08 149.75 68.56 149.66 68.47 149.48 68.35 149.26 68.26 148.97 68.22 148.32 68.23 146.78 68.32 145.59 68.39 145.08 68.12 143.37 67.12 143.31 67.1 143.18 67.06 143 67.05 142.77 67.13 142.62 67.26 142.54 67.37 142.51 67.43 142.49 67.5 142.45 67.63 142.44 67.84 142.51 68.09 142.63 68.25 142.73 68.35 142.79 68.38 144.31 69.26 145.2 69.73 145.49 69.8 145.65 69.79 147.07 69.71 148.63 69.62 148.93 69.63 151.3 71.88 152.53 73.01 152.82 73.23 153.03 73.33 153.23 73.37 153.33 73.37 153.97 73.37 154.31 73.37 154.36 73.4 154.37 73.42 154.53 74.89 154.66 76.34 153.24 77.9 153.17 77.98 153.08 78.17 153.05 78.37 153.07 78.57 153.14 78.75 153.25 78.91 153.4 79.02 153.59 79.09 153.69 79.1 153.75 79.1 153.86 79.08 153.97 79.03 154.09 78.93 154.6 78.4 155.56 77.34 155.65 77.23 155.79 76.99 155.89 76.73 155.94 76.44 155.95 76.31 155.95 76.28 155.63 73.25 155.63 73.25 155.63 73.25"/>
    <path class="cls-2" d="m170.73,52h-77.98l-.78.09-.77.17-.72.21-1.05.48-1.22.86-1.05,1.07-.84,1.24-.47,1.06-.23.75-.15.77-.09.8v60.87l.09.8.15.77.23.75.47,1.06.84,1.24,1.05,1.07,1.22.86,1.05.48.72.21.77.17.78.09h26.09l-3.5,9.48h-3.57l-.48.02-.9.2-.84.37-.75.49-.63.66-.5.75-.36.86-.18.92-.02.49v3.16l.02.31.24.58.42.41.56.26.32.02h46.54l.32-.02.56-.26.42-.41.24-.58.03-.31v-3.16l-.03-.49-.18-.92-.36-.86-.5-.75-.63-.66-.75-.49-.84-.37-.89-.2-.5-.02h-3.57l-3.5-9.48h26.09l.78-.09.77-.17.72-.21,1.05-.48,1.22-.86,1.07-1.07.83-1.24.47-1.06.23-.75.15-.77.09-.8v-60.87l-.09-.8-.15-.77-.23-.75-.47-1.06-.83-1.24-1.07-1.07-1.22-.86-1.05-.48-.72-.21-.77-.17-.78-.09h-.39Zm-77.59,3.16h77.59l.48.02.9.2.83.35.75.51.63.66.5.75.36.86.2.92.02.49v48.99h-86.9v-48.99l.02-.49.2-.92.36-.86.5-.75.63-.66.75-.51.83-.35.9-.2.48-.02h0Zm60.52,86.94v1.58h-43.45v-1.58l.02-.32.26-.57.42-.43.56-.25.32-.02h40.33l.32.02.56.25.42.43.26.57.02.32h0Zm-8.44-4.75h-26.58l3.5-9.48h19.58l3.5,9.48h0Zm25.51-12.63h-77.59l-.48-.02-.9-.2-.83-.35-.75-.51-.63-.66-.5-.75-.36-.86-.2-.92-.02-.48v-7.91h86.9v7.91l-.02.48-.2.92-.36.86-.5.75-.63.66-.75.51-.83.35-.9.2-.48.02h0Z"/>
    <path class="cls-2" d="m131.94,113.72h-.38s-.7.12-.7.12l-.65.22-.58.28-.54.38-.46.45-.39.5-.33.55-.25.6-.16.61-.07.63.03.64.1.66.22.63.3.6.42.57.26.28.28.26.57.41.59.32.64.2.64.12.64.03.64-.07.61-.17.58-.23.57-.34.49-.39.45-.47.38-.54.28-.58.22-.64.1-.71v-.38s0-.45,0-.45l-.17-.87-.35-.82-.48-.71-.62-.63-.71-.48-.81-.34-.87-.19h-.46Zm0,6h-.25s-.42-.16-.42-.16l-.36-.25-.26-.34-.16-.39-.06-.42.07-.44.2-.39.17-.19.17-.16.41-.2.44-.09.42.06.39.17.32.25.26.36.13.44v.23s0,.31,0,.31l-.23.54-.41.41-.54.25h-.3Z"/>
  </g>
</svg>