<?xml version="1.0" encoding="UTF-8"?>
<svg id="Camada_1" data-name="Camada 1" xmlns="http://www.w3.org/2000/svg" viewBox="0 0 263.86 275.73">
  <defs>
    <style>
      .cls-1 {
        fill: #fff;
      }

      .cls-2 {
        fill: #094783;
        fill-rule: evenodd;
      }

      .cls-3 {
        fill: #27b8d4;
      }
    </style>
  </defs>
  <path class="cls-3" d="m59.74,0h175.69c15.69,0,28.43,12.74,28.43,28.43v187.56c0,32.97-26.77,59.74-59.74,59.74H59.74c-32.97,0-59.74-26.77-59.74-59.74V59.74C0,26.77,26.77,0,59.74,0Z"/>
  <g>
    <path class="cls-1" d="m116.12,203.58c-.17,2.29-1.01,4.1-2.54,5.42s-3.54,1.98-6.04,1.98c-2.73,0-4.88-.92-6.45-2.76s-2.35-4.37-2.35-7.58v-1.3c0-2.05.36-3.86,1.08-5.42s1.76-2.76,3.1-3.6,2.9-1.25,4.68-1.25c2.46,0,4.44.66,5.95,1.98s2.37,3.17,2.61,5.55h-4.39c-.11-1.38-.49-2.38-1.15-3s-1.66-.93-3.01-.93c-1.46,0-2.56.52-3.29,1.57s-1.1,2.68-1.12,4.89v1.61c0,2.3.35,3.99,1.05,5.05s1.8,1.6,3.3,1.6c1.36,0,2.37-.31,3.04-.93s1.05-1.58,1.15-2.88h4.39Z"/>
    <path class="cls-1" d="m118.07,202.61c0-1.57.3-2.97.91-4.2s1.48-2.18,2.62-2.86,2.46-1.01,3.96-1.01c2.14,0,3.88.65,5.24,1.96s2.11,3.09,2.26,5.33l.03,1.08c0,2.43-.68,4.38-2.04,5.85s-3.18,2.2-5.46,2.2-4.11-.73-5.47-2.2-2.04-3.46-2.04-5.98v-.19Zm4.23.3c0,1.51.28,2.66.85,3.46.57.8,1.38,1.2,2.43,1.2s1.83-.39,2.4-1.18c.58-.79.86-2.05.86-3.78,0-1.48-.29-2.62-.86-3.43s-1.39-1.22-2.43-1.22-1.84.4-2.4,1.21-.85,2.06-.85,3.75Z"/>
    <path class="cls-1" d="m140.16,210.68h-4.25v-22.5h4.25v22.5Z"/>
    <path class="cls-1" d="m142.98,202.64c0-2.47.55-4.44,1.66-5.9s2.62-2.2,4.55-2.2c1.54,0,2.82.58,3.82,1.73v-8.09h4.25v22.5h-3.82l-.21-1.68c-1.05,1.32-2.41,1.98-4.07,1.98-1.87,0-3.36-.73-4.49-2.2s-1.69-3.51-1.69-6.13Zm4.23.31c0,1.49.26,2.63.78,3.42.52.79,1.27,1.19,2.26,1.19,1.31,0,2.23-.55,2.77-1.66v-6.26c-.53-1.1-1.44-1.66-2.74-1.66-2.04,0-3.06,1.66-3.06,4.97Z"/>
    <path class="cls-1" d="m74.79,239.58c-.17,2.29-1.01,4.1-2.54,5.42s-3.54,1.98-6.04,1.98c-2.73,0-4.89-.92-6.45-2.76s-2.35-4.37-2.35-7.58v-1.3c0-2.05.36-3.86,1.08-5.42s1.75-2.76,3.1-3.6,2.9-1.25,4.68-1.25c2.46,0,4.44.66,5.95,1.98s2.37,3.17,2.61,5.55h-4.39c-.11-1.38-.49-2.38-1.15-3s-1.66-.93-3.01-.93c-1.46,0-2.56.52-3.29,1.57s-1.1,2.68-1.12,4.89v1.61c0,2.3.35,3.99,1.05,5.05s1.8,1.6,3.3,1.6c1.36,0,2.37-.31,3.04-.93s1.05-1.58,1.15-2.88h4.39Z"/>
    <path class="cls-1" d="m86.58,246.68c-.2-.38-.34-.85-.42-1.42-1.03,1.14-2.36,1.71-4,1.71-1.55,0-2.84-.45-3.86-1.35s-1.53-2.03-1.53-3.4c0-1.68.62-2.97,1.87-3.87s3.04-1.35,5.4-1.36h1.95v-.91c0-.73-.19-1.32-.56-1.76s-.97-.66-1.78-.66c-.71,0-1.27.17-1.68.51s-.61.81-.61,1.41h-4.23c0-.92.28-1.77.85-2.55s1.37-1.39,2.4-1.84,2.2-.67,3.49-.67c1.95,0,3.5.49,4.65,1.47s1.72,2.36,1.72,4.14v6.87c0,1.5.22,2.64.63,3.41v.25h-4.28Zm-3.5-2.94c.62,0,1.2-.14,1.73-.42s.92-.65,1.17-1.12v-2.72h-1.58c-2.12,0-3.25.73-3.38,2.2v.25c-.01.53.17.96.54,1.3s.88.51,1.52.51Z"/>
    <path class="cls-1" d="m97.95,246.68h-4.25v-22.5h4.25v22.5Z"/>
    <path class="cls-1" d="m105.9,246.68h-4.25v-22.5h4.25v22.5Z"/>
    <path class="cls-1" d="m109.36,226.73c0-.63.21-1.16.64-1.57s1-.62,1.74-.62,1.3.21,1.73.62.64.93.64,1.57-.22,1.17-.65,1.58-1.01.62-1.72.62-1.29-.21-1.72-.62-.65-.94-.65-1.58Zm4.5,19.95h-4.25v-15.85h4.25v15.85Z"/>
    <path class="cls-1" d="m121.24,230.83l.13,1.83c1.13-1.42,2.65-2.12,4.56-2.12,1.68,0,2.93.49,3.75,1.48s1.24,2.46,1.26,4.42v10.24h-4.23v-10.14c0-.9-.2-1.55-.59-1.96s-1.04-.61-1.95-.61c-1.19,0-2.08.51-2.68,1.52v11.18h-4.23v-15.85h3.98Z"/>
    <path class="cls-1" d="m133.53,238.64c0-2.43.58-4.39,1.74-5.87s2.72-2.23,4.68-2.23c1.74,0,3.09.6,4.06,1.79l.18-1.49h3.84v15.32c0,1.39-.32,2.59-.95,3.62s-1.52,1.81-2.66,2.34-2.48.81-4.01.81c-1.16,0-2.29-.23-3.4-.7s-1.94-1.06-2.5-1.79l1.88-2.58c1.05,1.18,2.33,1.77,3.84,1.77,1.12,0,2-.3,2.62-.9s.94-1.45.94-2.56v-.85c-.98,1.1-2.26,1.66-3.85,1.66-1.9,0-3.45-.74-4.62-2.23s-1.76-3.46-1.76-5.93v-.18Zm4.23.31c0,1.44.29,2.57.86,3.38.58.82,1.37,1.23,2.37,1.23,1.29,0,2.21-.48,2.77-1.45v-6.67c-.57-.97-1.48-1.45-2.74-1.45-1.02,0-1.81.42-2.4,1.25-.58.83-.87,2.07-.87,3.73Z"/>
    <path class="cls-1" d="m173.18,246.68h-14.62v-2.9l6.9-7.35c.95-1.04,1.65-1.94,2.1-2.71s.68-1.5.68-2.2c0-.95-.24-1.69-.72-2.23s-1.16-.81-2.05-.81c-.96,0-1.71.33-2.26.99s-.83,1.53-.83,2.6h-4.25c0-1.3.31-2.49.93-3.56s1.5-1.92,2.63-2.53,2.42-.92,3.85-.92c2.2,0,3.9.53,5.12,1.58s1.82,2.54,1.82,4.47c0,1.05-.27,2.13-.82,3.22s-1.48,2.37-2.81,3.82l-4.85,5.11h9.17v3.41Z"/>
    <path class="cls-1" d="m176.17,244.6c0-.67.23-1.22.68-1.64s1.02-.63,1.71-.63,1.27.21,1.72.63.68.97.68,1.64-.22,1.2-.67,1.62-1.03.62-1.73.62-1.26-.21-1.71-.62-.67-.95-.67-1.62Z"/>
    <path class="cls-1" d="m198.85,237.86c0,2.95-.61,5.21-1.83,6.77s-3.01,2.34-5.36,2.34-4.1-.77-5.33-2.3-1.86-3.73-1.89-6.59v-3.93c0-2.98.62-5.24,1.85-6.78s3.02-2.31,5.34-2.31,4.1.76,5.33,2.29,1.86,3.72,1.89,6.58v3.93Zm-4.23-4.32c0-1.77-.24-3.06-.73-3.86-.48-.81-1.24-1.21-2.26-1.21s-1.73.38-2.21,1.15c-.47.77-.72,1.97-.75,3.6v5.19c0,1.74.24,3.03.71,3.88.47.85,1.23,1.27,2.28,1.27s1.78-.41,2.24-1.22c.46-.81.7-2.05.72-3.72v-5.07Z"/>
  </g>
  <g>
    <polygon class="cls-2" points="151.96 129.08 151.76 129.08 151.42 129.15 150.94 129.38 150.44 129.89 150.2 130.37 150.13 130.71 150.13 130.91 150.13 131.1 150.2 131.45 150.44 131.94 150.94 132.43 151.42 132.68 151.76 132.75 151.96 132.75 152.15 132.75 152.5 132.68 152.98 132.43 153.48 131.94 153.72 131.45 153.79 131.1 153.79 130.91 153.79 130.71 153.72 130.37 153.48 129.89 152.98 129.38 152.5 129.15 152.15 129.08 151.96 129.08 151.96 129.08 151.96 129.08"/>
    <path class="cls-2" d="m157.55,122.39l-9.08-3.06-3.27-6.62.55-.57,1.01-1.23.93-1.29.83-1.37.71-1.43.62-1.49.5-1.52.37-1.55.15-.78.41-2.46h3.46l.58-.03,1.13-.24,1.04-.44.9-.63.78-.8.61-.92.44-1.05.24-1.13v-.59s.01-12.2.01-12.2v-.75l-.07-1.49-.16-1.47-.21-1.44-.44-2.1-.84-2.73-1.1-2.61-1.32-2.46-1.54-2.33-1.76-2.15-1.94-1.97-2.12-1.79-2.29-1.56-2.43-1.34-2.58-1.11-2.69-.86-2.07-.45-1.42-.23-1.45-.15-1.47-.08h-1.48l-1.47.08-1.45.15-1.42.23-2.09.45-2.69.86-2.58,1.1-2.43,1.35-2.29,1.56-2.12,1.76-1.94,2-1.75,2.13-1.54,2.33-1.33,2.46-1.08,2.61-.84,2.73-.44,2.12-.21,1.44-.16,1.47-.07,1.49v13.42s.16.9.16.9l.27.84.4.8.52.74.59.62.71.53.76.44.41.15v2.87s.25,1.13.25,1.13l.44,1.05.61.92.78.8.9.63,1.04.44,1.13.24.58.03h1.69l.31.66.71,1.32.8,1.26.89,1.2.47.57.41.47.44.45-3.27,6.62-9.08,3.06-.98.35-1.91.84-1.82,1.01-1.75,1.17-1.66,1.32-1.55,1.44-1.44,1.56-1.35,1.67-1.2,1.8-1.08,1.88-.95,1.95-.81,2.03-.67,2.1-.52,2.15-.33,2.18-.19,2.24v1.11s-.01.2-.01.2l.09.38.24.51.52.53.5.26.37.08h84.43l.37-.08.5-.26.52-.53.25-.51.07-.38v-1.31s-.21-2.24-.21-2.24l-.33-2.18-.5-2.15-.68-2.1-.81-2.03-.95-1.95-1.08-1.88-1.2-1.8-1.35-1.67-1.44-1.56-1.55-1.44-1.66-1.32-1.73-1.17-1.84-1.01-1.91-.84-.98-.35h0Zm-.89-29.16v.18l-.07.39-.25.51-.52.53-.5.24-.37.08-.19.02h-2.92l.34-2.9.47-5.97.13-3v-.33h3.88v10.26h0Zm-47.75,1.94l-.19-.02-.37-.08-.5-.24-.52-.53-.25-.51-.07-.39v-10.44h3.88v.6s.01.02.01.02h0s.13,2.93.13,2.93l.47,5.82.33,2.82h-2.92v.02h0Zm3.82,7.74h-.19s-.37-.09-.37-.09l-.5-.24-.52-.53-.25-.51-.07-.39v-2.12h1.55l.41,2.46.13.69.16.72h-.36Zm-1.91-23.81h-3.75l.12-1.22.38-2.37.64-2.27.8-2.21,1.02-2.09,1.18-1.97,1.35-1.86,1.51-1.73,1.66-1.56,1.81-1.41,1.92-1.23,2.03-1.07,2.16-.89,2.24-.68,2.31-.47,2.4-.23,1.23-.02,1.23.02,2.38.23,2.31.47,2.24.68,2.15.89,2.03,1.05,1.92,1.25,1.81,1.41,1.66,1.56,1.51,1.73,1.36,1.86,1.18,1.97,1.02,2.09.81,2.21.62,2.27.4,2.37.12,1.22h-3.75l-.03-.99-.22-1.97-.41-1.89-.58-1.82-.73-1.73-.9-1.65-1.04-1.55-1.2-1.44-1.3-1.32-1.41-1.17-1.55-1.04-1.61-.9-1.73-.75-1.79-.56-1.87-.39-1.94-.2h-.98s-3.44-.01-3.44-.01h-.98s-1.94.21-1.94.21l-1.87.39-1.79.56-1.73.75-1.61.9-1.54,1.04-1.42,1.17-1.3,1.32-1.2,1.44-1.04,1.55-.9,1.65-.73,1.73-.58,1.82-.41,1.89-.22,1.97-.03.99h0Zm19.29-15.49h3.44l.78.02,1.55.15,1.53.33,1.47.47,1.39.59,1.3.75,1.24.84,1.14.96,1.04,1.08.95,1.17.84,1.26.73,1.32.58,1.43.46,1.47.31,1.53.15,1.59v.81s.01.87.01.87v.75s-.01.02-.01.02h0s-2.38-.35-2.38-.35l-1.23-.18-2.38-.57-2.35-.74-2.25-.93-2.21-1.11-2.09-1.29-1.98-1.44-1.88-1.61-.89-.87-.13-.14-.31-.21-.36-.15-.37-.08h-1.14s-1.9.23-1.9.23l-1.85.44-1.79.62-1.69.83-1.61,1.01-1.5,1.19-1.36,1.34-.62.74.09-.74.28-1.44.4-1.37.53-1.34.64-1.28.76-1.2.84-1.14.95-1.04,1.02-.95,1.11-.86,1.2-.77,1.24-.63,1.32-.54,1.38-.41,1.42-.29,1.47-.14.74-.02h0Zm-13.07,39.3l-.18-.68-.37-1.73-.53-3.33-.64-5.3-.46-5.39-.12-2.39,2.58-3.47.46-.59.99-1.08,1.11-.95,1.2-.84,1.27-.71,1.33-.54,1.41-.41,1.44-.24.73-.06.96.93,2.07,1.68,2.18,1.53,2.29,1.37,2.4,1.17,2.46.99,2.56.78,2.58.59,1.32.23,2.81.41-.09,1.52-.21,3.02-.28,2.97-.34,2.91-.21,1.41h0l-.24,1.59-.43,2.55-.09.57-.28,1.13-.36,1.11-.43,1.11-.49,1.05-.56,1.02-.62.98-.68.93-.77.89-.8.81-.87.78-.9.68-.96.65-1.01.54-1.05.47-1.08.38-.55.15-.93.21-1.88.24h-1.9l-1.88-.24-.93-.21-.68-.21-1.38-.5-1.32-.66-1.27-.8-1.18-.93-1.13-1.07-1.02-1.17-.95-1.31-.41-.68h3.89l.15.41.41.78.52.71.62.62.71.51.77.41.84.27.9.17.46.02h3.82l.59-.03,1.13-.24,1.02-.44.92-.63.77-.8.62-.9.43-1.07.24-1.13v-.59s0-.6,0-.6l-.24-1.14-.43-1.04-.62-.93-.77-.78-.92-.65-1.02-.44-1.14-.23-.58-.02h-4.29l-.9.15-.86.29-.77.42-.71.51-.61.62-.52.69-.41.78-.15.42h-5.57Zm10.81,15.1l.99.18,1.98.23,1.01.02.78-.02,1.57-.14.77-.12-3.36,3.63-3.75-3.78h0Zm1.11,6.57l-6.07,6.51-.61-1.23-1.15-2.48-1.08-2.51-.98-2.55-.46-1.29,2.28-4.61,8.07,8.15h0Zm13.49-8.81l2.61,5.27-.46,1.29-.98,2.55-1.08,2.52-1.15,2.46-.61,1.23-6.5-6.57,8.17-8.75h0Zm-16.35-10.92v-.21l.07-.38.25-.51.52-.54.5-.23.37-.08h4.2l.37.08.5.23.52.54.25.51.07.38v.39l-.07.39-.25.51-.52.53-.5.24-.37.08-.19.02h-3.82l-.19-.02-.37-.08-.5-.24-.52-.53-.25-.51-.07-.39v-.18h0Zm-34.31,42.38l.09-.9.27-1.76.4-1.76.5-1.71.62-1.65.73-1.61.84-1.53.93-1.49,1.02-1.4,1.1-1.32,1.21-1.25,1.26-1.13,1.35-1.02,1.41-.92,1.48-.81,1.54-.66.78-.29,8.04-2.7.56,1.53,1.23,3.05,1.36,2.99,1.48,2.96.8,1.41v.03s.01.02.01.02h0l.59,1.04,1.24,2.06,1.32,2.03,1.36,1.98.71.98,2.35,3.83h-36.6Zm40.04-1.71l-2.59-4.23-.03-.06-.07-.06-1.14-1.61-2.15-3.24-1.01-1.68,6.83-7.31,7.17,7.28-1.01,1.7-2.16,3.26-1.14,1.61h-.03s-2.67,4.35-2.67,4.35h0Zm3.44,1.71l2.35-3.83.73-.98,1.36-2,1.32-2.04,1.26-2.07.59-1.07v-.03s.03-.03.03-.03h0l.8-1.43,1.47-2.91,1.35-2.96,1.21-3.02.56-1.53,8.04,2.7.78.29,1.54.66,1.48.81,1.41.92,1.35,1.02,1.26,1.13,1.21,1.25,1.1,1.32,1.02,1.4.93,1.49.84,1.53.73,1.61.62,1.65.5,1.71.4,1.76.27,1.76.09.9h-36.6Z"/>
    <polygon class="cls-2" points="166.4 139.31 165.89 138.42 164.64 136.72 163.2 135.17 161.58 133.76 160.69 133.14 160.53 133.03 160.17 132.87 159.59 132.75 158.83 132.84 158.31 133.08 158 133.32 157.88 133.46 157.75 133.61 157.58 133.93 157.45 134.45 157.55 135.13 157.83 135.61 158.08 135.87 158.23 136 158.95 136.5 160.23 137.61 161.39 138.85 162.39 140.21 162.79 140.93 162.9 141.09 163.14 141.36 163.61 141.7 164.33 141.92 164.93 141.91 165.31 141.8 165.5 141.73 165.68 141.64 166 141.42 166.36 141.02 166.61 140.35 166.59 139.83 166.5 139.48 166.4 139.31 166.4 139.31 166.4 139.31"/>
  </g>
</svg>