<?xml version="1.0" encoding="UTF-8"?>
<svg id="Camada_1" data-name="Camada 1" xmlns="http://www.w3.org/2000/svg" viewBox="0 0 263.86 275.73">
  <defs>
    <style>
      .cls-1 {
        fill: #fff;
      }

      .cls-2 {
        fill: #094783;
        fill-rule: evenodd;
      }

      .cls-3 {
        fill: #27b8d4;
      }
    </style>
  </defs>
  <path class="cls-3" d="m59.74,0h175.69c15.69,0,28.43,12.74,28.43,28.43v187.56c0,32.97-26.77,59.74-59.74,59.74H59.74c-32.97,0-59.74-26.77-59.74-59.74V59.74C0,26.77,26.77,0,59.74,0Z"/>
  <g>
    <path class="cls-1" d="m93.8,206.29h-7.71l-1.46,4.39h-4.67l7.94-21.33h4.07l7.98,21.33h-4.67l-1.48-4.39Zm-6.52-3.56h5.33l-2.68-7.98-2.65,7.98Z"/>
    <path class="cls-1" d="m101.05,202.64c0-2.43.58-4.39,1.74-5.87s2.72-2.23,4.68-2.23c1.74,0,3.09.6,4.06,1.79l.18-1.49h3.84v15.32c0,1.39-.32,2.59-.95,3.62s-1.52,1.81-2.66,2.34-2.48.81-4.01.81c-1.16,0-2.29-.23-3.4-.7s-1.94-1.06-2.5-1.79l1.88-2.58c1.05,1.18,2.33,1.77,3.84,1.77,1.12,0,2-.3,2.62-.9s.94-1.45.94-2.56v-.85c-.98,1.1-2.26,1.66-3.85,1.66-1.9,0-3.45-.74-4.62-2.23s-1.76-3.46-1.76-5.93v-.18Zm4.23.31c0,1.44.29,2.57.86,3.38.58.82,1.37,1.23,2.37,1.23,1.29,0,2.21-.48,2.77-1.45v-6.67c-.57-.97-1.48-1.45-2.74-1.45-1.02,0-1.81.42-2.4,1.25-.58.83-.87,2.07-.87,3.73Z"/>
    <path class="cls-1" d="m126.09,210.97c-2.32,0-4.22-.71-5.68-2.14s-2.19-3.33-2.19-5.7v-.41c0-1.59.31-3.02.92-4.27s1.49-2.22,2.61-2.9,2.42-1.02,3.86-1.02c2.17,0,3.87.68,5.12,2.05s1.87,3.31,1.87,5.82v1.73h-10.09c.14,1.04.55,1.87,1.24,2.49s1.56.94,2.62.94c1.63,0,2.91-.59,3.82-1.77l2.08,2.33c-.63.9-1.49,1.6-2.58,2.1s-2.29.75-3.6.75Zm-.48-13.02c-.84,0-1.52.28-2.04.85s-.86,1.38-1,2.44h5.89v-.34c-.02-.94-.27-1.67-.76-2.19s-1.18-.77-2.08-.77Z"/>
    <path class="cls-1" d="m138.9,194.83l.13,1.83c1.13-1.42,2.65-2.12,4.56-2.12,1.68,0,2.93.49,3.75,1.48s1.24,2.46,1.26,4.42v10.24h-4.23v-10.14c0-.9-.2-1.55-.59-1.96s-1.04-.61-1.95-.61c-1.19,0-2.08.51-2.68,1.52v11.18h-4.23v-15.85h3.98Z"/>
    <path class="cls-1" d="m156.88,190.93v3.9h2.71v3.11h-2.71v7.91c0,.59.11,1.01.34,1.26s.65.38,1.29.38c.47,0,.88-.03,1.25-.1v3.21c-.83.25-1.68.38-2.56.38-2.97,0-4.48-1.5-4.54-4.5v-8.54h-2.31v-3.11h2.31v-3.9h4.23Z"/>
    <path class="cls-1" d="m169.24,210.97c-2.32,0-4.22-.71-5.68-2.14s-2.19-3.33-2.19-5.7v-.41c0-1.59.31-3.02.92-4.27s1.49-2.22,2.61-2.9,2.42-1.02,3.86-1.02c2.17,0,3.87.68,5.12,2.05s1.87,3.31,1.87,5.82v1.73h-10.09c.14,1.04.55,1.87,1.24,2.49s1.56.94,2.62.94c1.63,0,2.91-.59,3.82-1.77l2.08,2.33c-.63.9-1.49,1.6-2.58,2.1s-2.29.75-3.6.75Zm-.48-13.02c-.84,0-1.52.28-2.04.85s-.86,1.38-1,2.44h5.89v-.34c-.02-.94-.27-1.67-.76-2.19s-1.18-.77-2.08-.77Z"/>
    <path class="cls-1" d="m92.88,241.39l4.83-16.04h4.89l-7.43,21.33h-4.58l-7.4-21.33h4.88l4.8,16.04Z"/>
    <path class="cls-1" d="m104.3,226.73c0-.63.21-1.16.64-1.57s1-.62,1.74-.62,1.3.21,1.73.62.64.93.64,1.57-.22,1.17-.65,1.58-1.01.62-1.72.62-1.29-.21-1.72-.62-.65-.94-.65-1.58Zm4.5,19.95h-4.25v-15.85h4.25v15.85Z"/>
    <path class="cls-1" d="m121.19,234.8c-.58-.08-1.08-.12-1.52-.12-1.6,0-2.65.54-3.15,1.63v10.37h-4.23v-15.85h4l.12,1.89c.85-1.46,2.03-2.18,3.53-2.18.47,0,.91.06,1.32.19l-.06,4.07Z"/>
    <path class="cls-1" d="m129.03,226.93v3.9h2.71v3.11h-2.71v7.91c0,.59.11,1.01.34,1.26s.65.38,1.29.38c.47,0,.88-.03,1.25-.1v3.21c-.83.25-1.68.38-2.56.38-2.97,0-4.48-1.5-4.54-4.5v-8.54h-2.31v-3.11h2.31v-3.9h4.23Z"/>
    <path class="cls-1" d="m143.59,245.07c-1.04,1.27-2.49,1.9-4.34,1.9-1.7,0-3-.49-3.89-1.46s-1.35-2.41-1.37-4.29v-10.39h4.23v10.25c0,1.65.75,2.48,2.26,2.48s2.42-.5,2.96-1.5v-11.23h4.25v15.85h-3.98l-.12-1.61Z"/>
    <path class="cls-1" d="m160.07,246.68c-.2-.38-.34-.85-.42-1.42-1.03,1.14-2.36,1.71-4,1.71-1.55,0-2.84-.45-3.86-1.35s-1.53-2.03-1.53-3.4c0-1.68.62-2.97,1.87-3.87s3.04-1.35,5.4-1.36h1.95v-.91c0-.73-.19-1.32-.56-1.76s-.97-.66-1.78-.66c-.71,0-1.27.17-1.68.51s-.61.81-.61,1.41h-4.23c0-.92.28-1.77.85-2.55s1.37-1.39,2.4-1.84,2.2-.67,3.49-.67c1.95,0,3.5.49,4.65,1.47s1.72,2.36,1.72,4.14v6.87c0,1.5.22,2.64.63,3.41v.25h-4.28Zm-3.5-2.94c.62,0,1.2-.14,1.73-.42s.92-.65,1.17-1.12v-2.72h-1.58c-2.12,0-3.25.73-3.38,2.2v.25c-.01.53.17.96.54,1.3s.88.51,1.52.51Z"/>
    <path class="cls-1" d="m171.44,246.68h-4.25v-22.5h4.25v22.5Z"/>
  </g>
  <g>
    <polygon class="cls-2" points="92.34 134.19 95.94 134.19 95.94 137.8 92.34 137.8 92.34 134.19 92.34 134.19"/>
    <polygon class="cls-2" points="85.13 134.19 88.74 134.19 88.74 137.8 85.13 137.8 85.13 134.19 85.13 134.19"/>
    <polygon class="cls-2" points="99.54 134.19 103.15 134.19 103.15 137.8 99.54 137.8 99.54 134.19 99.54 134.19"/>
    <path class="cls-2" d="m168.47,79.47l-.71.02-1.41.14-1.36.28-1.31.4-1.24.55-1.19.67-1.12.76-1.02.88-.95.95-.84,1.06-.76,1.13-.64,1.21-.53,1.28-.4,1.34-.29,1.37-.14,1.44-.02.74.02.76.16,1.49.31,1.44.45,1.37.57,1.32.71,1.25.81,1.16.91,1.07.52.49-9.67,7.39v-8.88l-.03-.86-.31-1.65-.6-1.53-.86-1.37-1.09-1.18-1.29-.97-1.45-.7-1.59-.44-.83-.09,5.9-18.02.52.09,1.09.09.55.02.72-.02,1.41-.14,1.34-.3,1.31-.4,1.26-.55,1.17-.65,1.12-.77,1.03-.86.93-.97.86-1.04.74-1.14.64-1.21.55-1.27.4-1.34.28-1.39.14-1.44.02-.72-.02-.74-.14-1.42-.28-1.39-.4-1.34-.55-1.28-.64-1.2-.74-1.14-.86-1.04-.93-.97-1.03-.86-1.12-.77-1.17-.65-1.26-.56-1.31-.4-1.34-.28-1.41-.14-.72-.02-.71.02-1.41.14-1.36.28-1.29.4-1.26.56-1.19.65-1.1.77-1.03.86-.93.97-.86,1.04-.74,1.14-.66,1.2-.53,1.28-.4,1.34-.28,1.39-.16,1.42-.02.74.03,1.07.33,2.13.59,1.97.86,1.86,1.12,1.69,1.34,1.51,1.53,1.3,1.71,1.07.9.42-6.17,18.94h-14.91l-5.98-18.36.52-.18,1.05-.4.98-.49.97-.58.9-.63.86-.7.78-.79.74-.83.66-.9.6-.95.53-1,.43-1.02.36-1.09.28-1.13.19-1.14.12-1.18v-.6l-.02-.74-.16-1.42-.28-1.39-.4-1.34-.53-1.28-.66-1.2-.74-1.14-.86-1.04-.93-.97-1.03-.86-1.1-.77-1.19-.65-1.26-.56-1.29-.4-1.36-.28-1.41-.14-.71-.02-.72.02-1.41.14-1.34.28-1.31.4-1.26.56-1.17.65-1.12.77-1.03.86-.93.97-.86,1.04-.74,1.14-.64,1.2-.55,1.28-.4,1.34-.28,1.39-.14,1.42-.02.74.02.72.14,1.44.28,1.39.4,1.34.55,1.27.64,1.21.74,1.14.86,1.04.93.97,1.03.86,1.12.77,1.17.65,1.26.55,1.31.4,1.34.3,1.41.14.72.02.24-.02h.22l5.85,17.85-.83.09-1.59.44-1.45.7-1.29.97-1.09,1.18-.86,1.37-.6,1.53-.31,1.65-.03.86v8.88l-9.67-7.39.52-.49.91-1.07.81-1.16.71-1.25.57-1.32.45-1.37.31-1.44.16-1.49.02-.76-.02-.74-.14-1.44-.29-1.37-.4-1.34-.53-1.28-.64-1.21-.76-1.13-.84-1.06-.95-.95-1.02-.88-1.12-.76-1.19-.67-1.24-.55-1.31-.4-1.36-.28-1.41-.14-.71-.02-.72.02-1.4.14-1.36.28-1.31.4-1.26.55-1.17.67-1.12.76-1.02.88-.95.95-.84,1.06-.76,1.13-.64,1.21-.55,1.28-.4,1.34-.28,1.37-.14,1.44-.02.74.02.72.14,1.44.28,1.39.4,1.32.55,1.28.64,1.21.76,1.13.84,1.06.95.95,1.02.88,1.12.76,1.17.67,1.26.55,1.31.4,1.36.28,1.4.14.72.02.88-.02,1.71-.21,1.64-.42,1.57-.62.74-.39,12.62,9.65v29.75l.1.9.17.86.24.84.52,1.18.95,1.41,1.17,1.21,1.38.95,1.17.55.81.25.86.18.86.11h21.81l.86-.11.86-.18.81-.25,1.17-.55,1.38-.95,1.17-1.21.95-1.41.52-1.18.24-.84.17-.86.1-.9v-29.75l12.62-9.65.74.39,1.57.62,1.64.42,1.71.21.88.02.72-.02,1.4-.14,1.36-.28,1.31-.4,1.26-.55,1.17-.67,1.12-.76,1.02-.88.95-.95.84-1.06.76-1.13.64-1.21.55-1.28.4-1.32.28-1.39.14-1.44.02-.72-.02-.74-.14-1.44-.28-1.37-.4-1.34-.55-1.28-.64-1.21-.76-1.13-.84-1.06-.95-.95-1.02-.88-1.12-.76-1.17-.67-1.26-.55-1.31-.4-1.36-.28-1.4-.14-.72-.02h0Zm-29.61-17.76l.02-.55.1-1.07.22-1.06.29-.98.4-.97.48-.9.57-.86.64-.77.71-.72.78-.67.83-.56.9-.49.93-.42.98-.3,1.02-.21,1.05-.11.53-.02.55.02,1.03.11,1.03.21.97.3.95.42.88.49.84.56.76.67.72.72.64.77.55.86.5.9.4.97.29.98.21,1.06.1,1.07.02.55-.02.55-.1,1.07-.21,1.04-.29,1-.4.95-.5.91-.55.84-.64.79-.72.72-.76.67-.84.56-.88.49-.95.4-.97.32-1.03.21-1.03.11-.55.02-.53-.02-1.05-.11-1.02-.21-.98-.32-.93-.4-.9-.49-.83-.56-.78-.67-.71-.72-.64-.79-.57-.84-.48-.91-.4-.95-.29-1-.22-1.04-.1-1.07-.02-.55h0Zm-26.11,10.66l-.55-.02-1.03-.11-1.03-.21-.97-.32-.95-.4-.88-.49-.84-.56-.76-.67-.72-.72-.64-.79-.55-.84-.5-.91-.4-.95-.29-1-.21-1.04-.1-1.07-.02-.55.02-.55.1-1.07.21-1.06.29-.98.4-.97.5-.9.55-.86.64-.77.72-.72.76-.67.84-.56.88-.49.95-.42.97-.3,1.03-.21,1.03-.11.55-.02.53.02,1.05.11,1.02.21.98.3.93.42.9.49.83.56.78.67.71.72.64.77.57.86.48.9.4.97.29.98.22,1.06.1,1.07.02.55-.02.55-.1,1.07-.22,1.04-.29,1-.4.95-.48.91-.57.84-.64.79-.71.72-.78.67-.83.56-.9.49-.93.4-.98.32-1.02.21-1.05.11-.53.02h0Zm-20.9,31.95l-.53-.02-1.05-.11-1.03-.21-.97-.3-.95-.4-.88-.49-.84-.58-.76-.65-.71-.72-.66-.79-.55-.84-.48-.91-.41-.95-.29-1-.21-1.06-.1-1.06-.02-.55.02-.56.1-1.06.21-1.06.29-.98.41-.97.48-.9.55-.86.66-.77.71-.74.76-.65.84-.56.88-.51.95-.4.97-.3,1.03-.21,1.05-.11.53-.02.53.02,1.05.11,1.02.21.98.3.93.4.9.51.83.56.78.65.71.74.66.77.55.86.48.9.4.97.31.98.21,1.06.1,1.06.02.56-.02.55-.1,1.06-.21,1.06-.31,1-.4.95-.48.91-.55.84-.66.79-.71.72-.78.65-.83.58-.9.49-.93.4-.98.3-1.02.21-1.05.11-.53.02h0Zm48.74,46.18h-20.88l-.55-.02-1-.21-.95-.4-.83-.58-.72-.72-.55-.86-.4-.95-.21-1.04-.02-.55h31.33l-.02.55-.21,1.04-.4.95-.55.86-.72.72-.83.58-.95.4-1,.21-.55.02h0Zm5.22-8.88h-31.33v-35.52h31.33v35.52h0Zm-31.33-39.07l.02-.55.21-1.02.4-.97.55-.84.72-.74.83-.56.95-.4,1-.21.55-.02h20.88l.55.02,1,.21.95.4.83.56.72.74.55.84.4.97.21,1.02.02.55h-31.33Zm53.97,1.78l-.53-.02-1.05-.11-1.02-.21-.98-.3-.93-.4-.9-.49-.83-.58-.78-.65-.71-.72-.66-.79-.55-.84-.48-.91-.4-.95-.31-1-.21-1.06-.1-1.06-.02-.55.02-.56.1-1.06.21-1.06.31-.98.4-.97.48-.9.55-.86.66-.77.71-.74.78-.65.83-.56.9-.51.93-.4.98-.3,1.02-.21,1.05-.11.53-.02.53.02,1.05.11,1.03.21.97.3.95.4.88.51.84.56.76.65.72.74.64.77.55.86.48.9.41.97.29.98.21,1.06.1,1.06.02.56-.02.55-.1,1.06-.21,1.06-.29,1-.41.95-.48.91-.55.84-.64.79-.72.72-.76.65-.84.58-.88.49-.95.4-.97.3-1.03.21-1.05.11-.53.02h0Z"/>
    <polygon class="cls-2" points="138.29 117.94 126.39 128.39 122.04 124.58 119.36 126.93 125.04 131.91 125.34 132.12 126.01 132.37 126.39 132.38 126.74 132.37 127.42 132.12 127.72 131.91 140.97 120.29 138.29 117.94 138.29 117.94 138.29 117.94"/>
    <polygon class="cls-2" points="92.34 126.96 95.94 126.96 95.94 130.58 92.34 130.58 92.34 126.96 92.34 126.96"/>
    <polygon class="cls-2" points="164.39 126.96 167.99 126.96 167.99 130.58 164.39 130.58 164.39 126.96 164.39 126.96"/>
    <polygon class="cls-2" points="164.39 134.19 167.99 134.19 167.99 137.8 164.39 137.8 164.39 134.19 164.39 134.19"/>
    <polygon class="cls-2" points="157.18 134.19 160.79 134.19 160.79 137.8 157.18 137.8 157.18 134.19 157.18 134.19"/>
    <polygon class="cls-2" points="171.59 134.19 175.2 134.19 175.2 137.8 171.59 137.8 171.59 134.19 171.59 134.19"/>
    <polygon class="cls-2" points="92.34 92.65 95.94 92.65 95.94 96.26 92.34 96.26 92.34 92.65 92.34 92.65"/>
    <polygon class="cls-2" points="85.13 92.65 88.74 92.65 88.74 96.26 85.13 96.26 85.13 92.65 85.13 92.65"/>
    <polygon class="cls-2" points="115.76 60.15 119.36 60.15 119.36 63.76 115.76 63.76 115.76 60.15 115.76 60.15"/>
    <polygon class="cls-2" points="108.55 60.15 112.15 60.15 112.15 63.76 108.55 63.76 108.55 60.15 108.55 60.15"/>
    <polygon class="cls-2" points="151.78 60.15 155.38 60.15 155.38 63.76 151.78 63.76 151.78 60.15 151.78 60.15"/>
    <polygon class="cls-2" points="144.57 60.15 148.18 60.15 148.18 63.76 144.57 63.76 144.57 60.15 144.57 60.15"/>
    <polygon class="cls-2" points="171.59 92.65 175.2 92.65 175.2 96.26 171.59 96.26 171.59 92.65 171.59 92.65"/>
    <polygon class="cls-2" points="164.39 92.65 167.99 92.65 167.99 96.26 164.39 96.26 164.39 92.65 164.39 92.65"/>
  </g>
</svg>