<svg xmlns="http://www.w3.org/2000/svg" xmlns:xlink="http://www.w3.org/1999/xlink" width="98.281" height="98.345" viewBox="0 0 98.281 98.345">
  <defs>
    <clipPath id="clip-path">
      <rect id="Retângulo_1448" data-name="Retângulo 1448" width="98.281" height="98.345" fill="none" stroke="#707070" stroke-width="2"/>
    </clipPath>
  </defs>
  <g id="Grupo_2751" data-name="Grupo 2751" clip-path="url(#clip-path)">
    <path id="Caminho_6578" data-name="Caminho 6578" d="M72.652,97.1h-3a.841.841,0,0,0-.238-.141,9.678,9.678,0,0,1-6.974-5.284C59.881,86.92,57.257,82.2,54.7,77.454a6.259,6.259,0,0,0-11.348,0c-2.621,4.86-5.289,9.695-7.929,14.545a9.541,9.541,0,0,1-4.905,4.424c-.685.279-1.414.452-2.122.674h-3c-.074-.054-.141-.139-.223-.156a9.681,9.681,0,0,1-7.656-7.13C13.614,77.421,9.76,65.016,5.756,52.661c-2.955-9.117-4.867-18.377-4.75-28A23.079,23.079,0,0,1,3,15.4C7.415,5.539,17.354-.495,29.944,1.322A60.154,60.154,0,0,1,40.152,3.947,27.226,27.226,0,0,0,51.014,5.422a35.518,35.518,0,0,0,8.528-2.007C64.888,1.592,70.356.477,76,1.259,85.682,2.6,92.23,8.011,95.684,17.112a44.429,44.429,0,0,1,1.348,5.515V29.38c-.062.363-.141.725-.184,1.091-.349,2.879-.608,5.772-1.055,8.635a102.282,102.282,0,0,1-4.01,15.064q-5.671,17.905-11.3,35.822a9.075,9.075,0,0,1-3.706,5.246A32.246,32.246,0,0,1,72.652,97.1M6.7,27.183A69.4,69.4,0,0,0,9.563,45.565c3.552,11.552,7.231,23.065,10.86,34.594.888,2.824,1.751,5.655,2.694,8.46A3.951,3.951,0,0,0,28.1,91.263a4.158,4.158,0,0,0,2.451-2.175c2.648-4.88,5.294-9.762,7.979-14.622a11.725,11.725,0,0,1,12.952-6.051,11.527,11.527,0,0,1,8.081,6.126q3.966,7.272,7.93,14.546a4.119,4.119,0,0,0,2.543,2.2c2.26.627,4.27-.6,5.058-3.1,3.514-11.139,6.957-22.3,10.559-33.409,2.825-8.712,5.384-17.453,5.668-26.7a25.116,25.116,0,0,0-.766-8.527C87.986,11.466,80.121,5.207,69.073,6.983a56.439,56.439,0,0,0-9.038,2.274,32.686,32.686,0,0,1-22.091-.065A40.1,40.1,0,0,0,27.03,6.761c-7.056-.455-12.8,1.945-17.006,7.688A18.507,18.507,0,0,0,6.7,27.183" transform="translate(0.125 0.125)" fill="#094783" stroke="#707070" stroke-width="2"/>
    <path id="Caminho_6579" data-name="Caminho 6579" d="M72.652,97.1h-3a.841.841,0,0,0-.238-.141,9.678,9.678,0,0,1-6.974-5.284C59.881,86.92,57.257,82.2,54.7,77.454a6.259,6.259,0,0,0-11.348,0c-2.621,4.86-5.289,9.695-7.929,14.545a9.541,9.541,0,0,1-4.905,4.424c-.685.279-1.414.452-2.122.674h-3c-.074-.054-.141-.139-.223-.156a9.681,9.681,0,0,1-7.656-7.13C13.614,77.421,9.76,65.016,5.756,52.661c-2.955-9.117-4.867-18.377-4.75-28A23.079,23.079,0,0,1,3,15.4C7.415,5.539,17.354-.495,29.944,1.322A60.154,60.154,0,0,1,40.152,3.947,27.226,27.226,0,0,0,51.014,5.422a35.518,35.518,0,0,0,8.528-2.007C64.888,1.592,70.356.477,76,1.259,85.682,2.6,92.23,8.011,95.684,17.112a44.429,44.429,0,0,1,1.348,5.515V29.38c-.062.363-.141.725-.184,1.091-.349,2.879-.608,5.772-1.055,8.635a102.282,102.282,0,0,1-4.01,15.064q-5.671,17.905-11.3,35.822a9.075,9.075,0,0,1-3.706,5.246A32.246,32.246,0,0,1,72.652,97.1ZM6.7,27.183A69.4,69.4,0,0,0,9.563,45.565c3.552,11.552,7.231,23.065,10.86,34.594.888,2.824,1.751,5.655,2.694,8.46A3.951,3.951,0,0,0,28.1,91.263a4.158,4.158,0,0,0,2.451-2.175c2.648-4.88,5.294-9.762,7.979-14.622a11.725,11.725,0,0,1,12.952-6.051,11.527,11.527,0,0,1,8.081,6.126q3.966,7.272,7.93,14.546a4.119,4.119,0,0,0,2.543,2.2c2.26.627,4.27-.6,5.058-3.1,3.514-11.139,6.957-22.3,10.559-33.409,2.825-8.712,5.384-17.453,5.668-26.7a25.116,25.116,0,0,0-.766-8.527C87.986,11.466,80.121,5.207,69.073,6.983a56.439,56.439,0,0,0-9.038,2.274,32.686,32.686,0,0,1-22.091-.065A40.1,40.1,0,0,0,27.03,6.761c-7.056-.455-12.8,1.945-17.006,7.688A18.507,18.507,0,0,0,6.7,27.183Z" transform="translate(0.125 0.125)" fill="none" stroke="#094783" stroke-miterlimit="10" stroke-width="2"/>
  </g>
</svg>
