<?xml version="1.0" encoding="UTF-8"?>
<svg id="Camada_1" data-name="Camada 1" xmlns="http://www.w3.org/2000/svg" viewBox="0 0 263.86 275.73">
  <defs>
    <style>
      .cls-1 {
        fill: #fff;
      }

      .cls-2 {
        fill: #094783;
        fill-rule: evenodd;
      }

      .cls-3 {
        fill: #27b8d4;
      }
    </style>
  </defs>
  <path class="cls-3" d="m59.74,0h175.69c15.69,0,28.43,12.74,28.43,28.43v187.56c0,32.97-26.77,59.74-59.74,59.74H59.74c-32.97,0-59.74-26.77-59.74-59.74V59.74C0,26.77,26.77,0,59.74,0Z"/>
  <g>
    <path class="cls-1" d="m66.17,198.68v-21.33h6.56c1.88,0,3.55.42,5.03,1.27s2.63,2.05,3.46,3.6,1.25,3.33,1.25,5.31v.98c0,1.98-.41,3.75-1.22,5.29s-1.97,2.74-3.45,3.59-3.16,1.28-5.02,1.29h-6.61Zm4.39-17.77v14.24h2.12c1.72,0,3.03-.56,3.94-1.68s1.37-2.73,1.39-4.82v-1.13c0-2.17-.45-3.81-1.35-4.93s-2.21-1.68-3.94-1.68h-2.17Z"/>
    <path class="cls-1" d="m92.68,198.97c-2.32,0-4.22-.71-5.68-2.14s-2.19-3.33-2.19-5.7v-.41c0-1.59.31-3.02.92-4.27s1.49-2.22,2.62-2.9,2.41-1.02,3.86-1.02c2.17,0,3.88.68,5.12,2.05s1.87,3.31,1.87,5.82v1.73h-10.09c.14,1.04.55,1.87,1.24,2.49s1.56.94,2.61.94c1.63,0,2.91-.59,3.82-1.77l2.08,2.33c-.63.9-1.49,1.6-2.58,2.1s-2.29.75-3.6.75Zm-.48-13.02c-.84,0-1.52.28-2.04.85s-.86,1.38-1,2.44h5.89v-.34c-.02-.94-.27-1.67-.76-2.19s-1.18-.77-2.08-.77Z"/>
    <path class="cls-1" d="m102.76,198.68v-12.74h-2.36v-3.11h2.36v-1.35c0-1.78.51-3.16,1.53-4.14s2.45-1.47,4.28-1.47c.59,0,1.3.1,2.15.29l-.04,3.28c-.35-.09-.78-.13-1.29-.13-1.59,0-2.39.75-2.39,2.24v1.27h3.15v3.11h-3.15v12.74h-4.25Z"/>
    <path class="cls-1" d="m112.32,178.73c0-.63.21-1.16.64-1.57s1-.62,1.74-.62,1.3.21,1.73.62.64.93.64,1.57-.22,1.17-.65,1.58-1.01.62-1.72.62-1.29-.21-1.72-.62-.65-.94-.65-1.58Zm4.5,19.95h-4.25v-15.85h4.25v15.85Z"/>
    <path class="cls-1" d="m124.2,182.83l.13,1.83c1.13-1.42,2.65-2.12,4.56-2.12,1.68,0,2.93.49,3.75,1.48s1.24,2.46,1.26,4.42v10.24h-4.23v-10.14c0-.9-.2-1.55-.59-1.96s-1.04-.61-1.95-.61c-1.19,0-2.08.51-2.68,1.52v11.18h-4.23v-15.85h3.98Z"/>
    <path class="cls-1" d="m137.08,178.73c0-.63.21-1.16.64-1.57s1-.62,1.74-.62,1.3.21,1.73.62.64.93.64,1.57-.22,1.17-.65,1.58-1.01.62-1.72.62-1.29-.21-1.72-.62-.65-.94-.65-1.58Zm4.5,19.95h-4.25v-15.85h4.25v15.85Z"/>
    <path class="cls-1" d="m151.65,195.56c.78,0,1.42-.21,1.9-.64s.74-1,.76-1.71h3.97c0,1.07-.3,2.06-.88,2.95s-1.36,1.59-2.37,2.08-2.11.74-3.32.74c-2.27,0-4.05-.72-5.36-2.16s-1.96-3.43-1.96-5.97v-.28c0-2.44.65-4.39,1.95-5.84s3.08-2.18,5.35-2.18c1.98,0,3.57.56,4.77,1.69s1.8,2.63,1.82,4.5h-3.97c-.02-.82-.27-1.49-.76-2.01-.49-.52-1.13-.77-1.93-.77-.99,0-1.73.36-2.23,1.08-.5.72-.75,1.89-.75,3.5v.44c0,1.63.25,2.81.75,3.52s1.25,1.07,2.27,1.07Zm1.54,3.03l-.16.85c1.46.26,2.2,1.11,2.2,2.53,0,1.07-.45,1.92-1.34,2.55s-2.15.94-3.77.94l-.1-2.45c1.09,0,1.64-.4,1.64-1.19,0-.41-.16-.69-.49-.84s-.86-.25-1.59-.3l.45-2.09h3.16Z"/>
    <path class="cls-1" d="m169.89,198.68c-.2-.38-.34-.85-.42-1.42-1.03,1.14-2.36,1.71-4,1.71-1.55,0-2.84-.45-3.86-1.35s-1.53-2.03-1.53-3.4c0-1.68.62-2.97,1.87-3.87s3.04-1.35,5.4-1.36h1.95v-.91c0-.73-.19-1.32-.56-1.76s-.97-.66-1.78-.66c-.71,0-1.27.17-1.68.51s-.61.81-.61,1.41h-4.23c0-.92.28-1.77.85-2.55s1.37-1.39,2.4-1.84,2.2-.67,3.49-.67c1.95,0,3.5.49,4.65,1.47s1.72,2.36,1.72,4.14v6.87c0,1.5.22,2.64.63,3.41v.25h-4.28Zm2.77-22.31c0,1.1-.32,2.03-.97,2.78s-1.43,1.12-2.36,1.12c-.37,0-.7-.04-.99-.12s-.69-.26-1.19-.53-.87-.44-1.1-.51-.47-.1-.73-.1c-.34,0-.63.12-.87.37s-.36.59-.36,1.04l-2.46-.15c0-1.08.32-2.01.96-2.77s1.42-1.14,2.35-1.14c.29,0,.57.04.83.11s.68.25,1.27.53.99.45,1.22.51.46.09.7.09c.34,0,.64-.12.89-.36s.37-.58.37-1.03l2.45.16Zm-6.27,19.37c.62,0,1.2-.14,1.73-.42s.92-.65,1.17-1.12v-2.72h-1.58c-2.12,0-3.25.73-3.38,2.2v.25c-.01.53.17.96.54,1.3s.88.51,1.52.51Z"/>
    <path class="cls-1" d="m176.13,190.61c0-1.57.3-2.97.91-4.2s1.48-2.18,2.62-2.86,2.46-1.01,3.96-1.01c2.14,0,3.88.65,5.24,1.96s2.11,3.09,2.26,5.33l.03,1.08c0,2.43-.68,4.38-2.04,5.85s-3.18,2.2-5.46,2.2-4.11-.73-5.47-2.2-2.04-3.46-2.04-5.98v-.19Zm4.23.3c0,1.51.28,2.66.85,3.46.57.8,1.38,1.2,2.43,1.2s1.83-.39,2.4-1.18c.58-.79.86-2.05.86-3.78,0-1.48-.29-2.62-.86-3.43s-1.39-1.22-2.43-1.22-1.84.4-2.4,1.21-.85,2.06-.85,3.75Z"/>
    <path class="cls-1" d="m49,226.64c0-2.47.55-4.44,1.66-5.9s2.62-2.2,4.55-2.2c1.54,0,2.82.58,3.82,1.73v-8.09h4.25v22.5h-3.82l-.21-1.68c-1.05,1.32-2.41,1.98-4.07,1.98-1.87,0-3.36-.73-4.49-2.2s-1.69-3.51-1.69-6.13Zm4.23.31c0,1.49.26,2.63.78,3.42.52.79,1.27,1.19,2.26,1.19,1.31,0,2.23-.55,2.77-1.66v-6.26c-.53-1.1-1.44-1.66-2.74-1.66-2.04,0-3.06,1.66-3.06,4.97Z"/>
    <path class="cls-1" d="m73.86,234.97c-2.32,0-4.22-.71-5.68-2.14s-2.19-3.33-2.19-5.7v-.41c0-1.59.31-3.02.92-4.27s1.49-2.22,2.62-2.9,2.41-1.02,3.86-1.02c2.17,0,3.88.68,5.12,2.05s1.87,3.31,1.87,5.82v1.73h-10.09c.14,1.04.55,1.87,1.24,2.49s1.56.94,2.61.94c1.63,0,2.91-.59,3.82-1.77l2.08,2.33c-.63.9-1.49,1.6-2.58,2.1s-2.29.75-3.6.75Zm-.48-13.02c-.84,0-1.52.28-2.04.85s-.86,1.38-1,2.44h5.89v-.34c-.02-.94-.27-1.67-.76-2.19s-1.18-.77-2.08-.77Z"/>
    <path class="cls-1" d="m94.92,227.17v7.51h-4.39v-21.33h8.32c1.6,0,3.01.29,4.23.88s2.15,1.42,2.8,2.5.98,2.31.98,3.68c0,2.09-.71,3.74-2.15,4.94s-3.41,1.81-5.94,1.81h-3.85Zm0-3.56h3.93c1.16,0,2.05-.27,2.66-.82s.92-1.33.92-2.34-.31-1.89-.92-2.53-1.46-.98-2.55-1h-4.03v6.69Z"/>
    <path class="cls-1" d="m116.89,234.97c-2.32,0-4.22-.71-5.68-2.14s-2.19-3.33-2.19-5.7v-.41c0-1.59.31-3.02.92-4.27s1.49-2.22,2.62-2.9,2.41-1.02,3.86-1.02c2.17,0,3.88.68,5.12,2.05s1.87,3.31,1.87,5.82v1.73h-10.09c.14,1.04.55,1.87,1.24,2.49s1.56.94,2.61.94c1.63,0,2.91-.59,3.82-1.77l2.08,2.33c-.63.9-1.49,1.6-2.58,2.1s-2.29.75-3.6.75Zm-.48-13.02c-.84,0-1.52.28-2.04.85s-.86,1.38-1,2.44h5.89v-.34c-.02-.94-.27-1.67-.76-2.19s-1.18-.77-2.08-.77Z"/>
    <path class="cls-1" d="m134.72,222.8c-.58-.08-1.08-.12-1.52-.12-1.6,0-2.65.54-3.15,1.63v10.37h-4.23v-15.85h4l.12,1.89c.85-1.46,2.03-2.18,3.53-2.18.47,0,.91.06,1.32.19l-.06,4.07Z"/>
    <path class="cls-1" d="m145.34,230.3c0-.52-.26-.93-.77-1.22s-1.34-.56-2.47-.8c-3.77-.79-5.65-2.39-5.65-4.8,0-1.41.58-2.58,1.75-3.52s2.69-1.41,4.58-1.41c2.01,0,3.62.47,4.83,1.42s1.81,2.18,1.81,3.69h-4.23c0-.61-.2-1.11-.59-1.5s-1-.59-1.83-.59c-.71,0-1.26.16-1.66.48s-.59.73-.59,1.23c0,.47.22.85.67,1.14s1.19.54,2.25.75,1.94.45,2.67.71c2.24.82,3.35,2.24,3.35,4.26,0,1.45-.62,2.61-1.86,3.51s-2.84,1.34-4.8,1.34c-1.33,0-2.51-.24-3.54-.71s-1.84-1.12-2.42-1.95-.88-1.72-.88-2.67h4.01c.04.75.32,1.33.83,1.73s1.21.6,2.08.6c.81,0,1.42-.15,1.84-.46s.62-.71.62-1.21Z"/>
    <path class="cls-1" d="m151.52,226.61c0-1.57.3-2.97.91-4.2s1.48-2.18,2.62-2.86,2.46-1.01,3.96-1.01c2.14,0,3.88.65,5.24,1.96s2.11,3.09,2.26,5.33l.03,1.08c0,2.43-.68,4.38-2.04,5.85s-3.18,2.2-5.46,2.2-4.11-.73-5.47-2.2-2.04-3.46-2.04-5.98v-.19Zm4.23.3c0,1.51.28,2.66.85,3.46.57.8,1.38,1.2,2.43,1.2s1.83-.39,2.4-1.18c.58-.79.86-2.05.86-3.78,0-1.48-.29-2.62-.86-3.43s-1.39-1.22-2.43-1.22-1.84.4-2.4,1.21-.85,2.06-.85,3.75Z"/>
    <path class="cls-1" d="m173.04,218.83l.13,1.83c1.13-1.42,2.65-2.12,4.56-2.12,1.68,0,2.93.49,3.75,1.48s1.24,2.46,1.26,4.42v10.24h-4.23v-10.14c0-.9-.2-1.55-.59-1.96s-1.04-.61-1.95-.61c-1.19,0-2.08.51-2.68,1.52v11.18h-4.23v-15.85h3.98Z"/>
    <path class="cls-1" d="m195.13,234.68c-.2-.38-.34-.85-.42-1.42-1.03,1.14-2.36,1.71-4,1.71-1.55,0-2.84-.45-3.86-1.35s-1.53-2.03-1.53-3.4c0-1.68.62-2.97,1.87-3.87s3.04-1.35,5.4-1.36h1.95v-.91c0-.73-.19-1.32-.56-1.76s-.97-.66-1.78-.66c-.71,0-1.27.17-1.68.51s-.61.81-.61,1.41h-4.23c0-.92.28-1.77.85-2.55s1.37-1.39,2.4-1.84,2.2-.67,3.49-.67c1.95,0,3.5.49,4.65,1.47s1.72,2.36,1.72,4.14v6.87c0,1.5.22,2.64.63,3.41v.25h-4.28Zm-3.5-2.94c.62,0,1.2-.14,1.73-.42s.92-.65,1.17-1.12v-2.72h-1.58c-2.12,0-3.25.73-3.38,2.2v.25c-.01.53.17.96.54,1.3s.88.51,1.52.51Z"/>
    <path class="cls-1" d="m210.61,230.3c0-.52-.26-.93-.77-1.22s-1.34-.56-2.47-.8c-3.77-.79-5.65-2.39-5.65-4.8,0-1.41.58-2.58,1.75-3.52s2.69-1.41,4.58-1.41c2.01,0,3.62.47,4.83,1.42s1.81,2.18,1.81,3.69h-4.23c0-.61-.2-1.11-.59-1.5s-1-.59-1.83-.59c-.71,0-1.26.16-1.66.48s-.59.73-.59,1.23c0,.47.22.85.67,1.14s1.19.54,2.25.75,1.94.45,2.67.71c2.24.82,3.35,2.24,3.35,4.26,0,1.45-.62,2.61-1.86,3.51s-2.84,1.34-4.8,1.34c-1.33,0-2.51-.24-3.54-.71s-1.84-1.12-2.42-1.95-.88-1.72-.88-2.67h4.01c.04.75.32,1.33.83,1.73s1.21.6,2.08.6c.81,0,1.42-.15,1.84-.46s.62-.71.62-1.21Z"/>
  </g>
  <g>
    <path class="cls-2" d="m116.4,110c1.16,1.28,2.55,2.69,4.06,4.09l-5.8,5.84-.47-.46-3.25-3.28-.35-.34,5.8-5.85h0Zm-9.28,7.62c.66,0,1.34.26,1.85.78l3.14,3.28c.93.93,1.04,2.57,0,3.62l-1.86,1.86-6.84-6.89,1.85-1.87c.53-.52,1.19-.78,1.86-.78h0Zm-5.8,4.76l6.72,6.89-21,21.14c-.53.52-1.16.78-1.79.78s-1.28-.26-1.8-.78l-3.25-3.28c-.94-.93-.94-2.57,0-3.62l21.12-21.14h0Zm43.16-74.03c-30.17,0-47.58,34.45-30.06,58.96l-6.96,7.01c-.15,0-.29-.02-.44-.02-1.54,0-2.8.58-3.86,1.65l-25.07,25.23c-2.2,2.22-2.2,5.84,0,8.06l3.14,3.38c1.1,1.05,2.55,1.58,4.01,1.58s2.89-.53,4-1.58l22.04-22.19,3.02-3.16c1.16-1.17,1.74-2.69,1.63-4.32l6.96-7.01c5.22,3.74,11.49,6.08,17.87,6.89h.12c.69,0,1.38-.59,1.62-1.52.12-.81-.57-1.64-1.39-1.75-6.61-.71-12.87-3.39-17.98-7.47-24.95-20.2-10.21-60.49,21.35-60.49,17.86,0,32.02,13.54,33.76,30.6.2.79.73,1.33,1.39,1.33.11,0,.23-.02.35-.06.93-.11,1.51-.81,1.39-1.75-1.98-18.45-17.41-33.4-36.9-33.4h0Z"/>
    <path class="cls-2" d="m144.71,58.5c15.48,0,28.08,12.03,28.08,27.06s-12.6,27.18-28.08,27.18c-7.21,0-14.4-2.66-19.81-7.98-10.92-10.52-10.92-27.75,0-38.28,5.52-5.31,12.6-7.97,19.81-7.97h0Zm.1-2.87c-8.02,0-16.07,2.92-22.19,8.76-12.13,11.79-12.13,31,0,42.67,6.24,5.91,14.16,8.79,22.09,8.79,17.28-.12,31.32-13.41,31.32-30.18,0-8.1-3.24-15.62-9.12-21.28-6.06-5.84-14.07-8.76-22.1-8.76h0Z"/>
    <path class="cls-2" d="m145.09,69.74c3.52,0,6.34,2.78,6.34,6.53s-2.82,6.4-6.34,6.4-6.34-2.77-6.34-6.4,2.81-6.53,6.34-6.53h0Zm4.22,16.32c3.88,0,6.93,3.14,6.93,7.12v6.77h-3.06v-7.12c0-.85-.7-1.69-1.64-1.69-.83,0-1.65.84-1.65,1.69v7.12h-9.74v-7.12c0-.85-.83-1.69-1.65-1.69-.94,0-1.65.84-1.65,1.69v7.12h-3.4v-6.77c0-3.99,3.17-7.12,6.92-7.12h8.92Zm-4.22-19.46c-5.29,0-9.52,4.35-9.52,9.78,0,2.66,1.06,5.07,2.82,6.77-4.46,1.09-7.87,5.2-7.87,10.15v6.77c0,1.69,1.41,3.02,2.94,3.02h23.12c1.53,0,2.94-1.33,2.94-3.02v-6.77c.12-4.95-3.17-9.06-7.63-10.15,1.53-1.82,2.7-4.23,2.7-6.77,0-5.43-4.23-9.78-9.51-9.78h0Z"/>
    <path class="cls-2" d="m179.73,88.5c-.69,0-1.24.7-1.45,1.31-1.49,15.87-14.01,28.61-29.98,30.23-.8.11-1.38.92-1.26,1.73.12.7.69,1.39,1.61,1.39h.11c17.13-1.62,30.9-15.52,32.63-32.89.12-.93-.58-1.62-1.38-1.74-.1-.03-.19-.04-.28-.04h0Z"/>
  </g>
</svg>