<?xml version="1.0" encoding="UTF-8"?>
<svg id="Camada_1" data-name="Camada 1" xmlns="http://www.w3.org/2000/svg" viewBox="0 0 263.86 275.73">
  <defs>
    <style>
      .cls-1 {
        fill: #fff;
      }

      .cls-2 {
        fill: #094783;
        fill-rule: evenodd;
      }

      .cls-3 {
        fill: #27b8d4;
      }
    </style>
  </defs>
  <path class="cls-3" d="m59.74,0h175.69c15.69,0,28.43,12.74,28.43,28.43v187.56c0,32.97-26.77,59.74-59.74,59.74H59.74C26.77,275.73,0,248.96,0,215.99V59.74C0,26.77,26.77,0,59.74,0Z"/>
  <g>
    <path class="cls-1" d="m35.24,198.68h-4.39v-21.33h4.39v21.33Z"/>
    <path class="cls-1" d="m42.93,182.83l.13,1.83c1.13-1.42,2.65-2.12,4.56-2.12,1.68,0,2.93.49,3.75,1.48s1.24,2.46,1.26,4.42v10.24h-4.23v-10.14c0-.9-.2-1.55-.59-1.96s-1.04-.61-1.95-.61c-1.19,0-2.08.51-2.68,1.52v11.18h-4.23v-15.85h3.98Z"/>
    <path class="cls-1" d="m60.91,178.93v3.9h2.71v3.11h-2.71v7.91c0,.59.11,1.01.34,1.26s.65.38,1.29.38c.47,0,.88-.03,1.25-.1v3.21c-.83.25-1.68.38-2.56.38-2.97,0-4.48-1.5-4.54-4.5v-8.54h-2.31v-3.11h2.31v-3.9h4.23Z"/>
    <path class="cls-1" d="m73.27,198.97c-2.32,0-4.22-.71-5.68-2.14s-2.19-3.33-2.19-5.7v-.41c0-1.59.31-3.02.92-4.27s1.49-2.22,2.62-2.9,2.41-1.02,3.86-1.02c2.17,0,3.88.68,5.12,2.05s1.87,3.31,1.87,5.82v1.73h-10.09c.14,1.04.55,1.87,1.24,2.49s1.56.94,2.61.94c1.63,0,2.91-.59,3.82-1.77l2.08,2.33c-.63.9-1.49,1.6-2.58,2.1s-2.29.75-3.6.75Zm-.48-13.02c-.84,0-1.52.28-2.04.85s-.86,1.38-1,2.44h5.89v-.34c-.02-.94-.27-1.67-.76-2.19s-1.18-.77-2.08-.77Z"/>
    <path class="cls-1" d="m81.58,190.64c0-2.43.58-4.39,1.74-5.87s2.72-2.23,4.68-2.23c1.74,0,3.09.6,4.06,1.79l.18-1.49h3.84v15.32c0,1.39-.31,2.59-.94,3.62s-1.52,1.81-2.66,2.34-2.48.81-4.01.81c-1.16,0-2.29-.23-3.4-.7s-1.94-1.06-2.5-1.79l1.88-2.58c1.05,1.18,2.33,1.77,3.84,1.77,1.12,0,2-.3,2.62-.9s.94-1.45.94-2.56v-.85c-.98,1.1-2.26,1.66-3.85,1.66-1.9,0-3.44-.74-4.62-2.23s-1.77-3.46-1.77-5.93v-.18Zm4.23.31c0,1.44.29,2.57.86,3.38.58.82,1.37,1.23,2.37,1.23,1.29,0,2.21-.48,2.77-1.45v-6.67c-.57-.97-1.48-1.45-2.74-1.45-1.02,0-1.81.42-2.39,1.25-.58.83-.87,2.07-.87,3.73Z"/>
    <path class="cls-1" d="m108.22,186.8c-.58-.08-1.08-.12-1.52-.12-1.6,0-2.65.54-3.15,1.63v10.37h-4.23v-15.85h4l.12,1.89c.85-1.46,2.03-2.18,3.53-2.18.47,0,.91.06,1.32.19l-.06,4.07Z"/>
    <path class="cls-1" d="m119,198.68c-.2-.38-.34-.85-.42-1.42-1.03,1.14-2.36,1.71-4,1.71-1.55,0-2.84-.45-3.86-1.35s-1.53-2.03-1.53-3.4c0-1.68.62-2.97,1.87-3.87s3.04-1.35,5.4-1.36h1.95v-.91c0-.73-.19-1.32-.56-1.76s-.97-.66-1.78-.66c-.71,0-1.27.17-1.68.51s-.61.81-.61,1.41h-4.23c0-.92.28-1.77.85-2.55s1.37-1.39,2.4-1.84,2.2-.67,3.49-.67c1.95,0,3.5.49,4.65,1.47s1.72,2.36,1.72,4.14v6.87c0,1.5.22,2.64.63,3.41v.25h-4.28Zm-3.5-2.94c.62,0,1.2-.14,1.73-.42s.92-.65,1.17-1.12v-2.72h-1.58c-2.12,0-3.25.73-3.38,2.2v.25c-.01.53.17.96.54,1.3s.88.51,1.52.51Z"/>
    <path class="cls-1" d="m132.49,195.56c.78,0,1.42-.21,1.9-.64s.74-1,.76-1.71h3.97c0,1.07-.3,2.06-.88,2.95s-1.36,1.59-2.37,2.08-2.11.74-3.32.74c-2.27,0-4.05-.72-5.36-2.16s-1.96-3.43-1.96-5.97v-.28c0-2.44.65-4.39,1.95-5.84s3.08-2.18,5.35-2.18c1.98,0,3.57.56,4.77,1.69s1.8,2.63,1.82,4.5h-3.97c-.02-.82-.27-1.49-.76-2.01-.49-.52-1.13-.77-1.93-.77-.99,0-1.73.36-2.23,1.08-.5.72-.75,1.89-.75,3.5v.44c0,1.63.25,2.81.75,3.52s1.25,1.07,2.27,1.07Zm1.54,3.03l-.16.85c1.46.26,2.2,1.11,2.2,2.53,0,1.07-.45,1.92-1.34,2.55s-2.15.94-3.77.94l-.1-2.45c1.09,0,1.64-.4,1.64-1.19,0-.41-.16-.69-.49-.84s-.86-.25-1.59-.3l.45-2.09h3.16Z"/>
    <path class="cls-1" d="m140.89,190.61c0-1.57.3-2.97.91-4.2s1.48-2.18,2.62-2.86,2.46-1.01,3.96-1.01c2.14,0,3.88.65,5.24,1.96s2.11,3.09,2.26,5.33l.03,1.08c0,2.43-.68,4.38-2.04,5.85s-3.18,2.2-5.46,2.2-4.11-.73-5.47-2.2-2.04-3.46-2.04-5.98v-.19Zm12.98-14.24c0,1.1-.32,2.03-.97,2.78s-1.43,1.12-2.36,1.12c-.37,0-.7-.04-.99-.12s-.69-.26-1.19-.53-.87-.44-1.1-.51-.47-.1-.73-.1c-.34,0-.63.12-.87.37s-.36.59-.36,1.04l-2.46-.15c0-1.08.32-2.01.96-2.77s1.42-1.14,2.35-1.14c.29,0,.57.04.83.11s.68.25,1.27.53.99.45,1.22.51.46.09.7.09c.34,0,.64-.12.89-.36s.37-.58.37-1.03l2.45.16Zm-8.75,14.54c0,1.51.28,2.66.85,3.46.57.8,1.38,1.2,2.43,1.2s1.83-.39,2.4-1.18c.58-.79.86-2.05.86-3.78,0-1.48-.29-2.62-.86-3.43s-1.39-1.22-2.43-1.22-1.84.4-2.4,1.21-.85,2.06-.85,3.75Z"/>
    <path class="cls-1" d="m165.81,198.97c-2.32,0-4.22-.71-5.68-2.14s-2.19-3.33-2.19-5.7v-.41c0-1.59.31-3.02.92-4.27s1.49-2.22,2.62-2.9,2.41-1.02,3.86-1.02c2.17,0,3.88.68,5.12,2.05s1.87,3.31,1.87,5.82v1.73h-10.09c.14,1.04.55,1.87,1.24,2.49s1.56.94,2.61.94c1.63,0,2.91-.59,3.82-1.77l2.08,2.33c-.63.9-1.49,1.6-2.58,2.1s-2.29.75-3.6.75Zm-.48-13.02c-.84,0-1.52.28-2.04.85s-.86,1.38-1,2.44h5.89v-.34c-.02-.94-.27-1.67-.76-2.19s-1.18-.77-2.08-.77Z"/>
    <path class="cls-1" d="m183.31,194.3c0-.52-.26-.93-.77-1.22s-1.34-.56-2.47-.8c-3.77-.79-5.65-2.39-5.65-4.8,0-1.41.58-2.58,1.75-3.52s2.69-1.41,4.58-1.41c2.01,0,3.62.47,4.83,1.42s1.81,2.18,1.81,3.69h-4.23c0-.61-.2-1.11-.59-1.5s-1-.59-1.83-.59c-.71,0-1.26.16-1.66.48s-.59.73-.59,1.23c0,.47.22.85.67,1.14s1.19.54,2.25.75,1.94.45,2.67.71c2.24.82,3.35,2.24,3.35,4.26,0,1.45-.62,2.61-1.86,3.51s-2.84,1.34-4.8,1.34c-1.33,0-2.51-.24-3.54-.71s-1.84-1.12-2.42-1.95-.88-1.72-.88-2.67h4.01c.04.75.32,1.33.83,1.73s1.21.6,2.08.6c.81,0,1.42-.15,1.84-.46s.62-.71.62-1.21Z"/>
    <path class="cls-1" d="m203.55,193.51l2.94-10.68h4.42l-5.35,15.85h-4.04l-5.35-15.85h4.42l2.94,10.68Z"/>
    <path class="cls-1" d="m212.75,178.73c0-.63.21-1.16.64-1.57s1-.62,1.74-.62,1.3.21,1.73.62.64.93.64,1.57-.22,1.17-.65,1.58-1.01.62-1.72.62-1.29-.21-1.72-.62-.65-.94-.65-1.58Zm4.5,19.95h-4.25v-15.85h4.25v15.85Z"/>
    <path class="cls-1" d="m229.92,198.68c-.2-.38-.34-.85-.42-1.42-1.03,1.14-2.36,1.71-4,1.71-1.55,0-2.84-.45-3.86-1.35s-1.53-2.03-1.53-3.4c0-1.68.62-2.97,1.87-3.87s3.04-1.35,5.4-1.36h1.95v-.91c0-.73-.19-1.32-.56-1.76s-.97-.66-1.78-.66c-.71,0-1.27.17-1.68.51s-.61.81-.61,1.41h-4.23c0-.92.28-1.77.85-2.55s1.37-1.39,2.4-1.84,2.2-.67,3.49-.67c1.95,0,3.5.49,4.65,1.47s1.72,2.36,1.72,4.14v6.87c0,1.5.22,2.64.63,3.41v.25h-4.28Zm-3.5-2.94c.62,0,1.2-.14,1.73-.42s.92-.65,1.17-1.12v-2.72h-1.58c-2.12,0-3.25.73-3.38,2.2v.25c-.01.53.17.96.54,1.3s.88.51,1.52.51Z"/>
    <path class="cls-1" d="m75.6,228.53l2.87-15.18h4.38l-4.73,21.33h-4.42l-3.47-14.27-3.47,14.27h-4.42l-4.73-21.33h4.38l2.89,15.15,3.52-15.15h3.72l3.5,15.18Z"/>
    <path class="cls-1" d="m92.24,234.97c-2.32,0-4.22-.71-5.68-2.14s-2.19-3.33-2.19-5.7v-.41c0-1.59.31-3.02.92-4.27s1.49-2.22,2.62-2.9,2.41-1.02,3.86-1.02c2.17,0,3.88.68,5.12,2.05s1.87,3.31,1.87,5.82v1.73h-10.09c.14,1.04.55,1.87,1.24,2.49s1.56.94,2.61.94c1.63,0,2.91-.59,3.82-1.77l2.08,2.33c-.63.9-1.49,1.6-2.58,2.1s-2.29.75-3.6.75Zm-.48-13.02c-.84,0-1.52.28-2.04.85s-.86,1.38-1,2.44h5.89v-.34c-.02-.94-.27-1.67-.76-2.19s-1.18-.77-2.08-.77Z"/>
    <path class="cls-1" d="m115.44,226.9c0,2.54-.54,4.52-1.63,5.94s-2.6,2.13-4.54,2.13c-1.72,0-3.09-.66-4.12-1.98l-.19,1.68h-3.81v-22.5h4.23v8.07c.98-1.14,2.26-1.71,3.85-1.71,1.93,0,3.45.71,4.55,2.13s1.65,3.42,1.65,6v.23Zm-4.23-.31c0-1.6-.25-2.77-.76-3.51s-1.26-1.11-2.27-1.11c-1.35,0-2.28.55-2.78,1.66v6.25c.52,1.11,1.46,1.67,2.81,1.67s2.27-.67,2.7-2.02c.21-.64.31-1.63.31-2.94Z"/>
    <path class="cls-1" d="m126.64,230.3c0-.52-.26-.93-.77-1.22s-1.34-.56-2.47-.8c-3.77-.79-5.65-2.39-5.65-4.8,0-1.41.58-2.58,1.75-3.52s2.69-1.41,4.58-1.41c2.01,0,3.62.47,4.83,1.42s1.81,2.18,1.81,3.69h-4.23c0-.61-.2-1.11-.59-1.5s-1-.59-1.83-.59c-.71,0-1.26.16-1.66.48s-.59.73-.59,1.23c0,.47.22.85.67,1.14s1.19.54,2.25.75,1.94.45,2.67.71c2.24.82,3.35,2.24,3.35,4.26,0,1.45-.62,2.61-1.86,3.51s-2.84,1.34-4.8,1.34c-1.33,0-2.51-.24-3.54-.71s-1.84-1.12-2.42-1.95-.88-1.72-.88-2.67h4.01c.04.75.32,1.33.83,1.73s1.21.6,2.08.6c.81,0,1.42-.15,1.84-.46s.62-.71.62-1.21Z"/>
    <path class="cls-1" d="m140.77,234.97c-2.32,0-4.22-.71-5.68-2.14s-2.19-3.33-2.19-5.7v-.41c0-1.59.31-3.02.92-4.27s1.49-2.22,2.62-2.9,2.41-1.02,3.86-1.02c2.17,0,3.88.68,5.12,2.05s1.87,3.31,1.87,5.82v1.73h-10.09c.14,1.04.55,1.87,1.24,2.49s1.56.94,2.61.94c1.63,0,2.91-.59,3.82-1.77l2.08,2.33c-.63.9-1.49,1.6-2.58,2.1s-2.29.75-3.6.75Zm-.48-13.02c-.84,0-1.52.28-2.04.85s-.86,1.38-1,2.44h5.89v-.34c-.02-.94-.27-1.67-.76-2.19s-1.18-.77-2.08-.77Z"/>
    <path class="cls-1" d="m158.6,222.8c-.58-.08-1.08-.12-1.52-.12-1.6,0-2.65.54-3.15,1.63v10.37h-4.23v-15.85h4l.12,1.89c.85-1.46,2.03-2.18,3.53-2.18.47,0,.91.06,1.32.19l-.06,4.07Z"/>
    <path class="cls-1" d="m166.83,229.51l2.94-10.68h4.42l-5.35,15.85h-4.04l-5.35-15.85h4.42l2.94,10.68Z"/>
    <path class="cls-1" d="m176.03,214.73c0-.63.21-1.16.64-1.57s1-.62,1.74-.62,1.3.21,1.73.62.64.93.64,1.57-.22,1.17-.65,1.58-1.01.62-1.72.62-1.29-.21-1.72-.62-.65-.94-.65-1.58Zm4.5,19.95h-4.25v-15.85h4.25v15.85Z"/>
    <path class="cls-1" d="m190.61,231.56c.78,0,1.42-.21,1.9-.64s.74-1,.76-1.71h3.97c0,1.07-.3,2.06-.88,2.95s-1.36,1.59-2.37,2.08-2.11.74-3.32.74c-2.27,0-4.05-.72-5.36-2.16s-1.96-3.43-1.96-5.97v-.28c0-2.44.65-4.39,1.95-5.84s3.08-2.18,5.35-2.18c1.98,0,3.57.56,4.77,1.69s1.8,2.63,1.82,4.5h-3.97c-.02-.82-.27-1.49-.76-2.01-.49-.52-1.13-.77-1.93-.77-.99,0-1.73.36-2.23,1.08-.5.72-.75,1.89-.75,3.5v.44c0,1.63.25,2.81.75,3.52s1.25,1.07,2.27,1.07Z"/>
    <path class="cls-1" d="m206.95,234.97c-2.32,0-4.22-.71-5.68-2.14s-2.19-3.33-2.19-5.7v-.41c0-1.59.31-3.02.92-4.27s1.49-2.22,2.62-2.9,2.41-1.02,3.86-1.02c2.17,0,3.88.68,5.12,2.05s1.87,3.31,1.87,5.82v1.73h-10.09c.14,1.04.55,1.87,1.24,2.49s1.56.94,2.61.94c1.63,0,2.91-.59,3.82-1.77l2.08,2.33c-.63.9-1.49,1.6-2.58,2.1s-2.29.75-3.6.75Zm-.48-13.02c-.84,0-1.52.28-2.04.85s-.86,1.38-1,2.44h5.89v-.34c-.02-.94-.27-1.67-.76-2.19s-1.18-.77-2.08-.77Z"/>
  </g>
  <g>
    <path class="cls-2" d="m182.95,135.4l-9.04-33.64v-48.48l-.02-.55-.21-1-.39-.94-.54-.84-.71-.72-.82-.55-.92-.4-.99-.22-.54-.02h-17.71l-.18-.47-.43-.9-.48-.84-.56-.79-.63-.74-.67-.65-.74-.58-.79-.52-.82-.45-.86-.37-.89-.28-.94-.2-.92-.12-.95-.03-.95.07-.99.13-.48.12-.67-.62-1.45-1.07-1.56-.87-1.65-.63-1.7-.42-1.76-.22-1.76.03-1.79.27-.87.25-.86.27-1.65.72-1.53.94-1.37,1.12-1.23,1.27-1.07,1.44-.87,1.57-.66,1.69-.25.89h-19.29l-.54.02-.99.22-.92.4-.82.55-.71.72-.54.84-.4.94-.21,1-.02.55v48.48l-9.04,33.64-.13.63-.05,1.2.23,1.17.49,1.07.69.92.87.75,1.05.53,1.17.3.63.02h90.44l.63-.02,1.17-.3,1.05-.53.87-.75.69-.92.49-1.07.23-1.17-.05-1.2-.13-.63h0ZM115.63,51.52l.77.03.76.12.35.03.67-.15.3-.18.26-.22.35-.62.08-.35.12-.75.4-1.45.58-1.35.77-1.24.92-1.14,1.09-.99,1.22-.82,1.33-.65.72-.23.72-.22,1.45-.22,1.48-.02,1.43.18,1.4.38,1.33.58,1.23.79,1.14.99.51.55.18.18.44.27.48.12.53-.02.25-.08.38-.13.74-.22.76-.1.74-.03,1.09.1,1.42.43,1.27.7,1.09.95.69.89.38.65.31.7.23.74.08.4.08.3.3.5.44.38.56.18.31.02h.64l.86.12.84.17.81.27.77.32.72.4,1,.72,1.17,1.19.71,1.02.4.75.31.79.26.82.16.85.1.87v.9l-.12.87-.16.85-.26.82-.31.79-.39.74-.71,1.02-1.17,1.19-1,.72-.74.4-.77.33-.81.25-.84.18-.86.08h-35.17l-.86-.1-.84-.18-.81-.23-.77-.33-.72-.4-1.02-.74-1.15-1.17-.72-1.04-.4-.74-.31-.79-.25-.82-.16-.85-.12-.87v-.9l.12-.87.16-.85.25-.82.31-.79.4-.74.72-1.04,1.15-1.17,1.02-.74.72-.4.77-.32.81-.25.84-.17.86-.12h.44Zm18.86,33.06l-.02.28-.16.5-.28.42-.38.3-.44.18-.49.07-.49-.08-.46-.25-.2-.18-.2-.2-.23-.48-.1-.5.08-.48.18-.45.3-.38.41-.3.49-.15.28-.02.33.02.63.28.46.47.28.62.02.35h0Zm-39.43-31.31l.02-.35.28-.63.46-.47.63-.28.35-.02h10.48l-.64.67-1.07,1.44-.86,1.59-.61,1.67-.36,1.74-.12,1.79.15,1.79.43,1.77.31.87.38.84.91,1.57,1.14,1.39,1.28,1.2,1.46.99,1.6.77,1.68.52,1.78.28.91.02h1.71v13.92h-5.45l-.16-.43-.44-.82-.59-.68-.66-.58-.77-.45-.82-.32-.87-.17h-.94l-.46.05-.44.1-.86.32-.77.45-.67.58-.58.68-.44.77-.31.85-.16.92-.02.47.02.47.16.94.31.85.44.77.58.68.67.58.77.45.86.3.44.12.46.05h.94l.87-.18.82-.3.77-.45.66-.58.59-.68.44-.82.16-.43h7.16l.35-.03.63-.27.46-.47.26-.63.03-.35v-15.65h10.27v7.27l-.43.18-.81.45-.67.58-.58.68-.44.79-.3.84-.18.89v.94l.05.47.12.45.3.87.44.79.58.7.67.57.76.45.84.32.91.18.48.02.46-.02.91-.18.84-.32.76-.45.67-.57.58-.7.44-.79.31-.87.1-.45.05-.47v-.94l-.18-.89-.3-.84-.44-.79-.58-.68-.67-.58-.81-.45-.43-.18v-7.27h10.29v15.65l.02.35.26.63.46.47.63.27.35.03h7.16l.16.43.44.82.59.68.66.58.77.45.82.3.87.18h.94l.46-.05.44-.12.86-.3.77-.45.67-.58.58-.68.44-.77.31-.85.16-.94.02-.47-.02-.47-.16-.92-.31-.85-.44-.77-.58-.68-.67-.58-.77-.45-.86-.32-.44-.1-.46-.05h-.94l-.87.17-.82.32-.77.45-.66.58-.59.68-.44.82-.16.43h-5.45v-13.92h1.71l.91-.02,1.78-.28,1.68-.52,1.6-.77,1.46-.99,1.28-1.2,1.14-1.39.91-1.57.38-.84.31-.87.43-1.77.15-1.79-.12-1.79-.36-1.74-.61-1.67-.86-1.59-1.07-1.44-.64-.67h10.48l.35.02.63.28.46.47.28.63.02.35v46.96h-75.43v-46.96h0Zm13.73,34.78l-.02.28-.16.5-.3.42-.36.3-.46.18-.48.08-.49-.1-.46-.23-.21-.2-.18-.2-.25-.47-.08-.5.07-.5.2-.45.3-.38.41-.28.49-.17.26-.02.35.02.63.28.46.47.28.63.02.33h0Zm47.98,0l.03-.27.15-.5.3-.42.38-.3.44-.2.48-.07.49.08.46.25.21.18.18.22.25.47.08.5-.07.48-.2.45-.3.38-.4.3-.51.15-.26.03-.35-.03-.63-.27-.46-.47-.26-.63-.03-.35h0Zm22.6,49.78l-.12.15-.31.27-.36.17-.38.08h-90.83l-.4-.1-.36-.17-.3-.27-.23-.3-.16-.35-.07-.38.02-.42.05-.22,8.74-32.58h76.25l8.74,32.58.05.2.02.42-.07.38-.16.35-.12.18h0Z"/>
    <path class="cls-2" d="m148.94,126.18l-.1-.26-.3-.48-.44-.35-.54-.2-.28-.02h-27.32l-.28.02-.54.2-.44.35-.3.48-.1.26-1.7,6.85-.03.21-.02.39.08.36.18.35.21.3.3.25.34.16.39.1h31.12l.39-.1.34-.16.3-.25.21-.3.18-.35.08-.36-.02-.39-.03-.21-1.7-6.85h0Zm-28.48,5.55l.85-3.42h24.63l.85,3.42h-26.34Z"/>
    <polygon class="cls-2" points="125.09 94.08 142.16 94.08 142.16 97.5 125.09 97.5 125.09 94.08 125.09 94.08"/>
    <polygon class="cls-2" points="99.49 107.77 106.32 107.77 106.32 111.2 99.49 111.2 99.49 107.77 99.49 107.77"/>
    <polygon class="cls-2" points="109.73 107.77 116.56 107.77 116.56 111.2 109.73 111.2 109.73 107.77 109.73 107.77"/>
    <polygon class="cls-2" points="119.97 107.77 126.8 107.77 126.8 111.2 119.97 111.2 119.97 107.77 119.97 107.77"/>
    <polygon class="cls-2" points="140.46 107.77 147.28 107.77 147.28 111.2 140.46 111.2 140.46 107.77 140.46 107.77"/>
    <polygon class="cls-2" points="150.7 107.77 157.52 107.77 157.52 111.2 150.7 111.2 150.7 107.77 150.7 107.77"/>
    <polygon class="cls-2" points="160.94 107.77 167.77 107.77 167.77 111.2 160.94 111.2 160.94 107.77 160.94 107.77"/>
    <polygon class="cls-2" points="130.21 107.77 137.04 107.77 137.04 111.2 130.21 111.2 130.21 107.77 130.21 107.77"/>
    <polygon class="cls-2" points="99.49 114.62 106.32 114.62 106.32 118.04 99.49 118.04 99.49 114.62 99.49 114.62"/>
    <polygon class="cls-2" points="109.73 114.62 116.56 114.62 116.56 118.04 109.73 118.04 109.73 114.62 109.73 114.62"/>
    <polygon class="cls-2" points="119.97 114.62 126.8 114.62 126.8 118.04 119.97 118.04 119.97 114.62 119.97 114.62"/>
    <polygon class="cls-2" points="140.46 114.62 147.28 114.62 147.28 118.04 140.46 118.04 140.46 114.62 140.46 114.62"/>
    <polygon class="cls-2" points="150.7 114.62 157.52 114.62 157.52 118.04 150.7 118.04 150.7 114.62 150.7 114.62"/>
    <polygon class="cls-2" points="160.94 114.62 167.77 114.62 167.77 118.04 160.94 118.04 160.94 114.62 160.94 114.62"/>
    <polygon class="cls-2" points="130.21 114.62 137.04 114.62 137.04 118.04 130.21 118.04 130.21 114.62 130.21 114.62"/>
  </g>
</svg>