<svg id="noun-add-5433277" xmlns="http://www.w3.org/2000/svg" width="77.833" height="97.288" viewBox="0 0 77.833 97.288">
  <path id="Caminho_9513" data-name="Caminho 9513" d="M241.163,129.364a14.593,14.593,0,0,1-14.593,14.593H177.923a14.593,14.593,0,0,1-14.593-14.593v-68.1A14.593,14.593,0,0,1,177.923,46.67h34.051a4.861,4.861,0,0,1,3.441,1.424l24.323,24.323a4.865,4.865,0,0,1,1.425,3.44Zm-68.1-68.1a4.865,4.865,0,0,1,4.864-4.865h29.187v9.729A14.593,14.593,0,0,0,221.7,80.721h9.729v48.644a4.865,4.865,0,0,1-4.864,4.865H177.923a4.865,4.865,0,0,1-4.864-4.865Zm43.78,4.864V63.278l7.714,7.714H221.7A4.865,4.865,0,0,1,216.84,66.128Z" transform="translate(-163.33 -46.67)" fill="#004583" fill-rule="evenodd"/>
</svg>
