<svg xmlns="http://www.w3.org/2000/svg" width="121.205" height="122.882" viewBox="0 0 121.205 122.882">
  <g id="Grupo_2750" data-name="Grupo 2750" transform="translate(2.5 1)">
    <g id="Grupo_2749" data-name="Grupo 2749" transform="translate(0 16.033)">
      <path id="Caminho_9383" data-name="Caminho 9383" d="M106.272,59.99H51.923a4.584,4.584,0,0,0-4.4,3.335L31.12,121.71h97.2L110.659,63.243a4.578,4.578,0,0,0-4.376-3.253m-4.715,38.951h-14.7v14.7h-14.3v-14.7h-14.7v-14.3h14.7v-14.7h14.3v14.7h14.7Z" transform="translate(-23.105 -33.898)" fill="none" stroke="#004684" stroke-miterlimit="10" stroke-width="5"/>
      <path id="Caminho_9384" data-name="Caminho 9384" d="M24.28,124.532a2.914,2.914,0,0,0,2.913,2.913H134.568a2.924,2.924,0,0,0,2.925-2.913h0V117.64H24.28Z" transform="translate(-24.268 -24.095)" fill="none" stroke="#004684" stroke-miterlimit="10" stroke-width="5"/>
      <path id="Caminho_9385" data-name="Caminho 9385" d="M27.2,112.74a2.924,2.924,0,0,0-2.925,2.913h0v2.82H137.483v-2.82a2.914,2.914,0,0,0-2.913-2.913Z" transform="translate(-24.27 -24.929)" fill="none" stroke="#004684" stroke-miterlimit="10" stroke-width="5"/>
      <path id="Caminho_9387" data-name="Caminho 9387" d="M96.253,48.273l-.339-.023a1.165,1.165,0,0,0-1.053,1.264l.386,4.259a1.162,1.162,0,0,0,.854,1.006,25.4,25.4,0,0,1,16.205,12.941,1.149,1.149,0,0,0,1.112.608l4.341-.4a1.169,1.169,0,0,0,1.053-1.275,1.274,1.274,0,0,0-.094-.363,31.919,31.919,0,0,0-22.476-18.03" transform="translate(-12.268 -35.894)" fill="#004684"/>
      <path id="Caminho_9388" data-name="Caminho 9388" d="M96.451,37.69h-.257a1.165,1.165,0,0,0-1.053,1.264l.386,4.2a1.144,1.144,0,0,0,.971,1.03,35.879,35.879,0,0,1,27.987,22.629,1.153,1.153,0,0,0,1.17.737l4.212-.386a1.169,1.169,0,0,0,1.053-1.275.694.694,0,0,0-.059-.269A42.494,42.494,0,0,0,96.451,37.69" transform="translate(-12.22 -37.69)" fill="#004684"/>
    </g>
    <path id="Caminho_9389" data-name="Caminho 9389" d="M48.443,37.469A17.373,17.373,0,0,1,46.547,40a31.605,31.605,0,0,1-3.194,3.065L36.719,48.83a8.953,8.953,0,0,0-.959.924,4.823,4.823,0,0,0-.608.866,3.383,3.383,0,0,0-.328,1.006,8.722,8.722,0,0,0-.094,1.357,5.978,5.978,0,0,0,.14,1.369,1.632,1.632,0,0,0,.421.807,1.5,1.5,0,0,0,.772.374,5.2,5.2,0,0,0,1.123.094H59.219a1.166,1.166,0,0,0,.527-.129.953.953,0,0,0,.386-.445,2.76,2.76,0,0,0,.222-.807,8.184,8.184,0,0,0,.082-1.193,6.36,6.36,0,0,0-.094-1.158,2.372,2.372,0,0,0-.269-.8,1.063,1.063,0,0,0-.971-.585H44l4.47-3.721a67.8,67.8,0,0,0,5.417-4.774,26.28,26.28,0,0,0,3.171-3.756,10.159,10.159,0,0,0,1.486-3.159,12.676,12.676,0,0,0,.363-2.972,7.489,7.489,0,0,0-.725-3.229,7.178,7.178,0,0,0-2.211-2.6A11.212,11.212,0,0,0,52.245,24.6a19.683,19.683,0,0,0-5.23-.608,22.337,22.337,0,0,0-3.639.293A26.82,26.82,0,0,0,40.182,25a18.409,18.409,0,0,0-2.445.866,7.238,7.238,0,0,0-1.357.737,2.564,2.564,0,0,0-.515.491,1.523,1.523,0,0,0-.234.48,3.17,3.17,0,0,0-.14.644,8.153,8.153,0,0,0-.047.924,13.637,13.637,0,0,0,.07,1.381,5.865,5.865,0,0,0,.187.9,1.017,1.017,0,0,0,.316.48.705.705,0,0,0,.456.14,2.33,2.33,0,0,0,1.065-.374c.456-.246,1.018-.515,1.7-.819A17.056,17.056,0,0,1,41.6,30.04a12.462,12.462,0,0,1,3.089-.363,6.775,6.775,0,0,1,2.165.3,4.544,4.544,0,0,1,1.533.831,3.292,3.292,0,0,1,.913,1.24,3.66,3.66,0,0,1,.316,1.5,6.876,6.876,0,0,1-.257,1.825,8.274,8.274,0,0,1-.936,2.106" transform="translate(-22.49 -23.987)" fill="#004684" stroke="#004684" stroke-miterlimit="10" stroke-width="2"/>
    <path id="Caminho_9390" data-name="Caminho 9390" d="M76.221,55.157a1.264,1.264,0,0,0,.6.3,6.3,6.3,0,0,0,1.158.187c.491.035,1.088.059,1.8.059.749,0,1.357-.023,1.837-.059a6.335,6.335,0,0,0,1.147-.187,1.466,1.466,0,0,0,.62-.3l.187-.421V49.12h3.4a.948.948,0,0,0,.842-.632,4.418,4.418,0,0,0,.3-1.86,4.141,4.141,0,0,0-.339-1.954.967.967,0,0,0-.819-.585h-3.4V25.38a.515.515,0,0,0-.3-.456,2.909,2.909,0,0,0-.924-.328,11.92,11.92,0,0,0-1.708-.187c-.7-.035-1.568-.059-2.574-.059-.924,0-1.708.012-2.363.047a15.065,15.065,0,0,0-1.615.152,4.17,4.17,0,0,0-.995.269,1.061,1.061,0,0,0-.5.374L60.659,42.216a7.775,7.775,0,0,0-.48.866,3.776,3.776,0,0,0-.293.866,7.6,7.6,0,0,0-.14,1.018c-.035.374-.047.819-.047,1.334a9.12,9.12,0,0,0,.105,1.5,2.112,2.112,0,0,0,.328.866.976.976,0,0,0,.55.386,3.165,3.165,0,0,0,.737.082H76.081v5.628l.164.421ZM65.9,44.077,76,29.791h.058V44.077Z" transform="translate(-18.245 -23.925)" fill="#004684" stroke="#004684" stroke-miterlimit="10" stroke-width="2"/>
  </g>
</svg>
