<?xml version="1.0" encoding="UTF-8"?>
<svg id="Camada_1" data-name="Camada 1" xmlns="http://www.w3.org/2000/svg" viewBox="0 0 263.86 275.73">
  <defs>
    <style>
      .cls-1 {
        fill: #fff;
      }

      .cls-2 {
        fill: #094783;
        fill-rule: evenodd;
      }

      .cls-3 {
        fill: #27b8d4;
      }
    </style>
  </defs>
  <path class="cls-3" d="m59.74,0h175.69c15.69,0,28.43,12.74,28.43,28.43v187.56c0,32.97-26.77,59.74-59.74,59.74H59.74c-32.97,0-59.74-26.77-59.74-59.74V59.74C0,26.77,26.77,0,59.74,0Z"/>
  <g>
    <path class="cls-1" d="m20.09,198.68v-21.33h6.56c1.88,0,3.55.42,5.03,1.27s2.63,2.05,3.46,3.6,1.25,3.33,1.25,5.31v.98c0,1.98-.41,3.75-1.22,5.29s-1.96,2.74-3.45,3.59-3.16,1.28-5.02,1.29h-6.61Zm4.39-17.77v14.24h2.12c1.72,0,3.03-.56,3.94-1.68s1.37-2.73,1.39-4.82v-1.13c0-2.17-.45-3.81-1.35-4.93s-2.21-1.68-3.94-1.68h-2.17Z"/>
    <path class="cls-1" d="m37.45,190.61c0-1.57.3-2.97.91-4.2s1.48-2.18,2.61-2.86,2.46-1.01,3.96-1.01c2.14,0,3.88.65,5.24,1.96s2.11,3.09,2.26,5.33l.03,1.08c0,2.43-.68,4.38-2.04,5.85s-3.18,2.2-5.46,2.2-4.11-.73-5.47-2.2-2.04-3.46-2.04-5.98v-.19Zm4.23.3c0,1.51.28,2.66.85,3.46.57.8,1.38,1.2,2.43,1.2s1.83-.39,2.4-1.18c.58-.79.86-2.05.86-3.78,0-1.48-.29-2.62-.86-3.43s-1.39-1.22-2.43-1.22-1.84.4-2.4,1.21-.85,2.06-.85,3.75Z"/>
    <path class="cls-1" d="m57.84,182.83l.13,1.77c1.12-1.38,2.64-2.07,4.56-2.07,2.04,0,3.44.81,4.2,2.42,1.11-1.61,2.7-2.42,4.76-2.42,1.72,0,3,.5,3.84,1.5s1.26,2.51,1.26,4.52v10.12h-4.25v-10.11c0-.9-.18-1.56-.53-1.97s-.97-.62-1.86-.62c-1.27,0-2.15.61-2.64,1.82v10.88s-4.22,0-4.22,0v-10.09c0-.92-.18-1.58-.54-1.99s-.98-.62-1.85-.62c-1.2,0-2.07.5-2.61,1.49v11.21h-4.23v-15.85h3.97Z"/>
    <path class="cls-1" d="m83.21,198.68h-4.23v-15.85h4.23v15.85Zm-1.25-22.28h4.61l-4.06,4.54h-3.44l2.89-4.54Z"/>
    <path class="cls-1" d="m89.56,182.83l.13,1.83c1.13-1.42,2.65-2.12,4.56-2.12,1.68,0,2.93.49,3.75,1.48s1.24,2.46,1.26,4.42v10.24h-4.23v-10.14c0-.9-.2-1.55-.59-1.96s-1.04-.61-1.95-.61c-1.19,0-2.08.51-2.68,1.52v11.18h-4.23v-15.85h3.98Z"/>
    <path class="cls-1" d="m101.23,178.73c0-.63.21-1.16.64-1.57s1-.62,1.74-.62,1.3.21,1.73.62.64.93.64,1.57-.22,1.17-.65,1.58-1.01.62-1.72.62-1.29-.21-1.72-.62-.65-.94-.65-1.58Zm4.5,19.95h-4.25v-15.85h4.25v15.85Z"/>
    <path class="cls-1" d="m107.36,190.61c0-1.57.3-2.97.91-4.2s1.48-2.18,2.61-2.86,2.46-1.01,3.96-1.01c2.14,0,3.88.65,5.24,1.96s2.11,3.09,2.26,5.33l.03,1.08c0,2.43-.68,4.38-2.04,5.85s-3.18,2.2-5.46,2.2-4.11-.73-5.47-2.2-2.04-3.46-2.04-5.98v-.19Zm4.23.3c0,1.51.28,2.66.85,3.46.57.8,1.38,1.2,2.43,1.2s1.83-.39,2.4-1.18c.58-.79.86-2.05.86-3.78,0-1.48-.29-2.62-.86-3.43s-1.39-1.22-2.43-1.22-1.84.4-2.4,1.21-.85,2.06-.85,3.75Z"/>
    <path class="cls-1" d="m137.34,198.97c-2.32,0-4.22-.71-5.68-2.14s-2.19-3.33-2.19-5.7v-.41c0-1.59.31-3.02.92-4.27s1.49-2.22,2.62-2.9,2.41-1.02,3.86-1.02c2.17,0,3.88.68,5.12,2.05s1.87,3.31,1.87,5.82v1.73h-10.09c.14,1.04.55,1.87,1.24,2.49s1.56.94,2.61.94c1.63,0,2.91-.59,3.82-1.77l2.08,2.33c-.63.9-1.49,1.6-2.58,2.1s-2.29.75-3.6.75Zm-.48-13.02c-.84,0-1.52.28-2.04.85s-.86,1.38-1,2.44h5.89v-.34c-.02-.94-.27-1.67-.76-2.19s-1.18-.77-2.08-.77Z"/>
    <path class="cls-1" d="m151.1,187.56l2.67-4.73h4.53l-4.51,7.76,4.7,8.09h-4.54l-2.83-4.98-2.81,4.98h-4.56l4.7-8.09-4.5-7.76h4.54l2.61,4.73Z"/>
    <path class="cls-1" d="m165.43,195.56c.78,0,1.42-.21,1.9-.64s.74-1,.76-1.71h3.97c0,1.07-.3,2.06-.88,2.95s-1.37,1.59-2.37,2.08-2.11.74-3.32.74c-2.27,0-4.05-.72-5.36-2.16s-1.96-3.43-1.96-5.97v-.28c0-2.44.65-4.39,1.95-5.84s3.08-2.18,5.35-2.18c1.98,0,3.57.56,4.77,1.69s1.8,2.63,1.82,4.5h-3.97c-.02-.82-.27-1.49-.76-2.01-.49-.52-1.13-.77-1.93-.77-.99,0-1.73.36-2.23,1.08-.5.72-.75,1.89-.75,3.5v.44c0,1.63.25,2.81.75,3.52s1.25,1.07,2.27,1.07Z"/>
    <path class="cls-1" d="m177.75,198.68h-4.25v-22.5h4.25v22.5Z"/>
    <path class="cls-1" d="m189.53,197.07c-1.04,1.27-2.49,1.9-4.34,1.9-1.7,0-3-.49-3.89-1.46s-1.35-2.41-1.37-4.29v-10.39h4.23v10.25c0,1.65.75,2.48,2.26,2.48s2.42-.5,2.96-1.5v-11.23h4.25v15.85h-3.98l-.12-1.61Z"/>
    <path class="cls-1" d="m204.2,194.3c0-.52-.26-.93-.77-1.22s-1.34-.56-2.47-.8c-3.77-.79-5.65-2.39-5.65-4.8,0-1.41.58-2.58,1.75-3.52s2.69-1.41,4.58-1.41c2.01,0,3.62.47,4.83,1.42s1.81,2.18,1.81,3.69h-4.23c0-.61-.2-1.11-.59-1.5s-1-.59-1.83-.59c-.71,0-1.26.16-1.66.48s-.59.73-.59,1.23c0,.47.22.85.67,1.14s1.19.54,2.25.75,1.94.45,2.67.71c2.24.82,3.35,2.24,3.35,4.26,0,1.45-.62,2.61-1.86,3.51s-2.84,1.34-4.8,1.34c-1.33,0-2.51-.24-3.54-.71s-1.84-1.12-2.42-1.95-.88-1.72-.88-2.67h4.01c.04.75.32,1.33.83,1.73s1.21.6,2.08.6c.81,0,1.42-.15,1.84-.46s.62-.71.62-1.21Z"/>
    <path class="cls-1" d="m209.82,178.73c0-.63.21-1.16.64-1.57s1-.62,1.74-.62,1.3.21,1.73.62.64.93.64,1.57-.22,1.17-.65,1.58-1.01.62-1.72.62-1.29-.21-1.72-.62-.65-.94-.65-1.58Zm4.5,19.95h-4.25v-15.85h4.25v15.85Z"/>
    <path class="cls-1" d="m222.53,193.51l2.94-10.68h4.42l-5.35,15.85h-4.04l-5.35-15.85h4.42l2.94,10.68Z"/>
    <path class="cls-1" d="m229.68,190.61c0-1.57.3-2.97.91-4.2s1.48-2.18,2.61-2.86,2.46-1.01,3.96-1.01c2.14,0,3.88.65,5.24,1.96s2.11,3.09,2.26,5.33l.03,1.08c0,2.43-.68,4.38-2.04,5.85s-3.18,2.2-5.46,2.2-4.11-.73-5.47-2.2-2.04-3.46-2.04-5.98v-.19Zm4.23.3c0,1.51.28,2.66.85,3.46.57.8,1.38,1.2,2.43,1.2s1.83-.39,2.4-1.18c.58-.79.86-2.05.86-3.78,0-1.48-.29-2.62-.86-3.43s-1.39-1.22-2.43-1.22-1.84.4-2.4,1.21-.85,2.06-.85,3.75Z"/>
    <path class="cls-1" d="m68.5,226.64c0-2.47.55-4.44,1.66-5.9s2.62-2.2,4.55-2.2c1.54,0,2.82.58,3.82,1.73v-8.09h4.25v22.5h-3.82l-.21-1.68c-1.05,1.32-2.41,1.98-4.07,1.98-1.87,0-3.36-.73-4.49-2.2s-1.69-3.51-1.69-6.13Zm4.23.31c0,1.49.26,2.63.78,3.42.52.79,1.27,1.19,2.26,1.19,1.31,0,2.23-.55,2.77-1.66v-6.26c-.53-1.1-1.44-1.66-2.74-1.66-2.04,0-3.06,1.66-3.06,4.97Z"/>
    <path class="cls-1" d="m85.4,226.61c0-1.57.3-2.97.91-4.2s1.48-2.18,2.62-2.86,2.46-1.01,3.96-1.01c2.14,0,3.88.65,5.24,1.96s2.11,3.09,2.26,5.33l.03,1.08c0,2.43-.68,4.38-2.04,5.85s-3.18,2.2-5.46,2.2-4.11-.73-5.47-2.2-2.04-3.46-2.04-5.98v-.19Zm4.23.3c0,1.51.28,2.66.85,3.46.57.8,1.38,1.2,2.43,1.2s1.83-.39,2.4-1.18c.58-.79.86-2.05.86-3.78,0-1.48-.29-2.62-.86-3.43s-1.39-1.22-2.43-1.22-1.84.4-2.4,1.21-.85,2.06-.85,3.75Z"/>
    <path class="cls-1" d="m124.76,226.9c0,2.44-.55,4.4-1.66,5.87s-2.61,2.2-4.49,2.2c-1.6,0-2.9-.56-3.88-1.67v7.47h-4.23v-21.94h3.93l.15,1.55c1.03-1.23,2.36-1.85,4.01-1.85,1.95,0,3.47.72,4.56,2.17s1.63,3.44,1.63,5.98v.22Zm-4.23-.31c0-1.47-.26-2.61-.78-3.41s-1.28-1.2-2.28-1.2c-1.33,0-2.24.51-2.74,1.52v6.49c.52,1.04,1.44,1.57,2.77,1.57,2.02,0,3.03-1.66,3.03-4.97Z"/>
    <path class="cls-1" d="m136.29,222.8c-.58-.08-1.08-.12-1.52-.12-1.6,0-2.65.54-3.15,1.63v10.37h-4.23v-15.85h4l.12,1.89c.85-1.46,2.03-2.18,3.53-2.18.47,0,.91.06,1.32.19l-.06,4.07Z"/>
    <path class="cls-1" d="m137.14,226.61c0-1.57.3-2.97.91-4.2s1.48-2.18,2.62-2.86,2.46-1.01,3.96-1.01c2.14,0,3.88.65,5.24,1.96s2.11,3.09,2.26,5.33l.03,1.08c0,2.43-.68,4.38-2.04,5.85s-3.18,2.2-5.46,2.2-4.11-.73-5.47-2.2-2.04-3.46-2.04-5.98v-.19Zm4.23.3c0,1.51.28,2.66.85,3.46.57.8,1.38,1.2,2.43,1.2s1.83-.39,2.4-1.18c.58-.79.86-2.05.86-3.78,0-1.48-.29-2.62-.86-3.43s-1.39-1.22-2.43-1.22-1.84.4-2.4,1.21-.85,2.06-.85,3.75Z"/>
    <path class="cls-1" d="m159.24,218.83v16.71c0,1.75-.46,3.11-1.39,4.08s-2.27,1.46-4.01,1.46c-.73,0-1.43-.08-2.09-.25v-3.35c.51.09.95.13,1.33.13,1.28,0,1.92-.68,1.92-2.04v-16.74h4.25Zm-4.58-4.1c0-.63.21-1.16.64-1.57s1-.62,1.74-.62,1.31.21,1.74.62.64.93.64,1.57-.22,1.17-.65,1.58-1.01.62-1.72.62-1.29-.21-1.72-.62-.65-.94-.65-1.58Z"/>
    <path class="cls-1" d="m169.85,234.97c-2.32,0-4.22-.71-5.68-2.14s-2.19-3.33-2.19-5.7v-.41c0-1.59.31-3.02.92-4.27s1.49-2.22,2.62-2.9,2.41-1.02,3.86-1.02c2.17,0,3.88.68,5.12,2.05s1.87,3.31,1.87,5.82v1.73h-10.09c.14,1.04.55,1.87,1.24,2.49s1.56.94,2.61.94c1.63,0,2.91-.59,3.82-1.77l2.08,2.33c-.63.9-1.49,1.6-2.58,2.1s-2.29.75-3.6.75Zm-.48-13.02c-.84,0-1.52.28-2.04.85s-.86,1.38-1,2.44h5.89v-.34c-.02-.94-.27-1.67-.76-2.19s-1.18-.77-2.08-.77Z"/>
    <path class="cls-1" d="m183.84,214.93v3.9h2.71v3.11h-2.71v7.91c0,.59.11,1.01.34,1.26s.65.38,1.29.38c.47,0,.88-.03,1.25-.1v3.21c-.83.25-1.68.38-2.56.38-2.97,0-4.48-1.5-4.54-4.5v-8.54h-2.31v-3.11h2.31v-3.9h4.23Z"/>
    <path class="cls-1" d="m187.81,226.61c0-1.57.3-2.97.91-4.2s1.48-2.18,2.62-2.86,2.46-1.01,3.96-1.01c2.14,0,3.88.65,5.24,1.96s2.11,3.09,2.26,5.33l.03,1.08c0,2.43-.68,4.38-2.04,5.85s-3.18,2.2-5.46,2.2-4.11-.73-5.47-2.2-2.04-3.46-2.04-5.98v-.19Zm4.23.3c0,1.51.28,2.66.85,3.46.57.8,1.38,1.2,2.43,1.2s1.83-.39,2.4-1.18c.58-.79.86-2.05.86-3.78,0-1.48-.29-2.62-.86-3.43s-1.39-1.22-2.43-1.22-1.84.4-2.4,1.21-.85,2.06-.85,3.75Z"/>
  </g>
  <g>
    <path class="cls-2" d="m169.83,91.27l.02.61.22,1.17.4,1.06.57.97.72.79.84.66.95.43,1.02.25.54.02h.33l.65-.09.92-.3.57-.3,1.41,1.58.22.25.56.25.3.02.29-.02.56-.25.24-.25.21-.25.24-.63v-.66l-.24-.65-.21-.25-1.41-1.6.29-.65.25-1.04.08-.74v-.38l-.02-.61-.21-1.15-.4-1.08-.57-.93-.7-.82-.86-.65-.94-.45-1.03-.23-.54-.02-.54.02-1.02.23-.95.45-.84.65-.72.82-.57.93-.4,1.08-.22,1.15-.02.61h0Zm7.47,0l-.02.25-.08.47-.22.63-.27.34-.03.02-.03.04-.03.04-.02.04-.32.29-.56.27-.41.11-.21.02-.24-.02-.41-.11-.4-.18-.35-.27-.29-.34-.24-.39-.17-.43-.08-.48v-.52l.08-.48.17-.45.24-.39.29-.32.35-.27.4-.2.41-.09h.46l.43.09.4.2.35.27.29.32.25.39.16.45.08.48.02.25h0Z"/>
    <path class="cls-2" d="m187.29,78.2h-4.59l-.35.02-.61.26-.47.45-.24.61-.02.35.02.33.24.59.47.47.61.26.35.02h2.92v20.78h-20.66v-20.78h7.94v.02h.02v-.02h1.91l.35-.02.61-.26.45-.47.26-.59.02-.33-.02-.35-.26-.61-.45-.45-.61-.26-.35-.02h-.68l-.54-1.61-1.29-3.17-1.51-3.06-1.74-2.92-1.96-2.78-2.15-2.64-2.35-2.45-2.54-2.29-1.34-1.07-1.48-1.1-3.04-1.99-3.18-1.71-3.3-1.43-3.39-1.19-3.49-.87-3.56-.59-3.65-.33-1.82-.03h-.54l-1.51.03-2.97.23-2.97.4-2.9.61-2.87.8-2.8,1.01-2.75,1.17-2.66,1.36-1.29.77-.28.19-.4.52-.16.63.1.65.16.31.19.28.54.4.63.14.64-.09.31-.14,1.18-.7,2.43-1.28,2.52-1.08,2.59-.91,1.3-.38-.63.61-1.22,1.33-1.18,1.45-1.11,1.57-1.08,1.71-1.03,1.8-.96,1.94-.9,2.05-.42,1.07h-12.13l1.04-1.26,2.28-2.34,1.22-1.1.23-.24.3-.61.05-.65-.23-.63-.21-.26-.23-.24-.59-.28-.66-.03-.63.19-.26.21-1.13,1.01-2.14,2.17-1.98,2.29-1.81,2.41-1.63,2.52-1.48,2.62-1.29,2.73-1.11,2.82-.49,1.45h-13.14l-.35.02-.61.26-.43.45-.28.61-.02.35v24.15l.02.35.28.61.43.45.61.26.35.02h13.14l.54,1.61,1.29,3.17,1.51,3.06,1.74,2.92,1.96,2.78,2.15,2.64,2.35,2.45,2.54,2.29,1.34,1.07,1.48,1.1,3.04,1.99,3.18,1.71,3.3,1.43,3.39,1.19,3.49.87,3.56.59,3.65.33,1.82.03h.54l1.82-.03,3.65-.33,3.56-.59,3.49-.87,3.39-1.19,3.3-1.43,3.18-1.71,3.04-1.99,1.48-1.1,1.34-1.07,2.54-2.29,2.35-2.45,2.15-2.64,1.96-2.78,1.74-2.92,1.51-3.06,1.29-3.17.54-1.61h13.14l.35-.02.61-.26.45-.45.26-.61.02-.35v-24.15l-.02-.35-.26-.61-.45-.45-.61-.26-.35-.02h0Zm-24.02,0h-8.52l-.47-2.48-.83-3.53-.63-2.27-.33-1.1h13.42l.7,1.1,1.34,2.26,1.16,2.34,1.04,2.43.45,1.26h-7.33Zm-51.49,0l.23-1.26.52-2.43.61-2.34.66-2.26.38-1.1h15.68v9.39h-18.07Zm21.46-9.39h15.67l.38,1.1.66,2.26.61,2.34.52,2.43.24,1.26h-18.09v-9.39h0Zm0-18.35l.52.12,1.04.26,1.03.4,1.03.49,1.01.58.99.68,1.43,1.19,1.84,1.94,1.74,2.26,1.62,2.57,1.49,2.9.68,1.57h-14.41v-14.97h0Zm30.13,14.97h-12.1l-.4-1.07-.9-2.03-.97-1.94-1.01-1.8-1.04-1.7-1.15-1.57-1.16-1.45-1.22-1.33-.63-.61,1.51.45,2.94,1.1,2.83,1.29,2.71,1.52,2.61,1.7,2.47,1.91,2.33,2.06,2.17,2.26,1.01,1.21h0Zm-33.52-14.97v14.97h-14.41l.68-1.57,1.49-2.9,1.62-2.57,1.74-2.26,1.84-1.94,1.43-1.19.99-.68,1.01-.58,1.03-.49,1.03-.4,1.04-.26.52-.12h0Zm-32.69,18.35h13.43l-.33,1.1-.63,2.27-.83,3.53-.47,2.48h-15.85l.45-1.26,1.03-2.41,1.16-2.34,1.32-2.27.71-1.1h0Zm-2.88,33.54h-16.79v-20.78h84.09v20.78h-59.45l-.35.03-.61.26-.45.45-.26.61-.02.33.02.35.26.61.45.45.61.26.35.02h6.2l.47,2.48.83,3.53.63,2.27.33,1.1h-13.42l-.7-1.1-1.34-2.26-1.16-2.34-1.04-2.43-.45-1.26h1.79l.33-.02.61-.26.45-.45.28-.61.02-.35-.02-.33-.28-.61-.45-.45-.61-.26-.33-.03h0Zm35.57,16.18v14.95l-.52-.12-1.04-.26-1.03-.4-1.03-.49-1.01-.58-.99-.68-1.43-1.19-1.84-1.94-1.74-2.26-1.62-2.57-1.49-2.9-.68-1.56h14.41Zm-15.68-3.39l-.38-1.1-.66-2.26-.61-2.34-.52-2.43-.23-1.26h18.07v9.39h-15.68Zm19.06,18.35v-14.95h14.41l-.68,1.56-1.49,2.9-1.62,2.57-1.74,2.26-1.84,1.94-1.43,1.19-.99.68-1.01.58-1.03.49-1.03.4-1.04.26-.52.12h0Zm0-18.35v-9.39h18.09l-.24,1.26-.52,2.43-.61,2.34-.66,2.26-.38,1.1h-15.67Zm-33.52,3.39h12.1l.4,1.05.9,2.03.97,1.94,1.01,1.8,1.04,1.7,1.15,1.57,1.16,1.45,1.22,1.33.63.61-1.51-.45-2.94-1.1-2.83-1.29-2.71-1.52-2.61-1.7-2.47-1.92-2.33-2.06-2.17-2.24-1.01-1.19h0Zm43.08,13.48l.63-.61,1.22-1.33,1.16-1.45,1.13-1.57,1.06-1.7,1.01-1.8.97-1.94.9-2.03.4-1.05h12.1l-1.01,1.19-2.17,2.26-2.33,2.08-2.47,1.89-2.61,1.7-2.73,1.52-2.83,1.31-2.92,1.08-1.51.45h0Zm23.11-16.88h-13.42l.33-1.1.63-2.27.83-3.53.47-2.48h15.85l-.45,1.26-1.04,2.43-1.16,2.34-1.34,2.26-.7,1.1h0Z"/>
  </g>
</svg>