<svg xmlns="http://www.w3.org/2000/svg" width="119.749" height="121.365" viewBox="0 0 119.749 121.365">
  <g id="Grupo_2466" data-name="Grupo 2466" transform="translate(1 1.011)">
    <path id="Caminho_9508" data-name="Caminho 9508" d="M49.934,25.574l1.313-1.838,1.4-4.431L52.4,14.123,51,10.279,49.441,7.854,48.375,6.768,47.224,5.682l-2.382-1.5L40.983,2.839l-5.01-.166L31.7,4.259,30.226,5.514Z" transform="translate(20.468 1.81)" fill="#004584" stroke="#004583" stroke-width="2" fill-rule="evenodd"/>
    <path id="Caminho_9509" data-name="Caminho 9509" d="M49.934,25.574l1.313-1.838,1.4-4.431L52.4,14.123,51,10.279,49.441,7.854,48.375,6.768,47.224,5.682l-2.382-1.5L40.983,2.839l-5.01-.166L31.7,4.259,30.226,5.514Z" transform="translate(20.468 1.81)" fill="#004584" stroke="#004583" stroke-miterlimit="10" stroke-width="2"/>
    <path id="Caminho_9510" data-name="Caminho 9510" d="M60.933,0,54.775.5,49.027,2.925l-2.548,2.09-.82,1V7.69l.82,1L68.9,31.678l.822.669h1.969l.74-.669,1.478-1.838L76.045,26l1.313-4.179.164-4.513-.491-2.259L76.209,11.7,74.976,8.275h.247l2.135.168,3.779,1.421,2.873,2.759,1.642,3.844.084,2.174V57.674l-.084.334H44.346l-1.151-.5-.493-.418L30.55,44.634,18.4,32.265,16.67,30.843l-3.775-1.756H8.787l-3.941,1.59L3.12,32.1l-1.4,1.754L0,37.78v4.265l1.724,3.926,1.4,1.674L10.758,55.5l7.884,7.774.82.751.875.05,5.295,5.295.231.768.49.332L29.537,73.8,32.8,77.049l1.224.748,1.3.25,2.694.084,2.692-.084V87.62l.082,1.416,1.3,1.332,1.307.084h7.426v12.4H34.105l-2.692.25-4.735,2-3.589,3.581L20.8,113.511l-.325,2.747v1.58l1.307,1.417H70.339l.408.082.488-.082.981-.084.815-1.248v-1.416l-.815-1.083-.981-.248H24.722l.082-.252v-.334l.651-1.662,1.878-2.747,2.694-2.081,3.019-1.083,1.8-.082H83.476l1.8.082,3.1,1.332,2.611,2.165,1.8,3,.327,1.665-9.548-.086-1.062.086-1.06,1.082-.082,1.665,1.062,1.248,1.06.084H95.308l.979-.084,1.142-1.248v-2.415l-.57-2.747L94.411,108.1l-3.916-3.5-4.9-1.749H67.156V90.367h8.813l1.142-1.332.163-1.164V78.047h8.079l1.144.084.813.748,6.284,6.328,6.2,6.326,1.632,1.5,3.918,1.5h4.079l3.755-1.665,1.632-1.414,1.468-1.665,1.469-3.829V81.71L116.28,77.8l-1.468-1.665-1.632-1.748-1.714-1.748-.735-.582-.567.029-5.335-5.337-.044-.463-.657-.835-3.2-3.343-3.364-3.093-1.068-.755-1.233-.25-2.626-.082-2.876.082V18.892l-.081-2.175-1.151-4.179-2.38-3.592L82.778,6.1,80.89,5.183l-2.217-.751L74.319,4.1h-2.3l-1.231-.084-1.067-.669L66.929,1.671Z" transform="translate(0 0)" fill="#004584" stroke="#004583" stroke-width="2"/>
    <path id="Caminho_9511" data-name="Caminho 9511" d="M111.87,71.3l-.49,1.748L109.1,75.708l-1.632.748-1.877.418-3.51-.917-1.387-1.164-6.365-6.41-6.2-6.576-.815-.584-1.877-.832h-51l-1.224-.5-.49-.5-2.529-2.747-2.694-2.663L27,53.565l-.9-.329-5.645-5.647-.738-.9-1.808-1.754L16.02,43.01l-5.912-6.019L4.194,30.973,2.963,29.385l-.74-3.51L3.292,22.53,6,20.275l1.89-.5L9.7,19.605l3.039,1.087,1.313,1.255,12.4,12.621L38.767,47.106l.74.584,1.642.837H92.557l1.231.585.411.5,2.628,2.675L99.455,54.8l.9.668.364.059,5.461,5.461-.025.24.652.834,1.632,1.664,1.714,1.831.979,1.166.9,3Z" transform="translate(1.505 13.276)" fill="#fff" stroke="#004583" stroke-width="2"/>
  </g>
</svg>
