<?xml version="1.0" encoding="UTF-8"?>
<svg id="Camada_1" data-name="Camada 1" xmlns="http://www.w3.org/2000/svg" viewBox="0 0 263.86 275.73">
  <defs>
    <style>
      .cls-1 {
        fill: #fff;
      }

      .cls-2 {
        fill: #094783;
        fill-rule: evenodd;
      }

      .cls-3 {
        fill: #27b8d4;
      }
    </style>
  </defs>
  <path class="cls-3" d="m59.74,0h175.69c15.69,0,28.43,12.74,28.43,28.43v187.56c0,32.97-26.77,59.74-59.74,59.74H59.74c-32.97,0-59.74-26.77-59.74-59.74V59.74C0,26.77,26.77,0,59.74,0Z"/>
  <g>
    <path class="cls-1" d="m79.83,210.68h-4.39v-21.33h4.39v21.33Z"/>
    <path class="cls-1" d="m87.52,194.83l.13,1.83c1.13-1.42,2.65-2.12,4.56-2.12,1.68,0,2.93.49,3.75,1.48s1.24,2.46,1.26,4.42v10.24h-4.23v-10.14c0-.9-.2-1.55-.59-1.96s-1.04-.61-1.95-.61c-1.19,0-2.08.51-2.68,1.52v11.18h-4.23v-15.85h3.98Z"/>
    <path class="cls-1" d="m114.7,202.9c0,2.54-.54,4.52-1.63,5.94s-2.6,2.13-4.54,2.13c-1.72,0-3.09-.66-4.12-1.98l-.19,1.68h-3.81v-22.5h4.23v8.07c.98-1.14,2.26-1.71,3.85-1.71,1.93,0,3.45.71,4.55,2.13s1.65,3.42,1.65,6v.23Zm-4.23-.31c0-1.6-.25-2.77-.76-3.51s-1.26-1.11-2.27-1.11c-1.35,0-2.28.55-2.78,1.66v6.25c.52,1.11,1.46,1.67,2.81,1.67s2.27-.67,2.7-2.02c.21-.64.31-1.63.31-2.94Z"/>
    <path class="cls-1" d="m116.65,202.61c0-1.57.3-2.97.91-4.2s1.48-2.18,2.61-2.86,2.46-1.01,3.96-1.01c2.14,0,3.88.65,5.24,1.96s2.11,3.09,2.26,5.33l.03,1.08c0,2.43-.68,4.38-2.04,5.85s-3.18,2.2-5.46,2.2-4.11-.73-5.47-2.2-2.04-3.46-2.04-5.98v-.19Zm4.23.3c0,1.51.28,2.66.85,3.46.57.8,1.38,1.2,2.43,1.2s1.83-.39,2.4-1.18c.58-.79.86-2.05.86-3.78,0-1.48-.29-2.62-.86-3.43s-1.39-1.22-2.43-1.22-1.84.4-2.4,1.21-.85,2.06-.85,3.75Z"/>
    <path class="cls-1" d="m143.77,209.07c-1.04,1.27-2.49,1.9-4.34,1.9-1.7,0-3-.49-3.89-1.46s-1.35-2.41-1.37-4.29v-10.39h4.23v10.25c0,1.65.75,2.48,2.26,2.48s2.42-.5,2.96-1.5v-11.23h4.25v15.85h-3.98l-.12-1.61Z"/>
    <path class="cls-1" d="m154.96,194.83l.13,1.83c1.13-1.42,2.65-2.12,4.56-2.12,1.68,0,2.93.49,3.75,1.48s1.24,2.46,1.26,4.42v10.24h-4.23v-10.14c0-.9-.2-1.55-.59-1.96s-1.04-.61-1.95-.61c-1.19,0-2.08.51-2.68,1.52v11.18h-4.23v-15.85h3.98Z"/>
    <path class="cls-1" d="m167.2,202.64c0-2.47.55-4.44,1.66-5.9s2.62-2.2,4.55-2.2c1.54,0,2.82.58,3.82,1.73v-8.09h4.25v22.5h-3.82l-.21-1.68c-1.05,1.32-2.41,1.98-4.07,1.98-1.87,0-3.36-.73-4.49-2.2s-1.69-3.51-1.69-6.13Zm4.23.31c0,1.49.26,2.63.78,3.42.52.79,1.27,1.19,2.26,1.19,1.31,0,2.23-.55,2.77-1.66v-6.26c-.53-1.1-1.44-1.66-2.74-1.66-2.04,0-3.06,1.66-3.06,4.97Z"/>
    <path class="cls-1" d="m70.8,225.35l5.48,15.47,5.45-15.47h5.77v21.33h-4.41v-5.83l.44-10.06-5.76,15.89h-3.02l-5.74-15.88.44,10.05v5.83h-4.39v-21.33h5.74Z"/>
    <path class="cls-1" d="m100.24,246.68c-.2-.38-.34-.85-.42-1.42-1.03,1.14-2.36,1.71-4,1.71-1.55,0-2.84-.45-3.86-1.35s-1.53-2.03-1.53-3.4c0-1.68.62-2.97,1.87-3.87s3.04-1.35,5.4-1.36h1.95v-.91c0-.73-.19-1.32-.56-1.76s-.97-.66-1.78-.66c-.71,0-1.27.17-1.68.51s-.61.81-.61,1.41h-4.23c0-.92.28-1.77.85-2.55s1.37-1.39,2.4-1.84,2.2-.67,3.49-.67c1.95,0,3.5.49,4.65,1.47s1.72,2.36,1.72,4.14v6.87c0,1.5.22,2.64.63,3.41v.25h-4.28Zm-3.5-2.94c.62,0,1.2-.14,1.73-.42s.92-.65,1.17-1.12v-2.72h-1.58c-2.12,0-3.25.73-3.38,2.2v.25c-.01.53.17.96.54,1.3s.88.51,1.52.51Z"/>
    <path class="cls-1" d="m116.04,234.8c-.58-.08-1.08-.12-1.52-.12-1.6,0-2.65.54-3.15,1.63v10.37h-4.23v-15.85h4l.12,1.89c.85-1.46,2.03-2.18,3.53-2.18.47,0,.91.06,1.32.19l-.06,4.07Z"/>
    <path class="cls-1" d="m123.84,240.32l-1.52,1.52v4.83h-4.23v-22.5h4.23v12.47l.82-1.05,4.06-4.76h5.08l-5.73,6.61,6.23,9.24h-4.86l-4.07-6.36Z"/>
    <path class="cls-1" d="m141.4,246.97c-2.32,0-4.22-.71-5.68-2.14s-2.19-3.33-2.19-5.7v-.41c0-1.59.31-3.02.92-4.27s1.49-2.22,2.62-2.9,2.41-1.02,3.86-1.02c2.17,0,3.88.68,5.12,2.05s1.87,3.31,1.87,5.82v1.73h-10.09c.14,1.04.55,1.87,1.24,2.49s1.56.94,2.61.94c1.63,0,2.91-.59,3.82-1.77l2.08,2.33c-.63.9-1.49,1.6-2.58,2.1s-2.29.75-3.6.75Zm-.48-13.02c-.84,0-1.52.28-2.04.85s-.86,1.38-1,2.44h5.89v-.34c-.02-.94-.27-1.67-.76-2.19s-1.18-.77-2.08-.77Z"/>
    <path class="cls-1" d="m155.39,226.93v3.9h2.71v3.11h-2.71v7.91c0,.59.11,1.01.34,1.26s.65.38,1.29.38c.47,0,.88-.03,1.25-.1v3.21c-.83.25-1.68.38-2.56.38-2.97,0-4.48-1.5-4.54-4.5v-8.54h-2.31v-3.11h2.31v-3.9h4.23Z"/>
    <path class="cls-1" d="m160.43,226.73c0-.63.21-1.16.64-1.57s1-.62,1.74-.62,1.3.21,1.73.62.64.93.64,1.57-.22,1.17-.65,1.58-1.01.62-1.72.62-1.29-.21-1.72-.62-.65-.94-.65-1.58Zm4.5,19.95h-4.25v-15.85h4.25v15.85Z"/>
    <path class="cls-1" d="m172.31,230.83l.13,1.83c1.13-1.42,2.65-2.12,4.56-2.12,1.68,0,2.93.49,3.75,1.48s1.24,2.46,1.26,4.42v10.24h-4.23v-10.14c0-.9-.2-1.55-.59-1.96s-1.04-.61-1.95-.61c-1.19,0-2.08.51-2.68,1.52v11.18h-4.23v-15.85h3.98Z"/>
    <path class="cls-1" d="m184.6,238.64c0-2.43.58-4.39,1.74-5.87s2.72-2.23,4.68-2.23c1.74,0,3.09.6,4.06,1.79l.18-1.49h3.84v15.32c0,1.39-.31,2.59-.94,3.62s-1.52,1.81-2.66,2.34-2.48.81-4.01.81c-1.16,0-2.29-.23-3.4-.7s-1.94-1.06-2.5-1.79l1.88-2.58c1.05,1.18,2.33,1.77,3.84,1.77,1.12,0,2-.3,2.62-.9s.94-1.45.94-2.56v-.85c-.98,1.1-2.26,1.66-3.85,1.66-1.9,0-3.44-.74-4.62-2.23s-1.77-3.46-1.77-5.93v-.18Zm4.23.31c0,1.44.29,2.57.86,3.38.58.82,1.37,1.23,2.37,1.23,1.29,0,2.21-.48,2.77-1.45v-6.67c-.57-.97-1.48-1.45-2.74-1.45-1.02,0-1.81.42-2.39,1.25-.58.83-.87,2.07-.87,3.73Z"/>
  </g>
  <g>
    <polygon class="cls-2" points="161.66 60.42 112.85 60.42 112.55 60.45 112.02 60.67 111.63 61.08 111.39 61.63 111.38 61.93 111.39 62.26 111.63 62.81 112.02 63.21 112.55 63.44 112.85 63.47 161.66 63.47 161.96 63.44 162.49 63.21 162.89 62.81 163.11 62.26 163.14 61.93 163.11 61.63 162.89 61.08 162.49 60.67 161.96 60.45 161.66 60.42 161.66 60.42 161.66 60.42"/>
    <path class="cls-2" d="m144.87,88.65v-.58l-.15-1.16-.26-1.13-.38-1.07-.49-1.04-.59-.95-.72-.92-.78-.84-.87-.79-.98-.69-1.01-.61-1.11-.55-1.16-.43-1.22-.33-1.26-.22-1.31-.12h-.65s-.67,0-.67,0l-1.31.12-1.26.22-1.22.33-1.16.43-1.11.55-1.01.61-.98.69-.87.79-.78.84-.72.92-.59.95-.49,1.04-.38,1.07-.26,1.13-.15,1.16v1.17l.15,1.16.26,1.11.38,1.08.49,1.01.59.98.72.91.78.85.87.77.98.72,1.01.61,1.11.52,1.16.43,1.22.35,1.26.23,1.31.12h.67s.65,0,.65,0l1.31-.12,1.26-.23,1.22-.35,1.16-.43,1.11-.52,1.01-.61.98-.72.87-.77.78-.85.72-.91.59-.98.49-1.01.38-1.08.26-1.11.15-1.16v-.59h0Zm-22.8,0l.02-.45.1-.88.2-.84.28-.84.38-.77.47-.75.52-.69.6-.64.65-.61.75-.53.78-.46.83-.4.88-.32.91-.27.98-.17.98-.09h.52s.51,0,.51,0l.98.09.98.17.91.27.88.32.83.4.78.46.75.53.65.61.6.64.52.69.47.75.38.77.28.84.2.84.1.88.02.45-.02.45-.1.88-.2.85-.28.81-.38.79-.47.74-.52.71-.6.64-.65.59-.75.53-.78.48-.83.39-.88.33-.91.26-.98.17-.98.09h-1.03l-.98-.09-.98-.17-.91-.26-.88-.33-.83-.39-.78-.48-.75-.53-.65-.59-.6-.64-.52-.71-.47-.74-.38-.79-.28-.81-.2-.85-.1-.88-.02-.45h0Z"/>
    <path class="cls-2" d="m137.45,87.26l-6.62-3.6-.35-.17-.72-.18h-.75l-.68.17-.6.32-.53.44-.38.57-.2.65-.02.36v7.2l.02.36.2.65.38.56.53.47.6.32.68.17h.75l.72-.18.35-.17,6.62-3.6.32-.2.5-.48.35-.57.17-.6v-.62l-.17-.63-.35-.56-.5-.47-.32-.2h0Zm-7.68,5.18v-6.05l5.53,3.03-5.53,3.03h0Z"/>
    <path class="cls-2" d="m141.86,113.84h.32s.54-.22.54-.22l.42-.38.22-.48.02-.28v-.03h9.81s.83-.19.83-.19l.78-.31.7-.42.58-.53.46-.64.32-.7.18-.77.02-.41-.02-.41-.18-.76-.32-.7-.46-.64-.58-.54-.7-.42-.78-.29-.83-.18h-.46s-9.35-.01-9.35-.01l-.02-.28-.22-.5-.42-.36-.54-.2-.32-.03-.3.03-.53.2-.42.36-.22.5-.02.28h-29.7s-.83.19-.83.19l-.78.29-.7.42-.58.54-.46.64-.32.7-.18.76-.02.41.02.41.18.77.32.7.46.64.58.53.7.42.78.31.83.18h.46s29.24.01,29.24.01v.03l.02.28.22.48.42.38.53.2h.3Zm1.52-6.53h9.63s.46.19.46.19l.35.32.21.42.02.25-.02.25-.21.42-.35.34-.46.18h-.29s-9.35.01-9.35.01v-2.38h0Zm-32.24,2.38h-.29s-.46-.19-.46-.19l-.35-.34-.21-.42-.02-.25.02-.25.21-.42.35-.32.46-.18h.29s29.24-.01,29.24-.01v2.38h-29.24Z"/>
    <polygon class="cls-2" points="106.78 124.53 117.48 124.53 117.8 124.51 118.33 124.27 118.75 123.87 118.97 123.32 118.99 123 118.97 122.69 118.75 122.14 118.33 121.74 117.8 121.51 117.48 121.48 106.78 121.48 106.48 121.51 105.94 121.74 105.53 122.14 105.3 122.69 105.29 123 105.3 123.32 105.53 123.87 105.94 124.27 106.48 124.51 106.78 124.53 106.78 124.53 106.78 124.53"/>
    <polygon class="cls-2" points="128.19 127.58 106.71 127.58 106.42 127.6 105.92 127.83 105.52 128.25 105.3 128.79 105.29 129.11 105.3 129.42 105.52 129.97 105.92 130.39 106.42 130.62 106.71 130.64 128.19 130.64 128.48 130.62 129 130.39 129.4 129.97 129.63 129.42 129.65 129.11 129.63 128.79 129.4 128.25 129 127.83 128.48 127.6 128.19 127.58 128.19 127.58 128.19 127.58"/>
    <polygon class="cls-2" points="128.19 133.69 106.71 133.69 106.42 133.71 105.92 133.95 105.52 134.35 105.3 134.9 105.29 135.21 105.3 135.52 105.52 136.08 105.92 136.48 106.42 136.71 106.71 136.74 128.19 136.74 128.48 136.71 129 136.48 129.4 136.08 129.63 135.52 129.65 135.21 129.63 134.9 129.4 134.35 129 133.95 128.48 133.71 128.19 133.69 128.19 133.69 128.19 133.69"/>
    <polygon class="cls-2" points="128.19 139.8 106.71 139.8 106.42 139.81 105.92 140.04 105.52 140.45 105.3 141 105.29 141.31 105.3 141.61 105.52 142.18 105.92 142.59 106.42 142.83 106.71 142.85 128.19 142.85 128.48 142.83 129 142.59 129.4 142.18 129.63 141.61 129.65 141.31 129.63 141 129.4 140.45 129 140.04 128.48 139.81 128.19 139.8 128.19 139.8 128.19 139.8"/>
    <polygon class="cls-2" points="157.06 127.58 134.24 127.58 133.93 127.6 133.38 127.83 132.95 128.25 132.71 128.79 132.69 129.11 132.71 129.42 132.95 129.97 133.38 130.39 133.93 130.62 134.24 130.64 157.06 130.64 157.37 130.62 157.91 130.39 158.33 129.97 158.56 129.42 158.58 129.11 158.56 128.79 158.33 128.25 157.91 127.83 157.37 127.6 157.06 127.58 157.06 127.58 157.06 127.58"/>
    <polygon class="cls-2" points="157.06 133.69 134.24 133.69 133.93 133.71 133.38 133.95 132.95 134.35 132.71 134.9 132.69 135.21 132.71 135.52 132.95 136.08 133.38 136.48 133.93 136.71 134.24 136.74 157.06 136.74 157.37 136.71 157.91 136.48 158.33 136.08 158.56 135.52 158.58 135.21 158.56 134.9 158.33 134.35 157.91 133.95 157.37 133.71 157.06 133.69 157.06 133.69 157.06 133.69"/>
    <polygon class="cls-2" points="134.24 142.85 157.06 142.85 157.37 142.83 157.91 142.59 158.33 142.18 158.56 141.61 158.58 141.31 158.56 141 158.33 140.45 157.91 140.04 157.37 139.81 157.06 139.8 134.24 139.8 133.93 139.81 133.38 140.04 132.95 140.45 132.71 141 132.69 141.31 132.71 141.61 132.95 142.18 133.38 142.59 133.93 142.83 134.24 142.85 134.24 142.85 134.24 142.85"/>
    <path class="cls-2" d="m135.4,152.01h30.6s1.04-.22,1.04-.22l.96-.37.83-.55.72-.67.57-.81.41-.91.2-.97.02-.52V60.86l-.02-.52-.2-.97-.41-.91-.57-.81-.72-.67-.83-.55-.96-.37-1.04-.21h-.54s-67.07-.01-67.07-.01h-.54s-1.04.22-1.04.22l-.96.37-.83.55-.72.67-.57.81-.41.91-.2.97-.02.52v86.12l.02.52.2.97.41.91.57.81.72.67.83.55.96.37,1.04.21h.54s30.07.01,30.07.01h.3s.54-.24.54-.24l.39-.37.25-.52.02-.28-.02-.28-.25-.51-.39-.37-.54-.21h-.3s-30.07-.01-30.07-.01h-.24s-.46-.1-.46-.1l-.41-.18-.38-.24-.31-.3-.25-.34-.17-.39-.09-.43-.02-.24v-77.86h71.73v77.86l-.02.24-.09.43-.17.39-.25.34-.33.3-.36.24-.41.18-.46.09h-.24s-30.07.01-30.07.01h-.3s-.54.22-.54.22l-.39.37-.25.51-.02.28.02.28.25.52.39.37.54.22h.3Zm-31.39-85.69h-7.95v-5.44l.02-.24.09-.43.17-.39.25-.34.31-.3.38-.24.41-.18.46-.09h.24s5.62-.01,5.62-.01v7.67h0Zm2.96,0v-7.67h58.73s.46.1.46.1l.41.18.38.24.31.3.25.34.17.39.09.43.02.24v5.44h-60.83Z"/>
    <polygon class="cls-2" points="164.67 115.51 164.67 98.29 164.65 98.01 164.43 97.52 164.02 97.13 163.51 96.92 163.21 96.9 162.9 96.92 162.36 97.13 161.96 97.52 161.74 98.01 161.72 98.29 161.72 115.51 161.69 115.58 161.61 115.6 102.25 115.6 102.17 115.58 102.14 115.51 102.14 75.56 102.17 75.48 102.25 75.46 161.61 75.46 161.69 75.48 161.72 75.56 161.72 91.71 161.74 92 161.96 92.51 162.36 92.89 162.9 93.1 163.21 93.13 163.51 93.1 164.02 92.89 164.43 92.51 164.65 92 164.67 91.71 164.67 75.56 164.67 75.26 164.54 74.68 164.31 74.15 163.98 73.69 163.57 73.3 163.08 72.97 162.52 72.75 161.92 72.63 161.61 72.63 102.25 72.63 101.94 72.63 101.34 72.75 100.78 72.97 100.29 73.3 99.88 73.69 99.56 74.15 99.32 74.68 99.19 75.26 99.19 75.56 99.19 115.51 99.19 115.81 99.32 116.38 99.56 116.9 99.88 117.36 100.29 117.77 100.78 118.08 101.34 118.29 101.94 118.41 102.25 118.42 161.61 118.42 161.92 118.41 162.52 118.29 163.08 118.08 163.57 117.77 163.98 117.36 164.31 116.9 164.54 116.38 164.67 115.81 164.67 115.51 164.67 115.51 164.67 115.51"/>
  </g>
</svg>