<?xml version="1.0" encoding="UTF-8"?>
<svg id="Camada_1" data-name="Camada 1" xmlns="http://www.w3.org/2000/svg" viewBox="0 0 263.86 275.73">
  <defs>
    <style>
      .cls-1 {
        fill: #fff;
      }

      .cls-2 {
        fill: #094783;
        fill-rule: evenodd;
      }

      .cls-3 {
        fill: #27b8d4;
      }
    </style>
  </defs>
  <path class="cls-3" d="m59.74,0h175.69c15.69,0,28.43,12.74,28.43,28.43v187.56c0,32.97-26.77,59.74-59.74,59.74H59.74c-32.97,0-59.74-26.77-59.74-59.74V59.74C0,26.77,26.77,0,59.74,0Z"/>
  <g>
    <path class="cls-1" d="m81.63,205.5c0,2.1-.37,3.94-1.11,5.52s-1.8,2.8-3.19,3.66-2.97,1.29-4.75,1.29-3.34-.42-4.73-1.27-2.46-2.06-3.22-3.64-1.15-3.39-1.16-5.44v-1.05c0-2.1.38-3.95,1.13-5.54s1.83-2.82,3.21-3.68,2.96-1.28,4.74-1.28,3.36.43,4.74,1.28,2.45,2.08,3.21,3.68,1.14,3.44,1.14,5.53v.95Zm-4.45-.97c0-2.24-.4-3.94-1.2-5.1s-1.94-1.74-3.43-1.74-2.61.57-3.41,1.72-1.21,2.83-1.22,5.05v1.04c0,2.18.4,3.87,1.2,5.07s1.95,1.8,3.46,1.8,2.61-.58,3.4-1.74,1.19-2.84,1.2-5.06v-1.04Z"/>
    <path class="cls-1" d="m94.04,214.07c-1.04,1.27-2.49,1.9-4.34,1.9-1.7,0-3-.49-3.89-1.46s-1.35-2.41-1.37-4.29v-10.39h4.23v10.25c0,1.65.75,2.48,2.26,2.48s2.42-.5,2.96-1.5v-11.23h4.25v15.85h-3.98l-.12-1.61Z"/>
    <path class="cls-1" d="m106.4,195.93v3.9h2.71v3.11h-2.71v7.91c0,.59.11,1.01.34,1.26s.65.38,1.29.38c.47,0,.88-.03,1.25-.1v3.21c-.83.25-1.68.38-2.56.38-2.97,0-4.48-1.5-4.54-4.5v-8.54h-2.31v-3.11h2.31v-3.9h4.23Z"/>
    <path class="cls-1" d="m125.75,207.9c0,2.54-.54,4.52-1.63,5.94s-2.6,2.13-4.54,2.13c-1.72,0-3.09-.66-4.12-1.98l-.19,1.68h-3.81v-22.5h4.23v8.07c.98-1.14,2.26-1.71,3.85-1.71,1.93,0,3.45.71,4.55,2.13s1.65,3.42,1.65,6v.23Zm-4.23-.31c0-1.6-.25-2.77-.76-3.51s-1.26-1.11-2.27-1.11c-1.35,0-2.28.55-2.78,1.66v6.25c.52,1.11,1.46,1.67,2.81,1.67s2.27-.67,2.7-2.02c.21-.64.31-1.63.31-2.94Z"/>
    <path class="cls-1" d="m127.7,207.61c0-1.57.3-2.97.91-4.2s1.48-2.18,2.61-2.86,2.46-1.01,3.96-1.01c2.14,0,3.88.65,5.24,1.96s2.11,3.09,2.26,5.33l.03,1.08c0,2.43-.68,4.38-2.04,5.85s-3.18,2.2-5.46,2.2-4.11-.73-5.47-2.2-2.04-3.46-2.04-5.98v-.19Zm4.23.3c0,1.51.28,2.66.85,3.46.57.8,1.38,1.2,2.43,1.2s1.83-.39,2.4-1.18c.58-.79.86-2.05.86-3.78,0-1.48-.29-2.62-.86-3.43s-1.39-1.22-2.43-1.22-1.84.4-2.4,1.21-.85,2.06-.85,3.75Z"/>
    <path class="cls-1" d="m154.81,214.07c-1.04,1.27-2.49,1.9-4.34,1.9-1.7,0-3-.49-3.89-1.46s-1.35-2.41-1.37-4.29v-10.39h4.23v10.25c0,1.65.75,2.48,2.26,2.48s2.42-.5,2.96-1.5v-11.23h4.25v15.85h-3.98l-.12-1.61Z"/>
    <path class="cls-1" d="m166,199.83l.13,1.83c1.13-1.42,2.65-2.12,4.56-2.12,1.68,0,2.93.49,3.75,1.48s1.24,2.46,1.26,4.42v10.24h-4.23v-10.14c0-.9-.2-1.55-.59-1.96s-1.04-.61-1.95-.61c-1.19,0-2.08.51-2.68,1.52v11.18h-4.23v-15.85h3.98Z"/>
    <path class="cls-1" d="m178.25,207.64c0-2.47.55-4.44,1.66-5.9s2.62-2.2,4.55-2.2c1.54,0,2.82.58,3.82,1.73v-8.09h4.25v22.5h-3.82l-.21-1.68c-1.05,1.32-2.41,1.98-4.07,1.98-1.87,0-3.36-.73-4.49-2.2s-1.69-3.51-1.69-6.13Zm4.23.31c0,1.49.26,2.63.78,3.42.52.79,1.27,1.19,2.26,1.19,1.31,0,2.23-.55,2.77-1.66v-6.26c-.53-1.1-1.44-1.66-2.74-1.66-2.04,0-3.06,1.66-3.06,4.97Z"/>
    <path class="cls-1" d="m70.8,230.35l5.48,15.47,5.45-15.47h5.77v21.33h-4.41v-5.83l.44-10.06-5.76,15.89h-3.02l-5.74-15.88.44,10.05v5.83h-4.39v-21.33h5.74Z"/>
    <path class="cls-1" d="m100.24,251.68c-.2-.38-.34-.85-.42-1.42-1.03,1.14-2.36,1.71-4,1.71-1.55,0-2.84-.45-3.86-1.35s-1.53-2.03-1.53-3.4c0-1.68.62-2.97,1.87-3.87s3.04-1.35,5.4-1.36h1.95v-.91c0-.73-.19-1.32-.56-1.76s-.97-.66-1.78-.66c-.71,0-1.27.17-1.68.51s-.61.81-.61,1.41h-4.23c0-.92.28-1.77.85-2.55s1.37-1.39,2.4-1.84,2.2-.67,3.49-.67c1.95,0,3.5.49,4.65,1.47s1.72,2.36,1.72,4.14v6.87c0,1.5.22,2.64.63,3.41v.25h-4.28Zm-3.5-2.94c.62,0,1.2-.14,1.73-.42s.92-.65,1.17-1.12v-2.72h-1.58c-2.12,0-3.25.73-3.38,2.2v.25c-.01.53.17.96.54,1.3s.88.51,1.52.51Z"/>
    <path class="cls-1" d="m116.04,239.8c-.58-.08-1.08-.12-1.52-.12-1.6,0-2.65.54-3.15,1.63v10.37h-4.23v-15.85h4l.12,1.89c.85-1.46,2.03-2.18,3.53-2.18.47,0,.91.06,1.32.19l-.06,4.07Z"/>
    <path class="cls-1" d="m123.84,245.32l-1.52,1.52v4.83h-4.23v-22.5h4.23v12.47l.82-1.05,4.06-4.76h5.08l-5.73,6.61,6.23,9.24h-4.86l-4.07-6.36Z"/>
    <path class="cls-1" d="m141.4,251.97c-2.32,0-4.22-.71-5.68-2.14s-2.19-3.33-2.19-5.7v-.41c0-1.59.31-3.02.92-4.27s1.49-2.22,2.62-2.9,2.41-1.02,3.86-1.02c2.17,0,3.88.68,5.12,2.05s1.87,3.31,1.87,5.82v1.73h-10.09c.14,1.04.55,1.87,1.24,2.49s1.56.94,2.61.94c1.63,0,2.91-.59,3.82-1.77l2.08,2.33c-.63.9-1.49,1.6-2.58,2.1s-2.29.75-3.6.75Zm-.48-13.02c-.84,0-1.52.28-2.04.85s-.86,1.38-1,2.44h5.89v-.34c-.02-.94-.27-1.67-.76-2.19s-1.18-.77-2.08-.77Z"/>
    <path class="cls-1" d="m155.39,231.93v3.9h2.71v3.11h-2.71v7.91c0,.59.11,1.01.34,1.26s.65.38,1.29.38c.47,0,.88-.03,1.25-.1v3.21c-.83.25-1.68.38-2.56.38-2.97,0-4.48-1.5-4.54-4.5v-8.54h-2.31v-3.11h2.31v-3.9h4.23Z"/>
    <path class="cls-1" d="m160.43,231.73c0-.63.21-1.16.64-1.57s1-.62,1.74-.62,1.3.21,1.73.62.64.93.64,1.57-.22,1.17-.65,1.58-1.01.62-1.72.62-1.29-.21-1.72-.62-.65-.94-.65-1.58Zm4.5,19.95h-4.25v-15.85h4.25v15.85Z"/>
    <path class="cls-1" d="m172.31,235.83l.13,1.83c1.13-1.42,2.65-2.12,4.56-2.12,1.68,0,2.93.49,3.75,1.48s1.24,2.46,1.26,4.42v10.24h-4.23v-10.14c0-.9-.2-1.55-.59-1.96s-1.04-.61-1.95-.61c-1.19,0-2.08.51-2.68,1.52v11.18h-4.23v-15.85h3.98Z"/>
    <path class="cls-1" d="m184.6,243.64c0-2.43.58-4.39,1.74-5.87s2.72-2.23,4.68-2.23c1.74,0,3.09.6,4.06,1.79l.18-1.49h3.84v15.32c0,1.39-.31,2.59-.94,3.62s-1.52,1.81-2.66,2.34-2.48.81-4.01.81c-1.16,0-2.29-.23-3.4-.7s-1.94-1.06-2.5-1.79l1.88-2.58c1.05,1.18,2.33,1.77,3.84,1.77,1.12,0,2-.3,2.62-.9s.94-1.45.94-2.56v-.85c-.98,1.1-2.26,1.66-3.85,1.66-1.9,0-3.44-.74-4.62-2.23s-1.77-3.46-1.77-5.93v-.18Zm4.23.31c0,1.44.29,2.57.86,3.38.58.82,1.37,1.23,2.37,1.23,1.29,0,2.21-.48,2.77-1.45v-6.67c-.57-.97-1.48-1.45-2.74-1.45-1.02,0-1.81.42-2.39,1.25-.58.83-.87,2.07-.87,3.73Z"/>
  </g>
  <g>
    <path class="cls-2" d="m177.03,48h-66.37l-.87.1-.84.17-.82.26-.77.33-.72.41-1.04.74-1.18,1.19-.72,1.05-.4.74-.32.81-.25.83-.17.86-.1.9v5.77h-16.07l-.86.1-.86.19-.81.24-.79.35-.72.4-1.04.74-1.16,1.19-.74,1.07-.39.74-.34.79-.24.83-.18.88-.1.88v54.12l.1.88.18.86.24.85.34.79.39.74.74,1.07,1.16,1.17,1.04.76.72.4.79.35.81.24.86.17.86.1h24.75v10.65h-3.92l-.87.1-.86.17-.81.26-.79.33-.72.41-1.04.74-1.16,1.19-.72,1.05-.4.74-.34.81-.24.83-.17.86-.12.9v4l.02.35.29.64.47.48.62.28.35.02h45.1l.34-.02.62-.28.47-.48.29-.64.02-.35v-4l-.1-.9-.18-.86-.24-.83-.34-.81-.4-.74-.72-1.05-1.16-1.19-1.04-.74-.72-.41-.79-.33-.81-.26-.86-.17-.86-.1h-3.93v-10.65h24.75l.86-.1.86-.17.82-.24.77-.35.72-.4,1.04-.76,1.16-1.17.74-1.07.39-.74.34-.79.24-.85.18-.86.1-.88v-12.88h9.13l.86-.1.86-.17.81-.26.79-.33.72-.41,1.04-.74,1.16-1.19.74-1.05.39-.76.34-.79.24-.83.18-.86.1-.9v-47l-.1-.9-.18-.86-.24-.83-.34-.81-.39-.74-.74-1.05-1.16-1.19-1.04-.74-.72-.41-.79-.33-.81-.26-.86-.17-.86-.1h-.45Zm-65.92,3.54h65.92l.54.02,1.01.21.92.41.84.57.71.73.55.85.4.97.2,1.02.02.55v1.78h-76.32v-1.78l.02-.55.22-1.02.39-.97.55-.85.72-.73.82-.57.94-.41,1.01-.21.54-.02h0Zm32.95,101.05v1.78h-41.62v-1.78l.02-.55.2-1.02.4-.97.55-.85.71-.73.84-.57.94-.41.99-.21.54-.02h31.23l.54.02,1.01.21.92.41.84.57.71.73.55.85.4.97.2,1.02.02.55h0Zm-12.14-8.86h-17.35v-10.65h17.35v10.65h0Zm27.75-14.19h-72.86l-.54-.02-1.01-.21-.92-.41-.84-.57-.71-.73-.55-.85-.4-.97-.2-1.02-.02-.55v-5.32h83.26v5.32l-.02.55-.22,1.02-.4.97-.55.85-.71.73-.82.57-.94.41-1.01.21-.54.02h0Zm5.21-14.19h-83.26v-44.31l.02-.55.2-1.04.4-.95.55-.85.71-.73.84-.57.92-.41,1.01-.21.54-.02h15.62v37.68l.1.9.17.86.25.83.32.79.4.76.72,1.05,1.18,1.19,1.04.74.72.41.77.33.82.26.84.17.87.1h54.23v3.54h0Zm12.14-7.08h-65.92l-.54-.02-1.01-.22-.94-.4-.82-.57-.72-.73-.55-.86-.39-.95-.22-1.04-.02-.54v-40.79h76.32v40.79l-.02.54-.2,1.04-.4.95-.55.86-.71.73-.84.57-.92.4-1.01.22-.54.02h0Z"/>
    <polygon class="cls-2" points="158.82 122.65 162.96 122.65 162.96 124.73 158.82 124.73 158.82 122.65 158.82 122.65"/>
    <polygon class="cls-2" points="152.61 122.65 154.68 122.65 154.68 124.73 152.61 124.73 152.61 122.65 152.61 122.65"/>
    <polygon class="cls-2" points="144.34 122.65 148.48 122.65 148.48 124.73 144.34 124.73 144.34 122.65 144.34 122.65"/>
    <path class="cls-2" d="m177.75,66.66h-66.81l-.36.02-.63.26-.48.46-.27.61-.02.33v33.96l.02.33.27.61.48.46.63.26.36.02h66.81l.36-.02.63-.26.48-.46.27-.61.02-.33v-33.96l-.02-.33-.27-.61-.48-.46-.63-.26-.36-.02h0Zm-54.51,30.54h7.04v-3.39h-7.04v-3.39h3.51v-3.4h-3.51v-3.39h3.51v-3.4h-3.51v-3.39h10.55v23.76h-10.55v-3.4h0Zm26.57-10.46l-.29.13-.65.13-.34.02h-1.35l-.32-.02-.65-.13-.31-.13-.34-.2-.6-.5-.39-.64-.22-.74-.02-.38.02-.3.17-.56.31-.48.44-.4.26-.13.48-.26.8-.66.6-.81.37-.94.09-.51,2.33,2.25.27.3.44.64.31.71.14.76.02.4-.02.38-.2.74-.41.64-.58.5-.36.2h0Zm-3.7,3.55l.55.1.53.03h1.35l.55-.03.55-.1v10.31h-3.51v-10.31h0Zm15.81-3.27h3.53v13.58h-3.53v-13.58h0Zm.68-3.39l1.07-3.12,1.07,3.12h-2.15Zm13.39,16.97h-7.04v-15.28l.02-.26-.02-.26-3.51-10.2-.12-.26-.34-.45-.44-.28-.51-.15h-.53l-.51.15-.44.28-.34.45-.1.26-3.53,10.2-.12.26-.05.26v15.28h-5.28v-12.1l.41-.45.65-.97.46-1.07.22-1.14.02-.59-.02-.73-.29-1.42-.56-1.32-.83-1.21-.53-.51-5.27-5.11-.2-.17-.44-.23-.51-.08-.51.05-.26.08-.24.1-.39.3-.29.4-.19.46-.02.25v3.65l-.02.18-.19.3-.15.1-.36.18-.65.43-.58.51-.51.58-.41.64-.31.69-.22.71-.1.76-.02.4.02.59.22,1.14.46,1.07.65.97.41.45v12.1h-5.27v-25.46l-.02-.33-.29-.61-.48-.46-.63-.26-.36-.02h-14.06l-.36.02-.63.26-.48.46-.27.61-.02.33v25.46h-7.04v-30.55h63.3v30.55h0Z"/>
  </g>
</svg>