<svg id="Grupo_2753" data-name="Grupo 2753" xmlns="http://www.w3.org/2000/svg" width="94.025" height="94.025" viewBox="0 0 94.025 94.025">
  <g id="Caminho_9514" data-name="Caminho 9514" transform="translate(0)" fill="none">
    <path d="M47.013,0A47.013,47.013,0,1,1,0,47.013,47.013,47.013,0,0,1,47.013,0Z" stroke="none"/>
    <path d="M 47.0127067565918 9 C 26.05243682861328 9 9 26.05243682861328 9 47.0127067565918 C 9 67.97297668457031 26.05243682861328 85.02541351318359 47.0127067565918 85.02541351318359 C 67.97297668457031 85.02541351318359 85.02541351318359 67.97297668457031 85.02541351318359 47.0127067565918 C 85.02541351318359 26.05243682861328 67.97297668457031 9 47.0127067565918 9 M 47.0127067565918 0 C 72.97710418701172 0 94.02541351318359 21.04830932617188 94.02541351318359 47.0127067565918 C 94.02541351318359 72.97710418701172 72.97710418701172 94.02541351318359 47.0127067565918 94.02541351318359 C 21.04830932617188 94.02541351318359 0 72.97710418701172 0 47.0127067565918 C 0 21.04830932617188 21.04830932617188 0 47.0127067565918 0 Z" stroke="none" fill="#004583"/>
  </g>
  <path id="Caminho_9515" data-name="Caminho 9515" d="M23610.3,4464.977l69.125-49.276" transform="translate(-23597.85 -4393.326)" fill="none" stroke="#004583" stroke-width="7"/>
</svg>
