<?xml version="1.0" encoding="UTF-8"?>
<svg id="Camada_1" data-name="Camada 1" xmlns="http://www.w3.org/2000/svg" viewBox="0 0 263.86 275.73">
  <defs>
    <style>
      .cls-1 {
        fill: #fff;
      }

      .cls-2 {
        fill: #094783;
        fill-rule: evenodd;
      }

      .cls-3 {
        fill: #27b8d4;
      }
    </style>
  </defs>
  <path class="cls-3" d="m59.74,0h175.69c15.69,0,28.43,12.74,28.43,28.43v187.56c0,32.97-26.77,59.74-59.74,59.74H59.74c-32.97,0-59.74-26.77-59.74-59.74V59.74C0,26.77,26.77,0,59.74,0Z"/>
  <g>
    <path class="cls-1" d="m70.8,189.35l5.48,15.47,5.45-15.47h5.77v21.33h-4.41v-5.83l.44-10.06-5.76,15.89h-3.02l-5.74-15.88.44,10.05v5.83h-4.39v-21.33h5.74Z"/>
    <path class="cls-1" d="m100.24,210.68c-.2-.38-.34-.85-.42-1.42-1.03,1.14-2.36,1.71-4,1.71-1.55,0-2.84-.45-3.86-1.35s-1.53-2.03-1.53-3.4c0-1.68.62-2.97,1.87-3.87s3.04-1.35,5.4-1.36h1.95v-.91c0-.73-.19-1.32-.56-1.76s-.97-.66-1.78-.66c-.71,0-1.27.17-1.68.51s-.61.81-.61,1.41h-4.23c0-.92.28-1.77.85-2.55s1.37-1.39,2.4-1.84,2.2-.67,3.49-.67c1.95,0,3.5.49,4.65,1.47s1.72,2.36,1.72,4.14v6.87c0,1.5.22,2.64.63,3.41v.25h-4.28Zm-3.5-2.94c.62,0,1.2-.14,1.73-.42s.92-.65,1.17-1.12v-2.72h-1.58c-2.12,0-3.25.73-3.38,2.2v.25c-.01.53.17.96.54,1.3s.88.51,1.52.51Z"/>
    <path class="cls-1" d="m116.04,198.8c-.58-.08-1.08-.12-1.52-.12-1.6,0-2.65.54-3.15,1.63v10.37h-4.23v-15.85h4l.12,1.89c.85-1.46,2.03-2.18,3.53-2.18.47,0,.91.06,1.32.19l-.06,4.07Z"/>
    <path class="cls-1" d="m123.84,204.32l-1.52,1.52v4.83h-4.23v-22.5h4.23v12.47l.82-1.05,4.06-4.76h5.08l-5.73,6.61,6.23,9.24h-4.86l-4.07-6.36Z"/>
    <path class="cls-1" d="m141.4,210.97c-2.32,0-4.22-.71-5.68-2.14s-2.19-3.33-2.19-5.7v-.41c0-1.59.31-3.02.92-4.27s1.49-2.22,2.62-2.9,2.41-1.02,3.86-1.02c2.17,0,3.88.68,5.12,2.05s1.87,3.31,1.87,5.82v1.73h-10.09c.14,1.04.55,1.87,1.24,2.49s1.56.94,2.61.94c1.63,0,2.91-.59,3.82-1.77l2.08,2.33c-.63.9-1.49,1.6-2.58,2.1s-2.29.75-3.6.75Zm-.48-13.02c-.84,0-1.52.28-2.04.85s-.86,1.38-1,2.44h5.89v-.34c-.02-.94-.27-1.67-.76-2.19s-1.18-.77-2.08-.77Z"/>
    <path class="cls-1" d="m155.39,190.93v3.9h2.71v3.11h-2.71v7.91c0,.59.11,1.01.34,1.26s.65.38,1.29.38c.47,0,.88-.03,1.25-.1v3.21c-.83.25-1.68.38-2.56.38-2.97,0-4.48-1.5-4.54-4.5v-8.54h-2.31v-3.11h2.31v-3.9h4.23Z"/>
    <path class="cls-1" d="m160.43,190.73c0-.63.21-1.16.64-1.57s1-.62,1.74-.62,1.3.21,1.73.62.64.93.64,1.57-.22,1.17-.65,1.58-1.01.62-1.72.62-1.29-.21-1.72-.62-.65-.94-.65-1.58Zm4.5,19.95h-4.25v-15.85h4.25v15.85Z"/>
    <path class="cls-1" d="m172.31,194.83l.13,1.83c1.13-1.42,2.65-2.12,4.56-2.12,1.68,0,2.93.49,3.75,1.48s1.24,2.46,1.26,4.42v10.24h-4.23v-10.14c0-.9-.2-1.55-.59-1.96s-1.04-.61-1.95-.61c-1.19,0-2.08.51-2.68,1.52v11.18h-4.23v-15.85h3.98Z"/>
    <path class="cls-1" d="m184.6,202.64c0-2.43.58-4.39,1.74-5.87s2.72-2.23,4.68-2.23c1.74,0,3.09.6,4.06,1.79l.18-1.49h3.84v15.32c0,1.39-.31,2.59-.94,3.62s-1.52,1.81-2.66,2.34-2.48.81-4.01.81c-1.16,0-2.29-.23-3.4-.7s-1.94-1.06-2.5-1.79l1.88-2.58c1.05,1.18,2.33,1.77,3.84,1.77,1.12,0,2-.3,2.62-.9s.94-1.45.94-2.56v-.85c-.98,1.1-2.26,1.66-3.85,1.66-1.9,0-3.44-.74-4.62-2.23s-1.77-3.46-1.77-5.93v-.18Zm4.23.31c0,1.44.29,2.57.86,3.38.58.82,1.37,1.23,2.37,1.23,1.29,0,2.21-.48,2.77-1.45v-6.67c-.57-.97-1.48-1.45-2.74-1.45-1.02,0-1.81.42-2.39,1.25-.58.83-.87,2.07-.87,3.73Z"/>
    <path class="cls-1" d="m93.2,246.68v-21.33h6.56c1.88,0,3.55.42,5.03,1.27s2.63,2.05,3.46,3.6,1.25,3.33,1.25,5.31v.98c0,1.98-.41,3.75-1.22,5.29s-1.96,2.74-3.45,3.59-3.16,1.28-5.02,1.29h-6.61Zm4.39-17.77v14.24h2.12c1.72,0,3.03-.56,3.94-1.68s1.37-2.73,1.39-4.82v-1.13c0-2.17-.45-3.81-1.35-4.93s-2.21-1.68-3.94-1.68h-2.17Z"/>
    <path class="cls-1" d="m112.39,226.73c0-.63.21-1.16.64-1.57s1-.62,1.74-.62,1.3.21,1.73.62.64.93.64,1.57-.22,1.17-.65,1.58-1.01.62-1.72.62-1.29-.21-1.72-.62-.65-.94-.65-1.58Zm4.5,19.95h-4.25v-15.85h4.25v15.85Z"/>
    <path class="cls-1" d="m129.28,234.8c-.58-.08-1.08-.12-1.52-.12-1.6,0-2.65.54-3.15,1.63v10.37h-4.23v-15.85h4l.12,1.89c.85-1.46,2.03-2.18,3.53-2.18.47,0,.91.06,1.32.19l-.06,4.07Z"/>
    <path class="cls-1" d="m138.61,246.97c-2.32,0-4.22-.71-5.68-2.14s-2.19-3.33-2.19-5.7v-.41c0-1.59.31-3.02.92-4.27s1.49-2.22,2.61-2.9,2.42-1.02,3.86-1.02c2.17,0,3.87.68,5.12,2.05s1.87,3.31,1.87,5.82v1.73h-10.09c.14,1.04.55,1.87,1.24,2.49s1.56.94,2.62.94c1.63,0,2.91-.59,3.82-1.77l2.08,2.33c-.63.9-1.49,1.6-2.58,2.1s-2.29.75-3.6.75Zm-.48-13.02c-.84,0-1.52.28-2.04.85s-.86,1.38-1,2.44h5.89v-.34c-.02-.94-.27-1.67-.76-2.19s-1.18-.77-2.08-.77Z"/>
    <path class="cls-1" d="m152.6,226.93v3.9h2.71v3.11h-2.71v7.91c0,.59.11,1.01.34,1.26s.65.38,1.29.38c.47,0,.88-.03,1.25-.1v3.21c-.83.25-1.68.38-2.56.38-2.97,0-4.48-1.5-4.54-4.5v-8.54h-2.31v-3.11h2.31v-3.9h4.23Z"/>
    <path class="cls-1" d="m156.57,238.61c0-1.57.3-2.97.91-4.2s1.48-2.18,2.61-2.86,2.46-1.01,3.96-1.01c2.14,0,3.88.65,5.24,1.96s2.11,3.09,2.26,5.33l.03,1.08c0,2.43-.68,4.38-2.04,5.85s-3.18,2.2-5.46,2.2-4.11-.73-5.47-2.2-2.04-3.46-2.04-5.98v-.19Zm4.23.3c0,1.51.28,2.66.85,3.46.57.8,1.38,1.2,2.43,1.2s1.83-.39,2.4-1.18c.58-.79.86-2.05.86-3.78,0-1.48-.29-2.62-.86-3.43s-1.39-1.22-2.43-1.22-1.84.4-2.4,1.21-.85,2.06-.85,3.75Z"/>
  </g>
  <g>
    <polygon class="cls-2" points="125.19 53.79 129.04 53.79 129.04 57.65 125.19 57.65 125.19 53.79 125.19 53.79"/>
    <polygon class="cls-2" points="132.89 53.79 136.74 53.79 136.74 57.65 132.89 57.65 132.89 53.79 132.89 53.79"/>
    <polygon class="cls-2" points="129.04 138.69 132.89 138.69 132.89 142.55 129.04 142.55 129.04 138.69 129.04 138.69"/>
    <polygon class="cls-2" points="92.48 96.24 96.33 96.24 96.33 100.1 92.48 100.1 92.48 96.24 92.48 96.24"/>
    <polygon class="cls-2" points="146.37 78.87 150.21 78.87 150.21 80.8 146.37 80.8 146.37 78.87 146.37 78.87"/>
    <polygon class="cls-2" points="144.44 84.66 173.31 84.66 173.31 88.52 144.44 88.52 144.44 84.66 144.44 84.66"/>
    <polygon class="cls-2" points="144.44 92.38 169.46 92.38 169.46 94.31 144.44 94.31 144.44 92.38 144.44 92.38"/>
    <polygon class="cls-2" points="154.06 78.87 173.31 78.87 173.31 80.8 154.06 80.8 154.06 78.87 154.06 78.87"/>
    <path class="cls-2" d="m179.35,71.86h-16.63v-17.04l-.02-.71-.27-1.32-.52-1.22-.71-1.09-.9-.93-1.06-.73-1.19-.53-1.31-.28-.68-.02h-49.91l-.69.02-1.29.28-1.19.53-1.06.73-.9.93-.71,1.09-.52,1.22-.27,1.32-.02.71v35.79h-14.97l-.34.02-.6.26-.45.46-.26.61-.02.35v27.27l.02.35.26.61.45.46.6.26.34.02h14.97v22.16l.02.71.27,1.32.52,1.22.71,1.09.9.93,1.06.74,1.19.51,1.29.28.69.02h49.91l.68-.02,1.31-.28,1.19-.51,1.06-.74.9-.93.71-1.09.52-1.22.27-1.32.02-.71v-36.8l4-4.1h12.63l.34-.02.6-.28.45-.46.26-.61.02-.33v-27.28l-.02-.33-.26-.63-.45-.45-.6-.28-.34-.02h0Zm-76.54-17.04l.02-.36.15-.66.24-.59.35-.55.47-.48.53-.36.58-.25.65-.15.35-.02h49.91l.35.02.65.15.58.25.53.36.47.48.35.55.24.59.13.66.02.36v6.81h-56.57v-6.81h0Zm-16.63,63.06v-23.86h38.26v23.86h-8.31l-.34.02-.6.26-.26.21-3.81,3.92-3.81-3.92-.26-.21-.6-.26-.32-.02h-19.97Zm73.2,25.56l-.02.36-.13.66-.24.59-.35.55-.47.48-.53.36-.58.25-.65.15-.35.02h-49.91l-.35-.02-.65-.15-.58-.25-.53-.36-.47-.48-.35-.55-.24-.59-.15-.66-.02-.36v-6.81h56.57v6.81h0Zm0-10.21h-56.57v-11.95h2.65l4.5,4.63.26.21.61.26h.63l.6-.26.26-.21,4.5-4.63h9.29l.34-.02.6-.26.45-.46.27-.61.02-.35v-27.27l-.02-.35-.27-.61-.45-.46-.6-.26-.34-.02h-23.29v-25.56h56.57v6.81h-21.62l-.34.02-.6.28-.45.45-.27.63-.02.33v27.28l.02.33.27.61.45.46.6.28.34.02h17.61l4,4.1v26.59h0Zm18.31-34.09h-11.65l-.34.02-.6.25-.24.21-3.81,3.93-3.82-3.93-.24-.21-.6-.25-.34-.02h-16.63v-23.88h38.26v23.88h0Z"/>
    <polygon class="cls-2" points="90.55 103.96 119.42 103.96 119.42 107.82 90.55 107.82 90.55 103.96 90.55 103.96"/>
    <polygon class="cls-2" points="90.55 109.75 115.57 109.75 115.57 113.61 90.55 113.61 90.55 109.75 90.55 109.75"/>
    <polygon class="cls-2" points="98.25 96.24 119.42 96.24 119.42 100.1 98.25 100.1 98.25 96.24 98.25 96.24"/>
  </g>
</svg>