<?xml version="1.0" encoding="UTF-8"?>
<svg id="Camada_1" data-name="Camada 1" xmlns="http://www.w3.org/2000/svg" viewBox="0 0 263.86 275.73">
  <defs>
    <style>
      .cls-1 {
        fill: #fff;
      }

      .cls-2 {
        fill: #094783;
        fill-rule: evenodd;
      }

      .cls-3 {
        fill: #27b8d4;
      }
    </style>
  </defs>
  <path class="cls-3" d="m59.74,0h175.69c15.69,0,28.43,12.74,28.43,28.43v187.56c0,32.97-26.77,59.74-59.74,59.74H59.74c-32.97,0-59.74-26.77-59.74-59.74V59.74C0,26.77,26.77,0,59.74,0Z"/>
  <g>
    <path class="cls-1" d="m67.06,189.35l5.48,15.47,5.45-15.47h5.77v21.33h-4.41v-5.83l.44-10.06-5.76,15.89h-3.02l-5.74-15.88.44,10.05v5.83h-4.39v-21.33h5.74Z"/>
    <path class="cls-1" d="m96.5,210.68c-.2-.38-.34-.85-.42-1.42-1.03,1.14-2.36,1.71-4,1.71-1.55,0-2.84-.45-3.86-1.35s-1.53-2.03-1.53-3.4c0-1.68.62-2.97,1.87-3.87s3.04-1.35,5.4-1.36h1.95v-.91c0-.73-.19-1.32-.56-1.76s-.97-.66-1.78-.66c-.71,0-1.27.17-1.68.51s-.61.81-.61,1.41h-4.23c0-.92.28-1.77.85-2.55s1.37-1.39,2.4-1.84,2.2-.67,3.49-.67c1.95,0,3.5.49,4.65,1.47s1.72,2.36,1.72,4.14v6.87c0,1.5.22,2.64.63,3.41v.25h-4.28Zm-3.5-2.94c.62,0,1.2-.14,1.73-.42s.92-.65,1.17-1.12v-2.72h-1.58c-2.12,0-3.25.73-3.38,2.2v.25c-.01.53.17.96.54,1.3s.88.51,1.52.51Z"/>
    <path class="cls-1" d="m112.31,198.8c-.58-.08-1.08-.12-1.52-.12-1.6,0-2.65.54-3.15,1.63v10.37h-4.23v-15.85h4l.12,1.89c.85-1.46,2.03-2.18,3.53-2.18.47,0,.91.06,1.32.19l-.06,4.07Z"/>
    <path class="cls-1" d="m120.1,204.32l-1.52,1.52v4.83h-4.23v-22.5h4.23v12.47l.82-1.05,4.06-4.76h5.08l-5.73,6.61,6.23,9.24h-4.86l-4.07-6.36Z"/>
    <path class="cls-1" d="m137.67,210.97c-2.32,0-4.22-.71-5.68-2.14s-2.19-3.33-2.19-5.7v-.41c0-1.59.31-3.02.92-4.27s1.49-2.22,2.62-2.9,2.41-1.02,3.86-1.02c2.17,0,3.88.68,5.12,2.05s1.87,3.31,1.87,5.82v1.73h-10.09c.14,1.04.55,1.87,1.24,2.49s1.56.94,2.61.94c1.63,0,2.91-.59,3.82-1.77l2.08,2.33c-.63.9-1.49,1.6-2.58,2.1s-2.29.75-3.6.75Zm-.48-13.02c-.84,0-1.52.28-2.04.85s-.86,1.38-1,2.44h5.89v-.34c-.02-.94-.27-1.67-.76-2.19s-1.18-.77-2.08-.77Z"/>
    <path class="cls-1" d="m151.65,190.93v3.9h2.71v3.11h-2.71v7.91c0,.59.11,1.01.34,1.26s.65.38,1.29.38c.47,0,.88-.03,1.25-.1v3.21c-.83.25-1.68.38-2.56.38-2.97,0-4.48-1.5-4.54-4.5v-8.54h-2.31v-3.11h2.31v-3.9h4.23Z"/>
    <path class="cls-1" d="m156.69,190.73c0-.63.21-1.16.64-1.57s1-.62,1.74-.62,1.3.21,1.73.62.64.93.64,1.57-.22,1.17-.65,1.58-1.01.62-1.72.62-1.29-.21-1.72-.62-.65-.94-.65-1.58Zm4.5,19.95h-4.25v-15.85h4.25v15.85Z"/>
    <path class="cls-1" d="m168.57,194.83l.13,1.83c1.13-1.42,2.65-2.12,4.56-2.12,1.68,0,2.93.49,3.75,1.48s1.24,2.46,1.26,4.42v10.24h-4.23v-10.14c0-.9-.2-1.55-.59-1.96s-1.04-.61-1.95-.61c-1.19,0-2.08.51-2.68,1.52v11.18h-4.23v-15.85h3.98Z"/>
    <path class="cls-1" d="m180.86,202.64c0-2.43.58-4.39,1.74-5.87s2.72-2.23,4.68-2.23c1.74,0,3.09.6,4.06,1.79l.18-1.49h3.84v15.32c0,1.39-.31,2.59-.94,3.62s-1.52,1.81-2.66,2.34-2.48.81-4.01.81c-1.16,0-2.29-.23-3.4-.7s-1.94-1.06-2.5-1.79l1.88-2.58c1.05,1.18,2.33,1.77,3.84,1.77,1.12,0,2-.3,2.62-.9s.94-1.45.94-2.56v-.85c-.98,1.1-2.26,1.66-3.85,1.66-1.9,0-3.44-.74-4.62-2.23s-1.77-3.46-1.77-5.93v-.18Zm4.23.31c0,1.44.29,2.57.86,3.38.58.82,1.37,1.23,2.37,1.23,1.29,0,2.21-.48,2.77-1.45v-6.67c-.57-.97-1.48-1.45-2.74-1.45-1.02,0-1.81.42-2.39,1.25-.58.83-.87,2.07-.87,3.73Z"/>
    <path class="cls-1" d="m90.48,246.68v-21.33h6.56c1.88,0,3.55.42,5.03,1.27s2.63,2.05,3.46,3.6,1.25,3.33,1.25,5.31v.98c0,1.98-.41,3.75-1.22,5.29s-1.97,2.74-3.45,3.59-3.16,1.28-5.02,1.29h-6.61Zm4.39-17.77v14.24h2.12c1.72,0,3.03-.56,3.94-1.68s1.37-2.73,1.39-4.82v-1.13c0-2.17-.45-3.81-1.35-4.93s-2.21-1.68-3.94-1.68h-2.17Z"/>
    <path class="cls-1" d="m109.67,226.73c0-.63.21-1.16.64-1.57s1-.62,1.74-.62,1.3.21,1.73.62.64.93.64,1.57-.22,1.17-.65,1.58-1.01.62-1.72.62-1.29-.21-1.72-.62-.65-.94-.65-1.58Zm4.5,19.95h-4.25v-15.85h4.25v15.85Z"/>
    <path class="cls-1" d="m117.04,238.64c0-2.43.58-4.39,1.74-5.87s2.72-2.23,4.68-2.23c1.74,0,3.09.6,4.06,1.79l.18-1.49h3.84v15.32c0,1.39-.31,2.59-.94,3.62s-1.52,1.81-2.66,2.34-2.48.81-4.01.81c-1.16,0-2.29-.23-3.4-.7s-1.94-1.06-2.5-1.79l1.88-2.58c1.05,1.18,2.33,1.77,3.84,1.77,1.12,0,2-.3,2.62-.9s.94-1.45.94-2.56v-.85c-.98,1.1-2.26,1.66-3.85,1.66-1.9,0-3.44-.74-4.62-2.23s-1.77-3.46-1.77-5.93v-.18Zm4.23.31c0,1.44.29,2.57.86,3.38.58.82,1.37,1.23,2.37,1.23,1.29,0,2.21-.48,2.77-1.45v-6.67c-.57-.97-1.48-1.45-2.74-1.45-1.02,0-1.81.42-2.39,1.25-.58.83-.87,2.07-.87,3.73Z"/>
    <path class="cls-1" d="m134.75,226.73c0-.63.21-1.16.64-1.57s1-.62,1.74-.62,1.3.21,1.73.62.64.93.64,1.57-.22,1.17-.65,1.58-1.01.62-1.72.62-1.29-.21-1.72-.62-.65-.94-.65-1.58Zm4.5,19.95h-4.25v-15.85h4.25v15.85Z"/>
    <path class="cls-1" d="m147.8,226.93v3.9h2.71v3.11h-2.71v7.91c0,.59.11,1.01.34,1.26s.65.38,1.29.38c.47,0,.88-.03,1.25-.1v3.21c-.83.25-1.68.38-2.56.38-2.97,0-4.48-1.5-4.54-4.5v-8.54h-2.31v-3.11h2.31v-3.9h4.23Z"/>
    <path class="cls-1" d="m162.06,246.68c-.2-.38-.34-.85-.42-1.42-1.03,1.14-2.36,1.71-4,1.71-1.55,0-2.84-.45-3.86-1.35s-1.53-2.03-1.53-3.4c0-1.68.62-2.97,1.87-3.87s3.04-1.35,5.4-1.36h1.95v-.91c0-.73-.19-1.32-.56-1.76s-.97-.66-1.78-.66c-.71,0-1.27.17-1.68.51s-.61.81-.61,1.41h-4.23c0-.92.28-1.77.85-2.55s1.37-1.39,2.4-1.84,2.2-.67,3.49-.67c1.95,0,3.5.49,4.65,1.47s1.72,2.36,1.72,4.14v6.87c0,1.5.22,2.64.63,3.41v.25h-4.28Zm-3.5-2.94c.62,0,1.2-.14,1.73-.42s.92-.65,1.17-1.12v-2.72h-1.58c-2.12,0-3.25.73-3.38,2.2v.25c-.01.53.17.96.54,1.3s.88.51,1.52.51Z"/>
    <path class="cls-1" d="m173.42,246.68h-4.25v-22.5h4.25v22.5Z"/>
  </g>
  <g>
    <polygon class="cls-2" points="172.1 148.08 168.01 148.08 167.64 148.1 166.97 148.39 166.47 148.93 166.19 149.63 166.17 150.02 166.19 150.41 166.47 151.11 166.97 151.65 167.64 151.94 168.01 151.96 172.1 151.96 172.47 151.94 173.14 151.65 173.62 151.11 173.9 150.41 173.92 150.02 173.9 149.63 173.62 148.93 173.14 148.39 172.47 148.1 172.1 148.08 172.1 148.08 172.1 148.08"/>
    <polygon class="cls-2" points="130.36 84.04 128.96 84.06 126.21 84.35 123.51 84.91 120.89 85.74 118.38 86.82 115.96 88.16 113.69 89.74 111.53 91.58 110.53 92.59 110.28 92.86 110.04 93.52 110.04 94.23 110.28 94.89 110.53 95.16 110.79 95.41 111.42 95.68 112.09 95.68 112.72 95.41 113.02 95.16 113.89 94.29 115.75 92.67 117.76 91.29 119.86 90.11 122.08 89.15 124.37 88.43 126.73 87.95 129.13 87.71 130.36 87.68 131.6 87.71 134 87.95 136.36 88.43 138.65 89.15 140.87 90.11 142.97 91.29 144.98 92.67 146.84 94.29 147.71 95.16 147.99 95.41 148.64 95.68 149.31 95.68 149.93 95.41 150.21 95.16 150.43 94.89 150.69 94.23 150.69 93.52 150.43 92.86 150.21 92.59 149.2 91.58 147.04 89.74 144.77 88.16 142.35 86.82 139.84 85.74 137.22 84.91 134.52 84.35 131.77 84.06 130.36 84.04 130.36 84.04 130.36 84.04"/>
    <polygon class="cls-2" points="144.39 100.96 144.64 100.67 144.88 99.97 144.88 99.22 144.64 98.51 144.39 98.22 143.64 97.41 142.1 96.02 140.46 94.81 138.71 93.82 136.93 93.01 135.1 92.4 133.22 92.01 131.32 91.8 129.41 91.8 127.53 92.01 125.65 92.4 123.8 93.01 122.03 93.82 120.29 94.81 118.65 96.02 117.09 97.41 116.36 98.22 116.11 98.51 115.85 99.22 115.85 99.97 116.11 100.67 116.36 100.96 116.62 101.23 117.28 101.5 117.95 101.5 118.59 101.23 118.86 100.96 119.46 100.32 120.74 99.18 122.09 98.2 123.52 97.35 124.97 96.7 126.49 96.21 128.03 95.89 129.58 95.73 131.16 95.73 132.72 95.89 134.24 96.21 135.76 96.7 137.23 97.35 138.64 98.2 140.01 99.18 141.29 100.32 141.89 100.96 142.16 101.23 142.79 101.5 143.47 101.5 144.13 101.23 144.39 100.96 144.39 100.96 144.39 100.96"/>
    <polygon class="cls-2" points="122.16 103.62 121.93 103.97 121.66 104.75 121.66 105.57 121.93 106.35 122.16 106.7 122.45 107 123.11 107.33 123.8 107.33 124.44 107 124.73 106.7 125.33 106.03 126.66 104.99 128.09 104.29 129.58 103.94 131.13 103.94 132.64 104.29 134.07 104.99 135.4 106.03 136 106.7 136.27 107 136.93 107.33 137.63 107.33 138.28 107 138.55 106.7 138.8 106.35 139.08 105.57 139.08 104.73 138.8 103.97 138.55 103.62 138.13 103.13 137.22 102.25 136.27 101.49 135.27 100.84 134.2 100.33 133.12 99.93 132.04 99.68 130.94 99.56 129.79 99.56 128.69 99.68 127.59 99.93 126.53 100.33 125.46 100.84 124.46 101.49 123.49 102.25 122.58 103.13 122.16 103.62 122.16 103.62 122.16 103.62"/>
    <polygon class="cls-2" points="145.14 124.79 145.48 124.76 146.08 124.5 146.55 124.05 146.8 123.42 146.82 123.08 146.8 122.74 146.55 122.12 146.08 121.67 145.48 121.4 145.14 121.38 92.13 121.38 92.13 75.79 170.54 75.79 170.54 92.13 170.55 92.47 170.81 93.08 171.28 93.53 171.87 93.8 172.22 93.82 172.56 93.8 173.17 93.53 173.65 93.08 173.9 92.47 173.92 92.13 173.92 75.64 173.9 75.32 173.77 74.69 173.54 74.09 173.17 73.59 172.74 73.14 172.22 72.79 171.64 72.54 171.01 72.4 170.68 72.4 91.99 72.4 91.66 72.4 91.03 72.54 90.45 72.79 89.93 73.14 89.47 73.59 89.13 74.09 88.88 74.69 88.75 75.32 88.75 75.64 88.75 121.53 88.75 121.85 88.88 122.48 89.13 123.08 89.47 123.58 89.93 124.05 90.45 124.39 91.03 124.65 91.66 124.77 91.99 124.79 145.14 124.79 145.14 124.79 145.14 124.79"/>
    <path class="cls-2" d="m184.16,97.28h-2.28v-26.89l-.02-.79-.31-1.49-.58-1.4-.81-1.23-1.03-1.05-1.23-.83-1.36-.59-1.48-.31-.8-.02h-85.9l-.8.02-1.46.31-1.36.59-1.23.83-1.03,1.05-.81,1.23-.58,1.4-.31,1.49-.02.79v58.44h-3l-.45.02-.89.18-.81.35-.74.5-.6.62-.49.72-.34.83-.18.92-.02.46.02.66.13,1.27.25,1.27.36,1.18.47,1.14.58,1.08.69,1.03.76.94.85.86.92.77.99.7,1.08.59,1.12.5,1.17.37,1.21.26,1.28.13h66.24v6.29l.02.53.22,1.07.4.96.56.85.72.72.83.57.94.4,1.01.2.54.04h27.52l.54-.04,1.01-.2.94-.4.85-.57.7-.72.58-.85.38-.96.22-1.07.02-.53v-49.84l-.02-.55-.22-1.05-.38-.96-.58-.85-.7-.72-.85-.57-.94-.4-1.01-.22-.54-.02h0Zm-99.98-26.89l.02-.42.16-.85.33-.75.45-.68.56-.57.67-.46.74-.35.83-.17.43-.02h85.9l.45.02.81.17.76.35.67.46.56.57.45.68.33.75.16.85.02.42v26.89h-21.85l-.54.02-1.01.22-.94.4-.83.57-.72.72-.56.85-.4.96-.22,1.05-.02.55v26.23h-67.22v-58.44h0Zm30.76,61.92h28.71v1.73l-.04.35-.25.62-.47.46-.6.28-.36.02h-25.3l-.34-.02-.61-.28-.45-.46-.27-.62-.02-.35v-1.73h0Zm-29.15,10.4h-.47l-.9-.11-.9-.18-.85-.26-.83-.35-.76-.44-1.08-.77-1.25-1.27-.76-1.08-.42-.79-.34-.83-.27-.88-.18-.9-.09-.94-.02-.48.02-.22.18-.4.29-.31.42-.18h33.97v1.73l.02.53.2,1.01.38.94.56.83.69.7.83.57.92.39.98.22.52.02h25.3l.52-.02.99-.22.94-.39.81-.57.69-.7.54-.83.4-.94.2-1.01.02-.53v-1.73h4.35v10.4h-65.61Zm100.22,9.74l-.04.37-.27.68-.51.51-.65.29-.38.02h-27.52l-.38-.02-.65-.29-.49-.51-.29-.68-.02-.37v-49.84l.02-.39.29-.66.49-.51.65-.29.38-.02h27.52l.38.02.65.29.51.51.27.66.04.39v49.84h0Z"/>
    <path class="cls-2" d="m178.65,103.45h-19.17l-.3.02-.59.13-.53.22-.48.34-.41.43-.32.5-.21.56-.12.63-.02.32v36.39l.02.32.12.62.21.56.32.5.41.41.48.37.53.22.59.13.3.02h19.17l.3-.02.59-.13.53-.22.48-.37.41-.41.32-.5.25-.56.12-.62v-37.02l-.12-.63-.25-.56-.32-.5-.41-.43-.48-.34-.53-.22-.59-.13-.3-.02h0Zm-.34,39.17h-18.47v-35.64h18.47v35.64h0Z"/>
  </g>
</svg>