<?xml version="1.0" encoding="UTF-8"?>
<svg id="Camada_1" data-name="Camada 1" xmlns="http://www.w3.org/2000/svg" viewBox="0 0 263.86 275.73">
  <defs>
    <style>
      .cls-1 {
        fill: #fff;
      }

      .cls-2 {
        fill: #094783;
        fill-rule: evenodd;
      }

      .cls-3 {
        fill: #27b8d4;
      }
    </style>
  </defs>
  <path class="cls-3" d="m59.74,0h175.69c15.69,0,28.43,12.74,28.43,28.43v187.56c0,32.97-26.77,59.74-59.74,59.74H59.74c-32.97,0-59.74-26.77-59.74-59.74V59.74C0,26.77,26.77,0,59.74,0Z"/>
  <g>
    <path class="cls-1" d="m96.04,202.87h-3.5v7.81h-4.39v-21.33h7.92c2.52,0,4.46.56,5.83,1.68s2.05,2.71,2.05,4.76c0,1.46-.32,2.67-.95,3.64s-1.58,1.75-2.86,2.32l4.61,8.72v.21h-4.72l-4-7.81Zm-3.5-3.56h3.54c1.1,0,1.96-.28,2.56-.84s.91-1.34.91-2.32-.29-1.8-.86-2.37-1.45-.86-2.63-.86h-3.53v6.4Z"/>
    <path class="cls-1" d="m114.31,210.97c-2.32,0-4.22-.71-5.68-2.14s-2.19-3.33-2.19-5.7v-.41c0-1.59.31-3.02.92-4.27s1.49-2.22,2.61-2.9,2.42-1.02,3.86-1.02c2.17,0,3.87.68,5.12,2.05s1.87,3.31,1.87,5.82v1.73h-10.09c.14,1.04.55,1.87,1.24,2.49s1.56.94,2.62.94c1.63,0,2.91-.59,3.82-1.77l2.08,2.33c-.63.9-1.49,1.6-2.58,2.1s-2.29.75-3.6.75Zm-.48-13.02c-.84,0-1.52.28-2.04.85s-.86,1.38-1,2.44h5.89v-.34c-.02-.94-.27-1.67-.76-2.19s-1.18-.77-2.08-.77Z"/>
    <path class="cls-1" d="m122.57,202.64c0-2.47.55-4.44,1.66-5.9s2.62-2.2,4.55-2.2c1.54,0,2.82.58,3.82,1.73v-8.09h4.25v22.5h-3.82l-.21-1.68c-1.05,1.32-2.41,1.98-4.07,1.98-1.87,0-3.36-.73-4.49-2.2s-1.69-3.51-1.69-6.13Zm4.23.31c0,1.49.26,2.63.78,3.42.52.79,1.27,1.19,2.26,1.19,1.31,0,2.23-.55,2.77-1.66v-6.26c-.53-1.1-1.44-1.66-2.74-1.66-2.04,0-3.06,1.66-3.06,4.97Z"/>
    <path class="cls-1" d="m147.43,210.97c-2.32,0-4.22-.71-5.68-2.14s-2.19-3.33-2.19-5.7v-.41c0-1.59.31-3.02.92-4.27s1.49-2.22,2.61-2.9,2.42-1.02,3.86-1.02c2.17,0,3.87.68,5.12,2.05s1.87,3.31,1.87,5.82v1.73h-10.09c.14,1.04.55,1.87,1.24,2.49s1.56.94,2.62.94c1.63,0,2.91-.59,3.82-1.77l2.08,2.33c-.63.9-1.49,1.6-2.58,2.1s-2.29.75-3.6.75Zm-.48-13.02c-.84,0-1.52.28-2.04.85s-.86,1.38-1,2.44h5.89v-.34c-.02-.94-.27-1.67-.76-2.19s-1.18-.77-2.08-.77Z"/>
    <path class="cls-1" d="m164.93,206.3c0-.52-.26-.93-.77-1.22s-1.33-.56-2.47-.8c-3.77-.79-5.65-2.39-5.65-4.8,0-1.41.58-2.58,1.75-3.52s2.69-1.41,4.58-1.41c2.01,0,3.62.47,4.83,1.42s1.81,2.18,1.81,3.69h-4.23c0-.61-.2-1.11-.59-1.5s-1-.59-1.83-.59c-.71,0-1.26.16-1.66.48s-.59.73-.59,1.23c0,.47.22.85.67,1.14s1.19.54,2.25.75,1.94.45,2.67.71c2.24.82,3.35,2.24,3.35,4.26,0,1.45-.62,2.61-1.86,3.51s-2.84,1.34-4.8,1.34c-1.33,0-2.51-.24-3.54-.71s-1.84-1.12-2.42-1.95-.88-1.72-.88-2.67h4.01c.04.75.32,1.33.83,1.73s1.21.6,2.08.6c.81,0,1.42-.15,1.84-.46s.62-.71.62-1.21Z"/>
    <path class="cls-1" d="m95.66,241.08c0-.83-.29-1.47-.88-1.91s-1.64-.91-3.16-1.41-2.73-.98-3.62-1.46c-2.42-1.31-3.63-3.07-3.63-5.29,0-1.15.32-2.18.97-3.08s1.58-1.61,2.8-2.12,2.58-.76,4.09-.76,2.88.28,4.07.83,2.12,1.33,2.78,2.34.99,2.15.99,3.43h-4.39c0-.98-.31-1.74-.92-2.28s-1.48-.81-2.59-.81-1.91.23-2.5.68-.89,1.05-.89,1.79c0,.69.35,1.27,1.05,1.74s1.73.91,3.08,1.32c2.5.75,4.32,1.68,5.46,2.8s1.71,2.5,1.71,4.16c0,1.85-.7,3.29-2.09,4.34s-3.28,1.57-5.64,1.57c-1.64,0-3.13-.3-4.48-.9s-2.38-1.42-3.08-2.47-1.06-2.26-1.06-3.63h4.41c0,2.35,1.41,3.53,4.22,3.53,1.04,0,1.86-.21,2.45-.64s.88-1.02.88-1.78Z"/>
    <path class="cls-1" d="m102.11,238.61c0-1.57.3-2.97.91-4.2s1.48-2.18,2.61-2.86,2.46-1.01,3.96-1.01c2.14,0,3.88.65,5.24,1.96s2.11,3.09,2.26,5.33l.03,1.08c0,2.43-.68,4.38-2.04,5.85s-3.18,2.2-5.46,2.2-4.11-.73-5.47-2.2-2.04-3.46-2.04-5.98v-.19Zm4.23.3c0,1.51.28,2.66.85,3.46.57.8,1.38,1.2,2.43,1.2s1.83-.39,2.4-1.18c.58-.79.86-2.05.86-3.78,0-1.48-.29-2.62-.86-3.43s-1.39-1.22-2.43-1.22-1.84.4-2.4,1.21-.85,2.06-.85,3.75Z"/>
    <path class="cls-1" d="m126.32,243.56c.78,0,1.42-.21,1.9-.64s.74-1,.76-1.71h3.97c0,1.07-.3,2.06-.88,2.95s-1.37,1.59-2.37,2.08-2.11.74-3.32.74c-2.27,0-4.05-.72-5.36-2.16s-1.96-3.43-1.96-5.97v-.28c0-2.44.65-4.39,1.95-5.84s3.08-2.18,5.35-2.18c1.98,0,3.57.56,4.77,1.69s1.8,2.63,1.82,4.5h-3.97c-.02-.82-.27-1.49-.76-2.01-.49-.52-1.13-.77-1.93-.77-.99,0-1.73.36-2.23,1.08-.5.72-.75,1.89-.75,3.5v.44c0,1.63.25,2.81.75,3.52s1.25,1.07,2.27,1.07Z"/>
    <path class="cls-1" d="m135.34,226.73c0-.63.21-1.16.64-1.57s1-.62,1.74-.62,1.3.21,1.73.62.64.93.64,1.57-.22,1.17-.65,1.58-1.01.62-1.72.62-1.29-.21-1.72-.62-.65-.94-.65-1.58Zm4.5,19.95h-4.25v-15.85h4.25v15.85Z"/>
    <path class="cls-1" d="m152.51,246.68c-.2-.38-.34-.85-.42-1.42-1.03,1.14-2.36,1.71-4,1.71-1.55,0-2.84-.45-3.86-1.35s-1.53-2.03-1.53-3.4c0-1.68.62-2.97,1.87-3.87s3.04-1.35,5.4-1.36h1.95v-.91c0-.73-.19-1.32-.56-1.76s-.97-.66-1.78-.66c-.71,0-1.27.17-1.68.51s-.61.81-.61,1.41h-4.23c0-.92.28-1.77.85-2.55s1.37-1.39,2.4-1.84,2.2-.67,3.49-.67c1.95,0,3.5.49,4.65,1.47s1.72,2.36,1.72,4.14v6.87c0,1.5.22,2.64.63,3.41v.25h-4.28Zm-3.5-2.94c.62,0,1.2-.14,1.73-.42s.92-.65,1.17-1.12v-2.72h-1.58c-2.12,0-3.25.73-3.38,2.2v.25c-.01.53.17.96.54,1.3s.88.51,1.52.51Z"/>
    <path class="cls-1" d="m159.38,226.73c0-.63.21-1.16.64-1.57s1-.62,1.74-.62,1.3.21,1.73.62.64.93.64,1.57-.22,1.17-.65,1.58-1.01.62-1.72.62-1.29-.21-1.72-.62-.65-.94-.65-1.58Zm4.5,19.95h-4.25v-15.85h4.25v15.85Z"/>
    <path class="cls-1" d="m175.95,242.3c0-.52-.26-.93-.77-1.22s-1.33-.56-2.47-.8c-3.77-.79-5.65-2.39-5.65-4.8,0-1.41.58-2.58,1.75-3.52s2.69-1.41,4.58-1.41c2.01,0,3.62.47,4.83,1.42s1.81,2.18,1.81,3.69h-4.23c0-.61-.2-1.11-.59-1.5s-1-.59-1.83-.59c-.71,0-1.26.16-1.66.48s-.59.73-.59,1.23c0,.47.22.85.67,1.14s1.19.54,2.25.75,1.94.45,2.67.71c2.24.82,3.35,2.24,3.35,4.26,0,1.45-.62,2.61-1.86,3.51s-2.84,1.34-4.8,1.34c-1.33,0-2.51-.24-3.54-.71s-1.84-1.12-2.42-1.95-.88-1.72-.88-2.67h4.01c.04.75.32,1.33.83,1.73s1.21.6,2.08.6c.81,0,1.42-.15,1.84-.46s.62-.71.62-1.21Z"/>
  </g>
  <g>
    <path class="cls-2" d="m138.92,138.08h-3.31v-16.31l-.02-.33-.26-.59-.46-.46-.59-.26-.33-.02-.34.02-.59.26-.46.46-.26.59-.02.33v16.31h-43.12v-33.26h13.8l.33-.03.61-.26.44-.44.26-.59.02-.34-.02-.33-.26-.59-.44-.46-.61-.26-.33-.02h-15.45l-.34.02-.59.26-.46.46-.26.59-.02.33v34.93h-3.31l-.33.02-.61.26-.44.44-.26.61-.02.33v3.76l.1.82.16.82.23.77.31.76.38.69.7,1,1.11,1.12,1,.71.69.38.75.31.77.23.82.16.82.11h44.01l.82-.11.82-.16.77-.23.75-.31.69-.38,1-.71,1.11-1.12.7-1,.38-.69.31-.76.23-.77.16-.82.11-.82v-3.76l-.03-.33-.26-.61-.44-.44-.59-.26-.34-.02h0Zm-1.65,4.98l-.02.53-.2.95-.38.9-.54.8-.67.67-.8.54-.9.38-.95.2-.52.02h-3.31v-1.66l-.02-.33-.26-.61-.46-.44-.59-.26-.33-.02-.34.02-.59.26-.46.44-.26.61-.02.33v1.66h-29.85v-1.66l-.02-.33-.26-.61-.46-.44-.59-.26-.33-.02-.34.02-.59.26-.46.44-.26.61-.02.33v1.66h-3.31l-.52-.02-.95-.2-.9-.38-.8-.54-.67-.67-.54-.8-.38-.9-.2-.95-.02-.53v-1.66h53.08v1.66h0Z"/>
    <polygon class="cls-2" points="167.23 60.76 170.7 60.76 171.04 60.75 171.68 60.5 172.15 60.05 172.42 59.49 172.44 59.17 172.42 58.85 172.15 58.27 171.68 57.85 171.04 57.59 170.7 57.58 167.23 57.58 166.68 57.59 165.66 57.78 164.73 58.14 163.89 58.65 163.18 59.31 162.62 60.07 162.22 60.94 162.01 61.87 162 62.36 162 63.97 160.26 63.97 159.9 63.98 159.28 64.23 158.8 64.66 158.52 65.24 158.5 65.56 158.52 65.88 158.8 66.44 159.28 66.89 159.9 67.14 160.26 67.15 162 67.15 162 71.95 162.01 72.27 162.29 72.83 162.75 73.27 163.39 73.53 163.73 73.54 164.08 73.53 164.71 73.27 165.18 72.83 165.45 72.27 165.47 71.95 165.47 67.15 167.23 67.15 167.57 67.14 168.19 66.89 168.67 66.44 168.95 65.88 168.96 65.56 168.95 65.24 168.67 64.66 168.19 64.23 167.57 63.98 167.23 63.97 165.47 63.97 165.47 62.36 165.49 62.04 165.76 61.47 166.25 61.03 166.86 60.78 167.23 60.76 167.23 60.76 167.23 60.76"/>
    <polygon class="cls-2" points="175.42 51.59 155.52 51.59 155 51.61 154.05 51.8 153.15 52.18 152.34 52.71 151.67 53.4 151.13 54.19 150.75 55.09 150.56 56.06 150.54 56.57 150.54 59.9 150.56 60.23 150.82 60.82 151.28 61.28 151.87 61.55 152.2 61.56 152.54 61.55 153.13 61.28 153.57 60.82 153.83 60.23 153.87 59.9 153.87 56.57 153.88 56.24 154.14 55.65 154.59 55.19 155.19 54.92 155.52 54.91 175.42 54.91 175.75 54.92 176.34 55.19 176.8 55.65 177.06 56.24 177.08 56.57 177.08 76.53 177.06 76.88 176.8 77.47 176.34 77.91 175.75 78.17 175.42 78.21 155.52 78.21 155.19 78.17 154.59 77.91 154.14 77.47 153.88 76.88 153.87 76.53 153.87 66.56 153.83 66.23 153.57 65.62 153.13 65.18 152.54 64.91 152.2 64.9 151.87 64.91 151.28 65.18 150.82 65.62 150.56 66.23 150.54 66.56 150.54 76.53 150.56 77.06 150.75 78.01 151.13 78.91 151.67 79.72 152.34 80.39 153.15 80.93 154.05 81.31 155 81.51 155.52 81.53 175.42 81.53 175.93 81.51 176.9 81.31 177.8 80.93 178.58 80.39 179.27 79.72 179.79 78.91 180.17 78.01 180.37 77.06 180.4 76.53 180.4 56.57 180.37 56.06 180.17 55.09 179.79 54.19 179.27 53.4 178.58 52.71 177.8 52.18 176.9 51.8 175.93 51.61 175.42 51.59 175.42 51.59 175.42 51.59"/>
    <path class="cls-2" d="m158.5,117.45l.02.44.15.89.31.83.43.8.55.72.69.64.77.58.89.44.48.19.5.15,1,.22,1.01.09,1.01-.06,1-.16.95-.3.91-.4.84-.53.38-.31.36-.33.6-.72.48-.77.34-.83.19-.86.05-.87-.09-.86-.26-.87-.17-.41-.22-.43-.53-.75-.65-.68-.76-.58-.83-.49-.93-.37-.98-.25-1.01-.13h-.53s-.71,0-.71,0l-1.36.24-1.26.46-1.12.65-.95.8-.74.96-.55,1.08-.28,1.17-.02.62h0Zm10.46,0v.25l-.09.46-.26.64-.58.71-.77.53-.91.31-.98.1-1-.15-.71-.3-.43-.28-.22-.18-.21-.18-.31-.37-.34-.62-.17-.84.12-.84.36-.78.62-.67.83-.5.74-.22.53-.07h.67s.67.13.67.13l.6.22.57.33.48.41.36.47.28.53.14.58.02.33h0Z"/>
    <polygon class="cls-2" points="175.42 103.48 155.52 103.48 155 103.5 154.05 103.69 153.15 104.09 152.34 104.61 151.67 105.3 151.13 106.09 150.75 106.99 150.56 107.96 150.54 108.47 150.54 128.42 150.56 128.93 150.75 129.9 151.13 130.81 151.67 131.59 152.34 132.28 153.15 132.81 154.05 133.2 155 133.4 155.52 133.42 175.42 133.42 175.93 133.4 176.9 133.2 177.8 132.81 178.58 132.28 179.27 131.59 179.79 130.81 180.17 129.9 180.37 128.93 180.4 128.42 180.4 125.11 180.37 124.76 180.11 124.17 179.66 123.71 179.07 123.45 178.73 123.43 178.4 123.45 177.81 123.71 177.35 124.17 177.09 124.76 177.08 125.11 177.08 128.42 177.06 128.75 176.8 129.36 176.34 129.8 175.75 130.07 175.42 130.08 155.52 130.08 155.19 130.07 154.59 129.8 154.14 129.36 153.88 128.75 153.87 128.42 153.87 108.47 153.88 108.14 154.14 107.54 154.59 107.09 155.19 106.83 155.52 106.81 175.42 106.81 175.75 106.83 176.34 107.09 176.8 107.54 177.06 108.14 177.08 108.47 177.08 118.46 177.09 118.78 177.35 119.38 177.81 119.84 178.4 120.1 178.73 120.11 179.07 120.1 179.66 119.84 180.11 119.38 180.37 118.78 180.4 118.46 180.4 108.47 180.37 107.96 180.17 106.99 179.79 106.09 179.27 105.3 178.58 104.61 177.8 104.09 176.9 103.69 175.93 103.5 175.42 103.48 175.42 103.48 175.42 103.48"/>
    <path class="cls-2" d="m117.53,71.27l.21.12.47.12.24.03.21-.03.4-.09.19-.09,10.46-5.23.22-.12.36-.36.24-.4.12-.45v-.47l-.12-.45-.24-.4-.36-.36-.22-.12-10.46-5.23-.22-.1-.45-.09-.43.03-.41.12-.38.22-.29.31-.21.36-.12.45-.02.24v10.47l.02.22.1.43.21.38.29.33.21.12h0Zm2.67-9.12l4.81,2.41-4.81,2.4v-4.81h0Z"/>
    <path class="cls-2" d="m121.68,79.53h.56l1.11-.08,1.1-.16,1.08-.26,1.03-.33,1.03-.38.98-.49.95-.53.88-.59.87-.67.8-.72.75-.8.7-.85.62-.89.59-.95.49-1,.21-.53.21-.53.36-1.05.26-1.08.18-1.1.11-1.08.02-1.1-.05-1.08-.13-1.07-.21-1.08-.29-1.05-.36-1.02-.44-1-.52-.97-.57-.94-.66-.9-.74-.84-.39-.39-.41-.41-.84-.72-.9-.67-.93-.57-.95-.53-1.02-.44-1.02-.36-1.05-.28-1.07-.23-1.07-.13-1.1-.05-1.1.02-1.08.11-1.1.18-1.07.28-1.07.34-.52.21-.52.21-1,.51-.93.57-.9.64-.85.69-.79.77-.74.79-.66.87-.61.9-.52.94-.49.99-.38,1.03-.33,1.05-.25,1.07-.16,1.1-.08,1.12v.57l.02.76.15,1.51.29,1.46.43,1.41.57,1.33.69,1.28.82,1.2.9,1.1,1.02,1.02,1.1.92,1.2.8,1.28.71,1.33.56,1.41.43,1.46.31,1.51.15.77.02h0Zm0-26.6l.87.02,1.72.26,1.62.49,1.52.74,1.39.94,1.26,1.13,1.1,1.31.88,1.49.36.79.31.82.41,1.68.16,1.71-.1,1.69-.33,1.66-.56,1.59-.8,1.51-1.03,1.4-.59.64-.64.59-1.39,1.03-1.51.8-1.59.56-1.66.33-1.67.08-1.72-.15-1.67-.41-.82-.31-.79-.38-1.47-.87-1.31-1.1-1.15-1.26-.93-1.4-.72-1.53-.51-1.64-.26-1.71-.02-.87.02-.61.11-1.18.23-1.13.34-1.1.44-1.03.52-.99.64-.94.7-.85.79-.79.87-.72.92-.62.98-.53,1.05-.46,1.1-.33,1.11-.23,1.18-.11.61-.02h0Z"/>
    <polygon class="cls-2" points="138.21 85.52 138.39 85.52 138.75 85.42 139.08 85.26 139.37 84.99 139.48 84.85 144.24 78.21 144.41 77.93 144.57 77.31 144.48 76.67 144.16 76.11 143.93 75.9 143.66 75.7 143.05 75.54 142.45 75.64 141.9 75.98 141.7 76.23 136.94 82.86 136.76 83.14 136.61 83.76 136.7 84.4 137.01 84.96 137.27 85.19 137.47 85.34 137.95 85.5 138.21 85.52 138.21 85.52 138.21 85.52"/>
    <polygon class="cls-2" points="142.92 92.86 143.04 93 143.33 93.25 143.69 93.41 144.05 93.5 144.25 93.5 144.51 93.49 145.03 93.33 145.24 93.19 151.86 88.41 152.11 88.2 152.43 87.65 152.53 87.06 152.37 86.44 152.19 86.18 151.98 85.94 151.4 85.63 150.78 85.52 150.15 85.69 149.87 85.86 143.25 90.64 143 90.85 142.68 91.38 142.58 91.99 142.74 92.59 142.92 92.86 142.92 92.86 142.92 92.86"/>
    <polygon class="cls-2" points="158.45 95.13 158.37 94.75 158.01 94.06 157.46 93.66 156.8 93.5 156.46 93.56 148.1 95.52 147.75 95.58 147.17 95.97 146.77 96.55 146.56 97.27 146.58 97.7 146.63 98.09 146.96 98.77 147.45 99.25 148.06 99.49 148.43 99.47 148.76 99.47 157.12 97.51 157.46 97.39 158.02 96.96 158.37 96.32 158.5 95.54 158.45 95.13 158.45 95.13 158.45 95.13"/>
    <path class="cls-2" d="m82.57,95.5h20.48l.34-.02.61-.26.47-.44.27-.61.02-.33v-26.62l-.02-.33-.27-.61-.47-.44-.61-.26-.34-.02h-20.48l-.34.02-.62.26-.46.44-.27.61-.02.33v26.62l.02.33.27.61.46.44.62.26.34.02h0Zm1.7-26.62h17.08v23.3h-17.08v-23.3h0Z"/>
    <polygon class="cls-2" points="95.3 73.54 92.31 73.54 92.02 73.55 91.49 73.71 91.07 73.98 90.84 74.34 90.82 74.54 90.84 74.74 91.07 75.1 91.49 75.37 92.02 75.53 92.31 75.54 95.3 75.54 95.6 75.53 96.13 75.37 96.54 75.1 96.78 74.74 96.79 74.54 96.78 74.34 96.54 73.98 96.13 73.71 95.6 73.55 95.3 73.54 95.3 73.54 95.3 73.54"/>
    <polygon class="cls-2" points="95.47 79.53 90.16 79.53 89.89 79.55 89.41 79.87 89.05 80.4 88.84 81.13 88.83 81.53 88.84 81.92 89.05 82.65 89.41 83.19 89.89 83.5 90.16 83.52 95.47 83.52 95.73 83.5 96.2 83.19 96.57 82.65 96.78 81.92 96.79 81.53 96.78 81.13 96.57 80.4 96.2 79.87 95.73 79.55 95.47 79.53 95.47 79.53 95.47 79.53"/>
    <polygon class="cls-2" points="95.47 85.52 90.16 85.52 89.89 85.54 89.41 85.85 89.05 86.39 88.84 87.12 88.83 87.51 88.84 87.91 89.05 88.64 89.41 89.17 89.89 89.49 90.16 89.51 95.47 89.51 95.73 89.49 96.2 89.17 96.57 88.64 96.78 87.91 96.79 87.51 96.78 87.12 96.57 86.39 96.2 85.85 95.73 85.54 95.47 85.52 95.47 85.52 95.47 85.52"/>
    <path class="cls-2" d="m138.02,94.91l-.18-.28-.53-.41-.63-.16-.64.08-.31.15-.28.2-.4.52-.16.6.08.65.15.29,7.35,12.58-26.71,9.88h-.25l-4.34,2.47-2.89,1.64-.3.15-.63.23-.63.08-.68-.03-.31-.08-.31-.11-.59-.28-.51-.39-.43-.47-.18-.29-3.33-5.7-.15-.29-.16-.62-.07-.6.07-.62.16-.59.26-.54.38-.5.48-.41.28-.18,5.77-3.3,4.17,7.14.12.18.33.31.36.21.43.1.21.02.25-.02.43-.11.36-.21.3-.29.23-.36.12-.41v-.42l-.1-.42-.12-.23-4.32-7.34,20.95-17.06.69,1.17.18.28.53.39.63.16.64-.08.3-.15.28-.18.41-.52.16-.62-.08-.63-.15-.29-1.68-2.86-.2-.29-.59-.41-.35-.08-.2-.03-.36.02-.35.08-.31.16-.15.11-23.38,19.01-7.11,4.07-.49.29-.84.68-.73.83-.54.91-.43.98-.23,1.06-.07,1.07.12,1.09.13.54-1.67.94-.35.21-.63.49-.51.55-.4.6-.31.65-.21.67-.1.72v.68l.08.7.2.67.28.65.38.6.45.55.56.47.64.41.73.33.4.11.31.08.66.08h.33l.33-.02.66-.08.61-.16.63-.24.28-.16,1.67-.93.3.29.69.52.73.44.79.34.41.11.45.11.86.11h.46l.43-.02.87-.1.84-.23.81-.33.38-.21,1.45-.83,3.35,5.71.26.44.66.73.77.59.87.41.92.24.96.07.97-.11.96-.31.45-.23.43-.28.76-.65.58-.78.45-.85.25-.91.07-.96-.13-.94-.31-.94-.25-.46-3.03-5.21,25.04-9.29.16-.07.3-.2.25-.24.2-.31.07-.16.12-.36-.08-.68-.15-.33-8.31-14.24h0Zm-39.42,28.16l-.31.15-.64.08-.31-.07-.33-.1-.51-.39-.18-.26-.15-.29-.08-.65.07-.31.1-.31.4-.52.28-.18,1.45-.83,1.68,2.86-1.45.81h0Zm21.96,4.62l.15.29.08.63-.07.33-.12.31-.4.49-.26.18-.31.16-.64.08-.63-.18-.51-.37-.18-.28-3.35-5.71,2.77-1.58h.15l3.31,5.65h0Z"/>
  </g>
</svg>