<svg xmlns="http://www.w3.org/2000/svg" xmlns:xlink="http://www.w3.org/1999/xlink" width="40.296" height="40.296" viewBox="0 0 40.296 40.296">
  <defs>
    <clipPath id="clip-path">
      <path id="Caminho_5514" data-name="Caminho 5514" d="M173.46,0a20.148,20.148,0,1,0,20.148,20.149A20.148,20.148,0,0,0,173.46,0Z" transform="translate(-153.312)" fill="none"/>
    </clipPath>
  </defs>
  <g id="Grupo_1071" data-name="Grupo 1071" transform="translate(-717.158 -5280.727)">
    <g id="Grupo_990" data-name="Grupo 990" transform="translate(717.158 5280.727)">
      <g id="Grupo_989" data-name="Grupo 989" clip-path="url(#clip-path)">
        <path id="Caminho_5158" data-name="Caminho 5158" d="M158.217,0l-4.905,5.808V0Z" transform="translate(-153.312 0)" fill="#ffe185"/>
        <path id="Caminho_5159" data-name="Caminho 5159" d="M158.4,0l-5.087,6.024V5.808L158.217,0Z" transform="translate(-153.312 0)" fill="#ffe185"/>
        <path id="Caminho_5160" data-name="Caminho 5160" d="M158.581,0l-5.27,6.239V6.024L158.4,0Z" transform="translate(-153.312 0)" fill="#ffe184"/>
        <path id="Caminho_5161" data-name="Caminho 5161" d="M158.763,0l-5.451,6.454V6.239L158.581,0Z" transform="translate(-153.312 0)" fill="#ffe083"/>
        <path id="Caminho_5162" data-name="Caminho 5162" d="M158.945,0l-5.633,6.669V6.454L158.763,0Z" transform="translate(-153.312 0)" fill="#ffe082"/>
        <path id="Caminho_5163" data-name="Caminho 5163" d="M159.127,0l-5.815,6.886V6.669L158.945,0Z" transform="translate(-153.312 0)" fill="#ffdf81"/>
        <path id="Caminho_5164" data-name="Caminho 5164" d="M159.309,0l-6,7.1V6.886L159.127,0Z" transform="translate(-153.312 0)" fill="#ffdf80"/>
        <path id="Caminho_5165" data-name="Caminho 5165" d="M159.491,0l-6.18,7.316V7.1l6-7.1Z" transform="translate(-153.312 0)" fill="#ffde7f"/>
        <path id="Caminho_5166" data-name="Caminho 5166" d="M159.673,0l-6.361,7.531V7.316L159.491,0Z" transform="translate(-153.312 0)" fill="#ffde7e"/>
        <path id="Caminho_5167" data-name="Caminho 5167" d="M159.855,0l-6.543,7.747V7.531L159.673,0Z" transform="translate(-153.312 0)" fill="#ffdd7d"/>
        <path id="Caminho_5168" data-name="Caminho 5168" d="M160.037,0l-6.725,7.962V7.747L159.855,0Z" transform="translate(-153.312 0)" fill="#ffdd7c"/>
        <path id="Caminho_5169" data-name="Caminho 5169" d="M160.219,0l-6.907,8.178V7.962L160.037,0Z" transform="translate(-153.312 0)" fill="#ffdc7b"/>
        <path id="Caminho_5170" data-name="Caminho 5170" d="M160.4,0l-7.088,8.394V8.178L160.219,0Z" transform="translate(-153.312 0)" fill="#ffdc7a"/>
        <path id="Caminho_5171" data-name="Caminho 5171" d="M160.583,0l-7.271,8.609V8.394L160.4,0Z" transform="translate(-153.312 0)" fill="#ffdb79"/>
        <path id="Caminho_5172" data-name="Caminho 5172" d="M160.765,0l-7.453,8.824V8.609L160.583,0Z" transform="translate(-153.312 0)" fill="#ffdb78"/>
        <path id="Caminho_5173" data-name="Caminho 5173" d="M160.947,0l-7.635,9.039V8.824L160.765,0Z" transform="translate(-153.312 0)" fill="#ffda77"/>
        <path id="Caminho_5174" data-name="Caminho 5174" d="M161.129,0l-7.816,9.255V9.039L160.946,0Z" transform="translate(-153.312 0)" fill="#ffda76"/>
        <path id="Caminho_5175" data-name="Caminho 5175" d="M161.311,0l-8,9.471V9.255L161.128,0Z" transform="translate(-153.312 0)" fill="#ffd975"/>
        <path id="Caminho_5176" data-name="Caminho 5176" d="M161.493,0l-8.181,9.686V9.471l8-9.471Z" transform="translate(-153.312 0)" fill="#ffd974"/>
        <path id="Caminho_5177" data-name="Caminho 5177" d="M161.675,0l-8.363,9.9V9.686L161.492,0Z" transform="translate(-153.312 0)" fill="#ffd873"/>
        <path id="Caminho_5178" data-name="Caminho 5178" d="M161.857,0l-8.545,10.117V9.9L161.674,0Z" transform="translate(-153.312 0)" fill="#ffd872"/>
        <path id="Caminho_5179" data-name="Caminho 5179" d="M162.038,0l-8.726,10.332v-.215L161.856,0Z" transform="translate(-153.312 0)" fill="#ffd771"/>
        <path id="Caminho_5180" data-name="Caminho 5180" d="M162.22,0l-8.908,10.547v-.215L162.038,0Z" transform="translate(-153.312 0)" fill="#ffd770"/>
        <path id="Caminho_5181" data-name="Caminho 5181" d="M162.4,0l-9.091,10.764v-.216L162.22,0Z" transform="translate(-153.312 0)" fill="#ffd66f"/>
        <path id="Caminho_5182" data-name="Caminho 5182" d="M162.584,0l-9.273,10.979v-.215L162.4,0Z" transform="translate(-153.312 0)" fill="#ffd66e"/>
        <path id="Caminho_5183" data-name="Caminho 5183" d="M162.766,0l-9.454,11.194v-.215L162.584,0Z" transform="translate(-153.312 0)" fill="#ffd56d"/>
        <path id="Caminho_5184" data-name="Caminho 5184" d="M162.948,0l-9.636,11.409v-.215L162.766,0Z" transform="translate(-153.312 0)" fill="#ffd56c"/>
        <path id="Caminho_5185" data-name="Caminho 5185" d="M163.13,0l-9.818,11.625v-.215L162.948,0Z" transform="translate(-153.312 0)" fill="#ffd46b"/>
        <path id="Caminho_5186" data-name="Caminho 5186" d="M163.312,0l-10,11.84v-.215L163.13,0Z" transform="translate(-153.312 0)" fill="#ffd46a"/>
        <path id="Caminho_5187" data-name="Caminho 5187" d="M163.494,0,153.311,12.056V11.84l10-11.84Z" transform="translate(-153.312 0)" fill="#ffd369"/>
        <path id="Caminho_5188" data-name="Caminho 5188" d="M163.676,0,153.312,12.271v-.215L163.494,0Z" transform="translate(-153.312 0)" fill="#ffd368"/>
        <path id="Caminho_5189" data-name="Caminho 5189" d="M163.858,0,153.312,12.487v-.215L163.676,0Z" transform="translate(-153.312 0)" fill="#ffd267"/>
        <path id="Caminho_5190" data-name="Caminho 5190" d="M164.04,0,153.312,12.7v-.215L163.858,0Z" transform="translate(-153.312 0)" fill="#ffd266"/>
        <path id="Caminho_5191" data-name="Caminho 5191" d="M164.222,0,153.312,12.917V12.7L164.04,0Z" transform="translate(-153.312 0)" fill="#ffd165"/>
        <path id="Caminho_5192" data-name="Caminho 5192" d="M164.4,0,153.312,13.132v-.215L164.222,0Z" transform="translate(-153.312 0)" fill="#ffd164"/>
        <path id="Caminho_5193" data-name="Caminho 5193" d="M164.586,0,153.312,13.349v-.216L164.4,0Z" transform="translate(-153.312 0)" fill="#ffd063"/>
        <path id="Caminho_5194" data-name="Caminho 5194" d="M164.768,0,153.312,13.564v-.215L164.586,0Z" transform="translate(-153.312 0)" fill="#ffd062"/>
        <path id="Caminho_5195" data-name="Caminho 5195" d="M164.95,0,153.312,13.779v-.215L164.768,0Z" transform="translate(-153.312 0)" fill="#ffcf61"/>
        <path id="Caminho_5196" data-name="Caminho 5196" d="M165.132,0,153.312,13.995v-.215L164.95,0Z" transform="translate(-153.312 0)" fill="#ffcf60"/>
        <path id="Caminho_5197" data-name="Caminho 5197" d="M165.314,0l-12,14.21v-.215L165.132,0Z" transform="translate(-153.312 0)" fill="#ffce5f"/>
        <path id="Caminho_5198" data-name="Caminho 5198" d="M165.5,0,153.312,14.425V14.21l12-14.21Z" transform="translate(-153.312 0)" fill="#ffce5e"/>
        <path id="Caminho_5199" data-name="Caminho 5199" d="M165.678,0,153.312,14.642v-.216L165.5,0Z" transform="translate(-153.312 0)" fill="#ffce5c"/>
        <path id="Caminho_5200" data-name="Caminho 5200" d="M165.86,0,153.311,14.857v-.215L165.678,0Z" transform="translate(-153.312 0)" fill="#ffcd5b"/>
        <path id="Caminho_5201" data-name="Caminho 5201" d="M166.042,0,153.312,15.072v-.215L165.859,0Z" transform="translate(-153.312 0)" fill="#ffcd5a"/>
        <path id="Caminho_5202" data-name="Caminho 5202" d="M166.224,0,153.312,15.287v-.215L166.041,0Z" transform="translate(-153.312 0)" fill="#ffcc59"/>
        <path id="Caminho_5203" data-name="Caminho 5203" d="M166.406,0,153.312,15.5v-.215L166.223,0Z" transform="translate(-153.312 0)" fill="#ffcc58"/>
        <path id="Caminho_5204" data-name="Caminho 5204" d="M166.588,0,153.312,15.718V15.5L166.405,0Z" transform="translate(-153.312 0)" fill="#ffcb57"/>
        <path id="Caminho_5205" data-name="Caminho 5205" d="M166.769,0,153.312,15.934v-.216L166.587,0Z" transform="translate(-153.312 0)" fill="#ffcb56"/>
        <path id="Caminho_5206" data-name="Caminho 5206" d="M166.951,0,153.312,16.149v-.215L166.769,0Z" transform="translate(-153.312 0)" fill="#ffca55"/>
        <path id="Caminho_5207" data-name="Caminho 5207" d="M167.133,0,153.312,16.365v-.215L166.951,0Z" transform="translate(-153.312 0)" fill="#ffca54"/>
        <path id="Caminho_5208" data-name="Caminho 5208" d="M167.315,0l-14,16.58v-.215L167.133,0Z" transform="translate(-153.312 0)" fill="#ffc953"/>
        <path id="Caminho_5209" data-name="Caminho 5209" d="M167.5,0,153.312,16.8V16.58l14-16.58Z" transform="translate(-153.312 0)" fill="#ffc952"/>
        <path id="Caminho_5210" data-name="Caminho 5210" d="M167.679,0,153.312,17.01V16.8L167.5,0Z" transform="translate(-153.312 0)" fill="#ffc851"/>
        <path id="Caminho_5211" data-name="Caminho 5211" d="M167.861,0,153.312,17.227V17.01L167.679,0Z" transform="translate(-153.312 0)" fill="#ffc850"/>
        <path id="Caminho_5212" data-name="Caminho 5212" d="M168.043,0,153.312,17.442v-.215L167.861,0Z" transform="translate(-153.312 0)" fill="#ffc74f"/>
        <path id="Caminho_5213" data-name="Caminho 5213" d="M168.225,0,153.311,17.657v-.215L168.043,0Z" transform="translate(-153.312 0)" fill="#ffc74e"/>
        <path id="Caminho_5214" data-name="Caminho 5214" d="M168.407,0,153.312,17.873v-.215L168.225,0Z" transform="translate(-153.312 0)" fill="#ffc64d"/>
        <path id="Caminho_5215" data-name="Caminho 5215" d="M168.589,0,153.312,18.088v-.215L168.407,0Z" transform="translate(-153.312 0)" fill="#ffc64c"/>
        <path id="Caminho_5216" data-name="Caminho 5216" d="M168.771,0,153.312,18.3v-.215L168.589,0Z" transform="translate(-153.312 0)" fill="#ffc54b"/>
        <path id="Caminho_5217" data-name="Caminho 5217" d="M168.953,0,153.312,18.519V18.3L168.771,0Z" transform="translate(-153.312 0)" fill="#ffc54a"/>
        <path id="Caminho_5218" data-name="Caminho 5218" d="M169.135,0,153.312,18.735v-.215L168.953,0Z" transform="translate(-153.312 0)" fill="#ffc449"/>
        <path id="Caminho_5219" data-name="Caminho 5219" d="M169.317,0l-16,18.95v-.215L169.135,0Z" transform="translate(-153.312 0)" fill="#ffc448"/>
        <path id="Caminho_5220" data-name="Caminho 5220" d="M169.5,0,153.312,19.165V18.95l16-18.95Z" transform="translate(-153.312 0)" fill="#ffc347"/>
        <path id="Caminho_5221" data-name="Caminho 5221" d="M169.681,0,153.312,19.38v-.215L169.5,0Z" transform="translate(-153.312 0)" fill="#ffc346"/>
        <path id="Caminho_5222" data-name="Caminho 5222" d="M169.863,0,153.311,19.6V19.38L169.681,0Z" transform="translate(-153.312 0)" fill="#ffc245"/>
        <path id="Caminho_5223" data-name="Caminho 5223" d="M170.045,0,153.312,19.812V19.6L169.862,0Z" transform="translate(-153.312 0)" fill="#ffc244"/>
        <path id="Caminho_5224" data-name="Caminho 5224" d="M170.227,0,153.312,20.027v-.215L170.044,0Z" transform="translate(-153.312 0)" fill="#ffc143"/>
        <path id="Caminho_5225" data-name="Caminho 5225" d="M170.409,0l-17.1,20.243v-.215L170.227,0Z" transform="translate(-153.312 0)" fill="#ffc142"/>
        <path id="Caminho_5226" data-name="Caminho 5226" d="M170.591,0,153.312,20.458v-.215L170.409,0Z" transform="translate(-153.312 0)" fill="#ffc041"/>
        <path id="Caminho_5227" data-name="Caminho 5227" d="M170.773,0l-17.46,20.673v-.215L170.59,0Z" transform="translate(-153.312 0)" fill="#ffc040"/>
        <path id="Caminho_5228" data-name="Caminho 5228" d="M170.955,0,153.312,20.888v-.215L170.772,0Z" transform="translate(-153.312 0)" fill="#ffbf3f"/>
        <path id="Caminho_5229" data-name="Caminho 5229" d="M171.137,0,153.312,21.1v-.216L170.954,0Z" transform="translate(-153.312 0)" fill="#ffbf3e"/>
        <path id="Caminho_5230" data-name="Caminho 5230" d="M171.319,0,153.312,21.32V21.1L171.136,0Z" transform="translate(-153.312 0)" fill="#ffbe3d"/>
        <path id="Caminho_5231" data-name="Caminho 5231" d="M171.5,0,153.312,21.535V21.32L171.318,0Z" transform="translate(-153.312 0)" fill="#ffbe3c"/>
        <path id="Caminho_5232" data-name="Caminho 5232" d="M171.682,0l-18.37,21.75v-.215L171.5,0Z" transform="translate(-153.312 0)" fill="#ffbd3b"/>
        <path id="Caminho_5233" data-name="Caminho 5233" d="M171.864,0,153.312,21.966V21.75L171.682,0Z" transform="translate(-153.312 0)" fill="#ffbd3a"/>
        <path id="Caminho_5234" data-name="Caminho 5234" d="M172.046,0,153.312,22.181v-.215L171.864,0Z" transform="translate(-153.312 0)" fill="#ffbc39"/>
        <path id="Caminho_5235" data-name="Caminho 5235" d="M172.228,0,153.311,22.4v-.216L172.046,0Z" transform="translate(-153.312 0)" fill="#ffbc38"/>
        <path id="Caminho_5236" data-name="Caminho 5236" d="M172.41,0l-19.1,22.613V22.4L172.228,0Z" transform="translate(-153.312 0)" fill="#ffbb37"/>
        <path id="Caminho_5237" data-name="Caminho 5237" d="M172.592,0l-19.28,22.828v-.215L172.41,0Z" transform="translate(-153.312 0)" fill="#ffbb36"/>
        <path id="Caminho_5238" data-name="Caminho 5238" d="M172.7,0l-19.39,22.956v-.129L172.592,0Z" transform="translate(-153.312 0)" fill="#ffbb36"/>
        <path id="Caminho_5239" data-name="Caminho 5239" d="M172.81,0l-19.5,23.085v-.129L172.7,0Z" transform="translate(-153.312 0)" fill="#ffba37"/>
        <path id="Caminho_5240" data-name="Caminho 5240" d="M172.919,0,153.312,23.214v-.129L172.809,0Z" transform="translate(-153.312 0)" fill="#ffb937"/>
        <path id="Caminho_5241" data-name="Caminho 5241" d="M173.027,0,153.312,23.344v-.13L172.918,0Z" transform="translate(-153.312 0)" fill="#ffb838"/>
        <path id="Caminho_5242" data-name="Caminho 5242" d="M173.136,0,153.312,23.472v-.129L173.027,0Z" transform="translate(-153.312 0)" fill="#ffb738"/>
        <path id="Caminho_5243" data-name="Caminho 5243" d="M173.245,0,153.312,23.6v-.129L173.136,0Z" transform="translate(-153.312 0)" fill="#ffb639"/>
        <path id="Caminho_5244" data-name="Caminho 5244" d="M173.354,0,153.312,23.73V23.6L173.245,0Z" transform="translate(-153.312 0)" fill="#ffb53a"/>
        <path id="Caminho_5245" data-name="Caminho 5245" d="M173.463,0l-20.15,23.858V23.73L173.353,0Z" transform="translate(-153.312 0)" fill="#ffb43a"/>
        <path id="Caminho_5246" data-name="Caminho 5246" d="M173.572,0l-20.26,23.987v-.129L173.462,0Z" transform="translate(-153.312 0)" fill="#ffb33b"/>
        <path id="Caminho_5247" data-name="Caminho 5247" d="M173.68,0,153.311,24.116v-.129L173.571,0Z" transform="translate(-153.312 0)" fill="#ffb23b"/>
        <path id="Caminho_5248" data-name="Caminho 5248" d="M173.789,0,153.312,24.245v-.129L173.68,0Z" transform="translate(-153.312 0)" fill="#ffb13c"/>
        <path id="Caminho_5249" data-name="Caminho 5249" d="M173.9,0,153.312,24.374v-.13L173.789,0Z" transform="translate(-153.312 0)" fill="#ffb03d"/>
        <path id="Caminho_5250" data-name="Caminho 5250" d="M174.007,0,153.312,24.5v-.129L173.9,0Z" transform="translate(-153.312 0)" fill="#ffaf3d"/>
        <path id="Caminho_5251" data-name="Caminho 5251" d="M174.116,0l-20.8,24.632V24.5L174.006,0Z" transform="translate(-153.312 0)" fill="#ffae3e"/>
        <path id="Caminho_5252" data-name="Caminho 5252" d="M174.224,0,153.312,24.76v-.129L174.115,0Z" transform="translate(-153.312 0)" fill="#ffad3f"/>
        <path id="Caminho_5253" data-name="Caminho 5253" d="M174.333,0,153.312,24.889V24.76L174.224,0Z" transform="translate(-153.312 0)" fill="#ffac3f"/>
        <path id="Caminho_5254" data-name="Caminho 5254" d="M174.442,0l-21.13,25.018v-.129L174.333,0Z" transform="translate(-153.312 0)" fill="#ffab40"/>
        <path id="Caminho_5255" data-name="Caminho 5255" d="M174.551,0,153.312,25.147v-.129L174.442,0Z" transform="translate(-153.312 0)" fill="#ffaa40"/>
        <path id="Caminho_5256" data-name="Caminho 5256" d="M174.66,0,153.312,25.275v-.129L174.55,0Z" transform="translate(-153.312 0)" fill="#ffa941"/>
        <path id="Caminho_5257" data-name="Caminho 5257" d="M174.769,0,153.312,25.405v-.13L174.659,0Z" transform="translate(-153.312 0)" fill="#ffa842"/>
        <path id="Caminho_5258" data-name="Caminho 5258" d="M174.877,0,153.311,25.534v-.129L174.768,0Z" transform="translate(-153.312 0)" fill="#ffa742"/>
        <path id="Caminho_5259" data-name="Caminho 5259" d="M174.986,0,153.312,25.662v-.129L174.877,0Z" transform="translate(-153.312 0)" fill="#ffa643"/>
        <path id="Caminho_5260" data-name="Caminho 5260" d="M175.1,0,153.312,25.791v-.129L174.986,0Z" transform="translate(-153.312 0)" fill="#ffa543"/>
        <path id="Caminho_5261" data-name="Caminho 5261" d="M175.2,0,153.312,25.92v-.129L175.094,0Z" transform="translate(-153.312 0)" fill="#ffa444"/>
        <path id="Caminho_5262" data-name="Caminho 5262" d="M175.313,0l-22,26.049V25.92L175.2,0Z" transform="translate(-153.312 0)" fill="#ffa345"/>
        <path id="Caminho_5263" data-name="Caminho 5263" d="M175.421,0,153.312,26.177v-.129L175.312,0Z" transform="translate(-153.312 0)" fill="#ffa245"/>
        <path id="Caminho_5264" data-name="Caminho 5264" d="M175.53,0,153.312,26.306v-.129L175.421,0Z" transform="translate(-153.312 0)" fill="#ffa146"/>
        <path id="Caminho_5265" data-name="Caminho 5265" d="M175.639,0,153.312,26.436v-.13L175.53,0Z" transform="translate(-153.312 0)" fill="#ffa046"/>
        <path id="Caminho_5266" data-name="Caminho 5266" d="M175.748,0,153.312,26.564v-.129L175.639,0Z" transform="translate(-153.312 0)" fill="#ff9f47"/>
        <path id="Caminho_5267" data-name="Caminho 5267" d="M175.857,0,153.312,26.693v-.129L175.747,0Z" transform="translate(-153.312 0)" fill="#ff9e48"/>
        <path id="Caminho_5268" data-name="Caminho 5268" d="M175.966,0,153.312,26.822v-.129L175.856,0Z" transform="translate(-153.312 0)" fill="#ff9d48"/>
        <path id="Caminho_5269" data-name="Caminho 5269" d="M176.074,0,153.311,26.951v-.129L175.965,0Z" transform="translate(-153.312 0)" fill="#ff9c49"/>
        <path id="Caminho_5270" data-name="Caminho 5270" d="M176.183,0,153.312,27.079v-.129L176.074,0Z" transform="translate(-153.312 0)" fill="#ff9b4a"/>
        <path id="Caminho_5271" data-name="Caminho 5271" d="M176.292,0l-22.98,27.208v-.129L176.183,0Z" transform="translate(-153.312 0)" fill="#ff9a4a"/>
        <path id="Caminho_5272" data-name="Caminho 5272" d="M176.4,0,153.312,27.337v-.129L176.292,0Z" transform="translate(-153.312 0)" fill="#ff994b"/>
        <path id="Caminho_5273" data-name="Caminho 5273" d="M176.51,0l-23.2,27.466v-.13L176.4,0Z" transform="translate(-153.312 0)" fill="#ff984b"/>
        <path id="Caminho_5274" data-name="Caminho 5274" d="M176.618,0,153.312,27.6v-.129L176.509,0Z" transform="translate(-153.312 0)" fill="#ff974c"/>
        <path id="Caminho_5275" data-name="Caminho 5275" d="M176.727,0,153.312,27.724V27.6L176.618,0Z" transform="translate(-153.312 0)" fill="#ff964d"/>
        <path id="Caminho_5276" data-name="Caminho 5276" d="M176.836,0,153.312,27.853v-.129L176.727,0Z" transform="translate(-153.312 0)" fill="#ff954d"/>
        <path id="Caminho_5277" data-name="Caminho 5277" d="M176.945,0,153.312,27.981v-.129L176.836,0Z" transform="translate(-153.312 0)" fill="#ff944e"/>
        <path id="Caminho_5278" data-name="Caminho 5278" d="M177.054,0,153.312,28.11v-.129L176.944,0Z" transform="translate(-153.312 0)" fill="#ff934e"/>
        <path id="Caminho_5279" data-name="Caminho 5279" d="M177.163,0,153.312,28.239V28.11L177.053,0Z" transform="translate(-153.312 0)" fill="#ff924f"/>
        <path id="Caminho_5280" data-name="Caminho 5280" d="M177.271,0l-23.96,28.367v-.129L177.162,0Z" transform="translate(-153.312 0)" fill="#ff9150"/>
        <path id="Caminho_5281" data-name="Caminho 5281" d="M177.38,0,153.312,28.5v-.13L177.271,0Z" transform="translate(-153.312 0)" fill="#ff9050"/>
        <path id="Caminho_5282" data-name="Caminho 5282" d="M177.489,0,153.312,28.626V28.5L177.38,0Z" transform="translate(-153.312 0)" fill="#ff8f51"/>
        <path id="Caminho_5283" data-name="Caminho 5283" d="M177.6,0,153.312,28.755v-.129L177.488,0Z" transform="translate(-153.312 0)" fill="#ff8e51"/>
        <path id="Caminho_5284" data-name="Caminho 5284" d="M177.707,0,153.312,28.883v-.129L177.6,0Z" transform="translate(-153.312 0)" fill="#ff8d52"/>
        <path id="Caminho_5285" data-name="Caminho 5285" d="M177.815,0l-24.5,29.012v-.129L177.706,0Z" transform="translate(-153.312 0)" fill="#ff8c53"/>
        <path id="Caminho_5286" data-name="Caminho 5286" d="M177.924,0,153.312,29.141v-.129L177.815,0Z" transform="translate(-153.312 0)" fill="#ff8b53"/>
        <path id="Caminho_5287" data-name="Caminho 5287" d="M178.033,0,153.312,29.269v-.129L177.924,0Z" transform="translate(-153.312 0)" fill="#ff8a54"/>
        <path id="Caminho_5288" data-name="Caminho 5288" d="M178.142,0l-24.83,29.4v-.129L178.033,0Z" transform="translate(-153.312 0)" fill="#ff8954"/>
        <path id="Caminho_5289" data-name="Caminho 5289" d="M178.251,0,153.312,29.528V29.4L178.141,0Z" transform="translate(-153.312 0)" fill="#f85"/>
        <path id="Caminho_5290" data-name="Caminho 5290" d="M178.36,0,153.312,29.657v-.129L178.25,0Z" transform="translate(-153.312 0)" fill="#ff8756"/>
        <path id="Caminho_5291" data-name="Caminho 5291" d="M178.468,0,153.311,29.785v-.129L178.359,0Z" transform="translate(-153.312 0)" fill="#ff8556"/>
        <path id="Caminho_5292" data-name="Caminho 5292" d="M178.577,0,153.312,29.914v-.129L178.468,0Z" transform="translate(-153.312 0)" fill="#ff8457"/>
        <path id="Caminho_5293" data-name="Caminho 5293" d="M178.686,0,153.312,30.043v-.129L178.577,0Z" transform="translate(-153.312 0)" fill="#ff8358"/>
        <path id="Caminho_5294" data-name="Caminho 5294" d="M178.795,0,153.312,30.171v-.129L178.685,0Z" transform="translate(-153.312 0)" fill="#ff8258"/>
        <path id="Caminho_5295" data-name="Caminho 5295" d="M178.9,0,153.312,30.3v-.129L178.794,0Z" transform="translate(-153.312 0)" fill="#ff8159"/>
        <path id="Caminho_5296" data-name="Caminho 5296" d="M179.012,0l-25.7,30.429V30.3L178.9,0Z" transform="translate(-153.312 0)" fill="#ff8059"/>
        <path id="Caminho_5297" data-name="Caminho 5297" d="M179.121,0,153.312,30.559v-.13L179.012,0Z" transform="translate(-153.312 0)" fill="#ff7f5a"/>
        <path id="Caminho_5298" data-name="Caminho 5298" d="M179.23,0,153.312,30.687v-.129L179.121,0Z" transform="translate(-153.312 0)" fill="#ff7e5b"/>
        <path id="Caminho_5299" data-name="Caminho 5299" d="M179.339,0,153.312,30.816v-.129L179.23,0Z" transform="translate(-153.312 0)" fill="#ff7d5b"/>
        <path id="Caminho_5300" data-name="Caminho 5300" d="M179.448,0,153.312,30.945v-.129L179.338,0Z" transform="translate(-153.312 0)" fill="#ff7c5c"/>
        <path id="Caminho_5301" data-name="Caminho 5301" d="M179.557,0,153.312,31.073v-.129L179.447,0Z" transform="translate(-153.312 0)" fill="#ff7b5c"/>
        <path id="Caminho_5302" data-name="Caminho 5302" d="M179.665,0,153.312,31.2v-.129L179.556,0Z" transform="translate(-153.312 0)" fill="#ff7a5d"/>
        <path id="Caminho_5303" data-name="Caminho 5303" d="M179.774,0,153.312,31.331V31.2L179.665,0Z" transform="translate(-153.312 0)" fill="#ff795e"/>
        <path id="Caminho_5304" data-name="Caminho 5304" d="M179.883,0,153.312,31.459v-.129L179.774,0Z" transform="translate(-153.312 0)" fill="#ff785e"/>
        <path id="Caminho_5305" data-name="Caminho 5305" d="M179.992,0l-26.68,31.589v-.13L179.882,0Z" transform="translate(-153.312 0)" fill="#ff775f"/>
        <path id="Caminho_5306" data-name="Caminho 5306" d="M180.1,0,153.312,31.718v-.129L179.991,0Z" transform="translate(-153.312 0)" fill="#ff765f"/>
        <path id="Caminho_5307" data-name="Caminho 5307" d="M180.209,0l-26.9,31.847v-.129L180.1,0Z" transform="translate(-153.312 0)" fill="#ff7560"/>
        <path id="Caminho_5308" data-name="Caminho 5308" d="M180.318,0,153.312,31.975v-.129L180.209,0Z" transform="translate(-153.312 0)" fill="#ff7461"/>
        <path id="Caminho_5309" data-name="Caminho 5309" d="M180.427,0,153.312,32.1v-.129L180.318,0Z" transform="translate(-153.312 0)" fill="#ff7361"/>
        <path id="Caminho_5310" data-name="Caminho 5310" d="M180.536,0,153.312,32.233V32.1L180.426,0Z" transform="translate(-153.312 0)" fill="#ff7262"/>
        <path id="Caminho_5311" data-name="Caminho 5311" d="M180.645,0,153.312,32.361v-.129L180.535,0Z" transform="translate(-153.312 0)" fill="#ff7162"/>
        <path id="Caminho_5312" data-name="Caminho 5312" d="M180.753,0,153.312,32.491v-.13L180.644,0Z" transform="translate(-153.312 0)" fill="#ff7063"/>
        <path id="Caminho_5313" data-name="Caminho 5313" d="M180.862,0,153.312,32.62v-.129L180.753,0Z" transform="translate(-153.312 0)" fill="#ff6f64"/>
        <path id="Caminho_5314" data-name="Caminho 5314" d="M180.971,0,153.312,32.749V32.62L180.862,0Z" transform="translate(-153.312 0)" fill="#ff6e64"/>
        <path id="Caminho_5315" data-name="Caminho 5315" d="M181.08,0,153.312,32.877v-.129L180.971,0Z" transform="translate(-153.312 0)" fill="#ff6d65"/>
        <path id="Caminho_5316" data-name="Caminho 5316" d="M181.189,0,153.312,33.006v-.129L181.079,0Z" transform="translate(-153.312 0)" fill="#ff6c66"/>
        <path id="Caminho_5317" data-name="Caminho 5317" d="M181.3,0,153.312,33.135v-.129L181.188,0Z" transform="translate(-153.312 0)" fill="#ff6b66"/>
        <path id="Caminho_5318" data-name="Caminho 5318" d="M181.406,0,153.312,33.263v-.129L181.3,0Z" transform="translate(-153.312 0)" fill="#ff6a67"/>
        <path id="Caminho_5319" data-name="Caminho 5319" d="M181.515,0l-28.2,33.392v-.129L181.406,0Z" transform="translate(-153.312 0)" fill="#ff6967"/>
        <path id="Caminho_5320" data-name="Caminho 5320" d="M181.624,0,153.312,33.522v-.13L181.515,0Z" transform="translate(-153.312 0)" fill="#ff6868"/>
        <path id="Caminho_5321" data-name="Caminho 5321" d="M181.733,0,153.312,33.651v-.129L181.623,0Z" transform="translate(-153.312 0)" fill="#ff6769"/>
        <path id="Caminho_5322" data-name="Caminho 5322" d="M181.842,0l-28.53,33.779v-.129L181.732,0Z" transform="translate(-153.312 0)" fill="#ff6669"/>
        <path id="Caminho_5323" data-name="Caminho 5323" d="M181.95,0,153.312,33.908v-.129L181.841,0Z" transform="translate(-153.312 0)" fill="#ff656a"/>
        <path id="Caminho_5324" data-name="Caminho 5324" d="M182.059,0,153.312,34.037v-.129L181.95,0Z" transform="translate(-153.312 0)" fill="#ff646a"/>
        <path id="Caminho_5325" data-name="Caminho 5325" d="M182.168,0,153.312,34.165v-.129L182.059,0Z" transform="translate(-153.312 0)" fill="#ff636b"/>
        <path id="Caminho_5326" data-name="Caminho 5326" d="M182.277,0,153.312,34.294v-.129L182.168,0Z" transform="translate(-153.312 0)" fill="#ff626c"/>
        <path id="Caminho_5327" data-name="Caminho 5327" d="M182.386,0,153.312,34.423v-.129L182.276,0Z" transform="translate(-153.312 0)" fill="#ff616c"/>
        <path id="Caminho_5328" data-name="Caminho 5328" d="M182.495,0,153.312,34.553v-.13L182.385,0Z" transform="translate(-153.312 0)" fill="#ff606d"/>
        <path id="Caminho_5329" data-name="Caminho 5329" d="M182.6,0,153.312,34.681v-.129L182.494,0Z" transform="translate(-153.312 0)" fill="#ff5f6d"/>
        <path id="Caminho_5330" data-name="Caminho 5330" d="M182.712,0l-29.4,34.81v-.129L182.6,0Z" transform="translate(-153.312 0)" fill="#ff5e6e"/>
        <path id="Caminho_5331" data-name="Caminho 5331" d="M182.821,0,153.312,34.939V34.81L182.712,0Z" transform="translate(-153.312 0)" fill="#ff5d6f"/>
        <path id="Caminho_5332" data-name="Caminho 5332" d="M182.93,0,153.312,35.067v-.129L182.82,0Z" transform="translate(-153.312 0)" fill="#ff5c6f"/>
        <path id="Caminho_5333" data-name="Caminho 5333" d="M183.039,0,153.311,35.2v-.129L182.929,0Z" transform="translate(-153.312 0)" fill="#ff5b70"/>
        <path id="Caminho_5334" data-name="Caminho 5334" d="M183.147,0,153.312,35.325V35.2L183.038,0Z" transform="translate(-153.312 0)" fill="#ff5a71"/>
        <path id="Caminho_5335" data-name="Caminho 5335" d="M183.256,0,153.312,35.453v-.129L183.147,0Z" transform="translate(-153.312 0)" fill="#ff5971"/>
        <path id="Caminho_5336" data-name="Caminho 5336" d="M183.365,0,153.312,35.583v-.13L183.256,0Z" transform="translate(-153.312 0)" fill="#ff5872"/>
        <path id="Caminho_5337" data-name="Caminho 5337" d="M183.474,0,153.338,35.68l-.026-.022v-.075L183.365,0Z" transform="translate(-153.312 0)" fill="#ff5772"/>
        <path id="Caminho_5338" data-name="Caminho 5338" d="M183.579,0,153.4,35.735l-.064-.055L183.47,0Z" transform="translate(-153.309 0)" fill="#ff5673"/>
        <path id="Caminho_5339" data-name="Caminho 5339" d="M183.681,0,153.455,35.788l-.064-.054L183.571,0Z" transform="translate(-153.301 0)" fill="#ff5574"/>
        <path id="Caminho_5340" data-name="Caminho 5340" d="M183.782,0,153.51,35.842l-.064-.054L183.672,0Z" transform="translate(-153.293 0)" fill="#ff5474"/>
        <path id="Caminho_5341" data-name="Caminho 5341" d="M183.883,0,153.566,35.9l-.064-.054L183.773,0Z" transform="translate(-153.286 0)" fill="#ff5375"/>
        <path id="Caminho_5342" data-name="Caminho 5342" d="M183.984,0,153.621,35.949l-.063-.054L183.874,0Z" transform="translate(-153.278 0)" fill="#ff5275"/>
        <path id="Caminho_5343" data-name="Caminho 5343" d="M184.085,0,153.678,36l-.064-.054L183.976,0Z" transform="translate(-153.27 0)" fill="#ff5176"/>
        <path id="Caminho_5344" data-name="Caminho 5344" d="M184.405,0,153.861,36.164,153.67,36,184.077,0Z" transform="translate(-153.262 0)" fill="#ff5176"/>
        <path id="Caminho_5345" data-name="Caminho 5345" d="M184.71,0l-30.68,36.326-.191-.162L184.382,0Z" transform="translate(-153.239 0)" fill="#ff5077"/>
        <path id="Caminho_5346" data-name="Caminho 5346" d="M185.015,0,154.2,36.488l-.191-.162L184.687,0Z" transform="translate(-153.216 0)" fill="#fe4f78"/>
        <path id="Caminho_5347" data-name="Caminho 5347" d="M185.319,0,154.366,36.649l-.191-.162L184.991,0Z" transform="translate(-153.192 0)" fill="#fe4e79"/>
        <path id="Caminho_5348" data-name="Caminho 5348" d="M185.624,0l-31.09,36.811-.191-.162L185.3,0Z" transform="translate(-153.169 0)" fill="#fe4d7a"/>
        <path id="Caminho_5349" data-name="Caminho 5349" d="M185.929,0,154.7,36.973l-.191-.162L185.6,0Z" transform="translate(-153.146 0)" fill="#fe4c7b"/>
        <path id="Caminho_5350" data-name="Caminho 5350" d="M186.234,0,154.87,37.134l-.191-.162L185.906,0Z" transform="translate(-153.122 0)" fill="#fd4b7c"/>
        <path id="Caminho_5351" data-name="Caminho 5351" d="M186.538,0l-31.5,37.3-.191-.162L186.21,0Z" transform="translate(-153.099 0)" fill="#fd4a7d"/>
        <path id="Caminho_5352" data-name="Caminho 5352" d="M186.843,0,155.206,37.458l-.191-.162L186.515,0Z" transform="translate(-153.076 0)" fill="#fd497e"/>
        <path id="Caminho_5353" data-name="Caminho 5353" d="M187.148,0,155.374,37.62l-.191-.162L186.82,0Z" transform="translate(-153.052 0)" fill="#fc487f"/>
        <path id="Caminho_5354" data-name="Caminho 5354" d="M187.453,0l-31.91,37.781-.191-.162L187.125,0Z" transform="translate(-153.029 0)" fill="#fc4780"/>
        <path id="Caminho_5355" data-name="Caminho 5355" d="M187.758,0,155.71,37.943l-.191-.162L187.43,0Z" transform="translate(-153.005 0)" fill="#fc4681"/>
        <path id="Caminho_5356" data-name="Caminho 5356" d="M187.787,0l.161.136L155.879,38.1l-.191-.162L187.734,0Z" transform="translate(-152.982 0)" fill="#fb4582"/>
        <rect id="Retângulo_1368" data-name="Retângulo 1368" width="49.7" height="0.251" transform="matrix(0.646, -0.764, 0.764, 0.646, 2.89, 38.099)" fill="#fb4483"/>
        <rect id="Retângulo_1369" data-name="Retângulo 1369" width="49.7" height="0.251" transform="matrix(0.646, -0.764, 0.764, 0.646, 3.081, 38.26)" fill="#fb4384"/>
        <rect id="Retângulo_1370" data-name="Retângulo 1370" width="49.7" height="0.251" transform="matrix(0.646, -0.764, 0.764, 0.646, 3.273, 38.422)" fill="#fb4286"/>
        <rect id="Retângulo_1371" data-name="Retângulo 1371" width="49.7" height="0.251" transform="matrix(0.646, -0.764, 0.764, 0.646, 3.464, 38.584)" fill="#fa4187"/>
        <rect id="Retângulo_1372" data-name="Retângulo 1372" width="49.7" height="0.251" transform="matrix(0.646, -0.764, 0.764, 0.646, 3.656, 38.746)" fill="#fa4088"/>
        <rect id="Retângulo_1373" data-name="Retângulo 1373" width="49.7" height="0.251" transform="matrix(0.646, -0.764, 0.764, 0.646, 3.847, 38.907)" fill="#fa3f89"/>
        <rect id="Retângulo_1374" data-name="Retângulo 1374" width="49.7" height="0.251" transform="matrix(0.646, -0.764, 0.764, 0.646, 4.039, 39.069)" fill="#f93e8a"/>
        <rect id="Retângulo_1375" data-name="Retângulo 1375" width="49.7" height="0.251" transform="matrix(0.646, -0.764, 0.764, 0.646, 4.23, 39.231)" fill="#f93d8b"/>
        <rect id="Retângulo_1376" data-name="Retângulo 1376" width="49.7" height="0.251" transform="matrix(0.646, -0.764, 0.764, 0.646, 4.422, 39.393)" fill="#f93c8c"/>
        <rect id="Retângulo_1377" data-name="Retângulo 1377" width="49.7" height="0.251" transform="matrix(0.646, -0.764, 0.764, 0.646, 4.613, 39.554)" fill="#f83b8d"/>
        <rect id="Retângulo_1378" data-name="Retângulo 1378" width="49.7" height="0.251" transform="matrix(0.646, -0.764, 0.764, 0.646, 4.805, 39.716)" fill="#f83a8e"/>
        <rect id="Retângulo_1379" data-name="Retângulo 1379" width="49.7" height="0.251" transform="matrix(0.646, -0.764, 0.764, 0.646, 4.996, 39.878)" fill="#f8398f"/>
        <rect id="Retângulo_1380" data-name="Retângulo 1380" width="49.7" height="0.251" transform="matrix(0.646, -0.764, 0.764, 0.646, 5.188, 40.04)" fill="#f83890"/>
        <path id="Caminho_5357" data-name="Caminho 5357" d="M190.11,1.965l.191.162L158.3,40.022h-.15l-.1-.088Z" transform="translate(-152.655 0.273)" fill="#f73791"/>
        <path id="Caminho_5358" data-name="Caminho 5358" d="M190.271,2.107l.191.162L158.593,40h-.328Z" transform="translate(-152.624 0.293)" fill="#f73692"/>
        <path id="Caminho_5359" data-name="Caminho 5359" d="M190.422,2.249l.191.162L158.881,39.983h-.328Z" transform="translate(-152.584 0.312)" fill="#f73593"/>
        <path id="Caminho_5360" data-name="Caminho 5360" d="M190.574,2.391l.191.162-31.6,37.41h-.328Z" transform="translate(-152.544 0.332)" fill="#f63494"/>
        <path id="Caminho_5361" data-name="Caminho 5361" d="M190.725,2.533l.191.162L159.457,39.943h-.328Z" transform="translate(-152.504 0.352)" fill="#f63395"/>
        <path id="Caminho_5362" data-name="Caminho 5362" d="M190.877,2.675l.106.09L159.6,39.924h-.182Z" transform="translate(-152.464 0.372)" fill="#f63395"/>
        <path id="Caminho_5363" data-name="Caminho 5363" d="M190.961,2.754l.106.09-31.309,37.07h-.181Z" transform="translate(-152.442 0.382)" fill="#f53396"/>
        <path id="Caminho_5364" data-name="Caminho 5364" d="M191.044,2.833l.106.09L159.918,39.9h-.182Z" transform="translate(-152.42 0.393)" fill="#f43397"/>
        <path id="Caminho_5365" data-name="Caminho 5365" d="M191.128,2.911l.106.09L160.076,39.892H159.9Z" transform="translate(-152.398 0.404)" fill="#f33397"/>
        <path id="Caminho_5366" data-name="Caminho 5366" d="M191.212,2.99l.106.09-31.082,36.8h-.181Z" transform="translate(-152.376 0.415)" fill="#f23398"/>
        <path id="Caminho_5367" data-name="Caminho 5367" d="M191.3,3.068l.106.09L160.4,39.869h-.182Z" transform="translate(-152.353 0.426)" fill="#f13399"/>
        <path id="Caminho_5368" data-name="Caminho 5368" d="M191.38,3.147l.106.09L160.555,39.859h-.181Z" transform="translate(-152.331 0.437)" fill="#f0339a"/>
        <path id="Caminho_5369" data-name="Caminho 5369" d="M191.463,3.225l.106.09L160.714,39.847h-.181Z" transform="translate(-152.309 0.448)" fill="#ef339a"/>
        <path id="Caminho_5370" data-name="Caminho 5370" d="M191.547,3.3l.106.09-30.78,36.443h-.182Z" transform="translate(-152.287 0.459)" fill="#ee339b"/>
        <path id="Caminho_5371" data-name="Caminho 5371" d="M191.631,3.383l.106.09-30.7,36.353h-.181Z" transform="translate(-152.265 0.47)" fill="#ed339c"/>
        <path id="Caminho_5372" data-name="Caminho 5372" d="M191.715,3.461l.106.09L161.192,39.815h-.181Z" transform="translate(-152.243 0.481)" fill="#ec339d"/>
        <path id="Caminho_5373" data-name="Caminho 5373" d="M191.8,3.54l.106.09L161.352,39.8h-.182Z" transform="translate(-152.221 0.492)" fill="#eb339d"/>
        <path id="Caminho_5374" data-name="Caminho 5374" d="M191.883,3.618l.106.09L161.511,39.792h-.181Z" transform="translate(-152.198 0.502)" fill="#ea339e"/>
        <path id="Caminho_5375" data-name="Caminho 5375" d="M191.966,3.7l.106.09-30.4,36h-.181Z" transform="translate(-152.176 0.513)" fill="#e9339f"/>
        <path id="Caminho_5376" data-name="Caminho 5376" d="M192.05,3.775l.106.09L161.83,39.771h-.182Z" transform="translate(-152.154 0.524)" fill="#e834a0"/>
        <path id="Caminho_5377" data-name="Caminho 5377" d="M192.134,3.854l.106.09L161.989,39.761h-.181Z" transform="translate(-152.132 0.535)" fill="#e734a0"/>
        <path id="Caminho_5378" data-name="Caminho 5378" d="M192.218,3.932l.106.09L162.149,39.749h-.182Z" transform="translate(-152.11 0.546)" fill="#e634a1"/>
        <path id="Caminho_5379" data-name="Caminho 5379" d="M192.3,4.011l.082.069v.049L162.308,39.739h-.181Z" transform="translate(-152.088 0.557)" fill="#e534a2"/>
        <path id="Caminho_5380" data-name="Caminho 5380" d="M192.361,4.33,162.467,39.724h-.181l30.076-35.61Z" transform="translate(-152.066 0.571)" fill="#e434a3"/>
        <path id="Caminho_5381" data-name="Caminho 5381" d="M192.339,4.518,162.627,39.7h-.182L192.339,4.3Z" transform="translate(-152.044 0.598)" fill="#e334a3"/>
        <path id="Caminho_5382" data-name="Caminho 5382" d="M192.317,4.707,162.786,39.672H162.6l29.712-35.18Z" transform="translate(-152.021 0.624)" fill="#e234a4"/>
        <path id="Caminho_5383" data-name="Caminho 5383" d="M192.295,4.9l-29.349,34.75h-.182L192.295,4.68Z" transform="translate(-151.999 0.65)" fill="#e134a5"/>
        <path id="Caminho_5384" data-name="Caminho 5384" d="M192.273,5.084,163.1,39.619h-.181l29.349-34.75Z" transform="translate(-151.977 0.676)" fill="#e034a6"/>
        <path id="Caminho_5385" data-name="Caminho 5385" d="M192.251,5.273l-28.987,34.32h-.181L192.251,5.058Z" transform="translate(-151.955 0.702)" fill="#df34a6"/>
        <path id="Caminho_5386" data-name="Caminho 5386" d="M192.229,5.462l-28.8,34.105h-.182l28.987-34.32Z" transform="translate(-151.933 0.729)" fill="#de34a7"/>
        <path id="Caminho_5387" data-name="Caminho 5387" d="M192.206,5.65,163.583,39.54H163.4l28.8-34.105Z" transform="translate(-151.911 0.755)" fill="#dd34a8"/>
        <path id="Caminho_5388" data-name="Caminho 5388" d="M192.184,5.839,163.742,39.515h-.181L192.184,5.624Z" transform="translate(-151.889 0.781)" fill="#dc34a9"/>
        <path id="Caminho_5389" data-name="Caminho 5389" d="M192.162,6.028,163.9,39.488h-.182L192.162,5.813Z" transform="translate(-151.867 0.807)" fill="#db34a9"/>
        <path id="Caminho_5390" data-name="Caminho 5390" d="M192.14,6.217,164.061,39.462h-.181L192.14,6Z" transform="translate(-151.844 0.834)" fill="#da34aa"/>
        <path id="Caminho_5391" data-name="Caminho 5391" d="M192.118,6.405l-27.9,33.031h-.182L192.118,6.19Z" transform="translate(-151.822 0.86)" fill="#d934ab"/>
        <path id="Caminho_5392" data-name="Caminho 5392" d="M192.1,6.594,164.38,39.41H164.2L192.1,6.379Z" transform="translate(-151.8 0.886)" fill="#d834ac"/>
        <path id="Caminho_5393" data-name="Caminho 5393" d="M192.074,6.783l-27.535,32.6h-.181L192.074,6.568Z" transform="translate(-151.778 0.912)" fill="#d734ac"/>
        <path id="Caminho_5394" data-name="Caminho 5394" d="M192.051,6.971,164.7,39.357h-.182l27.535-32.6Z" transform="translate(-151.756 0.938)" fill="#d634ad"/>
        <path id="Caminho_5395" data-name="Caminho 5395" d="M192.029,7.16,164.858,39.331h-.181L192.029,6.945Z" transform="translate(-151.734 0.965)" fill="#d534ae"/>
        <path id="Caminho_5396" data-name="Caminho 5396" d="M192.007,7.349,165.017,39.3h-.181L192.007,7.134Z" transform="translate(-151.712 0.991)" fill="#d434af"/>
        <path id="Caminho_5397" data-name="Caminho 5397" d="M191.985,7.538,165.177,39.278h-.182l26.99-31.956Z" transform="translate(-151.689 1.017)" fill="#d334af"/>
        <path id="Caminho_5398" data-name="Caminho 5398" d="M191.963,7.726,165.336,39.253h-.181L191.963,7.511Z" transform="translate(-151.667 1.043)" fill="#d234b0"/>
        <path id="Caminho_5399" data-name="Caminho 5399" d="M191.941,7.915,165.5,39.226h-.182L191.941,7.7Z" transform="translate(-151.645 1.069)" fill="#d134b1"/>
        <path id="Caminho_5400" data-name="Caminho 5400" d="M191.919,8.1,165.655,39.2h-.181L191.919,7.888Z" transform="translate(-151.623 1.096)" fill="#d034b2"/>
        <path id="Caminho_5401" data-name="Caminho 5401" d="M191.9,8.292,165.814,39.174h-.181L191.9,8.077Z" transform="translate(-151.601 1.122)" fill="#cf34b2"/>
        <path id="Caminho_5402" data-name="Caminho 5402" d="M191.874,8.481l-25.9,30.667h-.182L191.874,8.266Z" transform="translate(-151.579 1.148)" fill="#ce34b3"/>
        <path id="Caminho_5403" data-name="Caminho 5403" d="M191.852,8.67,166.133,39.121h-.181l25.9-30.667Z" transform="translate(-151.557 1.174)" fill="#cc35b4"/>
        <path id="Caminho_5404" data-name="Caminho 5404" d="M191.83,8.858,166.292,39.095h-.181L191.83,8.643Z" transform="translate(-151.534 1.2)" fill="#cb35b5"/>
        <path id="Caminho_5405" data-name="Caminho 5405" d="M191.808,9.047,166.452,39.069h-.182L191.808,8.832Z" transform="translate(-151.512 1.227)" fill="#ca35b5"/>
        <path id="Caminho_5406" data-name="Caminho 5406" d="M191.786,9.236,166.611,39.043h-.181L191.786,9.021Z" transform="translate(-151.49 1.253)" fill="#c935b6"/>
        <path id="Caminho_5407" data-name="Caminho 5407" d="M191.764,9.425,166.771,39.016h-.182L191.764,9.209Z" transform="translate(-151.468 1.279)" fill="#c835b7"/>
        <path id="Caminho_5408" data-name="Caminho 5408" d="M191.741,9.613,166.93,38.991h-.181L191.741,9.4Z" transform="translate(-151.446 1.305)" fill="#c735b8"/>
        <path id="Caminho_5409" data-name="Caminho 5409" d="M191.719,9.8,167.089,38.964h-.181L191.719,9.587Z" transform="translate(-151.424 1.331)" fill="#c635b8"/>
        <path id="Caminho_5410" data-name="Caminho 5410" d="M191.7,9.991,167.249,38.938h-.182L191.7,9.775Z" transform="translate(-151.402 1.358)" fill="#c535b9"/>
        <path id="Caminho_5411" data-name="Caminho 5411" d="M191.675,10.179,167.408,38.911h-.181L191.675,9.964Z" transform="translate(-151.379 1.384)" fill="#c435ba"/>
        <path id="Caminho_5412" data-name="Caminho 5412" d="M191.653,10.368,167.568,38.886h-.182l24.267-28.733Z" transform="translate(-151.357 1.41)" fill="#c335bb"/>
        <path id="Caminho_5413" data-name="Caminho 5413" d="M191.631,10.557l-23.9,28.3h-.181l24.085-28.518Z" transform="translate(-151.335 1.436)" fill="#c235bb"/>
        <path id="Caminho_5414" data-name="Caminho 5414" d="M191.609,10.745,167.886,38.833H167.7l23.9-28.3Z" transform="translate(-151.313 1.462)" fill="#c135bc"/>
        <path id="Caminho_5415" data-name="Caminho 5415" d="M191.587,10.934,168.046,38.807h-.182l23.723-28.088Z" transform="translate(-151.291 1.489)" fill="#c035bd"/>
        <path id="Caminho_5416" data-name="Caminho 5416" d="M191.564,11.123,168.2,38.781h-.181l23.541-27.873Z" transform="translate(-151.269 1.515)" fill="#bf35be"/>
        <path id="Caminho_5417" data-name="Caminho 5417" d="M191.542,11.312,168.364,38.754h-.181L191.542,11.1Z" transform="translate(-151.247 1.541)" fill="#be35be"/>
        <path id="Caminho_5418" data-name="Caminho 5418" d="M191.52,11.5l-23,27.228h-.182L191.52,11.285Z" transform="translate(-151.225 1.567)" fill="#bd35bf"/>
        <path id="Caminho_5419" data-name="Caminho 5419" d="M191.5,11.689,168.683,38.7H168.5l23-27.228Z" transform="translate(-151.202 1.594)" fill="#bc35c0"/>
        <path id="Caminho_5420" data-name="Caminho 5420" d="M191.476,11.878l-22.633,26.8h-.182l22.815-27.013Z" transform="translate(-151.18 1.62)" fill="#bb35c1"/>
        <path id="Caminho_5421" data-name="Caminho 5421" d="M191.454,12.066,169,38.649h-.181l22.633-26.8Z" transform="translate(-151.158 1.646)" fill="#ba35c1"/>
        <path id="Caminho_5422" data-name="Caminho 5422" d="M191.432,12.255,169.161,38.624h-.181L191.432,12.04Z" transform="translate(-151.136 1.672)" fill="#b935c2"/>
        <path id="Caminho_5423" data-name="Caminho 5423" d="M191.41,12.444,169.321,38.6h-.182L191.41,12.229Z" transform="translate(-151.114 1.698)" fill="#b835c3"/>
        <path id="Caminho_5424" data-name="Caminho 5424" d="M191.387,12.633,169.48,38.571H169.3l22.089-26.153Z" transform="translate(-151.092 1.725)" fill="#b735c4"/>
        <path id="Caminho_5425" data-name="Caminho 5425" d="M191.365,12.821,169.639,38.545h-.181l21.908-25.939Z" transform="translate(-151.07 1.751)" fill="#b635c4"/>
        <path id="Caminho_5426" data-name="Caminho 5426" d="M191.343,13.01,169.8,38.519h-.182l21.727-25.724Z" transform="translate(-151.048 1.777)" fill="#b535c5"/>
        <path id="Caminho_5427" data-name="Caminho 5427" d="M191.321,13.2,169.958,38.492h-.181l21.544-25.509Z" transform="translate(-151.025 1.803)" fill="#b435c6"/>
        <path id="Caminho_5428" data-name="Caminho 5428" d="M191.3,13.387,170.118,38.467h-.182L191.3,13.172Z" transform="translate(-151.003 1.829)" fill="#b335c7"/>
        <path id="Caminho_5429" data-name="Caminho 5429" d="M191.277,13.576l-21,24.864H170.1l21.181-25.079Z" transform="translate(-150.981 1.856)" fill="#b235c7"/>
        <path id="Caminho_5430" data-name="Caminho 5430" d="M191.255,13.765,170.436,38.414h-.181l21-24.864Z" transform="translate(-150.959 1.882)" fill="#b136c8"/>
        <path id="Caminho_5431" data-name="Caminho 5431" d="M191.232,13.953,170.6,38.387h-.182l20.819-24.649Z" transform="translate(-150.937 1.908)" fill="#b036c9"/>
        <path id="Caminho_5432" data-name="Caminho 5432" d="M191.21,14.142l-20.456,24.22h-.181L191.21,13.927Z" transform="translate(-150.915 1.934)" fill="#af36ca"/>
        <path id="Caminho_5433" data-name="Caminho 5433" d="M191.188,14.331l-20.274,24h-.181l20.456-24.22Z" transform="translate(-150.893 1.96)" fill="#ae36ca"/>
        <path id="Caminho_5434" data-name="Caminho 5434" d="M191.166,14.52,171.074,38.309h-.182l20.274-24Z" transform="translate(-150.87 1.987)" fill="#ad36cb"/>
        <path id="Caminho_5435" data-name="Caminho 5435" d="M191.144,14.708,171.233,38.283h-.181l20.092-23.79Z" transform="translate(-150.848 2.013)" fill="#ac36cc"/>
        <path id="Caminho_5436" data-name="Caminho 5436" d="M191.122,14.9l-19.729,23.36h-.182l19.911-23.575Z" transform="translate(-150.826 2.039)" fill="#ab36cd"/>
        <path id="Caminho_5437" data-name="Caminho 5437" d="M191.1,15.086,171.552,38.23h-.181L191.1,14.87Z" transform="translate(-150.804 2.065)" fill="#aa36cd"/>
        <path id="Caminho_5438" data-name="Caminho 5438" d="M191.077,15.274,171.711,38.2h-.181l19.548-23.146Z" transform="translate(-150.782 2.091)" fill="#a936ce"/>
        <path id="Caminho_5439" data-name="Caminho 5439" d="M191.055,15.463,171.871,38.178h-.182l19.367-22.93Z" transform="translate(-150.76 2.118)" fill="#a836cf"/>
        <path id="Caminho_5440" data-name="Caminho 5440" d="M191.033,15.652l-19,22.5h-.181l19.185-22.715Z" transform="translate(-150.738 2.144)" fill="#a736d0"/>
        <path id="Caminho_5441" data-name="Caminho 5441" d="M191.011,15.84,172.189,38.125h-.181l19-22.5Z" transform="translate(-150.715 2.17)" fill="#a636d0"/>
        <path id="Caminho_5442" data-name="Caminho 5442" d="M190.989,16.029,172.349,38.1h-.182l18.822-22.286Z" transform="translate(-150.693 2.196)" fill="#a536d1"/>
        <path id="Caminho_5443" data-name="Caminho 5443" d="M190.967,16.218,172.508,38.073h-.181L190.967,16Z" transform="translate(-150.671 2.223)" fill="#a436d2"/>
        <path id="Caminho_5444" data-name="Caminho 5444" d="M190.945,16.5l-18.2,21.547h-.261l18.459-21.855Z" transform="translate(-150.649 2.249)" fill="#a436d2"/>
        <path id="Caminho_5445" data-name="Caminho 5445" d="M190.913,16.771,172.975,38.009h-.261l18.2-21.547Z" transform="translate(-150.617 2.286)" fill="#a336d2"/>
        <path id="Caminho_5446" data-name="Caminho 5446" d="M190.881,17.042,173.2,37.972h-.261l17.937-21.238Z" transform="translate(-150.585 2.324)" fill="#a237d3"/>
        <path id="Caminho_5447" data-name="Caminho 5447" d="M190.849,17.313,173.433,37.934h-.261L190.849,17Z" transform="translate(-150.554 2.362)" fill="#a137d3"/>
        <path id="Caminho_5448" data-name="Caminho 5448" d="M190.817,17.584,173.662,37.9H173.4l17.416-20.621Z" transform="translate(-150.522 2.399)" fill="#a037d4"/>
        <path id="Caminho_5449" data-name="Caminho 5449" d="M190.786,17.855l-16.9,20h-.26l17.155-20.312Z" transform="translate(-150.49 2.437)" fill="#9f38d4"/>
        <path id="Caminho_5450" data-name="Caminho 5450" d="M190.754,18.126,174.119,37.821h-.261l16.9-20Z" transform="translate(-150.458 2.475)" fill="#9e38d4"/>
        <path id="Caminho_5451" data-name="Caminho 5451" d="M190.722,18.4,174.348,37.783h-.261l16.635-19.695Z" transform="translate(-150.427 2.512)" fill="#9d38d5"/>
        <path id="Caminho_5452" data-name="Caminho 5452" d="M190.69,18.668,174.577,37.746h-.261L190.69,18.359Z" transform="translate(-150.395 2.55)" fill="#9c39d5"/>
        <path id="Caminho_5453" data-name="Caminho 5453" d="M190.659,18.939,174.806,37.708h-.261L190.659,18.63Z" transform="translate(-150.363 2.587)" fill="#9b39d6"/>
        <path id="Caminho_5454" data-name="Caminho 5454" d="M190.627,19.21,175.035,37.67h-.261L190.627,18.9Z" transform="translate(-150.331 2.625)" fill="#9a3ad6"/>
        <path id="Caminho_5455" data-name="Caminho 5455" d="M190.595,19.481,175.264,37.633H175l15.591-18.46Z" transform="translate(-150.299 2.663)" fill="#993ad6"/>
        <path id="Caminho_5456" data-name="Caminho 5456" d="M190.563,19.752l-15.07,17.843h-.261l15.331-18.152Z" transform="translate(-150.268 2.7)" fill="#983ad7"/>
        <path id="Caminho_5457" data-name="Caminho 5457" d="M190.531,20.023l-14.81,17.534h-.26l15.07-17.843Z" transform="translate(-150.236 2.738)" fill="#973bd7"/>
        <path id="Caminho_5458" data-name="Caminho 5458" d="M190.5,20.294,175.95,37.52h-.261L190.5,19.985Z" transform="translate(-150.204 2.776)" fill="#963bd8"/>
        <path id="Caminho_5459" data-name="Caminho 5459" d="M190.468,20.565,176.179,37.482h-.261l14.549-17.226Z" transform="translate(-150.172 2.813)" fill="#953bd8"/>
        <path id="Caminho_5460" data-name="Caminho 5460" d="M190.436,20.836,176.408,37.444h-.261l14.288-16.917Z" transform="translate(-150.14 2.851)" fill="#943cd8"/>
        <path id="Caminho_5461" data-name="Caminho 5461" d="M190.4,21.107l-13.767,16.3h-.261L190.4,20.8Z" transform="translate(-150.109 2.889)" fill="#933cd9"/>
        <path id="Caminho_5462" data-name="Caminho 5462" d="M190.372,21.378,176.866,37.369h-.261l13.767-16.3Z" transform="translate(-150.077 2.926)" fill="#923cd9"/>
        <path id="Caminho_5463" data-name="Caminho 5463" d="M190.341,21.649,177.1,37.331h-.261L190.341,21.34Z" transform="translate(-150.045 2.964)" fill="#913dda"/>
        <path id="Caminho_5464" data-name="Caminho 5464" d="M190.309,21.92,177.323,37.294h-.26l13.245-15.682Z" transform="translate(-150.013 3.001)" fill="#903dda"/>
        <path id="Caminho_5465" data-name="Caminho 5465" d="M190.277,22.191,177.552,37.256h-.261l12.986-15.374Z" transform="translate(-149.982 3.039)" fill="#8f3dda"/>
        <path id="Caminho_5466" data-name="Caminho 5466" d="M190.245,22.462,177.781,37.218h-.261l12.725-15.065Z" transform="translate(-149.95 3.077)" fill="#8e3edb"/>
        <path id="Caminho_5467" data-name="Caminho 5467" d="M190.214,22.733l-12.2,14.448h-.261l12.464-14.757Z" transform="translate(-149.918 3.114)" fill="#8d3edb"/>
        <path id="Caminho_5468" data-name="Caminho 5468" d="M190.182,23,178.239,37.143h-.261l12.2-14.448Z" transform="translate(-149.886 3.152)" fill="#8c3edc"/>
        <path id="Caminho_5469" data-name="Caminho 5469" d="M190.15,23.275,178.468,37.105h-.261L190.15,22.966Z" transform="translate(-149.854 3.19)" fill="#8b3fdc"/>
        <path id="Caminho_5470" data-name="Caminho 5470" d="M190.118,23.546,178.7,37.068h-.261l11.682-13.831Z" transform="translate(-149.823 3.227)" fill="#8a3fdc"/>
        <path id="Caminho_5471" data-name="Caminho 5471" d="M190.086,23.817,178.926,37.03h-.261l11.421-13.522Z" transform="translate(-149.791 3.265)" fill="#8940dd"/>
        <path id="Caminho_5472" data-name="Caminho 5472" d="M190.055,24.088l-10.9,12.906h-.26l11.16-13.214Z" transform="translate(-149.759 3.303)" fill="#8840dd"/>
        <path id="Caminho_5473" data-name="Caminho 5473" d="M190.023,24.359l-10.64,12.6h-.261l10.9-12.906Z" transform="translate(-149.727 3.34)" fill="#8740de"/>
        <path id="Caminho_5474" data-name="Caminho 5474" d="M189.991,24.63,179.612,36.918h-.261l10.639-12.6Z" transform="translate(-149.695 3.378)" fill="#8641de"/>
        <path id="Caminho_5475" data-name="Caminho 5475" d="M189.959,24.9l-10.118,11.98h-.261l10.379-12.289Z" transform="translate(-149.664 3.415)" fill="#8541de"/>
        <path id="Caminho_5476" data-name="Caminho 5476" d="M189.927,25.172,180.07,36.843h-.261l10.118-11.98Z" transform="translate(-149.632 3.453)" fill="#8441df"/>
        <path id="Caminho_5477" data-name="Caminho 5477" d="M189.9,25.443l-9.6,11.363h-.261L189.9,25.134Z" transform="translate(-149.6 3.491)" fill="#8342df"/>
        <path id="Caminho_5478" data-name="Caminho 5478" d="M189.864,25.714l-9.335,11.054h-.261l9.6-11.363Z" transform="translate(-149.568 3.528)" fill="#8242e0"/>
        <path id="Caminho_5479" data-name="Caminho 5479" d="M189.832,25.985,180.757,36.73H180.5l9.335-11.054Z" transform="translate(-149.536 3.566)" fill="#8042e0"/>
        <path id="Caminho_5480" data-name="Caminho 5480" d="M189.8,26.256l-8.815,10.437h-.26L189.8,25.947Z" transform="translate(-149.505 3.604)" fill="#7f43e0"/>
        <path id="Caminho_5481" data-name="Caminho 5481" d="M189.769,26.527l-8.554,10.128h-.261l8.815-10.437Z" transform="translate(-149.473 3.641)" fill="#7e43e1"/>
        <path id="Caminho_5482" data-name="Caminho 5482" d="M189.737,26.8l-8.293,9.819h-.261l8.554-10.128Z" transform="translate(-149.441 3.679)" fill="#7d43e1"/>
        <path id="Caminho_5483" data-name="Caminho 5483" d="M189.705,27.069l-8.033,9.511h-.261l8.293-9.819Z" transform="translate(-149.409 3.717)" fill="#7c44e1"/>
        <path id="Caminho_5484" data-name="Caminho 5484" d="M189.673,27.34l-7.772,9.2h-.261l8.033-9.511Z" transform="translate(-149.378 3.754)" fill="#7b44e2"/>
        <path id="Caminho_5485" data-name="Caminho 5485" d="M189.641,27.611,182.13,36.5h-.261l7.772-9.2Z" transform="translate(-149.346 3.792)" fill="#7a44e2"/>
        <path id="Caminho_5486" data-name="Caminho 5486" d="M189.61,27.881l-7.25,8.585H182.1l7.511-8.894Z" transform="translate(-149.314 3.829)" fill="#7945e3"/>
        <path id="Caminho_5487" data-name="Caminho 5487" d="M189.578,28.152l-6.989,8.276h-.261l7.25-8.585Z" transform="translate(-149.282 3.867)" fill="#7845e3"/>
        <path id="Caminho_5488" data-name="Caminho 5488" d="M189.546,28.423l-6.73,7.968h-.26l6.989-8.276Z" transform="translate(-149.25 3.905)" fill="#7746e3"/>
        <path id="Caminho_5489" data-name="Caminho 5489" d="M189.514,28.694l-6.469,7.659h-.261l6.73-7.968Z" transform="translate(-149.219 3.942)" fill="#7646e4"/>
        <path id="Caminho_5490" data-name="Caminho 5490" d="M189.483,28.965l-6.208,7.35h-.261l6.469-7.659Z" transform="translate(-149.187 3.98)" fill="#7546e4"/>
        <path id="Caminho_5491" data-name="Caminho 5491" d="M189.451,29.236,183.5,36.278h-.261l6.208-7.35Z" transform="translate(-149.155 4.018)" fill="#7447e5"/>
        <path id="Caminho_5492" data-name="Caminho 5492" d="M189.419,29.507l-5.686,6.733h-.261l5.947-7.042Z" transform="translate(-149.123 4.055)" fill="#7347e5"/>
        <path id="Caminho_5493" data-name="Caminho 5493" d="M189.387,29.778,183.961,36.2H183.7l5.686-6.733Z" transform="translate(-149.091 4.093)" fill="#7247e5"/>
        <path id="Caminho_5494" data-name="Caminho 5494" d="M189.355,30.049l-5.165,6.116h-.261l5.426-6.424Z" transform="translate(-149.06 4.131)" fill="#7148e6"/>
        <path id="Caminho_5495" data-name="Caminho 5495" d="M189.323,30.32l-4.905,5.807h-.26l5.165-6.116Z" transform="translate(-149.028 4.168)" fill="#7048e6"/>
        <path id="Caminho_5496" data-name="Caminho 5496" d="M189.292,30.591l-4.644,5.5h-.261l4.905-5.807Z" transform="translate(-148.996 4.206)" fill="#6f48e7"/>
        <path id="Caminho_5497" data-name="Caminho 5497" d="M189.26,30.862l-4.384,5.19h-.261l4.644-5.5Z" transform="translate(-148.964 4.243)" fill="#6e49e7"/>
        <path id="Caminho_5498" data-name="Caminho 5498" d="M189.228,31.133l-4.123,4.881h-.261l4.384-5.19Z" transform="translate(-148.933 4.281)" fill="#6d49e7"/>
        <path id="Caminho_5499" data-name="Caminho 5499" d="M189.2,31.4l-3.862,4.573h-.261L189.2,31.1Z" transform="translate(-148.901 4.319)" fill="#6c49e8"/>
        <path id="Caminho_5500" data-name="Caminho 5500" d="M189.165,31.675l-3.6,4.264H185.3l3.862-4.573Z" transform="translate(-148.869 4.356)" fill="#6b4ae8"/>
        <path id="Caminho_5501" data-name="Caminho 5501" d="M189.133,31.946l-3.34,3.955h-.261l3.6-4.264Z" transform="translate(-148.837 4.394)" fill="#6a4ae9"/>
        <path id="Caminho_5502" data-name="Caminho 5502" d="M189.1,32.217l-3.08,3.647h-.261l3.34-3.955Z" transform="translate(-148.805 4.432)" fill="#694ae9"/>
        <path id="Caminho_5503" data-name="Caminho 5503" d="M189.069,32.488l-2.82,3.338h-.26l3.08-3.647Z" transform="translate(-148.774 4.469)" fill="#684be9"/>
        <path id="Caminho_5504" data-name="Caminho 5504" d="M189.038,32.759l-2.559,3.029h-.261l2.82-3.338Z" transform="translate(-148.742 4.507)" fill="#674bea"/>
        <path id="Caminho_5505" data-name="Caminho 5505" d="M189.006,33.03l-2.3,2.721h-.261l2.559-3.029Z" transform="translate(-148.71 4.545)" fill="#664cea"/>
        <path id="Caminho_5506" data-name="Caminho 5506" d="M188.974,33.3l-2.037,2.412h-.261l2.3-2.721Z" transform="translate(-148.678 4.582)" fill="#654ceb"/>
        <path id="Caminho_5507" data-name="Caminho 5507" d="M188.942,33.572l-1.777,2.1H186.9l2.037-2.412Z" transform="translate(-148.646 4.62)" fill="#644ceb"/>
        <path id="Caminho_5508" data-name="Caminho 5508" d="M188.91,33.843l-1.516,1.795h-.261l1.777-2.1Z" transform="translate(-148.615 4.657)" fill="#634deb"/>
        <path id="Caminho_5509" data-name="Caminho 5509" d="M188.878,34.114,187.623,35.6h-.261l1.516-1.795Z" transform="translate(-148.583 4.695)" fill="#624dec"/>
        <path id="Caminho_5510" data-name="Caminho 5510" d="M188.847,34.385l-.994,1.178h-.261l1.255-1.486Z" transform="translate(-148.551 4.733)" fill="#614dec"/>
        <path id="Caminho_5511" data-name="Caminho 5511" d="M188.815,34.656l-.735.869h-.26l.994-1.178Z" transform="translate(-148.519 4.77)" fill="#604eed"/>
        <path id="Caminho_5512" data-name="Caminho 5512" d="M188.783,34.927l-.474.56h-.261l.735-.869Z" transform="translate(-148.488 4.808)" fill="#5f4eed"/>
        <path id="Caminho_5513" data-name="Caminho 5513" d="M188.278,35.45l.474-.56v.56Z" transform="translate(-148.456 4.846)" fill="#5f4eed"/>
      </g>
    </g>
    <path id="Caminho_5515" data-name="Caminho 5515" d="M176.663,11a1.385,1.385,0,1,0,1.385,1.385A1.384,1.384,0,0,0,176.663,11" transform="translate(566.896 5282.254)" fill="#fff"/>
    <path id="Caminho_5516" data-name="Caminho 5516" d="M171.8,12.558a5.817,5.817,0,1,0,5.817,5.817,5.823,5.823,0,0,0-5.817-5.817m0,9.544a3.726,3.726,0,1,1,3.726-3.726A3.731,3.731,0,0,1,171.8,22.1" transform="translate(565.605 5282.471)" fill="#fff"/>
    <path id="Caminho_5517" data-name="Caminho 5517" d="M177.158,30.918h-9.431a7.1,7.1,0,0,1-7.1-7.1V14.39a7.1,7.1,0,0,1,7.1-7.1h9.431a7.1,7.1,0,0,1,7.1,7.1v9.432a7.1,7.1,0,0,1-7.1,7.1m-9.431-21.4a4.878,4.878,0,0,0-4.873,4.873v9.432a4.879,4.879,0,0,0,4.873,4.873h9.431a4.879,4.879,0,0,0,4.873-4.873V14.39a4.878,4.878,0,0,0-4.873-4.873Z" transform="translate(564.863 5281.74)" fill="#fff"/>
  </g>
</svg>
