<svg xmlns="http://www.w3.org/2000/svg" width="40.296" height="40.295" viewBox="0 0 40.296 40.295">
  <g id="Grupo_1069" data-name="Grupo 1069" transform="translate(-598.325 -5280.727)">
    <path id="Caminho_5519" data-name="Caminho 5519" d="M20.148,0A20.149,20.149,0,1,0,40.3,20.148,20.148,20.148,0,0,0,20.148,0" transform="translate(598.325 5280.727)" fill="#0077b7"/>
    <path id="Caminho_5525" data-name="Caminho 5525" d="M19.318,15c0-.254,0-.548,0-.842a.749.749,0,0,0-.83-.825q-1.551,0-3.1,0a.765.765,0,0,0-.856.86q0,6.635,0,13.27a.788.788,0,0,0,.874.884q1.508,0,3.018,0c.613,0,.9-.29.9-.909q0-3.381,0-6.76a4.761,4.761,0,0,1,.477-2.1A2.286,2.286,0,0,1,22.18,17.24a2.086,2.086,0,0,1,1.954,1.707,7.167,7.167,0,0,1,.213,1.623c.023,2.31.008,4.618.009,6.928a.755.755,0,0,0,.859.854q1.565,0,3.13,0a.8.8,0,0,0,.905-.884c-.01-2.72-.011-5.438-.055-8.157a8.831,8.831,0,0,0-.6-3.159,4.455,4.455,0,0,0-2.632-2.685,6.9,6.9,0,0,0-3.053-.325,4.589,4.589,0,0,0-2.429.812c-.418.314-.782.7-1.166,1.049" transform="translate(600.343 5282.547)" fill="#fff"/>
    <path id="Caminho_5526" data-name="Caminho 5526" d="M8.538,20.82v6.562a.821.821,0,0,0,.936.942q1.4,0,2.793,0c.778,0,1.058-.28,1.058-1.058q0-3.922,0-7.847,0-2.583,0-5.166a.828.828,0,0,0-.937-.944H9.455a.8.8,0,0,0-.917.921v6.59" transform="translate(599.511 5282.575)" fill="#fff"/>
    <path id="Caminho_5527" data-name="Caminho 5527" d="M14.087,9.929a3.081,3.081,0,1,0-3.1,3.081,3.1,3.1,0,0,0,3.1-3.081" transform="translate(599.426 5281.677)" fill="#fff"/>
  </g>
</svg>
