<?xml version="1.0" encoding="UTF-8"?>
<svg id="nova_proposta_logo_prev" data-name="nova proposta logo prev" xmlns="http://www.w3.org/2000/svg" viewBox="0 0 357.2 117.17">
  <defs>
    <style>
      .cls-1 {
        fill: #004685;
      }

      .cls-2 {
        fill: #fff;
        fill-rule: evenodd;
      }

      .cls-3 {
        fill: #0bbcd4;
      }

      .cls-4 {
        isolation: isolate;
      }
    </style>
  </defs>
  <g id="Grupo_137" data-name="Grupo 137">
    <path id="Caminho_1563" data-name="Caminho 1563" class="cls-1" d="m356.15,18.83h-62.87v9.96l-6.3-9.66-.31-.48h-.58l-58.51-.19h-1.06v6c-2.21-1.61-4.69-2.8-7.32-3.53h0c-3.76-1.03-7.62-1.68-11.52-1.92h-14.71c.07-1.33,0-2.65-.17-3.97-.48-3.88-2.2-7.51-4.89-10.35-2.46-2.59-5.75-4.23-9.3-4.62-1.06-.1-2.13-.09-3.19.05-.71,0-1.42.05-2.12.15-4.1.64-7.74,2.98-10.02,6.44-2.21,3.19-3.42,6.97-3.48,10.85,0,.37,0,.74.03,1.1l-12.23.17h-.81l-.21.79-3.61,13.58-4.07-13.79-.23-.76h-57.06v2.57c-1.18-.67-2.44-1.18-3.75-1.52-2.19-.54-4.44-.82-6.7-.86h-29.89v2.56c-1.47-.76-3.01-1.35-4.61-1.77-2.7-.66-5.49-.92-8.27-.79H0v59.88h28.35v-14.81c2.39.08,4.78-.07,7.15-.43,1.96-.3,3.89-.8,5.76-1.48v16.54h27.99v-.33l.25.33h56.24v-12.66l4.92,12.17.27.67h23.45l.26-.68,7.12-18.36v19.04h46.28c4.05-.26,8.04-1.05,11.89-2.34,2.42-.9,4.7-2.14,6.76-3.69v5.85h62.28v-10.17l6.11,9.85.31.51h52.27v-32.99l8.46.16,1.08.02v-27.08h-1.06.01Z"/>
    <g id="Grupo_136" data-name="Grupo 136">
      <path id="Caminho_1564" data-name="Caminho 1564" class="cls-2" d="m299.67,24.92v25.31l-14.88-25.31h-15.52v48.77h14.97v-25.85l14.52,26.04h17.42v-32.82h8.17v32.63h17.6v-32.63h10.16v-16.14h-52.44Z"/>
      <path id="Caminho_1565" data-name="Caminho 1565" class="cls-2" d="m249.87,55.36h13.67v-12.65h-13.85v-4.58h15.12v-13.2h-32.25v17.05c-3.22-12.35-13.73-16.07-23.69-17.05h-19v48.77l21.92-.18c10.02-.61,19.5-8.37,20.77-17.24v17.6l32.44-.18v-13.02h-15.12v-5.32h-.01Zm-40.3,2.93l-4.22.18v-18.52h4.4c11.86,1.89,8.13,19.56-.18,18.34Z"/>
      <path id="Caminho_1566" data-name="Caminho 1566" class="cls-2" d="m176.41,4.84c-6.63.02-11.99,5.39-12,12.02-.03,3.03,1.12,5.96,3.21,8.16l-16.7.09-8.25,28.79-7.52-28.79h-48.05l.18,9.53c-2.08-6.17-8.01-8.86-14.49-9.72h-26.04v10.82c-1.34-7.03-8.01-10.39-16.14-10.63l-25.49.18v48.4l17.79.18v-14.67c2.99.37,6,.37,8.99,0,7.82-.06,13.45-3.79,14.67-9.53v24.02l16.87.18v-17.05l9.72,17.05,46.95-.18v-13.2h-15.96v-5.13h14.31v-12.65h-14.31v-4.22h15.41v-3.85l14.86,39.05h16.32l16.69-44v44h17.79V25.01c4.5-4.88,4.2-12.48-.68-16.98-2.21-2.04-5.11-3.18-8.12-3.19h-.01ZM27.48,46.56l-4.59.18v-8.43h4.4c5.5,0,5.14,9.17.18,8.25h0Zm40.9.18l-4.77.18v-9.53h4.95c5.62.73,4.83,9.35-.18,9.35Zm18.71,19.62l-7.89-12.28c3.36-.79,6.91-2.69,7.89-6.23v18.52h0Zm89.36-39.16c-5.72,0-10.35-4.62-10.36-10.34s4.62-10.35,10.34-10.36c5.72,0,10.35,4.62,10.36,10.34h0c0,5.72-4.63,10.35-10.34,10.36Z"/>
    </g>
  </g>
  <g id="Conectando_sorrisos_" data-name="Conectando sorrisos " class="cls-4">
    <g class="cls-4">
      <path class="cls-3" d="m77.06,106.23c-.15,1.62-.75,2.88-1.79,3.79-1.04.91-2.43,1.36-4.16,1.36-1.21,0-2.27-.29-3.19-.86-.92-.57-1.63-1.39-2.13-2.44-.5-1.05-.76-2.28-.78-3.68v-1.42c0-1.43.25-2.69.76-3.78s1.23-1.93,2.18-2.52,2.04-.89,3.29-.89c1.67,0,3.02.45,4.04,1.36s1.61,2.19,1.78,3.85h-2.62c-.12-1.09-.44-1.88-.95-2.36-.51-.48-1.26-.72-2.24-.72-1.15,0-2.03.42-2.64,1.26-.61.84-.93,2.07-.94,3.69v1.34c0,1.64.29,2.89.88,3.75.59.86,1.45,1.29,2.58,1.29,1.03,0,1.81-.23,2.33-.7.52-.46.85-1.24.99-2.32h2.62Z"/>
      <path class="cls-3" d="m79.96,105.43c0-1.1.22-2.1.66-2.98.44-.88,1.05-1.57,1.84-2.04s1.7-.71,2.73-.71c1.52,0,2.75.49,3.7,1.47.95.98,1.46,2.28,1.54,3.9v.59c.01,1.11-.2,2.1-.63,2.98-.43.88-1.04,1.55-1.83,2.03-.79.48-1.71.72-2.75.72-1.59,0-2.86-.53-3.82-1.59s-1.43-2.47-1.43-4.23v-.12Zm2.53.22c0,1.16.24,2.07.72,2.72.48.66,1.15.98,2,.98s1.52-.33,1.99-1c.48-.67.71-1.64.71-2.93,0-1.14-.24-2.04-.73-2.71-.49-.67-1.15-1-1.99-1s-1.48.33-1.97.98c-.49.66-.73,1.64-.73,2.94Z"/>
      <path class="cls-3" d="m96.18,99.9l.07,1.3c.83-1.01,1.93-1.51,3.28-1.51,2.35,0,3.54,1.34,3.58,4.03v7.45h-2.53v-7.3c0-.71-.15-1.25-.46-1.59-.31-.34-.81-.51-1.52-.51-1.02,0-1.78.46-2.28,1.38v8.02h-2.53v-11.27h2.39Z"/>
      <path class="cls-3" d="m111.92,111.37c-1.6,0-2.9-.5-3.9-1.51-1-1.01-1.49-2.36-1.49-4.04v-.31c0-1.12.22-2.13.65-3.02.43-.88,1.04-1.57,1.83-2.07.78-.49,1.66-.74,2.62-.74,1.53,0,2.72.49,3.56,1.47.84.98,1.26,2.36,1.26,4.16v1.02h-7.36c.08.93.39,1.67.93,2.21.54.54,1.23.81,2.06.81,1.16,0,2.1-.47,2.83-1.41l1.36,1.3c-.45.67-1.05,1.2-1.81,1.57-.75.37-1.6.56-2.54.56Zm-.3-9.65c-.69,0-1.26.24-1.68.73-.43.49-.7,1.16-.82,2.03h4.82v-.19c-.06-.85-.28-1.49-.68-1.92-.4-.43-.94-.65-1.65-.65Z"/>
      <path class="cls-3" d="m124.29,109.35c.63,0,1.16-.18,1.57-.55.42-.37.64-.82.67-1.36h2.38c-.03.7-.25,1.36-.66,1.96-.41.61-.97,1.09-1.67,1.44-.7.35-1.46.53-2.27.53-1.58,0-2.83-.51-3.75-1.53-.92-1.02-1.39-2.43-1.39-4.23v-.26c0-1.71.46-3.09,1.38-4.12s2.17-1.55,3.75-1.55c1.34,0,2.43.39,3.28,1.17.84.78,1.29,1.81,1.33,3.08h-2.38c-.03-.65-.25-1.18-.66-1.59-.41-.42-.94-.62-1.58-.62-.82,0-1.45.3-1.9.89s-.67,1.49-.68,2.7v.41c0,1.22.22,2.13.66,2.73s1.08.9,1.91.9Z"/>
      <path class="cls-3" d="m135.25,97.16v2.74h1.99v1.88h-1.99v6.29c0,.43.08.74.25.93.17.19.47.29.91.29.29,0,.59-.04.89-.1v1.96c-.58.16-1.13.24-1.67.24-1.94,0-2.92-1.07-2.92-3.22v-6.38h-1.85v-1.88h1.85v-2.74h2.53Z"/>
      <path class="cls-3" d="m147.17,111.17c-.11-.21-.21-.57-.29-1.05-.81.84-1.79,1.26-2.96,1.26s-2.06-.32-2.77-.97c-.72-.65-1.07-1.44-1.07-2.39,0-1.2.45-2.12,1.34-2.77.89-.64,2.17-.96,3.83-.96h1.55v-.74c0-.58-.16-1.05-.49-1.4-.33-.35-.82-.53-1.49-.53-.58,0-1.05.14-1.42.43s-.55.65-.55,1.1h-2.53c0-.62.21-1.2.61-1.73s.97-.96,1.67-1.27c.7-.3,1.49-.46,2.36-.46,1.32,0,2.37.33,3.16,1s1.19,1.59,1.21,2.8v5.08c0,1.01.14,1.82.43,2.43v.18h-2.58Zm-2.78-1.82c.5,0,.97-.12,1.41-.37.44-.24.77-.57.99-.98v-2.12h-1.36c-.94,0-1.64.16-2.11.49-.47.33-.71.79-.71,1.39,0,.49.16.87.48,1.16s.75.43,1.3.43Z"/>
      <path class="cls-3" d="m155.58,99.9l.07,1.3c.83-1.01,1.93-1.51,3.28-1.51,2.35,0,3.54,1.34,3.58,4.03v7.45h-2.53v-7.3c0-.71-.15-1.25-.46-1.59-.31-.34-.81-.51-1.52-.51-1.02,0-1.78.46-2.28,1.38v8.02h-2.53v-11.27h2.39Z"/>
      <path class="cls-3" d="m165.88,105.45c0-1.74.4-3.13,1.21-4.18.81-1.05,1.89-1.58,3.24-1.58,1.19,0,2.16.42,2.9,1.25v-5.77h2.53v16h-2.29l-.12-1.17c-.76.92-1.77,1.37-3.03,1.37s-2.39-.53-3.2-1.59c-.82-1.06-1.22-2.51-1.22-4.33Zm2.53.22c0,1.15.22,2.04.66,2.68.44.64,1.07.96,1.88.96,1.03,0,1.79-.46,2.27-1.39v-4.81c-.47-.9-1.22-1.35-2.25-1.35-.82,0-1.45.32-1.9.97s-.67,1.63-.67,2.93Z"/>
      <path class="cls-3" d="m179.18,105.43c0-1.1.22-2.1.66-2.98.44-.88,1.05-1.57,1.84-2.04.79-.48,1.7-.71,2.73-.71,1.52,0,2.75.49,3.7,1.47.95.98,1.46,2.28,1.54,3.9v.59c.01,1.11-.2,2.1-.63,2.98s-1.04,1.55-1.83,2.03c-.79.48-1.71.72-2.75.72-1.59,0-2.86-.53-3.82-1.59-.95-1.06-1.43-2.47-1.43-4.23v-.12Zm2.53.22c0,1.16.24,2.07.72,2.72.48.66,1.15.98,2,.98s1.52-.33,1.99-1c.48-.67.71-1.64.71-2.93,0-1.14-.25-2.04-.73-2.71-.49-.67-1.15-1-1.99-1s-1.48.33-1.97.98-.73,1.64-.73,2.94Z"/>
      <path class="cls-3" d="m205.94,108.1c0-.45-.19-.79-.56-1.03-.37-.24-.99-.44-1.85-.62-.86-.18-1.58-.41-2.16-.69-1.26-.61-1.9-1.5-1.9-2.66,0-.97.41-1.78,1.23-2.44.82-.65,1.86-.98,3.12-.98,1.35,0,2.44.33,3.27,1,.83.67,1.24,1.53,1.24,2.59h-2.53c0-.49-.18-.89-.54-1.21-.36-.32-.84-.48-1.44-.48-.56,0-1.01.13-1.36.39s-.53.6-.53,1.03c0,.39.16.69.49.91.33.22.99.43,1.98.65s1.77.48,2.34.78c.57.3.99.67,1.26,1.09.27.42.41.94.41,1.54,0,1.01-.42,1.83-1.26,2.46-.84.63-1.94.94-3.3.94-.92,0-1.75-.17-2.47-.5-.72-.33-1.28-.79-1.69-1.37-.4-.58-.6-1.21-.6-1.89h2.46c.04.6.26,1.06.68,1.38.42.32.97.48,1.66.48s1.17-.13,1.52-.38c.35-.25.52-.58.52-1Z"/>
      <path class="cls-3" d="m211.42,105.43c0-1.1.22-2.1.66-2.98.44-.88,1.05-1.57,1.84-2.04.79-.48,1.7-.71,2.73-.71,1.52,0,2.75.49,3.7,1.47.95.98,1.46,2.28,1.54,3.9v.59c0,1.11-.2,2.1-.63,2.98-.43.88-1.04,1.55-1.83,2.03-.79.48-1.71.72-2.75.72-1.59,0-2.86-.53-3.82-1.59-.96-1.06-1.43-2.47-1.43-4.23v-.12Zm2.53.22c0,1.16.24,2.07.72,2.72.48.66,1.15.98,2,.98s1.52-.33,2-1c.48-.67.71-1.64.71-2.93,0-1.14-.24-2.04-.73-2.71-.49-.67-1.15-1-1.99-1s-1.48.33-1.97.98c-.49.66-.73,1.64-.73,2.94Z"/>
      <path class="cls-3" d="m231.19,102.21c-.33-.06-.68-.08-1.03-.08-1.16,0-1.94.44-2.34,1.33v7.71h-2.53v-11.27h2.42l.06,1.26c.61-.98,1.46-1.47,2.54-1.47.36,0,.66.05.9.15v2.38Z"/>
      <path class="cls-3" d="m239.95,102.21c-.33-.06-.68-.08-1.03-.08-1.16,0-1.94.44-2.34,1.33v7.71h-2.53v-11.27h2.42l.06,1.26c.61-.98,1.46-1.47,2.54-1.47.36,0,.66.05.9.15v2.38Z"/>
      <path class="cls-3" d="m242.81,96.97c0-.39.12-.71.37-.97.25-.26.6-.39,1.06-.39s.81.13,1.06.39.38.58.38.97-.12.7-.38.95c-.25.25-.6.38-1.06.38s-.81-.13-1.06-.38c-.25-.25-.37-.57-.37-.95Zm2.69,14.2h-2.53v-11.27h2.53v11.27Z"/>
      <path class="cls-3" d="m255.83,108.1c0-.45-.19-.79-.56-1.03-.37-.24-.99-.44-1.85-.62-.86-.18-1.58-.41-2.16-.69-1.26-.61-1.9-1.5-1.9-2.66,0-.97.41-1.78,1.23-2.44.82-.65,1.86-.98,3.12-.98,1.35,0,2.44.33,3.27,1,.83.67,1.24,1.53,1.24,2.59h-2.53c0-.49-.18-.89-.54-1.21-.36-.32-.84-.48-1.44-.48-.56,0-1.01.13-1.36.39s-.53.6-.53,1.03c0,.39.16.69.49.91.33.22.99.43,1.98.65s1.77.48,2.34.78c.57.3.99.67,1.26,1.09.27.42.41.94.41,1.54,0,1.01-.42,1.83-1.26,2.46-.84.63-1.94.94-3.3.94-.92,0-1.75-.17-2.47-.5-.72-.33-1.28-.79-1.69-1.37-.4-.58-.6-1.21-.6-1.89h2.46c.04.6.26,1.06.68,1.38.42.32.97.48,1.66.48s1.17-.13,1.52-.38c.35-.25.52-.58.52-1Z"/>
      <path class="cls-3" d="m261.31,105.43c0-1.1.22-2.1.66-2.98.44-.88,1.05-1.57,1.84-2.04.79-.48,1.7-.71,2.73-.71,1.52,0,2.75.49,3.7,1.47.95.98,1.46,2.28,1.54,3.9v.59c0,1.11-.2,2.1-.63,2.98-.43.88-1.04,1.55-1.83,2.03-.79.48-1.71.72-2.75.72-1.59,0-2.86-.53-3.82-1.59-.96-1.06-1.43-2.47-1.43-4.23v-.12Zm2.53.22c0,1.16.24,2.07.72,2.72.48.66,1.15.98,2,.98s1.52-.33,2-1c.48-.67.71-1.64.71-2.93,0-1.14-.24-2.04-.73-2.71-.49-.67-1.15-1-1.99-1s-1.48.33-1.97.98c-.49.66-.73,1.64-.73,2.94Z"/>
      <path class="cls-3" d="m281.5,108.1c0-.45-.19-.79-.56-1.03-.37-.24-.99-.44-1.85-.62-.86-.18-1.58-.41-2.16-.69-1.26-.61-1.9-1.5-1.9-2.66,0-.97.41-1.78,1.23-2.44.82-.65,1.86-.98,3.12-.98,1.35,0,2.43.33,3.26,1s1.24,1.53,1.24,2.59h-2.53c0-.49-.18-.89-.54-1.21-.36-.32-.84-.48-1.44-.48-.56,0-1.01.13-1.36.39s-.53.6-.53,1.03c0,.39.16.69.49.91.33.22.99.43,1.98.65.99.22,1.77.48,2.34.78.57.3.99.67,1.26,1.09.27.42.41.94.41,1.54,0,1.01-.42,1.83-1.26,2.46-.84.63-1.94.94-3.3.94-.92,0-1.75-.17-2.47-.5-.72-.33-1.29-.79-1.69-1.37-.4-.58-.6-1.21-.6-1.89h2.46c.03.6.26,1.06.68,1.38.42.32.97.48,1.66.48s1.17-.13,1.52-.38c.35-.25.52-.58.52-1Z"/>
    </g>
  </g>
  <circle id="Elipse_12" data-name="Elipse 12" class="cls-3" cx="176.45" cy="16.86" r="9.19"/>
</svg>