<?xml version="1.0" encoding="UTF-8"?>
<svg id="Camada_1" data-name="Camada 1" xmlns="http://www.w3.org/2000/svg" viewBox="0 0 1703.55 1190.08">
  <defs>
    <style>
      .cls-1 {
        fill: #fff;
      }

      .cls-2 {
        fill: #004685;
      }

      .cls-3 {
        fill: #0bbcd4;
      }

      .cls-4 {
        fill: #78d6dd;
      }

      .cls-5 {
        fill: #007ff2;
      }

      .cls-6 {
        fill: #0060b8;
      }

      .cls-7 {
        fill: #0b4875;
      }

      .cls-8 {
        fill: none;
        stroke: #fff;
        stroke-width: 2px;
      }

      .cls-9 {
        fill: #04365b;
      }
    </style>
  </defs>
  <path class="cls-9" d="m118.88,28.08h1487.79c34.15,0,61.88,27.73,61.88,61.88v1055.12H118.88c-34.15,0-61.88-27.73-61.88-61.88V89.96c0-34.15,27.73-61.88,61.88-61.88Z"/>
  <path class="cls-7" d="m249.88,27.08h1419.12v944.12c0,34.15-27.73,61.88-61.88,61.88H249.88c-34.15,0-61.88-27.73-61.88-61.88V88.96c0-34.15,27.73-61.88,61.88-61.88Z"/>
  <rect class="cls-2" x="303" y="152.08" width="1366" height="881" rx="61.88" ry="61.88"/>
  <rect class="cls-6" x="444.45" y="284.08" width="1224.55" height="749" rx="61.88" ry="61.88"/>
  <rect class="cls-5" x="601.73" y="415.08" width="1067.27" height="618" rx="61.88" ry="61.88"/>
  <rect class="cls-3" x="740" y="540.08" width="929" height="493" rx="61.88" ry="61.88"/>
  <g>
    <path class="cls-1" d="m964.3,81.22h-11.6v-5.5h29.7v5.5h-11.6v29.5h-6.5v-29.5Z"/>
    <path class="cls-1" d="m981.75,97.38c0-8,6-13.65,14.2-13.65s14.25,5.65,14.25,13.65-5.95,13.7-14.25,13.7-14.2-5.7-14.2-13.7Zm22.15,0c0-5.1-3.4-8.35-7.95-8.35s-7.9,3.25-7.9,8.35,3.4,8.35,7.9,8.35,7.95-3.25,7.95-8.35Z"/>
    <path class="cls-1" d="m1044.55,97.38c0,8.3-5.75,13.7-13.55,13.7-3.4,0-6.4-1.15-8.55-3.6v12.95h-6.25v-36.4h5.95v3.5c2.1-2.55,5.2-3.8,8.85-3.8,7.8,0,13.55,5.4,13.55,13.65Zm-6.35,0c0-5.1-3.4-8.35-7.9-8.35s-7.95,3.25-7.95,8.35,3.45,8.35,7.95,8.35,7.9-3.25,7.9-8.35Z"/>
    <path class="cls-1" d="m1094.2,88.17c0,7.7-5.7,12.45-14.9,12.45h-7.9v10.1h-6.5v-35h14.4c9.2,0,14.9,4.7,14.9,12.45Zm-6.55,0c0-4.4-2.95-6.95-8.65-6.95h-7.6v13.9h7.6c5.7,0,8.65-2.55,8.65-6.95Z"/>
    <path class="cls-1" d="m1100.6,73.62h6.25v37.1h-6.25v-37.1Z"/>
    <path class="cls-1" d="m1137.4,95.08v15.65h-5.9v-3.25c-1.5,2.3-4.4,3.6-8.4,3.6-6.1,0-9.95-3.35-9.95-8s3-7.95,11.1-7.95h6.9v-.4c0-3.65-2.2-5.8-6.65-5.8-3,0-6.1,1-8.1,2.65l-2.45-4.55c2.85-2.2,7-3.3,11.3-3.3,7.7,0,12.15,3.65,12.15,11.35Zm-6.25,7.3v-3.1h-6.45c-4.25,0-5.4,1.6-5.4,3.55,0,2.25,1.9,3.7,5.1,3.7s5.7-1.4,6.75-4.15Z"/>
    <path class="cls-1" d="m1161.45,109.28c-1.5,1.2-3.75,1.8-6,1.8-5.85,0-9.2-3.1-9.2-9v-12.85h-4.4v-5h4.4v-6.1h6.25v6.1h7.15v5h-7.15v12.7c0,2.6,1.3,4,3.7,4,1.3,0,2.55-.35,3.5-1.1l1.75,4.45Z"/>
    <path class="cls-1" d="m1165.75,75.87c0-2.1,1.7-3.75,4-3.75s4,1.55,4,3.6c0,2.2-1.65,3.9-4,3.9s-4-1.65-4-3.75Zm.85,8.15h6.25v26.7h-6.25v-26.7Z"/>
    <path class="cls-1" d="m1207.35,95.43v15.3h-6.25v-14.5c0-4.75-2.35-7.05-6.35-7.05-4.45,0-7.45,2.7-7.45,8.05v13.5h-6.25v-26.7h5.95v3.45c2.05-2.45,5.3-3.75,9.2-3.75,6.4,0,11.15,3.65,11.15,11.7Z"/>
    <path class="cls-1" d="m1241.15,84.02v26.7h-5.95v-3.4c-2,2.45-5.15,3.75-8.6,3.75-6.85,0-11.5-3.75-11.5-11.8v-15.25h6.25v14.4c0,4.85,2.3,7.15,6.25,7.15,4.35,0,7.3-2.7,7.3-8.05v-13.5h6.25Z"/>
    <path class="cls-1" d="m1294,95.43v15.3h-6.25v-14.5c0-4.75-2.2-7.05-6-7.05-4.1,0-6.95,2.7-6.95,8v13.55h-6.25v-14.5c0-4.75-2.2-7.05-6-7.05-4.15,0-6.95,2.7-6.95,8v13.55h-6.25v-26.7h5.95v3.4c2-2.4,5.1-3.7,8.75-3.7,3.9,0,7.15,1.45,9,4.45,2.15-2.75,5.75-4.45,10-4.45,6.45,0,10.95,3.65,10.95,11.7Z"/>
  </g>
  <g>
    <g>
      <path class="cls-1" d="m1457.86,93.82v8.78h-35.18v-6.98l17.95-16.96c4.12-3.92,4.85-6.32,4.85-8.58,0-3.66-2.53-5.79-7.45-5.79-3.99,0-7.38,1.53-9.64,4.65l-7.85-5.05c3.59-5.25,10.11-8.64,18.49-8.64,10.37,0,17.29,5.32,17.29,13.76,0,4.52-1.26,8.65-7.78,14.7l-10.71,10.11h20.02Z"/>
      <path class="cls-1" d="m1502.61,89.1c0,8.78-7.85,14.3-19.68,14.3s-19.55-5.52-19.55-14.3c0-4.99,2.59-8.71,7.05-10.97-3.46-2.13-5.39-5.39-5.39-9.58,0-8.18,7.31-13.3,17.89-13.3s18.02,5.12,18.02,13.3c0,4.19-2,7.45-5.45,9.58,4.52,2.26,7.12,5.98,7.12,10.97Zm-10.91-.33c0-4.12-3.39-6.65-8.78-6.65s-8.64,2.53-8.64,6.65,3.32,6.72,8.64,6.72,8.78-2.59,8.78-6.72Zm-15.96-19.75c0,3.52,2.79,5.72,7.18,5.72s7.31-2.19,7.31-5.72-2.93-5.85-7.31-5.85-7.18,2.19-7.18,5.85Z"/>
      <path class="cls-1" d="m1547.3,87.91c0,9.51-7.78,15.49-17.62,15.49-12.83,0-20.81-8.05-20.81-23.07,0-16.09,9.71-25.07,23.74-25.07,4.92,0,9.71,1.13,12.97,3.19l-3.99,7.91c-2.59-1.73-5.59-2.33-8.71-2.33-7.78,0-12.77,4.59-13.1,13.5,2.73-2.73,6.65-4.12,11.5-4.12,8.98,0,16.03,5.72,16.03,14.5Zm-10.44.53c0-4.26-3.12-6.98-7.91-6.98s-8.05,2.93-8.05,6.98,2.99,6.92,8.18,6.92c4.59,0,7.78-2.66,7.78-6.92Z"/>
    </g>
    <g>
      <path class="cls-1" d="m1432.77,119.26c0,3.45-2.58,5.59-6.72,5.59h-3.12v4.26h-3.58v-15.47h6.69c4.13,0,6.72,2.14,6.72,5.61Zm-3.62,0c0-1.7-1.11-2.7-3.29-2.7h-2.92v5.37h2.92c2.19,0,3.29-.99,3.29-2.67Z"/>
      <path class="cls-1" d="m1442.44,117.05v3.18c-.29-.02-.51-.04-.77-.04-1.9,0-3.16,1.04-3.16,3.31v5.61h-3.45v-11.89h3.29v1.57c.84-1.15,2.25-1.75,4.09-1.75Z"/>
      <path class="cls-1" d="m1443.5,123.17c0-3.58,2.76-6.12,6.54-6.12s6.52,2.54,6.52,6.12-2.74,6.12-6.52,6.12-6.54-2.54-6.54-6.12Zm9.57,0c0-2.05-1.3-3.29-3.03-3.29s-3.05,1.24-3.05,3.29,1.33,3.29,3.05,3.29,3.03-1.24,3.03-3.29Z"/>
      <path class="cls-1" d="m1457.97,123.17c0-3.58,2.76-6.12,6.63-6.12,2.5,0,4.46,1.08,5.33,3.03l-2.67,1.44c-.64-1.13-1.59-1.63-2.67-1.63-1.75,0-3.12,1.21-3.12,3.29s1.37,3.29,3.12,3.29c1.08,0,2.03-.49,2.67-1.63l2.67,1.46c-.86,1.9-2.83,3-5.33,3-3.87,0-6.63-2.54-6.63-6.12Z"/>
      <path class="cls-1" d="m1483.34,124.15h-8.99c.33,1.48,1.59,2.39,3.4,2.39,1.26,0,2.17-.38,2.98-1.15l1.83,1.99c-1.11,1.26-2.76,1.92-4.91,1.92-4.11,0-6.78-2.58-6.78-6.12s2.72-6.12,6.34-6.12,6.19,2.34,6.19,6.16c0,.27-.04.64-.07.93Zm-9.04-2.01h5.86c-.24-1.5-1.37-2.47-2.92-2.47s-2.7.95-2.94,2.47Z"/>
      <path class="cls-1" d="m1497.81,112.72v16.39h-3.29v-1.37c-.86,1.04-2.12,1.55-3.71,1.55-3.36,0-5.94-2.39-5.94-6.12s2.58-6.12,5.94-6.12c1.46,0,2.7.46,3.56,1.44v-5.77h3.45Zm-3.38,10.45c0-2.05-1.33-3.29-3.03-3.29s-3.05,1.24-3.05,3.29,1.33,3.29,3.05,3.29,3.03-1.24,3.03-3.29Z"/>
      <path class="cls-1" d="m1500.57,113.65c0-1.08.86-1.92,2.14-1.92s2.14.8,2.14,1.86c0,1.15-.86,1.99-2.14,1.99s-2.14-.84-2.14-1.92Zm.42,3.58h3.45v11.89h-3.45v-11.89Z"/>
      <path class="cls-1" d="m1527.72,122.31v6.81h-3.45v-6.27c0-1.92-.86-2.81-2.25-2.81-1.55,0-2.63.99-2.63,3.12v5.97h-3.45v-6.27c0-1.92-.82-2.81-2.25-2.81-1.52,0-2.61.99-2.61,3.12v5.97h-3.45v-11.89h3.29v1.37c.88-1.02,2.21-1.55,3.73-1.55,1.66,0,3.07.64,3.91,1.94.95-1.22,2.5-1.94,4.29-1.94,2.83,0,4.86,1.63,4.86,5.26Z"/>
      <path class="cls-1" d="m1542.52,124.15h-8.99c.33,1.48,1.59,2.39,3.4,2.39,1.26,0,2.17-.38,2.98-1.15l1.83,1.99c-1.11,1.26-2.76,1.92-4.91,1.92-4.11,0-6.78-2.58-6.78-6.12s2.72-6.12,6.34-6.12,6.19,2.34,6.19,6.16c0,.27-.04.64-.07.93Zm-9.04-2.01h5.85c-.24-1.5-1.37-2.47-2.92-2.47s-2.7.95-2.94,2.47Z"/>
      <path class="cls-1" d="m1557.04,122.31v6.81h-3.45v-6.27c0-1.92-.88-2.81-2.41-2.81-1.66,0-2.85,1.02-2.85,3.2v5.88h-3.45v-11.89h3.29v1.39c.93-1.02,2.32-1.57,3.93-1.57,2.81,0,4.93,1.63,4.93,5.26Z"/>
      <path class="cls-1" d="m1567.82,128.54c-.71.51-1.75.75-2.81.75-2.81,0-4.44-1.44-4.44-4.26v-4.88h-1.83v-2.65h1.83v-2.89h3.45v2.89h2.96v2.65h-2.96v4.84c0,1.02.55,1.57,1.48,1.57.51,0,1.02-.15,1.39-.44l.93,2.43Z"/>
      <path class="cls-1" d="m1568.5,123.17c0-3.58,2.76-6.12,6.54-6.12s6.52,2.54,6.52,6.12-2.74,6.12-6.52,6.12-6.54-2.54-6.54-6.12Zm9.57,0c0-2.05-1.3-3.29-3.03-3.29s-3.05,1.24-3.05,3.29,1.33,3.29,3.05,3.29,3.03-1.24,3.03-3.29Z"/>
      <path class="cls-1" d="m1582.71,128.01l1.15-2.47c1.06.68,2.67,1.15,4.13,1.15,1.59,0,2.19-.42,2.19-1.08,0-1.94-7.18.04-7.18-4.71,0-2.25,2.03-3.84,5.5-3.84,1.64,0,3.45.38,4.57,1.04l-1.15,2.45c-1.17-.66-2.34-.88-3.42-.88-1.55,0-2.21.49-2.21,1.1,0,2.03,7.18.07,7.18,4.75,0,2.21-2.05,3.78-5.61,3.78-2.01,0-4.04-.55-5.15-1.28Z"/>
    </g>
  </g>
  <g>
    <g>
      <path class="cls-1" d="m1459.68,217.37v8.78h-35.18v-6.98l17.95-16.96c4.12-3.92,4.85-6.32,4.85-8.58,0-3.66-2.53-5.79-7.45-5.79-3.99,0-7.38,1.53-9.64,4.65l-7.85-5.05c3.59-5.25,10.11-8.64,18.49-8.64,10.37,0,17.29,5.32,17.29,13.76,0,4.52-1.26,8.65-7.78,14.7l-10.71,10.11h20.02Z"/>
      <path class="cls-1" d="m1504.44,212.65c0,8.78-7.85,14.3-19.68,14.3s-19.55-5.52-19.55-14.3c0-4.99,2.59-8.71,7.05-10.97-3.46-2.13-5.39-5.39-5.39-9.58,0-8.18,7.31-13.3,17.89-13.3s18.02,5.12,18.02,13.3c0,4.19-2,7.45-5.45,9.58,4.52,2.26,7.12,5.98,7.12,10.97Zm-10.91-.33c0-4.12-3.39-6.65-8.78-6.65s-8.64,2.53-8.64,6.65,3.32,6.72,8.64,6.72,8.78-2.59,8.78-6.72Zm-15.96-19.75c0,3.52,2.79,5.72,7.18,5.72s7.31-2.19,7.31-5.72-2.93-5.85-7.31-5.85-7.18,2.19-7.18,5.85Z"/>
      <path class="cls-1" d="m1545.47,217.37v8.78h-35.18v-6.98l17.95-16.96c4.12-3.92,4.85-6.32,4.85-8.58,0-3.66-2.53-5.79-7.45-5.79-3.99,0-7.38,1.53-9.64,4.65l-7.85-5.05c3.59-5.25,10.11-8.64,18.49-8.64,10.37,0,17.29,5.32,17.29,13.76,0,4.52-1.26,8.65-7.78,14.7l-10.71,10.11h20.02Z"/>
    </g>
    <g>
      <path class="cls-1" d="m1434.59,242.8c0,3.45-2.58,5.59-6.72,5.59h-3.12v4.26h-3.58v-15.47h6.69c4.13,0,6.72,2.14,6.72,5.61Zm-3.62,0c0-1.7-1.11-2.7-3.29-2.7h-2.92v5.37h2.92c2.19,0,3.29-.99,3.29-2.67Z"/>
      <path class="cls-1" d="m1444.27,240.6v3.18c-.29-.02-.51-.04-.77-.04-1.9,0-3.16,1.04-3.16,3.31v5.61h-3.45v-11.89h3.29v1.57c.84-1.15,2.25-1.75,4.09-1.75Z"/>
      <path class="cls-1" d="m1445.33,246.72c0-3.58,2.76-6.12,6.54-6.12s6.52,2.54,6.52,6.12-2.74,6.12-6.52,6.12-6.54-2.54-6.54-6.12Zm9.57,0c0-2.05-1.3-3.29-3.03-3.29s-3.05,1.24-3.05,3.29,1.33,3.29,3.05,3.29,3.03-1.24,3.03-3.29Z"/>
      <path class="cls-1" d="m1459.8,246.72c0-3.58,2.76-6.12,6.63-6.12,2.5,0,4.46,1.08,5.33,3.03l-2.67,1.44c-.64-1.13-1.59-1.63-2.67-1.63-1.75,0-3.12,1.21-3.12,3.29s1.37,3.29,3.12,3.29c1.08,0,2.03-.49,2.67-1.63l2.67,1.46c-.86,1.9-2.83,3-5.33,3-3.87,0-6.63-2.54-6.63-6.12Z"/>
      <path class="cls-1" d="m1485.17,247.69h-8.99c.33,1.48,1.59,2.39,3.4,2.39,1.26,0,2.17-.38,2.98-1.15l1.83,1.99c-1.11,1.26-2.76,1.92-4.91,1.92-4.11,0-6.78-2.58-6.78-6.12s2.72-6.12,6.34-6.12,6.19,2.34,6.19,6.16c0,.27-.04.64-.07.93Zm-9.04-2.01h5.86c-.24-1.5-1.37-2.47-2.92-2.47s-2.7.95-2.94,2.47Z"/>
      <path class="cls-1" d="m1499.64,236.26v16.39h-3.29v-1.37c-.86,1.04-2.12,1.55-3.71,1.55-3.36,0-5.94-2.39-5.94-6.12s2.58-6.12,5.94-6.12c1.46,0,2.7.46,3.56,1.44v-5.77h3.45Zm-3.38,10.45c0-2.05-1.33-3.29-3.03-3.29s-3.05,1.24-3.05,3.29,1.33,3.29,3.05,3.29,3.03-1.24,3.03-3.29Z"/>
      <path class="cls-1" d="m1502.4,237.19c0-1.08.86-1.92,2.14-1.92s2.14.8,2.14,1.86c0,1.15-.86,1.99-2.14,1.99s-2.14-.84-2.14-1.92Zm.42,3.58h3.45v11.89h-3.45v-11.89Z"/>
      <path class="cls-1" d="m1529.55,245.85v6.81h-3.45v-6.27c0-1.92-.86-2.81-2.25-2.81-1.55,0-2.63.99-2.63,3.12v5.97h-3.45v-6.27c0-1.92-.82-2.81-2.25-2.81-1.52,0-2.61.99-2.61,3.12v5.97h-3.45v-11.89h3.29v1.37c.88-1.02,2.21-1.55,3.73-1.55,1.66,0,3.07.64,3.91,1.94.95-1.22,2.5-1.94,4.29-1.94,2.83,0,4.86,1.63,4.86,5.26Z"/>
      <path class="cls-1" d="m1544.35,247.69h-8.99c.33,1.48,1.59,2.39,3.4,2.39,1.26,0,2.17-.38,2.98-1.15l1.83,1.99c-1.11,1.26-2.76,1.92-4.91,1.92-4.11,0-6.78-2.58-6.78-6.12s2.72-6.12,6.34-6.12,6.19,2.34,6.19,6.16c0,.27-.04.64-.07.93Zm-9.04-2.01h5.85c-.24-1.5-1.37-2.47-2.92-2.47s-2.7.95-2.94,2.47Z"/>
      <path class="cls-1" d="m1558.87,245.85v6.81h-3.45v-6.27c0-1.92-.88-2.81-2.41-2.81-1.66,0-2.85,1.02-2.85,3.2v5.88h-3.45v-11.89h3.29v1.39c.93-1.02,2.32-1.57,3.93-1.57,2.81,0,4.93,1.63,4.93,5.26Z"/>
      <path class="cls-1" d="m1569.65,252.08c-.71.51-1.75.75-2.81.75-2.81,0-4.44-1.44-4.44-4.26v-4.88h-1.83v-2.65h1.83v-2.89h3.45v2.89h2.96v2.65h-2.96v4.84c0,1.02.55,1.57,1.48,1.57.51,0,1.02-.15,1.39-.44l.93,2.43Z"/>
      <path class="cls-1" d="m1570.33,246.72c0-3.58,2.76-6.12,6.54-6.12s6.52,2.54,6.52,6.12-2.74,6.12-6.52,6.12-6.54-2.54-6.54-6.12Zm9.57,0c0-2.05-1.3-3.29-3.03-3.29s-3.05,1.24-3.05,3.29,1.33,3.29,3.05,3.29,3.03-1.24,3.03-3.29Z"/>
      <path class="cls-1" d="m1584.54,251.55l1.15-2.47c1.06.68,2.67,1.15,4.13,1.15,1.59,0,2.19-.42,2.19-1.08,0-1.94-7.18.04-7.18-4.71,0-2.25,2.03-3.84,5.5-3.84,1.64,0,3.45.38,4.57,1.04l-1.15,2.45c-1.17-.66-2.34-.88-3.42-.88-1.55,0-2.21.49-2.21,1.1,0,2.03,7.18.07,7.18,4.75,0,2.21-2.05,3.78-5.61,3.78-2.01,0-4.04-.55-5.15-1.28Z"/>
    </g>
  </g>
  <g>
    <g>
      <path class="cls-1" d="m1458.69,352.37v8.78h-35.18v-6.98l17.95-16.96c4.12-3.92,4.86-6.32,4.86-8.58,0-3.66-2.53-5.79-7.45-5.79-3.99,0-7.38,1.53-9.64,4.65l-7.85-5.05c3.59-5.25,10.11-8.64,18.49-8.64,10.38,0,17.29,5.32,17.29,13.76,0,4.52-1.26,8.65-7.78,14.7l-10.71,10.11h20.02Z"/>
      <path class="cls-1" d="m1506.43,351.37h-7.58v9.78h-10.51v-9.78h-25.07v-7.25l21.94-29.52h11.3l-20.35,28h12.5v-8.71h10.17v8.71h7.58v8.78Z"/>
      <path class="cls-1" d="m1547.86,336.87c0,16.09-9.64,25.07-23.74,25.07-4.92,0-9.64-1.13-12.9-3.19l3.99-7.91c2.53,1.73,5.52,2.33,8.71,2.33,7.71,0,12.77-4.59,13.1-13.57-2.73,2.73-6.72,4.19-11.57,4.19-8.98,0-16.03-5.72-16.03-14.5,0-9.51,7.78-15.49,17.62-15.49,12.9,0,20.81,8.05,20.81,23.07Zm-12.04-8.11c0-3.99-2.99-6.92-8.11-6.92-4.59,0-7.78,2.66-7.78,6.92s3.12,6.98,7.91,6.98,7.98-2.93,7.98-6.98Z"/>
    </g>
    <g>
      <path class="cls-1" d="m1433.59,377.8c0,3.45-2.58,5.59-6.72,5.59h-3.12v4.26h-3.58v-15.47h6.69c4.13,0,6.72,2.14,6.72,5.61Zm-3.62,0c0-1.7-1.11-2.7-3.29-2.7h-2.92v5.37h2.92c2.19,0,3.29-.99,3.29-2.67Z"/>
      <path class="cls-1" d="m1443.27,375.6v3.18c-.29-.02-.51-.04-.77-.04-1.9,0-3.16,1.04-3.16,3.31v5.61h-3.45v-11.89h3.29v1.57c.84-1.15,2.25-1.75,4.09-1.75Z"/>
      <path class="cls-1" d="m1444.33,381.72c0-3.58,2.76-6.12,6.54-6.12s6.52,2.54,6.52,6.12-2.74,6.12-6.52,6.12-6.54-2.54-6.54-6.12Zm9.57,0c0-2.05-1.3-3.29-3.03-3.29s-3.05,1.24-3.05,3.29,1.32,3.29,3.05,3.29,3.03-1.24,3.03-3.29Z"/>
      <path class="cls-1" d="m1458.8,381.72c0-3.58,2.76-6.12,6.63-6.12,2.5,0,4.46,1.08,5.33,3.03l-2.67,1.44c-.64-1.13-1.59-1.63-2.67-1.63-1.75,0-3.12,1.21-3.12,3.29s1.37,3.29,3.12,3.29c1.08,0,2.03-.49,2.67-1.63l2.67,1.46c-.86,1.9-2.83,3-5.33,3-3.87,0-6.63-2.54-6.63-6.12Z"/>
      <path class="cls-1" d="m1484.17,382.69h-8.99c.33,1.48,1.59,2.39,3.4,2.39,1.26,0,2.17-.38,2.98-1.15l1.83,1.99c-1.11,1.26-2.76,1.92-4.9,1.92-4.11,0-6.78-2.58-6.78-6.12s2.72-6.12,6.34-6.12,6.19,2.34,6.19,6.16c0,.27-.04.64-.07.93Zm-9.04-2.01h5.86c-.24-1.5-1.37-2.47-2.92-2.47s-2.7.95-2.94,2.47Z"/>
      <path class="cls-1" d="m1498.64,371.26v16.39h-3.29v-1.37c-.86,1.04-2.12,1.55-3.71,1.55-3.36,0-5.94-2.39-5.94-6.12s2.58-6.12,5.94-6.12c1.46,0,2.7.46,3.56,1.44v-5.77h3.45Zm-3.38,10.45c0-2.05-1.33-3.29-3.03-3.29s-3.05,1.24-3.05,3.29,1.33,3.29,3.05,3.29,3.03-1.24,3.03-3.29Z"/>
      <path class="cls-1" d="m1501.4,372.19c0-1.08.86-1.92,2.14-1.92s2.14.8,2.14,1.86c0,1.15-.86,1.99-2.14,1.99s-2.14-.84-2.14-1.92Zm.42,3.58h3.45v11.89h-3.45v-11.89Z"/>
      <path class="cls-1" d="m1528.55,380.85v6.81h-3.45v-6.27c0-1.92-.86-2.81-2.25-2.81-1.55,0-2.63.99-2.63,3.12v5.97h-3.45v-6.27c0-1.92-.82-2.81-2.25-2.81-1.53,0-2.61.99-2.61,3.12v5.97h-3.45v-11.89h3.29v1.37c.88-1.02,2.21-1.55,3.73-1.55,1.66,0,3.07.64,3.91,1.94.95-1.22,2.5-1.94,4.29-1.94,2.83,0,4.86,1.63,4.86,5.26Z"/>
      <path class="cls-1" d="m1543.35,382.69h-8.99c.33,1.48,1.59,2.39,3.4,2.39,1.26,0,2.17-.38,2.98-1.15l1.83,1.99c-1.11,1.26-2.76,1.92-4.91,1.92-4.11,0-6.78-2.58-6.78-6.12s2.72-6.12,6.34-6.12,6.19,2.34,6.19,6.16c0,.27-.04.64-.07.93Zm-9.04-2.01h5.85c-.24-1.5-1.37-2.47-2.92-2.47s-2.7.95-2.94,2.47Z"/>
      <path class="cls-1" d="m1557.87,380.85v6.81h-3.45v-6.27c0-1.92-.88-2.81-2.41-2.81-1.66,0-2.85,1.02-2.85,3.2v5.88h-3.45v-11.89h3.29v1.39c.93-1.02,2.32-1.57,3.93-1.57,2.81,0,4.93,1.63,4.93,5.26Z"/>
      <path class="cls-1" d="m1568.65,387.08c-.71.51-1.75.75-2.81.75-2.8,0-4.44-1.44-4.44-4.26v-4.88h-1.83v-2.65h1.83v-2.89h3.45v2.89h2.96v2.65h-2.96v4.84c0,1.02.55,1.57,1.48,1.57.51,0,1.02-.15,1.39-.44l.93,2.43Z"/>
      <path class="cls-1" d="m1569.33,381.72c0-3.58,2.76-6.12,6.54-6.12s6.52,2.54,6.52,6.12-2.74,6.12-6.52,6.12-6.54-2.54-6.54-6.12Zm9.57,0c0-2.05-1.3-3.29-3.03-3.29s-3.05,1.24-3.05,3.29,1.33,3.29,3.05,3.29,3.03-1.24,3.03-3.29Z"/>
      <path class="cls-1" d="m1583.54,386.55l1.15-2.47c1.06.68,2.67,1.15,4.13,1.15,1.59,0,2.19-.42,2.19-1.08,0-1.95-7.18.04-7.18-4.71,0-2.25,2.03-3.84,5.5-3.84,1.63,0,3.45.38,4.57,1.04l-1.15,2.45c-1.17-.66-2.34-.88-3.42-.88-1.55,0-2.21.49-2.21,1.1,0,2.03,7.18.07,7.18,4.75,0,2.21-2.05,3.78-5.61,3.78-2.01,0-4.04-.55-5.15-1.28Z"/>
    </g>
  </g>
  <g>
    <g>
      <path class="cls-1" d="m1458.69,479.37v8.78h-35.18v-6.98l17.95-16.96c4.12-3.92,4.86-6.32,4.86-8.58,0-3.66-2.53-5.79-7.45-5.79-3.99,0-7.38,1.53-9.64,4.66l-7.85-5.05c3.59-5.25,10.11-8.64,18.49-8.64,10.38,0,17.29,5.32,17.29,13.76,0,4.52-1.26,8.65-7.78,14.7l-10.71,10.11h20.02Z"/>
      <path class="cls-1" d="m1506.43,478.37h-7.58v9.78h-10.51v-9.78h-25.07v-7.25l21.94-29.52h11.3l-20.35,28h12.5v-8.71h10.17v8.71h7.58v8.78Z"/>
      <path class="cls-1" d="m1545.6,479.37v8.78h-35.18v-6.98l17.95-16.96c4.12-3.92,4.86-6.32,4.86-8.58,0-3.66-2.53-5.79-7.45-5.79-3.99,0-7.38,1.53-9.64,4.66l-7.85-5.05c3.59-5.25,10.11-8.64,18.49-8.64,10.38,0,17.29,5.32,17.29,13.76,0,4.52-1.26,8.65-7.78,14.7l-10.71,10.11h20.02Z"/>
    </g>
    <g>
      <path class="cls-1" d="m1433.59,504.8c0,3.45-2.58,5.59-6.72,5.59h-3.12v4.26h-3.58v-15.47h6.69c4.13,0,6.72,2.14,6.72,5.61Zm-3.62,0c0-1.7-1.11-2.7-3.29-2.7h-2.92v5.37h2.92c2.19,0,3.29-.99,3.29-2.67Z"/>
      <path class="cls-1" d="m1443.27,502.6v3.18c-.29-.02-.51-.04-.77-.04-1.9,0-3.16,1.04-3.16,3.31v5.61h-3.45v-11.89h3.29v1.57c.84-1.15,2.25-1.75,4.09-1.75Z"/>
      <path class="cls-1" d="m1444.33,508.72c0-3.58,2.76-6.12,6.54-6.12s6.52,2.54,6.52,6.12-2.74,6.12-6.52,6.12-6.54-2.54-6.54-6.12Zm9.57,0c0-2.05-1.3-3.29-3.03-3.29s-3.05,1.24-3.05,3.29,1.32,3.29,3.05,3.29,3.03-1.24,3.03-3.29Z"/>
      <path class="cls-1" d="m1458.8,508.72c0-3.58,2.76-6.12,6.63-6.12,2.5,0,4.46,1.08,5.33,3.03l-2.67,1.44c-.64-1.13-1.59-1.63-2.67-1.63-1.75,0-3.12,1.21-3.12,3.29s1.37,3.29,3.12,3.29c1.08,0,2.03-.49,2.67-1.63l2.67,1.46c-.86,1.9-2.83,3-5.33,3-3.87,0-6.63-2.54-6.63-6.12Z"/>
      <path class="cls-1" d="m1484.17,509.69h-8.99c.33,1.48,1.59,2.39,3.4,2.39,1.26,0,2.17-.38,2.98-1.15l1.83,1.99c-1.11,1.26-2.76,1.92-4.9,1.92-4.11,0-6.78-2.58-6.78-6.12s2.72-6.12,6.34-6.12,6.19,2.34,6.19,6.16c0,.27-.04.64-.07.93Zm-9.04-2.01h5.86c-.24-1.5-1.37-2.47-2.92-2.47s-2.7.95-2.94,2.47Z"/>
      <path class="cls-1" d="m1498.64,498.26v16.39h-3.29v-1.37c-.86,1.04-2.12,1.55-3.71,1.55-3.36,0-5.94-2.39-5.94-6.12s2.58-6.12,5.94-6.12c1.46,0,2.7.46,3.56,1.44v-5.77h3.45Zm-3.38,10.45c0-2.05-1.33-3.29-3.03-3.29s-3.05,1.24-3.05,3.29,1.33,3.29,3.05,3.29,3.03-1.24,3.03-3.29Z"/>
      <path class="cls-1" d="m1501.4,499.19c0-1.08.86-1.92,2.14-1.92s2.14.8,2.14,1.86c0,1.15-.86,1.99-2.14,1.99s-2.14-.84-2.14-1.92Zm.42,3.58h3.45v11.89h-3.45v-11.89Z"/>
      <path class="cls-1" d="m1528.55,507.85v6.81h-3.45v-6.27c0-1.92-.86-2.81-2.25-2.81-1.55,0-2.63.99-2.63,3.12v5.97h-3.45v-6.27c0-1.92-.82-2.81-2.25-2.81-1.53,0-2.61.99-2.61,3.12v5.97h-3.45v-11.89h3.29v1.37c.88-1.02,2.21-1.55,3.73-1.55,1.66,0,3.07.64,3.91,1.94.95-1.22,2.5-1.94,4.29-1.94,2.83,0,4.86,1.63,4.86,5.26Z"/>
      <path class="cls-1" d="m1543.35,509.69h-8.99c.33,1.48,1.59,2.39,3.4,2.39,1.26,0,2.17-.38,2.98-1.15l1.83,1.99c-1.11,1.26-2.76,1.92-4.91,1.92-4.11,0-6.78-2.58-6.78-6.12s2.72-6.12,6.34-6.12,6.19,2.34,6.19,6.16c0,.27-.04.64-.07.93Zm-9.04-2.01h5.85c-.24-1.5-1.37-2.47-2.92-2.47s-2.7.95-2.94,2.47Z"/>
      <path class="cls-1" d="m1557.87,507.85v6.81h-3.45v-6.27c0-1.92-.88-2.81-2.41-2.81-1.66,0-2.85,1.02-2.85,3.2v5.88h-3.45v-11.89h3.29v1.39c.93-1.02,2.32-1.57,3.93-1.57,2.81,0,4.93,1.63,4.93,5.26Z"/>
      <path class="cls-1" d="m1568.65,514.08c-.71.51-1.75.75-2.81.75-2.8,0-4.44-1.44-4.44-4.26v-4.88h-1.83v-2.65h1.83v-2.89h3.45v2.89h2.96v2.65h-2.96v4.84c0,1.02.55,1.57,1.48,1.57.51,0,1.02-.15,1.39-.44l.93,2.43Z"/>
      <path class="cls-1" d="m1569.33,508.72c0-3.58,2.76-6.12,6.54-6.12s6.52,2.54,6.52,6.12-2.74,6.12-6.52,6.12-6.54-2.54-6.54-6.12Zm9.57,0c0-2.05-1.3-3.29-3.03-3.29s-3.05,1.24-3.05,3.29,1.33,3.29,3.05,3.29,3.03-1.24,3.03-3.29Z"/>
      <path class="cls-1" d="m1583.54,513.55l1.15-2.47c1.06.68,2.67,1.15,4.13,1.15,1.59,0,2.19-.42,2.19-1.08,0-1.95-7.18.04-7.18-4.71,0-2.25,2.03-3.84,5.5-3.84,1.63,0,3.45.38,4.57,1.04l-1.15,2.45c-1.17-.66-2.34-.88-3.42-.88-1.55,0-2.21.49-2.21,1.1,0,2.03,7.18.07,7.18,4.75,0,2.21-2.05,3.78-5.61,3.78-2.01,0-4.04-.55-5.15-1.28Z"/>
    </g>
  </g>
  <g>
    <g>
      <path class="cls-1" d="m1461.28,603.83v8.78h-35.18v-6.98l17.95-16.96c4.12-3.92,4.85-6.32,4.85-8.58,0-3.66-2.53-5.79-7.45-5.79-3.99,0-7.38,1.53-9.64,4.65l-7.85-5.05c3.59-5.25,10.11-8.64,18.49-8.64,10.37,0,17.29,5.32,17.29,13.76,0,4.52-1.26,8.65-7.78,14.7l-10.71,10.11h20.02Z"/>
      <path class="cls-1" d="m1501.45,598.38c0,7.85-6.05,15.03-19.28,15.03-6.52,0-13.23-1.8-17.75-4.99l4.19-8.25c3.52,2.66,8.45,4.19,13.3,4.19,5.39,0,8.71-2.19,8.71-5.98,0-3.52-2.59-5.72-8.71-5.72h-4.92v-7.12l9.58-10.84h-19.82v-8.64h32.58v6.98l-10.51,11.97c8.38,1.33,12.63,6.52,12.63,13.37Z"/>
      <path class="cls-1" d="m1544.94,588.34c0,16.09-9.64,25.07-23.74,25.07-4.92,0-9.64-1.13-12.9-3.19l3.99-7.91c2.53,1.73,5.52,2.33,8.71,2.33,7.71,0,12.77-4.59,13.1-13.57-2.73,2.73-6.72,4.19-11.57,4.19-8.98,0-16.03-5.72-16.03-14.5,0-9.51,7.78-15.49,17.62-15.49,12.9,0,20.81,8.05,20.81,23.08Zm-12.04-8.11c0-3.99-2.99-6.92-8.11-6.92-4.59,0-7.78,2.66-7.78,6.92s3.12,6.98,7.91,6.98,7.98-2.93,7.98-6.98Z"/>
    </g>
    <g>
      <path class="cls-1" d="m1436.19,629.27c0,3.45-2.58,5.59-6.72,5.59h-3.12v4.26h-3.58v-15.47h6.69c4.13,0,6.72,2.14,6.72,5.61Zm-3.62,0c0-1.7-1.11-2.7-3.29-2.7h-2.92v5.37h2.92c2.19,0,3.29-.99,3.29-2.67Z"/>
      <path class="cls-1" d="m1445.87,627.06v3.18c-.29-.02-.51-.04-.77-.04-1.9,0-3.16,1.04-3.16,3.31v5.61h-3.45v-11.89h3.29v1.57c.84-1.15,2.25-1.75,4.09-1.75Z"/>
      <path class="cls-1" d="m1446.93,633.18c0-3.58,2.76-6.12,6.54-6.12s6.52,2.54,6.52,6.12-2.74,6.12-6.52,6.12-6.54-2.54-6.54-6.12Zm9.57,0c0-2.05-1.3-3.29-3.03-3.29s-3.05,1.24-3.05,3.29,1.33,3.29,3.05,3.29,3.03-1.24,3.03-3.29Z"/>
      <path class="cls-1" d="m1461.4,633.18c0-3.58,2.76-6.12,6.63-6.12,2.5,0,4.46,1.08,5.33,3.03l-2.67,1.44c-.64-1.13-1.59-1.63-2.67-1.63-1.75,0-3.12,1.21-3.12,3.29s1.37,3.29,3.12,3.29c1.08,0,2.03-.49,2.67-1.63l2.67,1.46c-.86,1.9-2.83,3-5.33,3-3.87,0-6.63-2.54-6.63-6.12Z"/>
      <path class="cls-1" d="m1486.76,634.16h-8.99c.33,1.48,1.59,2.39,3.4,2.39,1.26,0,2.17-.38,2.98-1.15l1.83,1.99c-1.11,1.26-2.76,1.92-4.91,1.92-4.11,0-6.78-2.58-6.78-6.12s2.72-6.12,6.34-6.12,6.19,2.34,6.19,6.16c0,.27-.04.64-.07.93Zm-9.04-2.01h5.86c-.24-1.5-1.37-2.47-2.92-2.47s-2.7.95-2.94,2.47Z"/>
      <path class="cls-1" d="m1501.23,622.73v16.39h-3.29v-1.37c-.86,1.04-2.12,1.55-3.71,1.55-3.36,0-5.94-2.39-5.94-6.12s2.58-6.12,5.94-6.12c1.46,0,2.7.46,3.56,1.44v-5.77h3.45Zm-3.38,10.45c0-2.05-1.33-3.29-3.03-3.29s-3.05,1.24-3.05,3.29,1.33,3.29,3.05,3.29,3.03-1.24,3.03-3.29Z"/>
      <path class="cls-1" d="m1503.99,623.66c0-1.08.86-1.92,2.14-1.92s2.14.8,2.14,1.86c0,1.15-.86,1.99-2.14,1.99s-2.14-.84-2.14-1.92Zm.42,3.58h3.45v11.89h-3.45v-11.89Z"/>
      <path class="cls-1" d="m1531.15,632.32v6.8h-3.45v-6.27c0-1.92-.86-2.81-2.25-2.81-1.55,0-2.63.99-2.63,3.12v5.97h-3.45v-6.27c0-1.92-.82-2.81-2.25-2.81-1.52,0-2.61.99-2.61,3.12v5.97h-3.45v-11.89h3.29v1.37c.88-1.02,2.21-1.55,3.73-1.55,1.66,0,3.07.64,3.91,1.94.95-1.21,2.5-1.94,4.29-1.94,2.83,0,4.86,1.63,4.86,5.26Z"/>
      <path class="cls-1" d="m1545.95,634.16h-8.99c.33,1.48,1.59,2.39,3.4,2.39,1.26,0,2.17-.38,2.98-1.15l1.83,1.99c-1.11,1.26-2.76,1.92-4.91,1.92-4.11,0-6.78-2.58-6.78-6.12s2.72-6.12,6.34-6.12,6.19,2.34,6.19,6.16c0,.27-.04.64-.07.93Zm-9.04-2.01h5.85c-.24-1.5-1.37-2.47-2.92-2.47s-2.7.95-2.94,2.47Z"/>
      <path class="cls-1" d="m1560.46,632.32v6.8h-3.45v-6.27c0-1.92-.88-2.81-2.41-2.81-1.66,0-2.85,1.02-2.85,3.2v5.88h-3.45v-11.89h3.29v1.39c.93-1.02,2.32-1.57,3.93-1.57,2.81,0,4.93,1.63,4.93,5.26Z"/>
      <path class="cls-1" d="m1571.24,638.55c-.71.51-1.75.75-2.81.75-2.81,0-4.44-1.44-4.44-4.26v-4.88h-1.83v-2.65h1.83v-2.89h3.45v2.89h2.96v2.65h-2.96v4.84c0,1.02.55,1.57,1.48,1.57.51,0,1.02-.16,1.39-.44l.93,2.43Z"/>
      <path class="cls-1" d="m1571.93,633.18c0-3.58,2.76-6.12,6.54-6.12s6.52,2.54,6.52,6.12-2.74,6.12-6.52,6.12-6.54-2.54-6.54-6.12Zm9.57,0c0-2.05-1.3-3.29-3.03-3.29s-3.05,1.24-3.05,3.29,1.33,3.29,3.05,3.29,3.03-1.24,3.03-3.29Z"/>
      <path class="cls-1" d="m1586.13,638.02l1.15-2.47c1.06.68,2.67,1.15,4.13,1.15,1.59,0,2.19-.42,2.19-1.08,0-1.94-7.18.04-7.18-4.71,0-2.25,2.03-3.84,5.5-3.84,1.64,0,3.45.38,4.57,1.04l-1.15,2.45c-1.17-.66-2.34-.88-3.42-.88-1.55,0-2.21.49-2.21,1.1,0,2.03,7.18.07,7.18,4.75,0,2.21-2.05,3.78-5.61,3.78-2.01,0-4.04-.55-5.15-1.28Z"/>
    </g>
  </g>
  <g>
    <path class="cls-1" d="m964.3,204.37h-11.6v-5.5h29.7v5.5h-11.6v29.5h-6.5v-29.5Z"/>
    <path class="cls-1" d="m981.75,220.53c0-8,6-13.65,14.2-13.65s14.25,5.65,14.25,13.65-5.95,13.7-14.25,13.7-14.2-5.7-14.2-13.7Zm22.15,0c0-5.1-3.4-8.35-7.95-8.35s-7.9,3.25-7.9,8.35,3.4,8.35,7.9,8.35,7.95-3.25,7.95-8.35Z"/>
    <path class="cls-1" d="m1044.55,220.53c0,8.3-5.75,13.7-13.55,13.7-3.4,0-6.4-1.15-8.55-3.6v12.95h-6.25v-36.4h5.95v3.5c2.1-2.55,5.2-3.8,8.85-3.8,7.8,0,13.55,5.4,13.55,13.65Zm-6.35,0c0-5.1-3.4-8.35-7.9-8.35s-7.95,3.25-7.95,8.35,3.45,8.35,7.95,8.35,7.9-3.25,7.9-8.35Z"/>
    <path class="cls-1" d="m1062.4,216.38c0-10.35,8-18,18.85-18s18.85,7.6,18.85,18-8,18-18.85,18-18.85-7.65-18.85-18Zm31.15,0c0-7.15-5.25-12.3-12.3-12.3s-12.3,5.15-12.3,12.3,5.25,12.3,12.3,12.3,12.3-5.15,12.3-12.3Z"/>
    <path class="cls-1" d="m1132.25,207.17v26.7h-5.95v-3.4c-2,2.45-5.15,3.75-8.6,3.75-6.85,0-11.5-3.75-11.5-11.8v-15.25h6.25v14.4c0,4.85,2.3,7.15,6.25,7.15,4.35,0,7.3-2.7,7.3-8.05v-13.5h6.25Z"/>
    <path class="cls-1" d="m1155.9,206.87v5.95c-.55-.1-1-.15-1.45-.15-4.75,0-7.75,2.8-7.75,8.25v12.95h-6.25v-26.7h5.95v3.9c1.8-2.8,5.05-4.2,9.5-4.2Z"/>
    <path class="cls-1" d="m1158.75,220.53c0-8,6-13.65,14.2-13.65s14.25,5.65,14.25,13.65-5.95,13.7-14.25,13.7-14.2-5.7-14.2-13.7Zm22.15,0c0-5.1-3.4-8.35-7.95-8.35s-7.9,3.25-7.9,8.35,3.4,8.35,7.9,8.35,7.95-3.25,7.95-8.35Z"/>
  </g>
  <g>
    <path class="cls-1" d="m964.3,339.37h-11.6v-5.5h29.7v5.5h-11.6v29.5h-6.5v-29.5Z"/>
    <path class="cls-1" d="m981.75,355.53c0-8,6-13.65,14.2-13.65s14.25,5.65,14.25,13.65-5.95,13.7-14.25,13.7-14.2-5.7-14.2-13.7Zm22.15,0c0-5.1-3.4-8.35-7.95-8.35s-7.9,3.25-7.9,8.35,3.4,8.35,7.9,8.35,7.95-3.25,7.95-8.35Z"/>
    <path class="cls-1" d="m1044.55,355.53c0,8.3-5.75,13.7-13.55,13.7-3.4,0-6.4-1.15-8.55-3.6v12.95h-6.25v-36.4h5.95v3.5c2.1-2.55,5.2-3.8,8.85-3.8,7.8,0,13.55,5.4,13.55,13.65Zm-6.35,0c0-5.1-3.4-8.35-7.9-8.35s-7.95,3.25-7.95,8.35,3.45,8.35,7.95,8.35,7.9-3.25,7.9-8.35Z"/>
    <path class="cls-1" d="m1091.15,363.43v5.45h-26.25v-35h25.55v5.45h-19.05v9.1h16.9v5.35h-16.9v9.65h19.75Z"/>
    <path class="cls-1" d="m1094.5,366.23l2.4-4.75c2.35,1.55,5.95,2.65,9.3,2.65,3.95,0,5.6-1.1,5.6-2.95,0-5.1-16.5-.3-16.5-10.95,0-5.05,4.55-8.35,11.75-8.35,3.55,0,7.6.85,10,2.3l-2.4,4.75c-2.55-1.5-5.1-2-7.65-2-3.8,0-5.6,1.25-5.6,3,0,5.4,16.5.6,16.5,11.05,0,5-4.6,8.25-12.1,8.25-4.45,0-8.9-1.3-11.3-3Z"/>
    <path class="cls-1" d="m1139.35,367.43c-1.5,1.2-3.75,1.8-6,1.8-5.85,0-9.2-3.1-9.2-9v-12.85h-4.4v-5h4.4v-6.1h6.25v6.1h7.15v5h-7.15v12.7c0,2.6,1.3,4,3.7,4,1.3,0,2.55-.35,3.5-1.1l1.75,4.45Z"/>
    <path class="cls-1" d="m1168.6,357.53h-20.95c.75,3.9,4,6.4,8.65,6.4,3,0,5.35-.95,7.25-2.9l3.35,3.85c-2.4,2.85-6.15,4.35-10.75,4.35-8.95,0-14.75-5.75-14.75-13.7s5.85-13.65,13.8-13.65,13.5,5.45,13.5,13.8c0,.5-.05,1.25-.1,1.85Zm-21-4.15h15.15c-.5-3.85-3.45-6.5-7.55-6.5s-7,2.6-7.6,6.5Zm8.65-14.85h-5.4l6.75-6.85h7.35l-8.7,6.85Z"/>
    <path class="cls-1" d="m1190.75,367.43c-1.5,1.2-3.75,1.8-6,1.8-5.85,0-9.2-3.1-9.2-9v-12.85h-4.4v-5h4.4v-6.1h6.25v6.1h7.15v5h-7.15v12.7c0,2.6,1.3,4,3.7,4,1.3,0,2.55-.35,3.5-1.1l1.75,4.45Z"/>
    <path class="cls-1" d="m1195.05,334.02c0-2.1,1.7-3.75,4-3.75s4,1.55,4,3.6c0,2.2-1.65,3.9-4,3.9s-4-1.65-4-3.75Zm.85,8.15h6.25v26.7h-6.25v-26.7Z"/>
    <path class="cls-1" d="m1208.15,355.53c0-8,6-13.65,14.45-13.65,5.2,0,9.35,2.15,11.4,6.2l-4.8,2.8c-1.6-2.55-4-3.7-6.65-3.7-4.6,0-8.1,3.2-8.1,8.35s3.5,8.35,8.1,8.35c2.65,0,5.05-1.15,6.65-3.7l4.8,2.8c-2.05,4-6.2,6.25-11.4,6.25-8.45,0-14.45-5.7-14.45-13.7Z"/>
    <path class="cls-1" d="m1261.75,353.23v15.65h-5.9v-3.25c-1.5,2.3-4.4,3.6-8.4,3.6-6.1,0-9.95-3.35-9.95-8s3-7.95,11.1-7.95h6.9v-.4c0-3.65-2.2-5.8-6.65-5.8-3,0-6.1,1-8.1,2.65l-2.45-4.55c2.85-2.2,7-3.3,11.3-3.3,7.7,0,12.15,3.65,12.15,11.35Zm-6.25,7.3v-3.1h-6.45c-4.25,0-5.4,1.6-5.4,3.55,0,2.25,1.9,3.7,5.1,3.7s5.7-1.4,6.75-4.15Z"/>
  </g>
  <g>
    <path class="cls-1" d="m983.45,491.43v5.45h-26.25v-35h25.55v5.45h-19.05v9.1h16.9v5.35h-16.9v9.65h19.75Z"/>
    <path class="cls-1" d="m1006.6,496.88l-6.85-9.25-6.9,9.25h-6.9l10.4-13.55-9.95-13.15h6.95l6.55,8.75,6.55-8.75h6.75l-10,13.05,10.45,13.65h-7.05Z"/>
    <path class="cls-1" d="m1042.35,485.53h-20.95c.75,3.9,4,6.4,8.65,6.4,3,0,5.35-.95,7.25-2.9l3.35,3.85c-2.4,2.85-6.15,4.35-10.75,4.35-8.95,0-14.75-5.75-14.75-13.7s5.85-13.65,13.8-13.65,13.5,5.45,13.5,13.8c0,.5-.05,1.25-.1,1.85Zm-21-4.15h15.15c-.5-3.85-3.45-6.5-7.55-6.5s-7,2.6-7.6,6.5Z"/>
    <path class="cls-1" d="m1046.25,483.53c0-8,6-13.65,14.45-13.65,5.2,0,9.35,2.15,11.4,6.2l-4.8,2.8c-1.6-2.55-4-3.7-6.65-3.7-4.6,0-8.1,3.2-8.1,8.35s3.5,8.35,8.1,8.35c2.65,0,5.05-1.15,6.65-3.7l4.8,2.8c-2.05,4-6.2,6.25-11.4,6.25-8.45,0-14.45-5.7-14.45-13.7Z"/>
    <path class="cls-1" d="m1103.35,470.17v26.7h-5.95v-3.4c-2,2.45-5.15,3.75-8.6,3.75-6.85,0-11.5-3.75-11.5-11.8v-15.25h6.25v14.4c0,4.85,2.3,7.15,6.25,7.15,4.35,0,7.3-2.7,7.3-8.05v-13.5h6.25Z"/>
    <path class="cls-1" d="m1127.6,495.43c-1.5,1.2-3.75,1.8-6,1.8-5.85,0-9.2-3.1-9.2-9v-12.85h-4.4v-5h4.4v-6.1h6.25v6.1h7.15v5h-7.15v12.7c0,2.6,1.3,4,3.7,4,1.3,0,2.55-.35,3.5-1.1l1.75,4.45Z"/>
    <path class="cls-1" d="m1131.9,462.02c0-2.1,1.7-3.75,4-3.75s4,1.55,4,3.6c0,2.2-1.65,3.9-4,3.9s-4-1.65-4-3.75Zm.85,8.15h6.25v26.7h-6.25v-26.7Z"/>
    <path class="cls-1" d="m1172.2,470.17l-11.45,26.7h-6.45l-11.45-26.7h6.5l8.3,19.8,8.55-19.8h6Z"/>
    <path class="cls-1" d="m1173.15,483.53c0-8,6-13.65,14.2-13.65s14.25,5.65,14.25,13.65-5.95,13.7-14.25,13.7-14.2-5.7-14.2-13.7Zm22.15,0c0-5.1-3.4-8.35-7.95-8.35s-7.9,3.25-7.9,8.35,3.4,8.35,7.9,8.35,7.95-3.25,7.95-8.35Z"/>
    <path class="cls-1" d="m1222,461.87h15.3c11.35,0,19.1,7,19.1,17.5s-7.75,17.5-19.1,17.5h-15.3v-35Zm15,29.5c7.8,0,12.85-4.75,12.85-12s-5.05-12-12.85-12h-8.5v24h8.5Z"/>
    <path class="cls-1" d="m1260.5,483.53c0-8,6-13.65,14.2-13.65s14.25,5.65,14.25,13.65-5.95,13.7-14.25,13.7-14.2-5.7-14.2-13.7Zm22.15,0c0-5.1-3.4-8.35-7.95-8.35s-7.9,3.25-7.9,8.35,3.4,8.35,7.9,8.35,7.95-3.25,7.95-8.35Z"/>
    <path class="cls-1" d="m1292.75,483.53c0-8,6-13.65,14.45-13.65,5.2,0,9.35,2.15,11.4,6.2l-4.8,2.8c-1.6-2.55-4-3.7-6.65-3.7-4.6,0-8.1,3.2-8.1,8.35s3.5,8.35,8.1,8.35c2.65,0,5.05-1.15,6.65-3.7l4.8,2.8c-2.05,4-6.2,6.25-11.4,6.25-8.45,0-14.45-5.7-14.45-13.7Z"/>
  </g>
  <g>
    <path class="cls-1" d="m983.45,615.43v5.45h-26.25v-35h25.55v5.45h-19.05v9.1h16.9v5.35h-16.9v9.65h19.75Z"/>
    <path class="cls-1" d="m1006.6,620.88l-6.85-9.25-6.9,9.25h-6.9l10.4-13.55-9.95-13.15h6.95l6.55,8.75,6.55-8.75h6.75l-10,13.05,10.45,13.65h-7.05Z"/>
    <path class="cls-1" d="m1042.35,609.53h-20.95c.75,3.9,4,6.4,8.65,6.4,3,0,5.35-.95,7.25-2.9l3.35,3.85c-2.4,2.85-6.15,4.35-10.75,4.35-8.95,0-14.75-5.75-14.75-13.7s5.85-13.65,13.8-13.65,13.5,5.45,13.5,13.8c0,.5-.05,1.25-.1,1.85Zm-21-4.15h15.15c-.5-3.85-3.45-6.5-7.55-6.5s-7,2.6-7.6,6.5Z"/>
    <path class="cls-1" d="m1046.25,607.53c0-8,6-13.65,14.45-13.65,5.2,0,9.35,2.15,11.4,6.2l-4.8,2.8c-1.6-2.55-4-3.7-6.65-3.7-4.6,0-8.1,3.2-8.1,8.35s3.5,8.35,8.1,8.35c2.65,0,5.05-1.15,6.65-3.7l4.8,2.8c-2.05,4-6.2,6.25-11.4,6.25-8.45,0-14.45-5.7-14.45-13.7Z"/>
    <path class="cls-1" d="m1103.35,594.17v26.7h-5.95v-3.4c-2,2.45-5.15,3.75-8.6,3.75-6.85,0-11.5-3.75-11.5-11.8v-15.25h6.25v14.4c0,4.85,2.3,7.15,6.25,7.15,4.35,0,7.3-2.7,7.3-8.05v-13.5h6.25Z"/>
    <path class="cls-1" d="m1127.6,619.43c-1.5,1.2-3.75,1.8-6,1.8-5.85,0-9.2-3.1-9.2-9v-12.85h-4.4v-5h4.4v-6.1h6.25v6.1h7.15v5h-7.15v12.7c0,2.6,1.3,4,3.7,4,1.3,0,2.55-.35,3.5-1.1l1.75,4.45Z"/>
    <path class="cls-1" d="m1131.9,586.02c0-2.1,1.7-3.75,4-3.75s4,1.55,4,3.6c0,2.2-1.65,3.9-4,3.9s-4-1.65-4-3.75Zm.85,8.15h6.25v26.7h-6.25v-26.7Z"/>
    <path class="cls-1" d="m1172.2,594.17l-11.45,26.7h-6.45l-11.45-26.7h6.5l8.3,19.8,8.55-19.8h6Z"/>
    <path class="cls-1" d="m1173.15,607.53c0-8,6-13.65,14.2-13.65s14.25,5.65,14.25,13.65-5.95,13.7-14.25,13.7-14.2-5.7-14.2-13.7Zm22.15,0c0-5.1-3.4-8.35-7.95-8.35s-7.9,3.25-7.9,8.35,3.4,8.35,7.9,8.35,7.95-3.25,7.95-8.35Z"/>
    <path class="cls-1" d="m1251.3,598.32c0,7.7-5.7,12.45-14.9,12.45h-7.9v10.1h-6.5v-35h14.4c9.2,0,14.9,4.7,14.9,12.45Zm-6.55,0c0-4.4-2.95-6.95-8.65-6.95h-7.6v13.9h7.6c5.7,0,8.65-2.55,8.65-6.95Z"/>
    <path class="cls-1" d="m1257.7,583.77h6.25v37.1h-6.25v-37.1Z"/>
    <path class="cls-1" d="m1298,594.17v26.7h-5.95v-3.4c-2,2.45-5.15,3.75-8.6,3.75-6.85,0-11.5-3.75-11.5-11.8v-15.25h6.25v14.4c0,4.85,2.3,7.15,6.25,7.15,4.35,0,7.3-2.7,7.3-8.05v-13.5h6.25Z"/>
    <path class="cls-1" d="m1303.15,618.23l2.4-4.75c2.35,1.55,5.95,2.65,9.3,2.65,3.95,0,5.6-1.1,5.6-2.95,0-5.1-16.5-.3-16.5-10.95,0-5.05,4.55-8.35,11.75-8.35,3.55,0,7.6.85,10,2.3l-2.4,4.75c-2.55-1.5-5.1-2-7.65-2-3.8,0-5.6,1.25-5.6,3,0,5.4,16.5.6,16.5,11.05,0,5-4.6,8.25-12.1,8.25-4.45,0-8.9-1.3-11.3-3Z"/>
  </g>
  <path class="cls-4" d="m908.88,663.08h698.23c34.15,0,61.88,27.73,61.88,61.88v308.12h-760.12c-34.15,0-61.88-27.73-61.88-61.88v-246.23c0-34.15,27.73-61.88,61.88-61.88Z"/>
  <g>
    <g>
      <path class="cls-1" d="m1444.76,690.96v46.55h-10.77v-37.9h-9.31v-8.64h20.08Z"/>
      <path class="cls-1" d="m1489.38,722.88c0,8.25-6.05,15.43-19.35,15.43-6.45,0-13.23-1.79-17.75-4.99l4.26-8.25c3.52,2.66,8.38,4.19,13.23,4.19,5.39,0,8.71-2.26,8.71-6.05s-2.39-6.05-10.84-6.05h-11.9l2.39-26.2h28.39v8.64h-19.42l-.73,8.84h3.79c13.77,0,19.22,6.18,19.22,14.43Z"/>
      <path class="cls-1" d="m1534.07,724.01c0,8.78-7.85,14.3-19.68,14.3s-19.55-5.52-19.55-14.3c0-4.99,2.59-8.71,7.05-10.97-3.46-2.13-5.39-5.39-5.39-9.58,0-8.18,7.31-13.3,17.89-13.3s18.02,5.12,18.02,13.3c0,4.19-2,7.45-5.45,9.58,4.52,2.26,7.12,5.98,7.12,10.97Zm-10.91-.33c0-4.12-3.39-6.65-8.78-6.65s-8.64,2.53-8.64,6.65,3.32,6.72,8.64,6.72,8.78-2.59,8.78-6.72Zm-15.96-19.75c0,3.52,2.79,5.72,7.18,5.72s7.31-2.19,7.31-5.72-2.93-5.85-7.31-5.85-7.18,2.19-7.18,5.85Z"/>
    </g>
    <g>
      <path class="cls-1" d="m1436.5,754.17c0,3.45-2.58,5.59-6.72,5.59h-3.12v4.26h-3.58v-15.47h6.69c4.13,0,6.72,2.14,6.72,5.61Zm-3.62,0c0-1.7-1.11-2.7-3.29-2.7h-2.92v5.37h2.92c2.19,0,3.29-.99,3.29-2.67Z"/>
      <path class="cls-1" d="m1446.17,751.96v3.18c-.29-.02-.51-.04-.77-.04-1.9,0-3.16,1.04-3.16,3.31v5.61h-3.45v-11.89h3.29v1.57c.84-1.15,2.25-1.75,4.09-1.75Z"/>
      <path class="cls-1" d="m1447.23,758.08c0-3.58,2.76-6.12,6.54-6.12s6.52,2.54,6.52,6.12-2.74,6.12-6.52,6.12-6.54-2.54-6.54-6.12Zm9.57,0c0-2.05-1.3-3.29-3.03-3.29s-3.05,1.24-3.05,3.29,1.33,3.29,3.05,3.29,3.03-1.24,3.03-3.29Z"/>
      <path class="cls-1" d="m1461.71,758.08c0-3.58,2.76-6.12,6.63-6.12,2.5,0,4.46,1.08,5.33,3.03l-2.67,1.44c-.64-1.13-1.59-1.63-2.67-1.63-1.75,0-3.12,1.21-3.12,3.29s1.37,3.29,3.12,3.29c1.08,0,2.03-.49,2.67-1.63l2.67,1.46c-.86,1.9-2.83,3-5.33,3-3.87,0-6.63-2.54-6.63-6.12Z"/>
      <path class="cls-1" d="m1487.07,759.05h-8.99c.33,1.48,1.59,2.39,3.4,2.39,1.26,0,2.17-.38,2.98-1.15l1.83,1.99c-1.11,1.26-2.76,1.92-4.91,1.92-4.11,0-6.78-2.58-6.78-6.12s2.72-6.12,6.34-6.12,6.19,2.34,6.19,6.16c0,.26-.04.64-.07.93Zm-9.04-2.01h5.86c-.24-1.5-1.37-2.47-2.92-2.47s-2.7.95-2.94,2.47Z"/>
      <path class="cls-1" d="m1501.54,747.63v16.39h-3.29v-1.37c-.86,1.04-2.12,1.55-3.71,1.55-3.36,0-5.94-2.39-5.94-6.12s2.58-6.12,5.94-6.12c1.46,0,2.7.46,3.56,1.44v-5.77h3.45Zm-3.38,10.45c0-2.05-1.33-3.29-3.03-3.29s-3.05,1.24-3.05,3.29,1.33,3.29,3.05,3.29,3.03-1.24,3.03-3.29Z"/>
      <path class="cls-1" d="m1504.3,748.55c0-1.08.86-1.92,2.14-1.92s2.14.79,2.14,1.86c0,1.15-.86,1.99-2.14,1.99s-2.14-.84-2.14-1.92Zm.42,3.58h3.45v11.89h-3.45v-11.89Z"/>
      <path class="cls-1" d="m1531.45,757.22v6.81h-3.45v-6.28c0-1.92-.86-2.81-2.25-2.81-1.55,0-2.63.99-2.63,3.12v5.97h-3.45v-6.28c0-1.92-.82-2.81-2.25-2.81-1.52,0-2.61.99-2.61,3.12v5.97h-3.45v-11.89h3.29v1.37c.88-1.02,2.21-1.55,3.73-1.55,1.66,0,3.07.64,3.91,1.94.95-1.22,2.5-1.94,4.29-1.94,2.83,0,4.86,1.63,4.86,5.26Z"/>
      <path class="cls-1" d="m1546.25,759.05h-8.99c.33,1.48,1.59,2.39,3.4,2.39,1.26,0,2.17-.38,2.98-1.15l1.83,1.99c-1.11,1.26-2.76,1.92-4.91,1.92-4.11,0-6.78-2.58-6.78-6.12s2.72-6.12,6.34-6.12,6.19,2.34,6.19,6.16c0,.26-.04.64-.07.93Zm-9.04-2.01h5.85c-.24-1.5-1.37-2.47-2.92-2.47s-2.7.95-2.94,2.47Z"/>
      <path class="cls-1" d="m1560.77,757.22v6.81h-3.45v-6.28c0-1.92-.88-2.81-2.41-2.81-1.66,0-2.85,1.02-2.85,3.2v5.88h-3.45v-11.89h3.29v1.39c.93-1.02,2.32-1.57,3.93-1.57,2.81,0,4.93,1.63,4.93,5.26Z"/>
      <path class="cls-1" d="m1571.55,763.45c-.71.51-1.75.75-2.81.75-2.81,0-4.44-1.44-4.44-4.26v-4.88h-1.83v-2.65h1.83v-2.89h3.45v2.89h2.96v2.65h-2.96v4.84c0,1.02.55,1.57,1.48,1.57.51,0,1.02-.15,1.39-.44l.93,2.43Z"/>
      <path class="cls-1" d="m1572.24,758.08c0-3.58,2.76-6.12,6.54-6.12s6.52,2.54,6.52,6.12-2.74,6.12-6.52,6.12-6.54-2.54-6.54-6.12Zm9.57,0c0-2.05-1.3-3.29-3.03-3.29s-3.05,1.24-3.05,3.29,1.33,3.29,3.05,3.29,3.03-1.24,3.03-3.29Z"/>
      <path class="cls-1" d="m1586.44,762.92l1.15-2.47c1.06.68,2.67,1.15,4.13,1.15,1.59,0,2.19-.42,2.19-1.08,0-1.94-7.18.04-7.18-4.71,0-2.25,2.03-3.84,5.5-3.84,1.64,0,3.45.38,4.57,1.04l-1.15,2.45c-1.17-.66-2.34-.88-3.42-.88-1.55,0-2.21.49-2.21,1.11,0,2.03,7.18.07,7.18,4.75,0,2.21-2.05,3.78-5.61,3.78-2.01,0-4.04-.55-5.15-1.28Z"/>
      <path class="cls-1" d="m1422.62,778.71h10.52v2.7h-10.52v-2.7Zm0,5.48h10.52v2.7h-10.52v-2.7Z"/>
      <path class="cls-1" d="m1449.71,778.47v3.18c-.29-.02-.51-.04-.77-.04-1.9,0-3.16,1.04-3.16,3.31v5.61h-3.45v-11.89h3.29v1.57c.84-1.15,2.25-1.75,4.09-1.75Z"/>
      <path class="cls-1" d="m1450.77,784.59c0-3.58,2.76-6.12,6.54-6.12s6.52,2.54,6.52,6.12-2.74,6.12-6.52,6.12-6.54-2.54-6.54-6.12Zm9.57,0c0-2.05-1.3-3.29-3.03-3.29s-3.05,1.24-3.05,3.29,1.33,3.29,3.05,3.29,3.03-1.24,3.03-3.29Z"/>
      <path class="cls-1" d="m1466.12,774.14h3.45v16.39h-3.45v-16.39Z"/>
      <path class="cls-1" d="m1491.13,774.14v16.39h-3.29v-1.37c-.86,1.04-2.12,1.55-3.71,1.55-3.36,0-5.94-2.39-5.94-6.12s2.58-6.12,5.94-6.12c1.46,0,2.7.46,3.56,1.44v-5.77h3.45Zm-3.38,10.45c0-2.05-1.33-3.29-3.03-3.29s-3.05,1.24-3.05,3.29,1.33,3.29,3.05,3.29,3.03-1.24,3.03-3.29Z"/>
      <path class="cls-1" d="m1504.83,783.75v6.78h-3.23v-1.48c-.64,1.08-1.88,1.66-3.62,1.66-2.78,0-4.44-1.55-4.44-3.6s1.48-3.56,5.1-3.56h2.74c0-1.48-.88-2.34-2.74-2.34-1.26,0-2.56.42-3.42,1.1l-1.24-2.41c1.3-.93,3.23-1.44,5.13-1.44,3.62,0,5.72,1.68,5.72,5.28Zm-3.45,3.03v-1.22h-2.36c-1.61,0-2.12.6-2.12,1.39,0,.86.73,1.44,1.94,1.44,1.15,0,2.14-.53,2.54-1.61Z"/>
      <path class="cls-1" d="m1524.63,787.22h-7.18l-1.37,3.31h-3.67l6.89-15.47h3.54l6.92,15.47h-3.76l-1.37-3.31Zm-1.13-2.72l-2.45-5.92-2.45,5.92h4.91Z"/>
      <path class="cls-1" d="m1545.55,775.07v15.47h-2.94l-7.71-9.39v9.39h-3.54v-15.47h2.96l7.69,9.39v-9.39h3.54Z"/>
      <path class="cls-1" d="m1548,789.01l1.22-2.7c1.3.95,3.25,1.61,5.1,1.61,2.12,0,2.98-.71,2.98-1.66,0-2.89-8.99-.91-8.99-6.65,0-2.63,2.12-4.82,6.52-4.82,1.94,0,3.93.46,5.37,1.37l-1.11,2.72c-1.44-.82-2.92-1.21-4.29-1.21-2.12,0-2.94.8-2.94,1.77,0,2.85,8.99.88,8.99,6.56,0,2.58-2.14,4.79-6.56,4.79-2.45,0-4.93-.73-6.3-1.79Z"/>
    </g>
  </g>
  <g>
    <path class="cls-1" d="m983.45,720.32v5.45h-26.25v-35h25.55v5.45h-19.05v9.1h16.9v5.35h-16.9v9.65h19.75Z"/>
    <path class="cls-1" d="m1006.6,725.77l-6.85-9.25-6.9,9.25h-6.9l10.4-13.55-9.95-13.15h6.95l6.55,8.75,6.55-8.75h6.75l-10,13.05,10.45,13.65h-7.05Z"/>
    <path class="cls-1" d="m1042.35,714.42h-20.95c.75,3.9,4,6.4,8.65,6.4,3,0,5.35-.95,7.25-2.9l3.35,3.85c-2.4,2.85-6.15,4.35-10.75,4.35-8.95,0-14.75-5.75-14.75-13.7s5.85-13.65,13.8-13.65,13.5,5.45,13.5,13.8c0,.5-.05,1.25-.1,1.85Zm-21-4.15h15.15c-.5-3.85-3.45-6.5-7.55-6.5s-7,2.6-7.6,6.5Z"/>
    <path class="cls-1" d="m1046.25,712.42c0-8,6-13.65,14.45-13.65,5.2,0,9.35,2.15,11.4,6.2l-4.8,2.8c-1.6-2.55-4-3.7-6.65-3.7-4.6,0-8.1,3.2-8.1,8.35s3.5,8.35,8.1,8.35c2.65,0,5.05-1.15,6.65-3.7l4.8,2.8c-2.05,4-6.2,6.25-11.4,6.25-8.45,0-14.45-5.7-14.45-13.7Z"/>
    <path class="cls-1" d="m1103.35,699.07v26.7h-5.95v-3.4c-2,2.45-5.15,3.75-8.6,3.75-6.85,0-11.5-3.75-11.5-11.8v-15.25h6.25v14.4c0,4.85,2.3,7.15,6.25,7.15,4.35,0,7.3-2.7,7.3-8.05v-13.5h6.25Z"/>
    <path class="cls-1" d="m1127.6,724.32c-1.5,1.2-3.75,1.8-6,1.8-5.85,0-9.2-3.1-9.2-9v-12.85h-4.4v-5h4.4v-6.1h6.25v6.1h7.15v5h-7.15v12.7c0,2.6,1.3,4,3.7,4,1.3,0,2.55-.35,3.5-1.1l1.75,4.45Z"/>
    <path class="cls-1" d="m1131.9,690.92c0-2.1,1.7-3.75,4-3.75s4,1.55,4,3.6c0,2.2-1.65,3.9-4,3.9s-4-1.65-4-3.75Zm.85,8.15h6.25v26.7h-6.25v-26.7Z"/>
    <path class="cls-1" d="m1172.2,699.07l-11.45,26.7h-6.45l-11.45-26.7h6.5l8.3,19.8,8.55-19.8h6Z"/>
    <path class="cls-1" d="m1173.15,712.42c0-8,6-13.65,14.2-13.65s14.25,5.65,14.25,13.65-5.95,13.7-14.25,13.7-14.2-5.7-14.2-13.7Zm22.15,0c0-5.1-3.4-8.35-7.95-8.35s-7.9,3.25-7.9,8.35,3.4,8.35,7.9,8.35,7.95-3.25,7.95-8.35Z"/>
  </g>
  <g>
    <path class="cls-1" d="m958.48,779.84c0-1.11.39-2.05,1.18-2.83.78-.78,1.72-1.17,2.82-1.17s2.05.39,2.83,1.17c.78.78,1.18,1.72,1.18,2.83s-.39,2.05-1.18,2.84-1.73,1.18-2.83,1.18-2.03-.39-2.82-1.18-1.18-1.73-1.18-2.84Z"/>
    <path class="cls-1" d="m978.24,782.83c0-4.9,3.53-8.51,8.3-8.51,2.31,0,4.39.81,5.79,2.44l-1.06,1.12c-1.29-1.39-2.87-1.98-4.68-1.98-3.82,0-6.7,2.96-6.7,6.93s2.87,6.93,6.7,6.93c1.81,0,3.39-.6,4.68-2.01l1.06,1.12c-1.4,1.63-3.48,2.46-5.82,2.46-4.75,0-8.28-3.61-8.28-8.51Z"/>
    <path class="cls-1" d="m994.28,784.91c0-3.73,2.58-6.38,6.06-6.38s6.04,2.65,6.04,6.38-2.56,6.41-6.04,6.41-6.06-2.68-6.06-6.41Zm10.48,0c0-2.94-1.88-4.9-4.41-4.9s-4.44,1.96-4.44,4.9,1.9,4.9,4.44,4.9,4.41-1.96,4.41-4.9Z"/>
    <path class="cls-1" d="m1020.96,783.91v7.29h-1.61v-7.12c0-2.65-1.31-4.02-3.58-4.02-2.56,0-4.16,1.67-4.16,4.54v6.6h-1.61v-12.58h1.54v2.32c.86-1.53,2.47-2.42,4.53-2.42,2.9,0,4.89,1.77,4.89,5.38Z"/>
    <path class="cls-1" d="m1022.91,789.77l.72-1.34c.95.79,2.56,1.41,4.23,1.41,2.26,0,3.19-.81,3.19-2.06,0-3.28-7.72-.69-7.72-5.67,0-2.06,1.67-3.59,4.71-3.59,1.54,0,3.21.45,4.21,1.17l-.7,1.36c-1.04-.77-2.29-1.08-3.51-1.08-2.15,0-3.1.88-3.1,2.08,0,3.4,7.72.84,7.72,5.67,0,2.18-1.81,3.59-4.91,3.59-1.97,0-3.87-.67-4.84-1.55Z"/>
    <path class="cls-1" d="m1046.6,778.62v12.58h-1.54v-2.3c-.84,1.53-2.38,2.42-4.28,2.42-3.03,0-5.02-1.79-5.02-5.4v-7.29h1.61v7.13c0,2.68,1.31,4.04,3.58,4.04,2.49,0,4.05-1.7,4.05-4.57v-6.6h1.61Z"/>
    <path class="cls-1" d="m1050.43,773.46h1.61v17.74h-1.61v-17.74Z"/>
    <path class="cls-1" d="m1063.15,790.44c-.63.6-1.58.88-2.51.88-2.24,0-3.49-1.34-3.49-3.66v-7.6h-2.13v-1.43h2.13v-2.75h1.61v2.75h3.62v1.43h-3.62v7.51c0,1.48.72,2.3,2.06,2.3.66,0,1.31-.21,1.76-.65l.57,1.22Z"/>
    <path class="cls-1" d="m1075.55,783.41v7.79h-1.54v-1.96c-.72,1.29-2.13,2.08-4.1,2.08-2.69,0-4.34-1.48-4.34-3.66,0-1.94,1.18-3.56,4.59-3.56h3.78v-.76c0-2.15-1.15-3.32-3.37-3.32-1.54,0-2.99.57-3.96,1.48l-.72-1.27c1.2-1.08,2.96-1.7,4.84-1.7,3.08,0,4.82,1.63,4.82,4.88Zm-1.61,4.02v-2.06h-3.73c-2.31,0-3.06.96-3.06,2.25,0,1.46,1.11,2.37,3.01,2.37s3.15-.91,3.78-2.56Z"/>
    <path class="cls-1" d="m1077.86,789.77l.72-1.34c.95.79,2.56,1.41,4.23,1.41,2.26,0,3.19-.81,3.19-2.06,0-3.28-7.72-.69-7.72-5.67,0-2.06,1.67-3.59,4.71-3.59,1.54,0,3.21.45,4.21,1.17l-.7,1.36c-1.04-.77-2.29-1.08-3.51-1.08-2.15,0-3.1.88-3.1,2.08,0,3.4,7.72.84,7.72,5.67,0,2.18-1.81,3.59-4.91,3.59-1.97,0-3.87-.67-4.84-1.55Z"/>
    <path class="cls-1" d="m958.48,818.74c0-1.11.39-2.05,1.18-2.83.78-.78,1.72-1.17,2.82-1.17s2.05.39,2.83,1.17c.78.78,1.18,1.72,1.18,2.83s-.39,2.05-1.18,2.84-1.73,1.18-2.83,1.18-2.03-.39-2.82-1.18-1.18-1.73-1.18-2.84Z"/>
    <path class="cls-1" d="m979.5,822.95v-9.59h1.67v9.52c0,3.97,1.77,5.79,4.84,5.79s4.87-1.82,4.87-5.79v-9.52h1.63v9.59c0,4.81-2.44,7.29-6.49,7.29s-6.52-2.49-6.52-7.29Z"/>
    <path class="cls-1" d="m1003.08,817.43v1.65c-.14,0-.27-.02-.38-.02-2.49,0-4.01,1.67-4.01,4.64v6.41h-1.61v-12.58h1.54v2.46c.75-1.67,2.26-2.56,4.46-2.56Z"/>
    <path class="cls-1" d="m1017.79,817.52v11.05c0,4.33-2.01,6.29-5.95,6.29-2.17,0-4.3-.69-5.54-1.94l.82-1.29c1.13,1.08,2.85,1.72,4.68,1.72,3.01,0,4.39-1.46,4.39-4.57v-1.6c-1,1.6-2.69,2.44-4.64,2.44-3.39,0-5.97-2.51-5.97-6.12s2.58-6.07,5.97-6.07c1.99,0,3.71.86,4.71,2.51v-2.42h1.54Zm-1.56,5.98c0-2.73-1.9-4.59-4.53-4.59s-4.5,1.87-4.5,4.59,1.88,4.62,4.5,4.62,4.53-1.89,4.53-4.62Z"/>
    <path class="cls-1" d="m1033.3,824.34h-9.96c.18,2.63,2.08,4.38,4.68,4.38,1.45,0,2.74-.55,3.64-1.65l.91,1.1c-1.06,1.34-2.71,2.06-4.59,2.06-3.71,0-6.25-2.68-6.25-6.41s2.47-6.38,5.82-6.38,5.77,2.61,5.77,6.38c0,.14-.02.33-.02.53Zm-9.96-1.27h8.44c-.2-2.46-1.9-4.18-4.23-4.18s-4,1.72-4.21,4.18Zm1.97-7.48h-1.49l2.92-2.96h1.63l2.92,2.96h-1.49l-2.24-1.98-2.24,1.98Z"/>
    <path class="cls-1" d="m1046.83,822.81v7.29h-1.61v-7.12c0-2.65-1.31-4.02-3.58-4.02-2.56,0-4.16,1.67-4.16,4.54v6.6h-1.61v-12.58h1.54v2.32c.86-1.53,2.47-2.42,4.53-2.42,2.9,0,4.89,1.77,4.89,5.38Z"/>
    <path class="cls-1" d="m1049.23,823.81c0-3.75,2.58-6.38,6.13-6.38,2.01,0,3.71.84,4.66,2.49l-1.2.86c-.81-1.27-2.08-1.87-3.46-1.87-2.6,0-4.5,1.96-4.5,4.9s1.9,4.9,4.5,4.9c1.38,0,2.65-.57,3.46-1.84l1.2.86c-.95,1.63-2.65,2.49-4.66,2.49-3.55,0-6.13-2.65-6.13-6.41Z"/>
    <path class="cls-1" d="m1062.99,813.55c0-.65.52-1.2,1.18-1.2s1.18.53,1.18,1.17c0,.69-.5,1.24-1.18,1.24s-1.18-.55-1.18-1.22Zm.36,3.97h1.61v12.58h-1.61v-12.58Z"/>
    <path class="cls-1" d="m1078.79,822.31v7.79h-1.54v-1.96c-.72,1.29-2.13,2.08-4.1,2.08-2.69,0-4.34-1.48-4.34-3.66,0-1.94,1.18-3.56,4.59-3.56h3.78v-.76c0-2.15-1.15-3.32-3.37-3.32-1.54,0-2.99.57-3.96,1.48l-.72-1.27c1.2-1.08,2.96-1.7,4.84-1.7,3.08,0,4.82,1.63,4.82,4.88Zm-1.61,4.02v-2.06h-3.73c-2.31,0-3.06.96-3.06,2.25,0,1.46,1.11,2.37,3.01,2.37s3.15-.91,3.78-2.56Z"/>
    <path class="cls-1" d="m1099.56,824.34h-9.96c.18,2.63,2.08,4.38,4.68,4.38,1.45,0,2.74-.55,3.64-1.65l.91,1.1c-1.06,1.34-2.71,2.06-4.59,2.06-3.71,0-6.25-2.68-6.25-6.41s2.47-6.38,5.82-6.38,5.77,2.61,5.77,6.38c0,.14-.02.33-.02.53Zm-9.96-1.27h8.44c-.2-2.46-1.9-4.18-4.23-4.18s-4,1.72-4.21,4.18Z"/>
    <path class="cls-1" d="m1120.14,828.57v1.53h-11.2v-16.74h10.86v1.53h-9.19v5.95h8.19v1.51h-8.19v6.22h9.53Z"/>
    <path class="cls-1" d="m1142.79,822.81v7.29h-1.61v-7.12c0-2.65-1.27-4.02-3.42-4.02-2.44,0-3.98,1.67-3.98,4.54v6.6h-1.61v-7.12c0-2.65-1.27-4.02-3.44-4.02-2.42,0-3.98,1.67-3.98,4.54v6.6h-1.61v-12.58h1.54v2.3c.84-1.51,2.38-2.39,4.37-2.39s3.51.88,4.23,2.65c.86-1.63,2.56-2.65,4.71-2.65,2.9,0,4.8,1.77,4.8,5.38Z"/>
    <path class="cls-1" d="m1157.75,824.34h-9.96c.18,2.63,2.08,4.38,4.68,4.38,1.45,0,2.74-.55,3.64-1.65l.91,1.1c-1.06,1.34-2.71,2.06-4.59,2.06-3.71,0-6.25-2.68-6.25-6.41s2.47-6.38,5.82-6.38,5.77,2.61,5.77,6.38c0,.14-.02.33-.02.53Zm-9.96-1.27h8.44c-.2-2.46-1.9-4.18-4.23-4.18s-4,1.72-4.21,4.18Z"/>
    <path class="cls-1" d="m1166.33,817.43v1.65c-.14,0-.27-.02-.38-.02-2.49,0-4.01,1.67-4.01,4.64v6.41h-1.61v-12.58h1.54v2.46c.75-1.67,2.26-2.56,4.46-2.56Z"/>
    <path class="cls-1" d="m1181.04,817.52v11.05c0,4.33-2.01,6.29-5.95,6.29-2.17,0-4.3-.69-5.54-1.94l.82-1.29c1.13,1.08,2.85,1.72,4.68,1.72,3.01,0,4.39-1.46,4.39-4.57v-1.6c-1,1.6-2.69,2.44-4.64,2.44-3.39,0-5.97-2.51-5.97-6.12s2.58-6.07,5.97-6.07c1.99,0,3.71.86,4.71,2.51v-2.42h1.54Zm-1.56,5.98c0-2.73-1.9-4.59-4.53-4.59s-4.5,1.87-4.5,4.59,1.88,4.62,4.5,4.62,4.53-1.89,4.53-4.62Z"/>
    <path class="cls-1" d="m1196.54,824.34h-9.96c.18,2.63,2.08,4.38,4.68,4.38,1.45,0,2.74-.55,3.64-1.65l.91,1.1c-1.06,1.34-2.71,2.06-4.59,2.06-3.71,0-6.25-2.68-6.25-6.41s2.47-6.38,5.82-6.38,5.77,2.61,5.77,6.38c0,.14-.02.33-.02.53Zm-9.96-1.27h8.44c-.2-2.46-1.9-4.18-4.23-4.18s-4,1.72-4.21,4.18Zm1.97-7.48h-1.49l2.92-2.96h1.63l2.92,2.96h-1.49l-2.24-1.98-2.24,1.98Z"/>
    <path class="cls-1" d="m1210.07,822.81v7.29h-1.61v-7.12c0-2.65-1.31-4.02-3.58-4.02-2.56,0-4.16,1.67-4.16,4.54v6.6h-1.61v-12.58h1.54v2.32c.86-1.53,2.47-2.42,4.53-2.42,2.9,0,4.89,1.77,4.89,5.38Z"/>
    <path class="cls-1" d="m1212.47,823.81c0-3.75,2.58-6.38,6.13-6.38,2.01,0,3.71.84,4.66,2.49l-1.2.86c-.81-1.27-2.08-1.87-3.46-1.87-2.6,0-4.5,1.96-4.5,4.9s1.9,4.9,4.5,4.9c1.38,0,2.65-.57,3.46-1.84l1.2.86c-.95,1.63-2.65,2.49-4.66,2.49-3.55,0-6.13-2.65-6.13-6.41Z"/>
    <path class="cls-1" d="m1226.23,813.55c0-.65.52-1.2,1.18-1.2s1.18.53,1.18,1.17c0,.69-.5,1.24-1.18,1.24s-1.18-.55-1.18-1.22Zm.36,3.97h1.61v12.58h-1.61v-12.58Z"/>
    <path class="cls-1" d="m1242.03,822.31v7.79h-1.54v-1.96c-.72,1.29-2.13,2.08-4.1,2.08-2.69,0-4.34-1.48-4.34-3.66,0-1.94,1.18-3.56,4.59-3.56h3.78v-.76c0-2.15-1.15-3.32-3.37-3.32-1.54,0-2.99.57-3.96,1.48l-.72-1.27c1.2-1.08,2.96-1.7,4.84-1.7,3.08,0,4.82,1.63,4.82,4.88Zm-1.61,4.02v-2.06h-3.73c-2.31,0-3.06.96-3.06,2.25,0,1.46,1.11,2.37,3.01,2.37s3.15-.91,3.78-2.56Z"/>
    <path class="cls-1" d="m958.48,857.63c0-1.11.39-2.05,1.18-2.83.78-.78,1.72-1.17,2.82-1.17s2.05.39,2.83,1.17c.78.78,1.18,1.72,1.18,2.83s-.39,2.05-1.18,2.84-1.73,1.18-2.83,1.18-2.03-.39-2.82-1.18-1.18-1.73-1.18-2.84Z"/>
    <path class="cls-1" d="m982.72,853.79h-5.57v-1.53h12.81v1.53h-5.57v15.21h-1.67v-15.21Z"/>
    <path class="cls-1" d="m998.24,856.33v1.65c-.14,0-.27-.02-.38-.02-2.49,0-4.01,1.67-4.01,4.64v6.41h-1.61v-12.58h1.54v2.46c.75-1.67,2.26-2.56,4.46-2.56Z"/>
    <path class="cls-1" d="m1010.91,861.2v7.79h-1.54v-1.96c-.72,1.29-2.13,2.08-4.1,2.08-2.69,0-4.34-1.48-4.34-3.66,0-1.94,1.18-3.56,4.59-3.56h3.78v-.76c0-2.15-1.15-3.32-3.37-3.32-1.54,0-2.99.57-3.96,1.48l-.72-1.27c1.2-1.08,2.96-1.7,4.84-1.7,3.08,0,4.82,1.63,4.82,4.88Zm-1.61,4.02v-2.06h-3.73c-2.31,0-3.06.96-3.06,2.25,0,1.46,1.11,2.37,3.01,2.37s3.15-.91,3.78-2.56Z"/>
    <path class="cls-1" d="m1021.14,868.23c-.63.6-1.58.88-2.51.88-2.24,0-3.49-1.34-3.49-3.66v-7.6h-2.13v-1.43h2.13v-2.75h1.61v2.75h3.62v1.43h-3.62v7.51c0,1.48.72,2.3,2.06,2.3.66,0,1.31-.21,1.76-.65l.57,1.22Z"/>
    <path class="cls-1" d="m1033.55,861.2v7.79h-1.54v-1.96c-.72,1.29-2.13,2.08-4.1,2.08-2.69,0-4.34-1.48-4.34-3.66,0-1.94,1.18-3.56,4.59-3.56h3.78v-.76c0-2.15-1.15-3.32-3.37-3.32-1.54,0-2.99.57-3.96,1.48l-.72-1.27c1.2-1.08,2.96-1.7,4.84-1.7,3.08,0,4.82,1.63,4.82,4.88Zm-1.61,4.02v-2.06h-3.73c-2.31,0-3.06.96-3.06,2.25,0,1.46,1.11,2.37,3.01,2.37s3.15-.91,3.78-2.56Z"/>
    <path class="cls-1" d="m1057.15,861.71v7.29h-1.61v-7.12c0-2.65-1.27-4.02-3.42-4.02-2.44,0-3.98,1.67-3.98,4.54v6.6h-1.61v-7.12c0-2.65-1.27-4.02-3.44-4.02-2.42,0-3.98,1.67-3.98,4.54v6.6h-1.61v-12.58h1.54v2.3c.84-1.51,2.38-2.39,4.37-2.39s3.51.88,4.23,2.65c.86-1.63,2.56-2.65,4.71-2.65,2.9,0,4.8,1.77,4.8,5.38Z"/>
    <path class="cls-1" d="m1072.11,863.24h-9.96c.18,2.63,2.08,4.38,4.68,4.38,1.45,0,2.74-.55,3.64-1.65l.91,1.1c-1.06,1.34-2.71,2.06-4.59,2.06-3.71,0-6.25-2.68-6.25-6.41s2.47-6.38,5.82-6.38,5.77,2.61,5.77,6.38c0,.14-.02.33-.02.53Zm-9.96-1.27h8.44c-.2-2.46-1.9-4.18-4.23-4.18s-4,1.72-4.21,4.18Z"/>
    <path class="cls-1" d="m1085.64,861.71v7.29h-1.61v-7.12c0-2.65-1.31-4.02-3.58-4.02-2.56,0-4.16,1.67-4.16,4.54v6.6h-1.61v-12.58h1.54v2.32c.86-1.53,2.47-2.42,4.53-2.42,2.9,0,4.89,1.77,4.89,5.38Z"/>
    <path class="cls-1" d="m1095.51,868.23c-.63.6-1.58.88-2.51.88-2.24,0-3.49-1.34-3.49-3.66v-7.6h-2.13v-1.43h2.13v-2.75h1.61v2.75h3.62v1.43h-3.62v7.51c0,1.48.72,2.3,2.06,2.3.66,0,1.31-.21,1.76-.65l.57,1.22Z"/>
    <path class="cls-1" d="m1097.73,862.71c0-3.73,2.58-6.38,6.06-6.38s6.04,2.65,6.04,6.38-2.56,6.41-6.04,6.41-6.06-2.68-6.06-6.41Zm10.48,0c0-2.94-1.88-4.9-4.41-4.9s-4.44,1.96-4.44,4.9,1.9,4.9,4.44,4.9,4.41-1.96,4.41-4.9Z"/>
    <path class="cls-1" d="m1130.77,851.26v17.74h-1.54v-2.49c-.97,1.7-2.62,2.61-4.59,2.61-3.39,0-5.93-2.61-5.93-6.41s2.53-6.38,5.93-6.38c1.9,0,3.53.86,4.53,2.49v-7.56h1.61Zm-1.58,11.45c0-2.94-1.9-4.9-4.41-4.9s-4.44,1.96-4.44,4.9,1.9,4.9,4.44,4.9,4.41-1.96,4.41-4.9Z"/>
    <path class="cls-1" d="m1144.83,863.24h-9.96c.18,2.63,2.08,4.38,4.68,4.38,1.45,0,2.74-.55,3.64-1.65l.91,1.1c-1.06,1.34-2.71,2.06-4.59,2.06-3.71,0-6.25-2.68-6.25-6.41s2.47-6.38,5.82-6.38,5.77,2.61,5.77,6.38c0,.14-.02.33-.02.53Zm-9.96-1.27h8.44c-.2-2.46-1.9-4.18-4.23-4.18s-4,1.72-4.21,4.18Z"/>
    <path class="cls-1" d="m1154.29,862.71c0-3.75,2.58-6.38,6.13-6.38,2.01,0,3.71.84,4.66,2.49l-1.2.86c-.81-1.27-2.08-1.87-3.46-1.87-2.6,0-4.5,1.96-4.5,4.9s1.9,4.9,4.5,4.9c1.38,0,2.65-.57,3.46-1.84l1.2.86c-.95,1.63-2.65,2.49-4.66,2.49-3.55,0-6.13-2.65-6.13-6.41Z"/>
    <path class="cls-1" d="m1177.39,861.2v7.79h-1.54v-1.96c-.72,1.29-2.13,2.08-4.1,2.08-2.69,0-4.34-1.48-4.34-3.66,0-1.94,1.18-3.56,4.59-3.56h3.78v-.76c0-2.15-1.15-3.32-3.37-3.32-1.54,0-2.99.57-3.96,1.48l-.72-1.27c1.2-1.08,2.96-1.7,4.84-1.7,3.08,0,4.82,1.63,4.82,4.88Zm-1.61,4.02v-2.06h-3.73c-2.31,0-3.06.96-3.06,2.25,0,1.46,1.11,2.37,3.01,2.37s3.15-.91,3.78-2.56Zm-3.05-10.74h-1.58l3.1-2.96h2.15l-3.67,2.96Z"/>
    <path class="cls-1" d="m1187.35,856.33v1.65c-.14,0-.27-.02-.38-.02-2.49,0-4.01,1.67-4.01,4.64v6.41h-1.61v-12.58h1.54v2.46c.75-1.67,2.26-2.56,4.46-2.56Z"/>
    <path class="cls-1" d="m1190.68,852.45c0-.65.52-1.2,1.18-1.2s1.18.53,1.18,1.17c0,.69-.5,1.24-1.18,1.24s-1.18-.55-1.18-1.22Zm.36,3.97h1.61v12.58h-1.61v-12.58Z"/>
    <path class="cls-1" d="m1207.86,863.24h-9.96c.18,2.63,2.08,4.38,4.68,4.38,1.45,0,2.74-.55,3.64-1.65l.91,1.1c-1.06,1.34-2.71,2.06-4.59,2.06-3.71,0-6.25-2.68-6.25-6.41s2.47-6.38,5.82-6.38,5.77,2.61,5.77,6.38c0,.14-.02.33-.02.53Zm-9.96-1.27h8.44c-.2-2.46-1.9-4.18-4.23-4.18s-4,1.72-4.21,4.18Z"/>
    <path class="cls-1" d="m958.48,896.53c0-1.11.39-2.05,1.18-2.83.78-.78,1.72-1.17,2.82-1.17s2.05.39,2.83,1.17c.78.78,1.18,1.72,1.18,2.83s-.39,2.05-1.18,2.84-1.73,1.18-2.83,1.18-2.03-.39-2.82-1.18-1.18-1.73-1.18-2.84Z"/>
    <path class="cls-1" d="m978.24,899.53c0-4.9,3.53-8.51,8.3-8.51,2.31,0,4.39.81,5.79,2.44l-1.06,1.12c-1.29-1.39-2.87-1.98-4.68-1.98-3.82,0-6.7,2.96-6.7,6.93s2.87,6.93,6.7,6.93c1.81,0,3.39-.6,4.68-2.01l1.06,1.12c-1.4,1.63-3.48,2.46-5.82,2.46-4.75,0-8.28-3.61-8.28-8.51Z"/>
    <path class="cls-1" d="m995.12,891.35c0-.65.52-1.2,1.18-1.2s1.18.53,1.18,1.17c0,.69-.5,1.24-1.18,1.24s-1.18-.55-1.18-1.22Zm.36,3.97h1.61v12.58h-1.61v-12.58Z"/>
    <path class="cls-1" d="m1007.93,895.22v1.65c-.14,0-.27-.02-.38-.02-2.49,0-4.01,1.67-4.01,4.64v6.41h-1.61v-12.58h1.54v2.46c.75-1.67,2.26-2.56,4.46-2.56Z"/>
    <path class="cls-1" d="m1022.34,895.32v12.58h-1.54v-2.3c-.84,1.53-2.38,2.42-4.28,2.42-3.03,0-5.02-1.79-5.02-5.4v-7.29h1.61v7.13c0,2.68,1.31,4.04,3.58,4.04,2.49,0,4.05-1.7,4.05-4.57v-6.6h1.61Z"/>
    <path class="cls-1" d="m1032.17,895.22v1.65c-.14,0-.27-.02-.38-.02-2.49,0-4.01,1.67-4.01,4.64v6.41h-1.61v-12.58h1.54v2.46c.75-1.67,2.26-2.56,4.46-2.56Z"/>
    <path class="cls-1" d="m1046.88,895.32v11.05c0,4.33-2.01,6.29-5.95,6.29-2.17,0-4.3-.69-5.54-1.94l.82-1.29c1.13,1.08,2.85,1.72,4.68,1.72,3.01,0,4.39-1.46,4.39-4.57v-1.6c-1,1.6-2.69,2.44-4.64,2.44-3.39,0-5.97-2.51-5.97-6.12s2.58-6.07,5.97-6.07c1.99,0,3.71.86,4.71,2.51v-2.42h1.54Zm-1.56,5.98c0-2.73-1.9-4.59-4.53-4.59s-4.5,1.87-4.5,4.59,1.88,4.62,4.5,4.62,4.53-1.89,4.53-4.62Z"/>
    <path class="cls-1" d="m1051.65,891.35c0-.65.52-1.2,1.18-1.2s1.18.53,1.18,1.17c0,.69-.5,1.24-1.18,1.24s-1.18-.55-1.18-1.22Zm.36,3.97h1.61v12.58h-1.61v-12.58Z"/>
    <path class="cls-1" d="m1067.45,900.1v7.79h-1.54v-1.96c-.72,1.29-2.13,2.08-4.1,2.08-2.69,0-4.34-1.48-4.34-3.66,0-1.94,1.18-3.56,4.59-3.56h3.78v-.76c0-2.15-1.15-3.32-3.37-3.32-1.54,0-2.99.57-3.96,1.48l-.72-1.27c1.2-1.08,2.96-1.7,4.84-1.7,3.08,0,4.82,1.63,4.82,4.88Zm-1.61,4.02v-2.06h-3.73c-2.31,0-3.06.96-3.06,2.25,0,1.46,1.11,2.37,3.01,2.37s3.15-.91,3.78-2.56Z"/>
    <path class="cls-1" d="m1076.39,901.35c0-4.4.95-8.34,2.62-11.19h1.54c-1.79,3.28-2.58,6.93-2.58,11.19s.79,7.92,2.58,11.19h-1.54c-1.67-2.89-2.62-6.79-2.62-11.19Z"/>
    <path class="cls-1" d="m1083.16,901.61c0-3.73,2.58-6.38,6.06-6.38s6.04,2.65,6.04,6.38-2.56,6.41-6.04,6.41-6.06-2.68-6.06-6.41Zm10.48,0c0-2.94-1.88-4.9-4.41-4.9s-4.44,1.96-4.44,4.9,1.9,4.9,4.44,4.9,4.41-1.96,4.41-4.9Z"/>
    <path class="cls-1" d="m1104.88,895.22v1.65c-.14,0-.27-.02-.38-.02-2.49,0-4.01,1.67-4.01,4.64v6.41h-1.61v-12.58h1.54v2.46c.75-1.67,2.26-2.56,4.46-2.56Z"/>
    <path class="cls-1" d="m1117.56,900.1v7.79h-1.54v-1.96c-.72,1.29-2.13,2.08-4.1,2.08-2.69,0-4.34-1.48-4.34-3.66,0-1.94,1.18-3.56,4.59-3.56h3.78v-.76c0-2.15-1.15-3.32-3.37-3.32-1.54,0-2.99.57-3.96,1.48l-.72-1.27c1.2-1.08,2.96-1.7,4.84-1.7,3.08,0,4.82,1.63,4.82,4.88Zm-1.61,4.02v-2.06h-3.73c-2.31,0-3.06.96-3.06,2.25,0,1.46,1.11,2.37,3.01,2.37s3.15-.91,3.78-2.56Z"/>
    <path class="cls-1" d="m1121.52,890.16h1.61v17.74h-1.61v-17.74Z"/>
    <path class="cls-1" d="m1152.48,900.6v7.29h-1.61v-7.12c0-2.65-1.27-4.02-3.42-4.02-2.44,0-3.98,1.67-3.98,4.54v6.6h-1.61v-7.12c0-2.65-1.27-4.02-3.44-4.02-2.42,0-3.98,1.67-3.98,4.54v6.6h-1.61v-12.58h1.54v2.3c.84-1.51,2.38-2.39,4.37-2.39s3.51.88,4.23,2.65c.86-1.63,2.56-2.65,4.71-2.65,2.9,0,4.8,1.77,4.8,5.38Z"/>
    <path class="cls-1" d="m1167.44,902.13h-9.96c.18,2.63,2.08,4.38,4.68,4.38,1.45,0,2.74-.55,3.64-1.65l.91,1.1c-1.06,1.34-2.71,2.06-4.59,2.06-3.71,0-6.25-2.68-6.25-6.41s2.47-6.38,5.82-6.38,5.77,2.61,5.77,6.38c0,.14-.02.33-.02.53Zm-9.96-1.27h8.44c-.2-2.46-1.9-4.18-4.23-4.18s-4,1.72-4.21,4.18Z"/>
    <path class="cls-1" d="m1180.97,900.6v7.29h-1.61v-7.12c0-2.65-1.31-4.02-3.58-4.02-2.56,0-4.16,1.67-4.16,4.54v6.6h-1.61v-12.58h1.54v2.32c.86-1.53,2.47-2.42,4.53-2.42,2.9,0,4.89,1.77,4.89,5.38Z"/>
    <path class="cls-1" d="m1183.37,901.61c0-3.73,2.58-6.38,6.06-6.38s6.04,2.65,6.04,6.38-2.56,6.41-6.04,6.41-6.06-2.68-6.06-6.41Zm10.48,0c0-2.94-1.88-4.9-4.41-4.9s-4.44,1.96-4.44,4.9,1.9,4.9,4.44,4.9,4.41-1.96,4.41-4.9Z"/>
    <path class="cls-1" d="m1205.1,895.22v1.65c-.14,0-.27-.02-.38-.02-2.49,0-4.01,1.67-4.01,4.64v6.41h-1.61v-12.58h1.54v2.46c.75-1.67,2.26-2.56,4.46-2.56Z"/>
    <path class="cls-1" d="m1207.45,912.54c1.81-3.28,2.6-6.93,2.6-11.19s-.79-7.91-2.6-11.19h1.54c1.7,2.84,2.65,6.79,2.65,11.19s-.95,8.3-2.65,11.19h-1.54Z"/>
    <path class="cls-1" d="m958.48,935.43c0-1.11.39-2.05,1.18-2.83.78-.78,1.72-1.17,2.82-1.17s2.05.39,2.83,1.17c.78.78,1.18,1.72,1.18,2.83s-.39,2.05-1.18,2.84-1.73,1.18-2.83,1.18-2.03-.39-2.82-1.18-1.18-1.73-1.18-2.84Z"/>
    <path class="cls-1" d="m978.24,938.43c0-4.88,3.53-8.51,8.33-8.51s8.3,3.61,8.3,8.51-3.55,8.51-8.3,8.51-8.33-3.63-8.33-8.51Zm14.96,0c0-3.99-2.83-6.93-6.63-6.93s-6.68,2.94-6.68,6.93,2.85,6.93,6.68,6.93,6.63-2.94,6.63-6.93Z"/>
    <path class="cls-1" d="m1009.56,929.05v17.74h-1.54v-2.49c-.97,1.7-2.62,2.61-4.59,2.61-3.39,0-5.93-2.61-5.93-6.41s2.53-6.38,5.93-6.38c1.9,0,3.53.86,4.53,2.49v-7.56h1.61Zm-1.58,11.45c0-2.94-1.9-4.9-4.41-4.9s-4.44,1.96-4.44,4.9,1.9,4.9,4.44,4.9,4.41-1.96,4.41-4.9Z"/>
    <path class="cls-1" d="m1012.05,940.51c0-3.73,2.58-6.38,6.06-6.38s6.04,2.65,6.04,6.38-2.56,6.41-6.04,6.41-6.06-2.68-6.06-6.41Zm10.48,0c0-2.94-1.88-4.9-4.41-4.9s-4.44,1.96-4.44,4.9,1.9,4.9,4.44,4.9,4.41-1.96,4.41-4.9Z"/>
    <path class="cls-1" d="m1038.73,939.5v7.29h-1.61v-7.12c0-2.65-1.31-4.02-3.58-4.02-2.56,0-4.16,1.67-4.16,4.54v6.6h-1.61v-12.58h1.54v2.32c.86-1.53,2.47-2.42,4.53-2.42,2.9,0,4.89,1.77,4.89,5.38Z"/>
    <path class="cls-1" d="m1048.6,946.03c-.63.6-1.58.88-2.51.88-2.24,0-3.49-1.34-3.49-3.66v-7.6h-2.13v-1.43h2.13v-2.75h1.61v2.75h3.62v1.43h-3.62v7.51c0,1.48.72,2.3,2.06,2.3.66,0,1.31-.21,1.76-.65l.57,1.22Z"/>
    <path class="cls-1" d="m1050.82,940.51c0-3.73,2.58-6.38,6.06-6.38s6.04,2.65,6.04,6.38-2.56,6.41-6.04,6.41-6.06-2.68-6.06-6.41Zm10.48,0c0-2.94-1.88-4.9-4.41-4.9s-4.44,1.96-4.44,4.9,1.9,4.9,4.44,4.9,4.41-1.96,4.41-4.9Z"/>
    <path class="cls-1" d="m1078.61,940.51c0,3.83-2.54,6.41-5.93,6.41-1.9,0-3.53-.86-4.53-2.49v7.01h-1.61v-17.22h1.54v2.49c.97-1.67,2.62-2.58,4.59-2.58,3.39,0,5.93,2.58,5.93,6.38Zm-1.61,0c0-2.92-1.92-4.9-4.43-4.9s-4.44,1.99-4.44,4.9,1.9,4.9,4.44,4.9,4.43-1.96,4.43-4.9Z"/>
    <path class="cls-1" d="m1091.46,941.03h-9.96c.18,2.63,2.08,4.38,4.68,4.38,1.45,0,2.74-.55,3.64-1.65l.91,1.1c-1.06,1.34-2.71,2.06-4.59,2.06-3.71,0-6.25-2.68-6.25-6.41s2.47-6.38,5.82-6.38,5.77,2.61,5.77,6.38c0,.14-.02.33-.02.53Zm-9.96-1.27h8.44c-.2-2.46-1.9-4.18-4.23-4.18s-4,1.72-4.21,4.18Z"/>
    <path class="cls-1" d="m1104.91,929.05v17.74h-1.54v-2.49c-.97,1.7-2.62,2.61-4.59,2.61-3.39,0-5.93-2.61-5.93-6.41s2.53-6.38,5.93-6.38c1.9,0,3.53.86,4.53,2.49v-7.56h1.61Zm-1.58,11.45c0-2.94-1.9-4.9-4.41-4.9s-4.44,1.96-4.44,4.9,1.9,4.9,4.44,4.9,4.41-1.96,4.41-4.9Z"/>
    <path class="cls-1" d="m1108.23,930.25c0-.65.52-1.2,1.18-1.2s1.18.53,1.18,1.17c0,.69-.5,1.24-1.18,1.24s-1.18-.55-1.18-1.22Zm.36,3.97h1.61v12.58h-1.61v-12.58Z"/>
    <path class="cls-1" d="m1124.03,939v7.79h-1.54v-1.96c-.72,1.29-2.13,2.08-4.1,2.08-2.69,0-4.34-1.48-4.34-3.66,0-1.94,1.18-3.56,4.59-3.56h3.78v-.76c0-2.15-1.15-3.32-3.37-3.32-1.54,0-2.99.57-3.96,1.48l-.72-1.27c1.2-1.08,2.96-1.7,4.84-1.7,3.08,0,4.82,1.63,4.82,4.88Zm-1.61,4.02v-2.06h-3.73c-2.31,0-3.06.96-3.06,2.25,0,1.46,1.11,2.37,3.01,2.37s3.15-.91,3.78-2.56Z"/>
    <path class="cls-1" d="m1134.26,946.03c-.63.6-1.58.88-2.51.88-2.24,0-3.49-1.34-3.49-3.66v-7.6h-2.13v-1.43h2.13v-2.75h1.61v2.75h3.62v1.43h-3.62v7.51c0,1.48.72,2.3,2.06,2.3.66,0,1.31-.21,1.76-.65l.57,1.22Z"/>
    <path class="cls-1" d="m1143.67,934.12v1.65c-.14,0-.27-.02-.38-.02-2.49,0-4.01,1.67-4.01,4.64v6.41h-1.61v-12.58h1.54v2.46c.75-1.67,2.26-2.56,4.46-2.56Z"/>
    <path class="cls-1" d="m1147,930.25c0-.65.52-1.2,1.18-1.2s1.18.53,1.18,1.17c0,.69-.5,1.24-1.18,1.24s-1.18-.55-1.18-1.22Zm.36,3.97h1.61v12.58h-1.61v-12.58Z"/>
    <path class="cls-1" d="m1162.8,939v7.79h-1.54v-1.96c-.72,1.29-2.13,2.08-4.1,2.08-2.69,0-4.34-1.48-4.34-3.66,0-1.94,1.18-3.56,4.59-3.56h3.78v-.76c0-2.15-1.15-3.32-3.37-3.32-1.54,0-2.99.57-3.96,1.48l-.72-1.27c1.2-1.08,2.96-1.7,4.84-1.7,3.08,0,4.82,1.63,4.82,4.88Zm-1.61,4.02v-2.06h-3.73c-2.31,0-3.06.96-3.06,2.25,0,1.46,1.11,2.37,3.01,2.37s3.15-.91,3.78-2.56Z"/>
    <path class="cls-1" d="m1174.95,940.24c0-4.4.95-8.34,2.62-11.19h1.54c-1.79,3.28-2.58,6.93-2.58,11.19s.79,7.92,2.58,11.19h-1.54c-1.67-2.89-2.62-6.79-2.62-11.19Z"/>
    <path class="cls-1" d="m1191.9,939v7.79h-1.54v-1.96c-.72,1.29-2.13,2.08-4.1,2.08-2.69,0-4.34-1.48-4.34-3.66,0-1.94,1.18-3.56,4.59-3.56h3.78v-.76c0-2.15-1.15-3.32-3.37-3.32-1.54,0-2.99.57-3.96,1.48l-.72-1.27c1.2-1.08,2.96-1.7,4.84-1.7,3.08,0,4.82,1.63,4.82,4.88Zm-1.61,4.02v-2.06h-3.73c-2.31,0-3.06.96-3.06,2.25,0,1.46,1.11,2.37,3.01,2.37s3.15-.91,3.78-2.56Z"/>
    <path class="cls-1" d="m1202.13,946.03c-.63.6-1.58.88-2.51.88-2.24,0-3.49-1.34-3.49-3.66v-7.6h-2.13v-1.43h2.13v-2.75h1.61v2.75h3.62v1.43h-3.62v7.51c0,1.48.72,2.3,2.06,2.3.66,0,1.31-.21,1.76-.65l.57,1.22Z"/>
    <path class="cls-1" d="m1215.92,941.03h-9.96c.18,2.63,2.08,4.38,4.68,4.38,1.45,0,2.74-.55,3.64-1.65l.91,1.1c-1.06,1.34-2.71,2.06-4.59,2.06-3.71,0-6.25-2.68-6.25-6.41s2.47-6.38,5.82-6.38,5.77,2.61,5.77,6.38c0,.14-.02.33-.02.53Zm-9.96-1.27h8.44c-.2-2.46-1.9-4.18-4.23-4.18s-4,1.72-4.21,4.18Zm4.32-7.48h-1.58l3.1-2.96h2.15l-3.67,2.96Z"/>
    <path class="cls-1" d="m1226.69,930.06v16.74h-1.63v-15.21h-3.73v-1.53h5.36Z"/>
    <path class="cls-1" d="m1243.86,942.4h-3.17v4.4h-1.63v-4.4h-8.94v-1.24l8.4-11.09h1.81l-8.1,10.81h6.88v-3.87h1.58v3.87h3.17v1.53Z"/>
    <path class="cls-1" d="m1261.45,939v7.79h-1.54v-1.96c-.72,1.29-2.13,2.08-4.1,2.08-2.69,0-4.34-1.48-4.34-3.66,0-1.94,1.18-3.56,4.59-3.56h3.78v-.76c0-2.15-1.15-3.32-3.37-3.32-1.54,0-2.99.57-3.96,1.48l-.72-1.27c1.2-1.08,2.96-1.7,4.84-1.7,3.08,0,4.82,1.63,4.82,4.88Zm-1.61,4.02v-2.06h-3.73c-2.31,0-3.06.96-3.06,2.25,0,1.46,1.11,2.37,3.01,2.37s3.15-.91,3.78-2.56Z"/>
    <path class="cls-1" d="m1276.36,939.5v7.29h-1.61v-7.12c0-2.65-1.31-4.02-3.58-4.02-2.56,0-4.16,1.67-4.16,4.54v6.6h-1.61v-12.58h1.54v2.32c.86-1.53,2.47-2.42,4.53-2.42,2.9,0,4.89,1.77,4.89,5.38Z"/>
    <path class="cls-1" d="m1278.76,940.51c0-3.73,2.58-6.38,6.06-6.38s6.04,2.65,6.04,6.38-2.56,6.41-6.04,6.41-6.06-2.68-6.06-6.41Zm10.48,0c0-2.94-1.88-4.9-4.41-4.9s-4.44,1.96-4.44,4.9,1.9,4.9,4.44,4.9,4.41-1.96,4.41-4.9Z"/>
    <path class="cls-1" d="m1292.84,945.36l.72-1.34c.95.79,2.56,1.41,4.23,1.41,2.26,0,3.19-.81,3.19-2.06,0-3.28-7.72-.69-7.72-5.67,0-2.06,1.67-3.59,4.71-3.59,1.54,0,3.21.45,4.21,1.17l-.7,1.36c-1.04-.77-2.29-1.08-3.51-1.08-2.15,0-3.1.88-3.1,2.08,0,3.4,7.72.84,7.72,5.67,0,2.18-1.81,3.59-4.91,3.59-1.97,0-3.87-.67-4.84-1.55Z"/>
    <path class="cls-1" d="m1304.47,951.43c1.81-3.28,2.6-6.93,2.6-11.19s-.79-7.91-2.6-11.19h1.54c1.7,2.84,2.65,6.79,2.65,11.19s-.95,8.3-2.65,11.19h-1.54Z"/>
    <path class="cls-1" d="m958.48,974.33c0-1.11.39-2.05,1.18-2.83.78-.78,1.72-1.17,2.82-1.17s2.05.39,2.83,1.17c.78.78,1.18,1.72,1.18,2.83s-.39,2.05-1.18,2.84-1.73,1.18-2.83,1.18-2.03-.39-2.82-1.18-1.18-1.73-1.18-2.84Z"/>
    <path class="cls-1" d="m992.75,974.7c0,3.56-2.44,5.71-6.47,5.71h-4.25v5.28h-1.67v-16.74h5.93c4.03,0,6.47,2.15,6.47,5.74Zm-1.67,0c0-2.68-1.67-4.21-4.84-4.21h-4.21v8.37h4.21c3.17,0,4.84-1.53,4.84-4.16Z"/>
    <path class="cls-1" d="m1006.62,979.93h-9.96c.18,2.63,2.08,4.38,4.68,4.38,1.45,0,2.74-.55,3.64-1.65l.91,1.1c-1.06,1.34-2.71,2.06-4.59,2.06-3.71,0-6.25-2.68-6.25-6.41s2.47-6.38,5.82-6.38,5.77,2.61,5.77,6.38c0,.14-.02.33-.02.53Zm-9.96-1.27h8.44c-.2-2.46-1.9-4.18-4.23-4.18s-4,1.72-4.21,4.18Z"/>
    <path class="cls-1" d="m1015.93,973.02v1.65c-.14,0-.27-.02-.38-.02-2.49,0-4.01,1.67-4.01,4.64v6.41h-1.61v-12.58h1.54v2.46c.75-1.67,2.26-2.56,4.46-2.56Z"/>
    <path class="cls-1" d="m1018.64,969.15c0-.65.52-1.2,1.18-1.2s1.18.53,1.18,1.17c0,.69-.5,1.24-1.18,1.24s-1.18-.55-1.18-1.22Zm.36,3.97h1.61v12.58h-1.61v-12.58Z"/>
    <path class="cls-1" d="m1023.89,979.41c0-3.73,2.58-6.38,6.06-6.38s6.04,2.65,6.04,6.38-2.56,6.41-6.04,6.41-6.06-2.68-6.06-6.41Zm10.48,0c0-2.94-1.88-4.9-4.41-4.9s-4.44,1.96-4.44,4.9,1.9,4.9,4.44,4.9,4.41-1.96,4.41-4.9Z"/>
    <path class="cls-1" d="m1050.15,967.95v17.74h-1.54v-2.49c-.97,1.7-2.62,2.61-4.59,2.61-3.39,0-5.93-2.61-5.93-6.41s2.53-6.38,5.93-6.38c1.9,0,3.53.86,4.53,2.49v-7.56h1.61Zm-1.58,11.45c0-2.94-1.9-4.9-4.41-4.9s-4.44,1.96-4.44,4.9,1.9,4.9,4.44,4.9,4.41-1.96,4.41-4.9Z"/>
    <path class="cls-1" d="m1053.43,979.41c0-3.73,2.58-6.38,6.06-6.38s6.04,2.65,6.04,6.38-2.56,6.41-6.04,6.41-6.06-2.68-6.06-6.41Zm10.48,0c0-2.94-1.88-4.9-4.41-4.9s-4.44,1.96-4.44,4.9,1.9,4.9,4.44,4.9,4.41-1.96,4.41-4.9Z"/>
    <path class="cls-1" d="m1079.77,978.4v7.29h-1.61v-7.12c0-2.65-1.31-4.02-3.58-4.02-2.56,0-4.16,1.67-4.16,4.54v6.6h-1.61v-12.58h1.54v2.32c.86-1.53,2.47-2.42,4.53-2.42,2.9,0,4.89,1.77,4.89,5.38Z"/>
    <path class="cls-1" d="m1090.41,984.93c-.63.6-1.58.88-2.51.88-2.24,0-3.49-1.34-3.49-3.66v-7.6h-2.13v-1.43h2.13v-2.75h1.61v2.75h3.62v1.43h-3.62v7.51c0,1.48.72,2.3,2.06,2.3.66,0,1.31-.21,1.76-.65l.57,1.22Z"/>
    <path class="cls-1" d="m1092.97,969.15c0-.65.52-1.2,1.18-1.2s1.18.53,1.18,1.17c0,.69-.5,1.24-1.18,1.24s-1.18-.55-1.18-1.22Zm.36,3.97h1.61v12.58h-1.61v-12.58Z"/>
    <path class="cls-1" d="m1108.4,977.9v7.79h-1.54v-1.96c-.72,1.29-2.13,2.08-4.1,2.08-2.69,0-4.34-1.48-4.34-3.66,0-1.94,1.18-3.56,4.59-3.56h3.78v-.76c0-2.15-1.15-3.32-3.37-3.32-1.54,0-2.99.57-3.96,1.48l-.72-1.27c1.2-1.08,2.96-1.7,4.84-1.7,3.08,0,4.82,1.63,4.82,4.88Zm-1.61,4.02v-2.06h-3.73c-2.31,0-3.06.96-3.06,2.25,0,1.46,1.11,2.37,3.01,2.37s3.15-.91,3.78-2.56Z"/>
  </g>
  <g>
    <path class="cls-1" d="m241.24,947.9c4.55,0,7.38,3.4,7.38,8.85v4.1h5.63v4.71h-20.42v-8.82c0-5.44,2.83-8.85,7.41-8.85Zm0,4.77c-2.25,0-3.56,1.46-3.56,4.34v3.84h7.09v-3.84c0-2.88-1.31-4.34-3.53-4.34Z"/>
    <path class="cls-1" d="m254.25,931.55l-5.69,3.93v4.34h5.69v4.71h-20.42v-8.82c0-5.44,2.83-8.85,7.41-8.85,3.06,0,5.31,1.54,6.45,4.19l6.56-4.57v5.06Zm-16.57,4.42v3.84h7.12v-3.84c0-2.88-1.34-4.34-3.56-4.34s-3.56,1.46-3.56,4.34Z"/>
    <path class="cls-1" d="m227.97,912.34v-4.89l4.2,5.27v3.55l-4.2-3.93Zm16.08,12.42c-6.07,0-10.56-4.71-10.56-11.14s4.46-11.14,10.56-11.14,10.56,4.74,10.56,11.14-4.49,11.14-10.56,11.14Zm0-17.52c-3.88,0-6.54,2.74-6.54,6.37s2.65,6.37,6.54,6.37,6.54-2.74,6.54-6.37-2.66-6.37-6.54-6.37Z"/>
    <path class="cls-1" d="m237.68,895v6.52h-3.85v-17.75h3.85v6.52h16.57v4.71h-16.57Z"/>
    <path class="cls-1" d="m250.46,865.64h3.79v15.77h-20.42v-15.39h3.79v10.71h4.43v-9.46h3.68v9.46h4.73v-11.09Z"/>
    <path class="cls-1" d="m252.24,863.61l-3.56-1.6c1.25-1.72,2.13-4.28,2.13-6.72,0-2.79-.93-3.93-2.19-3.93-3.82,0-1.2,11.84-8.78,11.84-3.47,0-6.36-2.79-6.36-8.58,0-2.56.61-5.18,1.81-7.07l3.59,1.46c-1.08,1.89-1.6,3.84-1.6,5.64,0,2.79,1.05,3.87,2.33,3.87,3.76,0,1.17-11.84,8.67-11.84,3.41,0,6.33,2.82,6.33,8.64,0,3.23-.96,6.49-2.36,8.29Z"/>
    <path class="cls-1" d="m250.46,828.43h3.79v15.77h-20.42v-15.39h3.79v10.71h4.43v-9.46h3.68v9.46h4.73v-11.09Z"/>
    <path class="cls-1" d="m245.82,801.86v5.06h4.96v3.75h-4.96v5.03h-3.56v-5.03h-4.96v-3.75h4.96v-5.06h3.56Z"/>
    <path class="cls-1" d="m244.04,790.51c-6.07,0-10.56-4.71-10.56-11.14s4.46-11.14,10.56-11.14,10.56,4.74,10.56,11.14-4.49,11.14-10.56,11.14Zm0-17.52c-3.88,0-6.54,2.74-6.54,6.37s2.65,6.37,6.54,6.37,6.54-2.74,6.54-6.37-2.66-6.37-6.54-6.37Z"/>
    <path class="cls-1" d="m254.25,751.98l-5.69,3.93v4.34h5.69v4.71h-20.42v-8.82c0-5.44,2.83-8.85,7.41-8.85,3.06,0,5.31,1.54,6.45,4.19l6.56-4.57v5.06Zm-16.57,4.42v3.84h7.12v-3.84c0-2.88-1.34-4.34-3.56-4.34s-3.56,1.46-3.56,4.34Z"/>
    <path class="cls-1" d="m237.68,739.7v6.52h-3.85v-17.75h3.85v6.52h16.57v4.71h-16.57Z"/>
    <path class="cls-1" d="m244.04,727.4c-6.07,0-10.56-4.71-10.56-11.14s4.46-11.14,10.56-11.14,10.56,4.74,10.56,11.14-4.49,11.14-10.56,11.14Zm0-17.52c-3.88,0-6.54,2.74-6.54,6.37s2.65,6.37,6.54,6.37,6.54-2.74,6.54-6.37-2.66-6.37-6.54-6.37Z"/>
    <path class="cls-1" d="m233.83,701.85v-9.25c0-6.66,4.03-11.23,10.21-11.23s10.21,4.57,10.21,11.23v9.25h-20.42Zm16.54-9.02c0-4.04-2.42-6.69-6.33-6.69s-6.33,2.65-6.33,6.69v4.31h12.66v-4.31Z"/>
    <path class="cls-1" d="m244.04,678.89c-6.07,0-10.56-4.71-10.56-11.14s4.46-11.14,10.56-11.14,10.56,4.74,10.56,11.14-4.49,11.14-10.56,11.14Zm0-17.52c-3.88,0-6.54,2.74-6.54,6.37s2.65,6.37,6.54,6.37,6.54-2.74,6.54-6.37-2.66-6.37-6.54-6.37Z"/>
    <path class="cls-1" d="m233.83,634.66h20.42v3.87l-12.4,10.16h12.4v4.66h-20.42v-3.9l12.4-10.13h-12.4v-4.66Z"/>
    <path class="cls-1" d="m237.68,624.88v6.52h-3.85v-17.75h3.85v6.52h16.57v4.71h-16.57Z"/>
    <path class="cls-1" d="m233.83,611.29v-4.71h20.42v4.71h-20.42Z"/>
    <path class="cls-1" d="m249.88,588.19v9.46l4.38,1.8v4.83l-20.42-9.08v-4.66l20.42-9.11v4.95l-4.38,1.8Zm-3.59,1.48l-7.82,3.23,7.82,3.23v-6.46Z"/>
  </g>
  <g>
    <path class="cls-8" d="m118.36,928.15c9.07,0,14.78,6.93,14.78,17.82v5.64h9.63v13.18h-39.2v-18.83c0-10.89,5.71-17.82,14.78-17.82Zm0,13.3c-2.86,0-4.59,1.73-4.59,5.36v4.8h9.18v-4.8c0-3.63-1.74-5.36-4.59-5.36Z"/>
    <path class="cls-8" d="m103.58,923.29v-13.18h28.95v-17.65h10.25v30.84h-39.2Z"/>
    <path class="cls-8" d="m135.95,862.19v14.86l6.83,2.62v13.41l-39.2-17.09v-12.96l39.2-17.09v13.63l-6.83,2.63Zm-9.52,3.63l-9.86,3.8,9.86,3.8v-7.6Z"/>
    <path class="cls-8" d="m103.58,805.27h39.2v10.84l-17.81,14.86h17.81v12.85h-39.2v-10.84l17.81-14.86h-17.81v-12.85Z"/>
    <path class="cls-8" d="m123.18,800.47c-11.87,0-20.5-9.33-20.5-22.07s8.62-22.07,20.5-22.07,20.5,9.33,20.5,22.07-8.62,22.07-20.5,22.07Zm0-30.84c-6.1,0-9.8,3.91-9.8,8.77s3.7,8.77,9.8,8.77,9.8-3.91,9.8-8.77-3.7-8.77-9.8-8.77Z"/>
    <path class="cls-8" d="m139.64,754l-9.63-4.25c2.18-3.69,3.58-8.6,3.58-12.9,0-3.74-.78-5.08-2.13-5.08-4.93,0-.95,21.62-15.57,21.62-7.28,0-13.22-6.09-13.22-18.21,0-5.25,1.12-10.67,3.42-14.75l9.58,3.97c-1.96,3.85-2.91,7.49-2.91,10.89,0,3.85,1.12,5.08,2.46,5.08,4.7,0,.78-21.62,15.23-21.62,7.17,0,13.21,6.09,13.21,18.21,0,6.54-1.62,13.13-4.03,17.04Z"/>
  </g>
  <g>
    <path class="cls-1" d="m382.35,956.15l-5.69,3.93v4.34h5.69v4.71h-20.42v-8.82c0-5.44,2.83-8.85,7.41-8.85,3.06,0,5.31,1.54,6.45,4.19l6.56-4.57v5.06Zm-16.57,4.42v3.84h7.12v-3.84c0-2.88-1.34-4.34-3.56-4.34s-3.56,1.46-3.56,4.34Z"/>
    <path class="cls-1" d="m372.14,949.03c-6.07,0-10.56-4.71-10.56-11.14s4.46-11.14,10.56-11.14,10.56,4.74,10.56,11.14-4.49,11.14-10.56,11.14Zm0-17.52c-3.88,0-6.54,2.74-6.54,6.37s2.65,6.37,6.54,6.37,6.54-2.74,6.54-6.37-2.66-6.37-6.54-6.37Z"/>
    <path class="cls-1" d="m361.93,923.19v-4.71h16.57v-10.21h3.85v14.93h-20.42Z"/>
    <path class="cls-1" d="m377.97,883.96v9.46l4.38,1.8v4.83l-20.42-9.08v-4.66l20.42-9.11v4.95l-4.38,1.8Zm-3.59,1.48l-7.82,3.23,7.82,3.23v-6.46Z"/>
    <path class="cls-1" d="m382.35,856.55l-12.25.03,10.09,5.99v2.12l-9.83,5.97h11.99v4.42h-20.42v-3.9l12.69-7.62-12.69-7.51v-3.87l20.42-.06v4.42Z"/>
    <path class="cls-1" d="m369.34,829.64c4.55,0,7.38,3.4,7.38,8.85v4.1h5.63v4.71h-20.42v-8.82c0-5.44,2.83-8.85,7.41-8.85Zm0,4.77c-2.25,0-3.56,1.46-3.56,4.34v3.84h7.09v-3.84c0-2.88-1.31-4.34-3.53-4.34Z"/>
    <path class="cls-1" d="m361.93,826v-4.71h16.57v-10.21h3.85v14.93h-20.42Z"/>
    <path class="cls-1" d="m361.93,808.42v-4.71h20.42v4.71h-20.42Z"/>
    <path class="cls-1" d="m377.97,785.47v9.46l4.38,1.8v4.83l-20.42-9.08v-4.66l20.42-9.11v4.95l-4.38,1.8Zm-3.59,1.48l-7.82,3.23,7.82,3.23v-6.46Z"/>
    <path class="cls-1" d="m361.93,776.59v-9.25c0-6.66,4.03-11.23,10.21-11.23s10.21,4.57,10.21,11.23v9.25h-20.42Zm16.54-9.02c0-4.04-2.42-6.69-6.33-6.69s-6.33,2.65-6.33,6.69v4.31h12.66v-4.31Z"/>
    <path class="cls-1" d="m372.14,753.84c-6.07,0-10.56-4.71-10.56-11.14s4.46-11.14,10.56-11.14,10.56,4.74,10.56,11.14-4.49,11.14-10.56,11.14Zm0-17.52c-3.88,0-6.54,2.74-6.54,6.37s2.65,6.37,6.54,6.37,6.54-2.74,6.54-6.37-2.66-6.37-6.54-6.37Z"/>
    <path class="cls-1" d="m372.14,721.04c-6.16,0-10.56-4.71-10.56-11.06,0-3.52,1.28-6.46,3.62-8.38l2.8,3.03c-1.58,1.37-2.39,3.08-2.39,5.12,0,3.81,2.68,6.52,6.54,6.52s6.54-2.71,6.54-6.52c0-2.04-.82-3.75-2.42-5.12l2.8-3.03c2.36,1.92,3.65,4.86,3.65,8.41,0,6.31-4.41,11.03-10.56,11.03Z"/>
    <path class="cls-1" d="m372.14,699.71c-6.07,0-10.56-4.71-10.56-11.14s4.46-11.14,10.56-11.14,10.56,4.74,10.56,11.14-4.49,11.14-10.56,11.14Zm0-17.52c-3.88,0-6.54,2.74-6.54,6.37s2.65,6.37,6.54,6.37,6.54-2.74,6.54-6.37-2.66-6.37-6.54-6.37Z"/>
    <path class="cls-1" d="m382.35,655.34l-12.25.03,10.09,5.99v2.12l-9.83,5.97h11.99v4.42h-20.42v-3.9l12.69-7.62-12.69-7.51v-3.87l20.42-.06v4.42Z"/>
    <path class="cls-1" d="m369.34,620.19c4.55,0,7.38,3.4,7.38,8.85v4.1h5.63v4.71h-20.42v-8.82c0-5.44,2.83-8.85,7.41-8.85Zm0,4.77c-2.25,0-3.56,1.46-3.56,4.34v3.84h7.09v-3.84c0-2.88-1.31-4.34-3.53-4.34Z"/>
    <path class="cls-1" d="m382.35,603.57l-5.69,3.93v4.34h5.69v4.71h-20.42v-8.82c0-5.44,2.83-8.85,7.41-8.85,3.06,0,5.31,1.54,6.45,4.19l6.56-4.57v5.06Zm-16.57,4.42v3.84h7.12v-3.84c0-2.88-1.34-4.34-3.56-4.34s-3.56,1.46-3.56,4.34Z"/>
    <path class="cls-1" d="m356.06,584.02v-4.89l4.2,5.27v3.55l-4.2-3.93Zm16.08,12.42c-6.07,0-10.56-4.71-10.56-11.14s4.46-11.14,10.56-11.14,10.56,4.74,10.56,11.14-4.49,11.14-10.56,11.14Zm0-17.52c-3.88,0-6.54,2.74-6.54,6.37s2.65,6.37,6.54,6.37,6.54-2.74,6.54-6.37-2.66-6.37-6.54-6.37Z"/>
    <path class="cls-1" d="m365.78,566.39v6.52h-3.85v-17.75h3.85v6.52h16.57v4.71h-16.57Z"/>
    <path class="cls-1" d="m378.55,536.85h3.79v15.77h-20.42v-15.39h3.79v10.71h4.43v-9.46h3.68v9.46h4.73v-11.09Z"/>
    <path class="cls-1" d="m380.33,534.7l-3.56-1.6c1.25-1.72,2.13-4.28,2.13-6.72,0-2.79-.93-3.93-2.19-3.93-3.82,0-1.2,11.84-8.78,11.84-3.47,0-6.36-2.79-6.36-8.58,0-2.56.61-5.18,1.81-7.07l3.59,1.46c-1.08,1.89-1.6,3.84-1.6,5.64,0,2.79,1.05,3.87,2.33,3.87,3.76,0,1.17-11.84,8.67-11.84,3.41,0,6.33,2.82,6.33,8.64,0,3.23-.96,6.49-2.36,8.29Z"/>
    <path class="cls-1" d="m378.55,498.76h3.79v15.77h-20.42v-15.39h3.79v10.71h4.43v-9.46h3.68v9.46h4.73v-11.09Z"/>
  </g>
  <g>
    <path class="cls-1" d="m528.14,964.82c-6.07,0-10.56-4.71-10.56-11.14s4.46-11.14,10.56-11.14,10.56,4.74,10.56,11.14-4.49,11.14-10.56,11.14Zm0-17.52c-3.88,0-6.54,2.74-6.54,6.37s2.65,6.37,6.54,6.37,6.54-2.74,6.54-6.37-2.66-6.37-6.54-6.37Z"/>
    <path class="cls-1" d="m538.35,926l-5.69,3.93v4.34h5.69v4.71h-20.42v-8.82c0-5.44,2.83-8.85,7.41-8.85,3.06,0,5.31,1.54,6.45,4.19l6.56-4.57v5.06Zm-16.57,4.42v3.84h7.12v-3.84c0-2.88-1.34-4.34-3.56-4.34s-3.56,1.46-3.56,4.34Z"/>
    <path class="cls-1" d="m521.78,913.37v6.52h-3.85v-17.75h3.85v6.52h16.57v4.71h-16.57Z"/>
    <path class="cls-1" d="m528.14,900.89c-6.07,0-10.56-4.71-10.56-11.14s4.46-11.14,10.56-11.14,10.56,4.74,10.56,11.14-4.49,11.14-10.56,11.14Zm0-17.52c-3.88,0-6.54,2.74-6.54,6.37s2.65,6.37,6.54,6.37,6.54-2.74,6.54-6.37-2.66-6.37-6.54-6.37Z"/>
    <path class="cls-1" d="m517.92,875.05v-9.25c0-6.66,4.03-11.23,10.21-11.23s10.21,4.57,10.21,11.23v9.25h-20.42Zm16.54-9.02c0-4.04-2.42-6.69-6.33-6.69s-6.33,2.65-6.33,6.69v4.31h12.66v-4.31Z"/>
    <path class="cls-1" d="m528.14,852.29c-6.07,0-10.56-4.71-10.56-11.14s4.46-11.14,10.56-11.14,10.56,4.74,10.56,11.14-4.49,11.14-10.56,11.14Zm0-17.52c-3.88,0-6.54,2.74-6.54,6.37s2.65,6.37,6.54,6.37,6.54-2.74,6.54-6.37-2.66-6.37-6.54-6.37Z"/>
    <path class="cls-1" d="m517.92,807.77h20.42v3.87l-12.4,10.16h12.4v4.66h-20.42v-3.9l12.4-10.13h-12.4v-4.66Z"/>
    <path class="cls-1" d="m521.78,798.72v6.52h-3.85v-17.75h3.85v6.52h16.57v4.71h-16.57Z"/>
    <path class="cls-1" d="m517.92,784.96v-4.71h20.42v4.71h-20.42Z"/>
    <path class="cls-1" d="m533.97,762v9.46l4.38,1.8v4.83l-20.42-9.08v-4.66l20.42-9.11v4.95l-4.38,1.8Zm-3.59,1.48l-7.82,3.23,7.82,3.23v-6.46Z"/>
    <path class="cls-1" d="m528.14,746.17c-6.16,0-10.56-4.71-10.56-11.06,0-3.52,1.28-6.46,3.62-8.38l2.8,3.03c-1.58,1.37-2.39,3.08-2.39,5.12,0,3.81,2.68,6.52,6.54,6.52s6.54-2.71,6.54-6.52c0-2.04-.82-3.75-2.42-5.12l2.8-3.03c2.36,1.92,3.65,4.86,3.65,8.41,0,6.31-4.41,11.03-10.56,11.03Z"/>
    <path class="cls-1" d="m528.14,724.85c-6.07,0-10.56-4.71-10.56-11.14s4.46-11.14,10.56-11.14,10.56,4.74,10.56,11.14-4.49,11.14-10.56,11.14Zm0-17.52c-3.88,0-6.54,2.74-6.54,6.37s2.65,6.37,6.54,6.37,6.54-2.74,6.54-6.37-2.66-6.37-6.54-6.37Z"/>
    <path class="cls-1" d="m538.35,680.47l-12.25.03,10.09,5.99v2.12l-9.83,5.97h11.99v4.42h-20.42v-3.9l12.69-7.62-12.69-7.51v-3.87l20.42-.06v4.42Z"/>
    <path class="cls-1" d="m525.33,653.55c4.55,0,7.38,3.4,7.38,8.85v4.1h5.63v4.71h-20.42v-8.82c0-5.44,2.83-8.85,7.41-8.85Zm0,4.77c-2.25,0-3.56,1.46-3.56,4.34v3.84h7.09v-3.84c0-2.88-1.31-4.34-3.53-4.34Z"/>
    <path class="cls-1" d="m517.92,649.92v-4.71h16.57v-10.21h3.85v14.93h-20.42Z"/>
    <path class="cls-1" d="m534.55,616.57h3.79v15.77h-20.42v-15.39h3.79v10.71h4.43v-9.46h3.68v9.46h4.73v-11.09Z"/>
    <path class="cls-1" d="m521.78,608.6v6.52h-3.85v-17.75h3.85v6.52h16.57v4.71h-16.57Z"/>
    <path class="cls-1" d="m533.97,581.42v9.46l4.38,1.8v4.83l-20.42-9.08v-4.66l20.42-9.11v4.95l-4.38,1.8Zm-3.59,1.48l-7.82,3.23,7.82,3.23v-6.46Z"/>
  </g>
  <g>
    <path class="cls-1" d="m681.6,949.29l-5.69,3.93v4.34h5.69v4.71h-20.42v-8.82c0-5.44,2.83-8.85,7.41-8.85,3.06,0,5.31,1.54,6.45,4.19l6.56-4.57v5.06Zm-16.57,4.42v3.84h7.12v-3.84c0-2.88-1.34-4.34-3.56-4.34s-3.56,1.46-3.56,4.34Z"/>
    <path class="cls-1" d="m671.39,942.16c-6.07,0-10.56-4.71-10.56-11.14s4.46-11.14,10.56-11.14,10.56,4.74,10.56,11.14-4.49,11.14-10.56,11.14Zm0-17.52c-3.88,0-6.54,2.74-6.54,6.37s2.65,6.37,6.54,6.37,6.54-2.74,6.54-6.37-2.66-6.37-6.54-6.37Z"/>
    <path class="cls-1" d="m661.18,916.32v-4.71h16.57v-10.21h3.85v14.93h-20.42Z"/>
    <path class="cls-1" d="m677.23,877.1v9.46l4.38,1.8v4.83l-20.42-9.08v-4.66l20.42-9.11v4.95l-4.38,1.8Zm-3.59,1.48l-7.82,3.23,7.82,3.23v-6.46Z"/>
    <path class="cls-1" d="m681.6,849.69l-12.25.03,10.09,5.99v2.12l-9.83,5.97h11.99v4.42h-20.42v-3.9l12.69-7.62-12.69-7.51v-3.87l20.42-.06v4.42Z"/>
    <path class="cls-1" d="m668.59,822.77c4.55,0,7.38,3.4,7.38,8.85v4.1h5.63v4.71h-20.42v-8.82c0-5.44,2.83-8.85,7.41-8.85Zm0,4.77c-2.25,0-3.56,1.46-3.56,4.34v3.84h7.09v-3.84c0-2.88-1.31-4.34-3.53-4.34Z"/>
    <path class="cls-1" d="m661.18,819.14v-4.71h16.57v-10.21h3.85v14.93h-20.42Z"/>
    <path class="cls-1" d="m661.18,801.56v-4.71h20.42v4.71h-20.42Z"/>
    <path class="cls-1" d="m671.39,793.3c-6.16,0-10.56-4.71-10.56-11.06,0-3.52,1.28-6.46,3.62-8.38l2.8,3.03c-1.58,1.37-2.39,3.08-2.39,5.12,0,3.81,2.68,6.52,6.54,6.52s6.54-2.71,6.54-6.52c0-2.04-.82-3.75-2.42-5.12l2.8-3.03c2.36,1.92,3.65,4.86,3.65,8.41,0,6.31-4.41,11.03-10.56,11.03Z"/>
    <path class="cls-1" d="m677.23,757.27v9.46l4.38,1.8v4.83l-20.42-9.08v-4.66l20.42-9.11v4.95l-4.38,1.8Zm-3.59,1.48l-7.82,3.23,7.82,3.23v-6.46Z"/>
    <path class="cls-1" d="m661.18,748.4v-9.25c0-6.66,4.03-11.23,10.21-11.23s10.21,4.57,10.21,11.23v9.25h-20.42Zm16.54-9.02c0-4.04-2.42-6.69-6.33-6.69s-6.33,2.65-6.33,6.69v4.31h12.66v-4.31Z"/>
    <path class="cls-1" d="m671.39,725.64c-6.07,0-10.56-4.71-10.56-11.14s4.46-11.14,10.56-11.14,10.56,4.74,10.56,11.14-4.49,11.14-10.56,11.14Zm0-17.52c-3.88,0-6.54,2.74-6.54,6.37s2.65,6.37,6.54,6.37,6.54-2.74,6.54-6.37-2.66-6.37-6.54-6.37Z"/>
    <path class="cls-1" d="m671.39,692.85c-6.16,0-10.56-4.71-10.56-11.06,0-3.52,1.28-6.46,3.62-8.38l2.8,3.03c-1.58,1.37-2.39,3.08-2.39,5.12,0,3.81,2.68,6.52,6.54,6.52s6.54-2.71,6.54-6.52c0-2.04-.82-3.75-2.42-5.12l2.8-3.03c2.36,1.92,3.65,4.86,3.65,8.41,0,6.31-4.41,11.03-10.56,11.03Z"/>
    <path class="cls-1" d="m671.39,671.52c-6.07,0-10.56-4.71-10.56-11.14s4.46-11.14,10.56-11.14,10.56,4.74,10.56,11.14-4.49,11.14-10.56,11.14Zm0-17.52c-3.88,0-6.54,2.74-6.54,6.37s2.65,6.37,6.54,6.37,6.54-2.74,6.54-6.37-2.66-6.37-6.54-6.37Z"/>
    <path class="cls-1" d="m681.6,627.15l-12.25.03,10.09,5.99v2.12l-9.83,5.97h11.99v4.42h-20.42v-3.9l12.69-7.62-12.69-7.51v-3.87l20.42-.06v4.42Z"/>
    <path class="cls-1" d="m661.18,609.66v-9.25c0-6.66,4.03-11.23,10.21-11.23s10.21,4.57,10.21,11.23v9.25h-20.42Zm16.54-9.02c0-4.04-2.42-6.69-6.33-6.69s-6.33,2.65-6.33,6.69v4.31h12.66v-4.31Z"/>
    <path class="cls-1" d="m671.39,586.9c-6.07,0-10.56-4.71-10.56-11.14s4.46-11.14,10.56-11.14,10.56,4.74,10.56,11.14-4.49,11.14-10.56,11.14Zm0-17.52c-3.88,0-6.54,2.74-6.54,6.37s2.65,6.37,6.54,6.37,6.54-2.74,6.54-6.37-2.66-6.37-6.54-6.37Z"/>
    <path class="cls-1" d="m671.39,562.35c-6.16,0-10.56-4.71-10.56-11.06,0-3.52,1.28-6.46,3.62-8.38l2.8,3.03c-1.58,1.37-2.39,3.08-2.39,5.12,0,3.81,2.68,6.52,6.54,6.52s6.54-2.71,6.54-6.52c0-2.04-.82-3.75-2.42-5.12l2.8-3.03c2.36,1.92,3.65,4.86,3.65,8.41,0,6.31-4.41,11.03-10.56,11.03Z"/>
    <path class="cls-1" d="m671.39,532.78c-6.07,0-10.56-4.71-10.56-11.14s4.46-11.14,10.56-11.14,10.56,4.74,10.56,11.14-4.49,11.14-10.56,11.14Zm0-17.52c-3.88,0-6.54,2.74-6.54,6.37s2.65,6.37,6.54,6.37,6.54-2.74,6.54-6.37-2.66-6.37-6.54-6.37Z"/>
    <path class="cls-1" d="m681.6,493.96l-5.69,3.93v4.34h5.69v4.71h-20.42v-8.82c0-5.44,2.83-8.85,7.41-8.85,3.06,0,5.31,1.54,6.45,4.19l6.56-4.57v5.06Zm-16.57,4.42v3.84h7.12v-3.84c0-2.88-1.34-4.34-3.56-4.34s-3.56,1.46-3.56,4.34Z"/>
    <path class="cls-1" d="m665.03,481.34v6.52h-3.85v-17.75h3.85v6.52h16.57v4.71h-16.57Z"/>
    <path class="cls-1" d="m678.98,469c-1.69,0-2.8-1.25-2.8-2.82s1.11-2.82,2.8-2.82,2.86,1.25,2.86,2.82-1.2,2.82-2.86,2.82Z"/>
  </g>
  <g>
    <path class="cls-1" d="m810.6,953.03l-5.69,3.93v4.34h5.69v4.71h-20.42v-8.82c0-5.44,2.83-8.85,7.41-8.85,3.06,0,5.31,1.54,6.45,4.19l6.56-4.57v5.06Zm-16.57,4.42v3.84h7.12v-3.84c0-2.88-1.34-4.34-3.56-4.34s-3.56,1.46-3.56,4.34Z"/>
    <path class="cls-1" d="m800.39,945.9c-6.07,0-10.56-4.71-10.56-11.14s4.46-11.14,10.56-11.14,10.56,4.74,10.56,11.14-4.49,11.14-10.56,11.14Zm0-17.52c-3.88,0-6.54,2.74-6.54,6.37s2.65,6.37,6.54,6.37,6.54-2.74,6.54-6.37-2.66-6.37-6.54-6.37Z"/>
    <path class="cls-1" d="m790.18,920.06v-4.71h16.57v-10.21h3.85v14.93h-20.42Z"/>
    <path class="cls-1" d="m806.23,880.84v9.46l4.38,1.8v4.83l-20.42-9.08v-4.66l20.42-9.11v4.95l-4.38,1.8Zm-3.59,1.48l-7.82,3.23,7.82,3.23v-6.46Z"/>
    <path class="cls-1" d="m790.18,853.28h20.42v3.87l-12.4,10.16h12.4v4.66h-20.42v-3.9l12.4-10.13h-12.4v-4.66Z"/>
    <path class="cls-1" d="m808.59,850.05l-3.56-1.6c1.25-1.72,2.13-4.28,2.13-6.72,0-2.79-.93-3.93-2.19-3.93-3.82,0-1.2,11.84-8.78,11.84-3.47,0-6.36-2.79-6.36-8.58,0-2.56.61-5.18,1.81-7.07l3.59,1.46c-1.08,1.89-1.6,3.84-1.6,5.64,0,2.79,1.05,3.87,2.33,3.87,3.76,0,1.17-11.84,8.67-11.84,3.41,0,6.33,2.82,6.33,8.64,0,3.23-.96,6.49-2.36,8.29Z"/>
    <path class="cls-1" d="m806.23,808.24v9.46l4.38,1.8v4.83l-20.42-9.08v-4.66l20.42-9.11v4.95l-4.38,1.8Zm-3.59,1.48l-7.82,3.23,7.82,3.23v-6.46Z"/>
    <path class="cls-1" d="m810.6,780.82l-12.25.03,10.09,5.99v2.12l-9.83,5.97h11.99v4.42h-20.42v-3.9l12.69-7.62-12.69-7.51v-3.87l20.42-.06v4.42Z"/>
    <path class="cls-1" d="m797.59,753.91c4.55,0,7.38,3.4,7.38,8.85v4.1h5.63v4.71h-20.42v-8.82c0-5.44,2.83-8.85,7.41-8.85Zm0,4.77c-2.25,0-3.56,1.46-3.56,4.34v3.84h7.09v-3.84c0-2.88-1.31-4.34-3.53-4.34Z"/>
    <path class="cls-1" d="m790.18,750.27v-4.71h16.57v-10.21h3.85v14.93h-20.42Z"/>
    <path class="cls-1" d="m790.18,732.7v-4.71h20.42v4.71h-20.42Z"/>
    <path class="cls-1" d="m806.23,709.74v9.46l4.38,1.8v4.83l-20.42-9.08v-4.66l20.42-9.11v4.95l-4.38,1.8Zm-3.59,1.48l-7.82,3.23,7.82,3.23v-6.46Z"/>
    <path class="cls-1" d="m790.18,700.86v-9.25c0-6.66,4.03-11.23,10.21-11.23s10.21,4.57,10.21,11.23v9.25h-20.42Zm16.54-9.02c0-4.04-2.42-6.69-6.33-6.69s-6.33,2.65-6.33,6.69v4.31h12.66v-4.31Z"/>
    <path class="cls-1" d="m800.39,678.11c-6.07,0-10.56-4.71-10.56-11.14s4.46-11.14,10.56-11.14,10.56,4.74,10.56,11.14-4.49,11.14-10.56,11.14Zm0-17.52c-3.88,0-6.54,2.74-6.54,6.37s2.65,6.37,6.54,6.37,6.54-2.74,6.54-6.37-2.66-6.37-6.54-6.37Z"/>
  </g>
  <g>
    <path class="cls-1" d="m986.5,1085.43c0,7.7-5.7,12.45-14.9,12.45h-7.9v10.1h-6.5v-35h14.4c9.2,0,14.9,4.7,14.9,12.45Zm-6.55,0c0-4.4-2.95-6.95-8.65-6.95h-7.6v13.9h7.6c5.7,0,8.65-2.55,8.65-6.95Z"/>
    <path class="cls-1" d="m991.3,1073.13c0-2.1,1.7-3.75,4-3.75s4,1.55,4,3.6c0,2.2-1.65,3.9-4,3.9s-4-1.65-4-3.75Zm.85,8.15h6.25v26.7h-6.25v-26.7Z"/>
    <path class="cls-1" d="m1034.95,1094.63c0,8.3-5.75,13.7-13.55,13.7-3.4,0-6.4-1.15-8.55-3.6v12.95h-6.25v-36.4h5.95v3.5c2.1-2.55,5.2-3.8,8.85-3.8,7.8,0,13.55,5.4,13.55,13.65Zm-6.35,0c0-5.1-3.4-8.35-7.9-8.35s-7.95,3.25-7.95,8.35,3.45,8.35,7.95,8.35,7.9-3.25,7.9-8.35Z"/>
    <path class="cls-1" d="m1065.9,1096.63h-20.95c.75,3.9,4,6.4,8.65,6.4,3,0,5.35-.95,7.25-2.9l3.35,3.85c-2.4,2.85-6.15,4.35-10.75,4.35-8.95,0-14.75-5.75-14.75-13.7s5.85-13.65,13.8-13.65,13.5,5.45,13.5,13.8c0,.5-.05,1.25-.1,1.85Zm-21-4.15h15.15c-.5-3.85-3.45-6.5-7.55-6.5s-7,2.6-7.6,6.5Z"/>
  </g>
  <g>
    <path class="cls-1" d="m1197.82,1108.75v-23.2h10.26c2.06,0,3.63.21,4.7.62s1.93,1.15,2.57,2.21c.64,1.05.96,2.22.96,3.5,0,1.65-.53,3.03-1.59,4.16-1.06,1.13-2.71,1.85-4.92,2.15.81.39,1.43.78,1.85,1.16.89.82,1.74,1.85,2.54,3.09l4.03,6.32h-3.85l-3.06-4.83c-.89-1.39-1.63-2.46-2.21-3.2s-1.1-1.26-1.55-1.55c-.46-.29-.92-.5-1.4-.62-.35-.07-.92-.11-1.71-.11h-3.55v10.3h-3.06Zm3.06-12.96h6.58c1.4,0,2.49-.14,3.28-.44.79-.29,1.39-.75,1.8-1.39.41-.64.62-1.33.62-2.08,0-1.1-.4-2-1.19-2.71-.79-.71-2.05-1.06-3.76-1.06h-7.33v7.68Z"/>
    <path class="cls-1" d="m1220.19,1097.45c0-3.85,1.03-6.87,3.09-9.05s4.73-3.27,7.99-3.27c2.14,0,4.06.51,5.78,1.54,1.71,1.02,3.02,2.45,3.92,4.28.9,1.83,1.35,3.91,1.35,6.23s-.47,4.46-1.42,6.32-2.29,3.26-4.03,4.22c-1.74.96-3.61,1.43-5.62,1.43-2.18,0-4.13-.53-5.84-1.58-1.71-1.05-3.01-2.5-3.9-4.32-.88-1.83-1.33-3.76-1.33-5.79Zm3.16.05c0,2.8.75,5,2.25,6.61s3.38,2.41,5.64,2.41,4.2-.81,5.69-2.44,2.23-3.93,2.23-6.92c0-1.89-.32-3.54-.96-4.95-.64-1.41-1.57-2.5-2.79-3.28-1.23-.78-2.6-1.16-4.13-1.16-2.17,0-4.03.75-5.6,2.24-1.56,1.49-2.34,3.99-2.34,7.48Z"/>
    <path class="cls-1" d="m1246.14,1108.75v-23.2h3.06v20.46h11.4v2.74h-14.46Z"/>
    <path class="cls-1" d="m1270.69,1108.75l8.89-23.2h3.3l9.47,23.2h-3.49l-2.7-7.03h-9.68l-2.54,7.03h-3.25Zm6.68-9.53h7.85l-2.42-6.43c-.74-1.95-1.28-3.56-1.64-4.81-.29,1.49-.71,2.96-1.25,4.43l-2.54,6.81Z"/>
    <path class="cls-1" d="m1294.76,1108.75v-23.2h3.14l12.16,18.22v-18.22h2.94v23.2h-3.14l-12.16-18.23v18.23h-2.94Z"/>
    <path class="cls-1" d="m1317.1,1101.3l2.89-.25c.14,1.16.46,2.11.96,2.86.5.74,1.28,1.35,2.33,1.8s2.24.69,3.55.69c1.17,0,2.2-.17,3.09-.52.89-.35,1.56-.83,2-1.43.44-.61.66-1.27.66-1.99s-.21-1.36-.63-1.91c-.42-.54-1.12-1-2.08-1.37-.62-.24-1.99-.62-4.12-1.13s-3.62-1-4.47-1.45c-1.11-.58-1.93-1.3-2.47-2.16-.54-.86-.81-1.82-.81-2.89,0-1.17.33-2.27.99-3.28.66-1.02,1.63-1.79,2.91-2.32,1.27-.53,2.69-.79,4.25-.79,1.72,0,3.23.28,4.54.83,1.31.55,2.32,1.37,3.02,2.45.71,1.08,1.08,2.29,1.14,3.66l-2.94.22c-.16-1.47-.69-2.57-1.6-3.32s-2.25-1.12-4.03-1.12-3.2.34-4.05,1.02c-.85.68-1.27,1.5-1.27,2.46,0,.83.3,1.52.9,2.06.59.54,2.13,1.09,4.62,1.65,2.49.56,4.2,1.06,5.12,1.48,1.35.62,2.34,1.41,2.98,2.37.64.96.96,2.05.96,3.3s-.35,2.4-1.06,3.49c-.71,1.09-1.72,1.94-3.04,2.55-1.32.61-2.81.91-4.46.91-2.09,0-3.85-.31-5.26-.92-1.42-.61-2.53-1.53-3.33-2.76-.81-1.23-1.23-2.62-1.27-4.17Z"/>
    <path class="cls-1" d="m1365.21,1100.62l3.06.78c-.64,2.52-1.8,4.45-3.47,5.77-1.67,1.32-3.71,1.99-6.12,1.99s-4.52-.51-6.09-1.53c-1.56-1.02-2.75-2.49-3.57-4.42-.82-1.93-1.22-4-1.22-6.22,0-2.42.46-4.52,1.38-6.32.92-1.8,2.23-3.17,3.93-4.1,1.7-.93,3.57-1.4,5.61-1.4,2.32,0,4.26.59,5.84,1.77s2.68,2.84,3.3,4.99l-3.02.71c-.54-1.69-1.32-2.92-2.34-3.69-1.02-.77-2.31-1.16-3.85-1.16-1.78,0-3.27.43-4.46,1.28-1.19.85-2.03,2-2.52,3.44-.48,1.44-.73,2.93-.73,4.46,0,1.97.29,3.7.86,5.17s1.47,2.57,2.68,3.3c1.21.73,2.52,1.09,3.93,1.09,1.71,0,3.17-.5,4.36-1.49,1.19-.99,2-2.46,2.42-4.42Z"/>
    <path class="cls-1" d="m1371.11,1097.45c0-3.85,1.03-6.87,3.09-9.05s4.73-3.27,7.99-3.27c2.14,0,4.06.51,5.78,1.54,1.71,1.02,3.02,2.45,3.92,4.28.9,1.83,1.35,3.91,1.35,6.23s-.47,4.46-1.42,6.32-2.29,3.26-4.03,4.22c-1.74.96-3.61,1.43-5.62,1.43-2.18,0-4.13-.53-5.84-1.58-1.71-1.05-3.01-2.5-3.9-4.32-.88-1.83-1.33-3.76-1.33-5.79Zm3.16.05c0,2.8.75,5,2.25,6.61s3.38,2.41,5.64,2.41,4.2-.81,5.69-2.44,2.23-3.93,2.23-6.92c0-1.89-.32-3.54-.96-4.95-.64-1.41-1.57-2.5-2.79-3.28-1.23-.78-2.6-1.16-4.13-1.16-2.17,0-4.03.75-5.6,2.24-1.56,1.49-2.34,3.99-2.34,7.48Z"/>
    <path class="cls-1" d="m1397.1,1108.75v-23.2h4.61l5.48,16.43c.51,1.53.87,2.67,1.11,3.43.26-.84.67-2.08,1.23-3.72l5.54-16.14h4.12v23.2h-2.95v-19.42l-6.72,19.42h-2.76l-6.69-19.75v19.75h-2.95Z"/>
    <path class="cls-1" d="m1433.26,1108.75v-23.2h15.61v2.74h-12.55v7.19h10.86v2.74h-10.86v10.54h-3.06Z"/>
    <path class="cls-1" d="m1452.9,1108.75v-23.2h10.26c2.06,0,3.63.21,4.7.62s1.93,1.15,2.57,2.21c.64,1.05.96,2.22.96,3.5,0,1.65-.53,3.03-1.59,4.16-1.06,1.13-2.71,1.85-4.92,2.15.81.39,1.43.78,1.85,1.16.89.82,1.74,1.85,2.54,3.09l4.03,6.32h-3.85l-3.06-4.83c-.89-1.39-1.63-2.46-2.21-3.2s-1.1-1.26-1.55-1.55c-.46-.29-.92-.5-1.4-.62-.35-.07-.92-.11-1.71-.11h-3.55v10.3h-3.06Zm3.06-12.96h6.58c1.4,0,2.49-.14,3.28-.44.79-.29,1.39-.75,1.8-1.39.41-.64.62-1.33.62-2.08,0-1.1-.4-2-1.19-2.71-.79-.71-2.05-1.06-3.76-1.06h-7.33v7.68Z"/>
    <path class="cls-1" d="m1473.66,1108.75l8.89-23.2h3.3l9.47,23.2h-3.49l-2.7-7.03h-9.68l-2.54,7.03h-3.25Zm6.68-9.53h7.85l-2.42-6.43c-.74-1.95-1.28-3.56-1.64-4.81-.29,1.49-.71,2.96-1.25,4.43l-2.54,6.81Z"/>
    <path class="cls-1" d="m1497.74,1108.75v-23.2h3.14l12.16,18.22v-18.22h2.94v23.2h-3.14l-12.16-18.23v18.23h-2.94Z"/>
    <path class="cls-1" d="m1538.66,1106.27c1.42.98,2.73,1.7,3.93,2.15l-.9,2.14c-1.66-.6-3.32-1.55-4.97-2.85-1.72.96-3.61,1.44-5.68,1.44s-3.99-.51-5.7-1.52c-1.7-1.01-3.02-2.44-3.94-4.27s-1.38-3.9-1.38-6.2.46-4.37,1.39-6.25,2.24-3.31,3.96-4.29c1.71-.98,3.62-1.47,5.74-1.47s4.06.51,5.78,1.53c1.71,1.02,3.02,2.44,3.92,4.27.9,1.83,1.35,3.9,1.35,6.2,0,1.91-.29,3.63-.87,5.15-.58,1.53-1.45,2.85-2.62,3.98Zm-6.74-3.92c1.77.5,3.23,1.23,4.37,2.22,1.8-1.65,2.7-4.12,2.7-7.42,0-1.88-.32-3.52-.96-4.92s-1.57-2.49-2.79-3.27c-1.23-.78-2.6-1.16-4.13-1.16-2.28,0-4.18.78-5.68,2.35-1.5,1.57-2.26,3.91-2.26,7.02s.74,5.33,2.23,6.95,3.39,2.42,5.71,2.42c1.09,0,2.13-.21,3.09-.62-.96-.62-1.97-1.07-3.03-1.33l.74-2.23Z"/>
    <path class="cls-1" d="m1561.46,1085.55h3.06v13.41c0,2.33-.26,4.18-.79,5.56-.53,1.37-1.48,2.49-2.85,3.35-1.37.86-3.18,1.29-5.41,1.29s-3.94-.37-5.32-1.12c-1.38-.75-2.36-1.83-2.95-3.25-.59-1.42-.88-3.36-.88-5.82v-13.41h3.06v13.39c0,2.02.19,3.5.56,4.46.37.96,1.02,1.69,1.93,2.21.91.52,2.02.78,3.34.78,2.25,0,3.86-.51,4.82-1.54.96-1.02,1.44-2.99,1.44-5.9v-13.39Z"/>
    <path class="cls-1" d="m1570.14,1108.75v-23.2h3.06v23.2h-3.06Z"/>
    <path class="cls-1" d="m1576.06,1108.75l8.89-23.2h3.3l9.47,23.2h-3.49l-2.7-7.03h-9.68l-2.54,7.03h-3.25Zm6.68-9.53h7.85l-2.42-6.43c-.74-1.95-1.28-3.56-1.64-4.81-.29,1.49-.71,2.96-1.25,4.43l-2.54,6.81Z"/>
  </g>
</svg>